<?xml version="1.0" standalone="no"?>
<!DOCTYPE svg PUBLIC "-//W3C//DTD SVG 1.1//EN" "http://www.w3.org/Graphics/SVG/1.1/DTD/svg11.dtd" >
<svg xmlns="http://www.w3.org/2000/svg" xmlns:xlink="http://www.w3.org/1999/xlink" version="1.1">
<metadata></metadata>
<defs>
<font id="lbel_scriptregular" horiz-adv-x="835" >
<font-face units-per-em="2048" ascent="1638" descent="-410" />
<missing-glyph horiz-adv-x="522" />
<glyph horiz-adv-x="0" />
<glyph horiz-adv-x="682" />
<glyph unicode="&#xd;" horiz-adv-x="522" />
<glyph unicode=" "  horiz-adv-x="522" />
<glyph unicode="&#x09;" horiz-adv-x="522" />
<glyph unicode="&#xa0;" horiz-adv-x="522" />
<glyph unicode="!" horiz-adv-x="403" d="M23 18q46 -39 60.5 -66t2.5 -77q-9 -19 -30.5 -56.5t-26.5 -47.5q-5 -2 -12.5 -10.5t-12.5 -10.5q-7 -3 -28 -0.5t-33 0.5q-18 14 -24 30t-1 48q8 34 16 49q9 55 41 105q1 11 6.5 25t6.5 18q0 2 2 4t2 4q6 0 15 -7.5t16 -7.5zM590 1468q15 -3 55 -2.5t65.5 -9t34.5 -39.5 q-1 -6 -1 -19t-1 -20q-6 -27 -17 -59.5t-20.5 -55.5t-26.5 -62t-26 -60q-12 -25 -31 -70t-36.5 -82t-36.5 -69q-7 -46 -27 -72q-3 -19 -9 -33.5t-18.5 -33.5t-15.5 -25q-6 -17 -15.5 -38t-34.5 -74t-52 -112q-8 -35 -37 -92q-3 -5 -9.5 -20.5t-12.5 -26.5t-13 -18 q-13 -44 -38.5 -58t-49 7t-31.5 67q-1 8 1 24.5t1 24.5q5 16 20.5 42t20.5 40q1 3 19 56q4 12 22 47q13 50 21.5 76t17.5 46.5t13 30.5q2 6 8.5 17.5t9.5 19.5q2 16 8 32t20 43.5t19 37.5q43 85 101 250t81 219q3 50 21 71z" />
<glyph unicode="&#x22;" horiz-adv-x="524" d="M567 1225q2 -16 -24.5 -86t-28.5 -84q-16 -13 -27 -51q-32 -75 -61 -119q-20 -24 -25 -39q-9 -36 4 -68t37 -37q22 -5 52 33.5t50 80.5t25 63q28 31 58.5 100t52.5 96q7 18 6.5 47.5t1.5 44.5q0 6 3 15.5t3 15.5q-6 31 -20 39q-6 4 -45 6.5t-51 7.5q-9 0 -19 -6t-10 -14 q0 -9 8.5 -21t9.5 -24zM311 1257q25 25 27 48q2 19 -8 56q-2 10 1 10q5 0 27 -15q10 0 20 -3.5t22 -10t18 -9.5q24 -9 35 -22q30 -30 30 -56q8 -61 -43 -143q-9 -16 -44 -86t-52 -90q-56 -64 -96 -80q-20 -11 -43.5 -8t-24.5 24q0 10 10.5 30.5t12.5 27.5q3 13 10.5 44.5 t11.5 47.5t13 40t20 44q5 18 29 69t24 82z" />
<glyph unicode="#" horiz-adv-x="1150" d="M600 463q-15 -3 -31 -3.5t-37.5 0.5t-29.5 1q-7 0 -21.5 1t-23.5 0.5t-15 -3.5q-6 -5 -9 -17.5t-5 -15.5q-1 -2 -15 -40.5t-26 -73.5t-12 -40q7 -4 15.5 -4.5t19.5 1t16 1.5q14 0 74 -5t67 1q0 2 1 3t2.5 1.5t2.5 1.5q9 18 17 39t17 48t14 40q19 43 16 64q-4 4 -10.5 4 t-14.5 -2t-12 -2zM522 635q7 -16 89 -18t89 8q0 14 14.5 42t16.5 40q8 12 25 59.5t36 102t40 106.5t41.5 80.5t35.5 15.5q6 -5 34.5 -16.5t35.5 -28.5q1 -16 -4.5 -40t-5.5 -38q-18 -35 -39.5 -98t-30.5 -84q-4 -10 -13.5 -31t-15 -36.5t-8.5 -32.5q-12 -24 -12 -39 q4 -13 24 -13q10 0 88.5 -4t88.5 2q10 1 25.5 8t23.5 7q5 -1 12 -6.5t10 -6.5q24 -21 31 -47q16 -19 25 -59q8 -24 6 -35q-1 -4 -7.5 -12t-9.5 -10q-6 -2 -12 0t-15 7t-16 7q-3 3 -22 8q-26 3 -77 1t-77 1q-138 0 -170 -18q-7 -4 -12 -14.5t-10 -26.5t-8 -23 q0 -13 -10 -37.5t-11 -36.5q-11 -21 -14 -51q4 -10 28 -14q7 -1 29 -2t31 -6q19 3 25 3.5t24.5 -2.5t23.5 -3q2 -2 21 -15q29 -29 51 -84q6 -13 8.5 -37t-2.5 -47q-9 -8 -32 -4q-5 1 -14 7t-13 6q-46 9 -121.5 9t-118.5 -9q-4 -4 -7 -10.5t-6 -16t-5 -14.5q-8 -16 -8 -23 q-22 -39 -54 -145l-24 -58q0 -12 -4 -36q-5 -34 -10 -39q-16 -15 -39 -5t-33 31q-3 10 -19.5 33.5t-15.5 44.5q0 25 30.5 108t33.5 97q10 20 10 31q-29 19 -90.5 13.5t-96.5 -20.5q-16 -5 -20 -8q-8 -8 -15 -28.5t-16 -28.5q0 -15 -2 -25q-16 -24 -33 -72.5t-22 -58.5 l-10 -20q-7 -60 -37 -57q-27 2 -51 45q-11 19 -15 38q0 17 3 34.5t10 38.5t11 31.5t15 35.5t12 28q3 12 15 49q-4 9 -10.5 10.5t-16.5 -1t-14 -2.5q-53 -5 -80.5 23t-27.5 69t7 82v17.5t5 23.5q5 0 15.5 -10.5t16.5 -12.5q35 -6 91.5 -10t76.5 0q40 36 76 170q4 17 3.5 25.5 t-12.5 12.5t-22.5 4.5t-26.5 1t-24 1.5q-6 1 -30 7.5t-44.5 11t-27.5 3.5q-31 72 -13 154q5 1 15 -4l12 -6l8 -4q79 -8 185 -8q30 0 40 6q7 6 12.5 20.5t8.5 18.5q4 4 4 6q10 43 46 114t46 99q11 22 21.5 68.5t13.5 54.5q1 7 -1 15t-1 15q-3 5 4 8q1 1 2 1q18 25 60 24.5 t57 -29.5q15 -25 9 -61.5t-17.5 -66t-28.5 -56.5q0 -20 -20 -78q-28 -45 -39 -90q-4 -4 -4 -12q0 -2 -7 -16q-1 -2 -3 -7.5t-3 -10.5t0 -9z" />
<glyph unicode="$" horiz-adv-x="778" d="M635 221q15 15 -10 35q-19 24 -45.5 44t-65 44t-53.5 35h-2q-4 -2 -7 -7t-5.5 -14.5t-4.5 -13.5q-12 -14 -22 -50t-10 -56q0 -4 1 -10.5t1 -10.5q32 -14 118 -14q20 0 39 1.5t23.5 2t15.5 -1.5q3 4 27 16zM432 780q-7 -6 -30.5 -11.5t-53.5 -18t-53 -35.5q-17 -5 -28 -26 t-3 -36q14 -19 50 -47.5t46 -38.5q3 -3 9 -6.5t8 -5.5q20 -14 36 22t28.5 92t17.5 66q-2 10 3.5 20t6.5 15q-5 5 -37 10zM743 1303q4 -31 2 -37q0 -17 -16 -44.5t-16 -41.5q-25 -34 -37.5 -86t-22.5 -70q-4 -16 -4 -23q-1 -5 -3.5 -10t-2.5 -8q2 -12 19 -12q2 0 7.5 2t8.5 2 q12 2 38 2t42 2h73h15q14 -10 36 -54t30.5 -89.5t-17.5 -69.5q-10 -3 -14 -2.5t-17.5 5t-21.5 5.5q-108 19 -203 19q-24 0 -33 -9q-9 -3 -14 -22q-10 -32 -45.5 -104.5t-46.5 -106.5q-1 -1 -5.5 -7t-5.5 -9q0 -17 -8 -37q1 -7 9.5 -11.5t9.5 -7.5q3 -3 10 -7.5t10 -6.5 q1 0 2.5 -2.5t3.5 -3.5q7 0 9 -4q15 -13 47 -37.5t52 -43t30 -38.5q2 -17 16.5 -45.5t17.5 -40.5q1 -7 0 -11t0 -6q14 -16 9.5 -65.5t-0.5 -65.5q-10 -22 -24.5 -36t-35.5 -20t-35 -8t-42 -2t-38 -1q-81 -11 -186 -4q-8 -6 -14 -16.5t-12.5 -26.5t-10.5 -23 q-14 -86 -51 -194q-1 -9 -11 -51t-17.5 -79.5t-4.5 -48.5q0 -1 1 -6.5t1 -11.5t-2 -10q4 -13 -12 -29q-3 -2 -12.5 0t-10.5 6q-1 1 -6 4t-8 4q0 1 -4 5q-1 2 -2.5 4t-2.5 3.5t-1 2.5q-1 3 -10 18q0 4 -4 11t-5 10l-6 16q-1 2 -5.5 12.5t-6.5 19t0 15.5q2 17 17 50t18 44 q9 13 22 69t19 69q0 5 1.5 10t0.5 8l10 25q1 8 5 20t5 16t4.5 14.5t4.5 18.5l4 6q3 7 4 15q-4 12 -2 18q-4 4 -9.5 5.5t-12 1.5t-9.5 1t-23.5 12t-29.5 11q-22 0 -46 9t-53.5 24.5t-38.5 19.5q-7 13 -20 25q0 6 -6 18t-8 19q0 46 10 98q0 11 4 39q1 3 3 7.5t3.5 7t3.5 5.5 t4 4.5t4 1.5q5 0 9 -4t7.5 -11.5t6.5 -10.5q21 -24 87.5 -49t76.5 -31q42 -14 59 -14q2 -2 5.5 -3.5t6 -2.5t3.5 -3q4 1 8.5 0.5t9 0t6.5 3.5l4 17q0 2 1 4.5t1 3.5q1 1 2 4.5t2 5.5q0 4 9.5 38t20 70t11.5 38q0 1 5 8.5t4 8.5t-3 7q-21 20 -54.5 45.5t-49.5 40.5 t-33.5 41.5t-22.5 65.5t-1 96q1 7 5.5 18.5t4.5 16.5q3 6 8 26q4 4 11 18t14 17q2 14 11 27t18.5 22t27.5 19t28.5 15t30.5 13.5t25 10.5q20 0 52.5 7.5t45.5 8.5q5 1 19 4t22 6q8 13 17 49t18 50q2 17 7 35.5t13 39.5t11 33q0 2 2 4q26 40 47 136q9 15 23.5 19t24.5 2 t31 -10.5t27 -10.5z" />
<glyph unicode="%" horiz-adv-x="1032" d="M791 242q-7 -18 -46.5 -76t-39.5 -96q-2 -9 -13 -25v-12q-1 -2 -5 -9t-5 -9.5t-2.5 -9.5t2.5 -9q14 -24 33 -16q22 9 52 70.5t30 82.5q2 3 6 15t6 14q23 45 27 90q3 29 -12 22q-12 -5 -33 -32zM354 1063q-5 -3 -12.5 -10t-14.5 -12t-16 -9q-3 -14 -11 -23.5t-19.5 -18.5 t-16.5 -15q-35 -60 -53 -113q0 -9 -10 -24v-13q-7 -18 0 -34q7 -1 9.5 -0.5t6.5 3t6 3.5l82 71q5 9 13.5 22.5t15.5 27.5l2 2q3 2 4 4q3 6 12 12q1 13 10.5 57t6.5 70q-7 -3 -15 0zM733 -137q-37 -13 -81.5 17t-55.5 67q-6 17 -7 37t1 47.5t2 38.5q11 45 45.5 111t44.5 95 l14 25q1 3 7 11t8 12l30 51q1 1 8.5 10.5t10.5 9.5q7 14 14 19t13.5 6.5t9.5 3.5h4q6 6 40 -1t66.5 -25.5t32.5 -39.5q0 -51 -14.5 -107t-45 -135t-36.5 -98q1 -6 0.5 -8.5t-3 -7t-3.5 -6.5q-6 -36 -39 -77t-66 -56zM195 625q-73 60 -97 131q-2 10 -2 39q-1 6 -5.5 20 t-4.5 21q0 8 5 22t5 23q4 13 14.5 36.5t14.5 38.5q8 23 18 31q5 18 39 74q3 3 6 7q5 6 7 7q3 3 14 25q13 23 31 39.5t32.5 23.5t28 18t18.5 27h5q6 1 8.5 0.5t10.5 -4t13 -4.5q17 0 21 -2q11 -3 26 -14q24 -8 35 -12.5t24 -17t19 -30.5q0 -6 -7 -16t-9 -16 q-5 -63 -26 -143.5t-48 -131.5q0 -2 -14 -32t-17 -33q-2 -3 -11 -9.5t-11 -9.5q-11 -8 -22 -24t-29 -23q-14 -8 -23.5 -19.5t-14 -19t-17.5 -14t-37 -8.5zM887 1268q6 -2 16.5 -1.5t16.5 -0.5t18.5 -8t17.5 -9q29 -10 35 -14q41 -25 33 -76q-3 -13 -16.5 -29.5t-16.5 -21.5 q0 -4 -2 -6q-8 -11 -43.5 -42.5t-44.5 -53.5q-21 -18 -88.5 -115.5t-67.5 -108.5q-11 -22 -34.5 -59t-32.5 -55q-5 -8 -14.5 -27t-15.5 -30t-16.5 -24t-21.5 -20l-10 -18q-2 -4 -10.5 -15t-11.5 -18q-13 -13 -36.5 -60.5t-49.5 -72.5q-4 -9 -13 -21.5t-12 -19.5 q-2 -4 -3 -13.5t-3 -13.5q-5 -11 -39.5 -66t-40.5 -61q-9 -30 -37 -61q-2 -14 -20 -41q-5 -7 -33 -72q-63 -96 -84 -149l-8 -17q-2 -8 3 -34.5t-1 -36.5q-3 -7 -13 -14t-18 -7q-47 0 -84 123q0 2 -5 17t-5.5 19.5t-2.5 17.5t-0.5 20.5t5 19t10.5 21.5l23 33q21 30 57 87.5 t51 80.5q21 43 69.5 118.5t71.5 120.5q4 6 11 16t13 18t11 13q26 50 56 103q20 25 54.5 105.5t65.5 109.5q22 43 80.5 132t69.5 107q5 8 15.5 31t21 38t24.5 21q10 18 31 48.5t29 44.5q3 5 8 19t12.5 21t24.5 7z" />
<glyph unicode="&#x26;" horiz-adv-x="923" d="M348 248q0 1 -2 18t-4 25q-1 3 -2 9.5t-2 10t-2.5 7.5t-4.5 5.5t-7 0.5q-1 -2 -4 -4t-3 -3q-6 -3 -11.5 -13t-8.5 -13q-19 -19 -53 -75t-62 -75q-4 -17 -17 -42.5t-22.5 -43t-14.5 -44t7 -44.5q43 -19 88.5 -13t77.5 26q6 6 24.5 12.5t26.5 17.5q15 15 17 29v33 q-5 28 -8.5 87t-12.5 89zM682 750q-3 -3 -10.5 -14t-12.5 -17q-56 -76 -92 -115q-8 -12 -14 -18q-26 -19 -27 -21q-7 -6 -15 -16t-18 -24t-14 -19q-2 -4 -7.5 -10t-6.5 -9q-14 -37 -14 -84q1 -32 7.5 -120t6.5 -133q0 -21 10 -41q15 1 49 26q17 12 35.5 28t31 28.5 t31.5 32.5t29 30l13 12q6 13 37.5 51t31.5 48q18 18 45 55t43 53q6 6 14.5 24t18 31t20.5 13q7 1 13 -6t14 -21q12 -17 15.5 -23.5t7 -20.5t4.5 -36q0 -73 -10 -90q-1 -7 -9 -19.5t-10 -17.5q-1 -2 -4.5 -8t-5.5 -8q-18 -18 -37.5 -39.5t-42.5 -48t-35 -39.5 q-21 -23 -53 -61t-50 -58.5t-46 -44.5t-58 -39q-13 -18 -42.5 -47.5t-41.5 -44.5q-4 -59 0 -84q0 -3 2.5 -11t1.5 -12q2 -7 4.5 -21.5t4.5 -21.5q1 -8 20 -71q9 -46 4 -72q-4 -2 -9 -8.5t-9 -7.5q-21 -5 -43 28q-18 18 -41 56q-20 49 -25 88q-3 10 -5.5 30t-6 33t-10.5 19 q-12 -3 -31.5 -15.5t-28.5 -15.5q-20 3 -57.5 -5.5t-63.5 -2.5q-15 2 -61 32q-25 18 -58.5 67.5t-33.5 70.5q-2 4 -2 16q0 4 -3 20t-3 25q0 56 10 98q3 8 8 30t8 30q1 2 4.5 8.5t3.5 9.5q4 12 18.5 37.5t16.5 38.5q21 31 57 97t46 83q9 22 18 31q8 16 19 27q8 8 20 24 q0 4 2 6l6 13q3 4 14 15t15 19l18 31l15 29q7 62 3 112.5t-0.5 115t21.5 110.5q1 11 15 47q4 14 10 29.5t10.5 24.5t14 27t12.5 23q4 8 17.5 22t14.5 15q27 22 35 23q2 3 6 9.5t8 10t9 4.5q7 1 13 -7.5t11.5 -21t8.5 -16.5q1 -9 8 -35t6 -43q-1 -3 -4 -10t-4 -12 q-8 -16 -8 -25q-3 -5 -11.5 -12t-11.5 -12q-2 -2 -4 -7.5t-4 -7.5q-20 -28 -25 -59q-14 -53 -16 -98q0 -2 -1 -10.5t-0.5 -15t3.5 -11.5q24 12 78 74.5t75 68.5q12 18 21 27q7 15 24.5 40t32.5 47t27.5 47t10 49t-22.5 44q-11 13 -31.5 22.5t-38 13t-43.5 8.5t-35 7 q-39 8 -48 44.5t3.5 73t30.5 54.5q7 7 17.5 -1.5t24 -23.5t23.5 -20q4 -1 26.5 -8.5t30.5 -10.5t24 -10t27 -14t21 -16q19 -16 34.5 -40.5t23 -41.5t20 -49.5t17.5 -44.5q-1 -19 -1 -56t-2.5 -64.5t-9.5 -49.5t-66.5 -117.5t-76.5 -105.5z" />
<glyph unicode="'" horiz-adv-x="425" d="M461 1202l37 -10q4 -2 6.5 -5.5t7 -11t6.5 -10.5q1 -2 3.5 -6.5t3.5 -7t2 -6.5t0 -8.5t-3 -10.5q-1 -1 -3 -4t-3 -6q0 -14 -14 -41.5t-25 -38.5q-1 -2 -11.5 -25.5t-12.5 -39.5q-6 -7 -29 -53q-18 -26 -44 -79t-32 -63q-8 -14 -20 -45q0 -11 -15 -33q-8 -22 -25.5 -57 t-23.5 -51q-2 -4 -7.5 -15.5t-9.5 -19t-11.5 -15t-16.5 -8.5q-13 -3 -31 13.5t-30 32.5v12q-1 9 -5 30.5t-5 31.5t-1 26.5t5.5 29.5t15.5 27q4 8 15 24.5t16 24.5l14 29q3 7 13 26.5t14 30.5q22 47 55 135t49 125l29 62q0 5 1.5 17t0.5 20q0 39 51 -2q30 -24 33 -25z" />
<glyph unicode="(" horiz-adv-x="522" d="M745 1397q19 -13 36 -31.5t20 -34.5q-4 -22 -13 -34t-26 -25q-23 -18 -67.5 -50.5t-61.5 -45.5q-52 -34 -134 -127t-87 -138q-4 -8 -12.5 -22t-10.5 -17q0 -12 -2 -14q-57 -97 -72 -127q-1 -3 -6.5 -16t-11.5 -19q-2 -25 -20 -76.5t-21 -66.5q-7 -32 -39 -227 q-16 -27 -17.5 -99.5t5 -160t6.5 -95.5q0 -11 -3 -33.5t-3 -35.5q1 -5 8 -36.5t11 -59.5t4 -57.5t-14 -42.5t-42 -3q-28 -19 -55 12q-7 5 -12.5 10.5t-10 14.5l-6.5 13t-5.5 16t-4.5 14q-2 9 -10 28t-11 31q-6 27 -6 84q0 76 8 117q4 26 7.5 73t5.5 66q0 8 3 23t3 22l10 103 q4 42 8 59q1 9 6.5 26.5t6.5 26.5l18 86q3 46 16 82q4 22 11 35q1 4 4 21t4 22t4.5 19t6 22t7 19t10.5 20q2 9 5.5 19.5t9 24.5t8.5 22q3 10 16 45l27 59q4 7 25 47.5t30 63.5q1 1 2.5 4t3.5 4q2 3 80 104q36 36 72 86q4 5 15.5 12.5t15.5 12.5q13 13 41 38t43 40 q56 38 75 47q34 34 49.5 34.5t36.5 -34.5z" />
<glyph unicode=")" horiz-adv-x="589" d="M563 702q5 -19 -5 -47.5t-11 -36.5q-1 -5 -1 -15t-1 -15q-15 -52 -50 -137t-42 -105q7 -18 -6 -53.5t-37 -80t-27 -50.5q-5 -34 -18.5 -55.5t-35 -42.5t-32.5 -37q-2 -8 -18 -41q-11 -32 -58.5 -99.5t-77.5 -97.5q-3 -4 -6.5 -9t-8.5 -12t-9 -12l-4 -12q0 -1 -2 -2t-2 -2 q-7 -14 -32 -53.5t-32 -44.5q-33 3 -47 -2q-34 15 -39 45q-2 35 -18 110q-2 26 10 62q2 6 2 18q3 4 33 41q8 13 58.5 87.5t55.5 78.5q32 66 58 92v8q27 35 84 152q1 18 22 59q0 8 2 15.5t3.5 12.5t5.5 12t5.5 9.5t6.5 9.5t6 9q39 76 84.5 231t52.5 174q29 71 38.5 188 t-9.5 191q0 4 1 11.5t1 11.5q0 78 10 93q11 16 37 3q12 -8 20.5 -16.5t15 -20t10 -18.5t9.5 -24t8 -23l5 -2q0 -13 6 -31q16 -67 16 -72q1 -4 -2 -14t-2 -15q0 -12 6 -44.5t-2 -47.5q18 -42 13.5 -94t-17.5 -91.5t-24.5 -82t-8.5 -66.5z" />
<glyph unicode="*" horiz-adv-x="583" d="M539 1120q22 10 46 14.5t33 8.5q21 8 27.5 7t13.5 -9q13 -17 13 -29q0 -30 -21 -47q-6 -7 -33 -29l-22 -22q-39 -23 -39 -43q0 -1 21.5 -15t47.5 -30l25 -17q3 -2 9.5 -9.5t9.5 -10.5l6 -6q6 -6 8.5 -12.5t-0.5 -14.5q0 -15 -14 -20q-4 -3 -23 -7t-26 -4 q-21 -4 -67.5 -4.5t-70.5 -5.5q-3 -20 6 -41q5 -27 15 -43q9 -23 12 -43q3 -6 7.5 -14.5t7 -15t4.5 -15.5l1 -19q2 -18 1 -26q-1 -3 -3.5 -8t-5 -8t-2.5 -4q-14 -7 -30 -7q-14 0 -33 15q-9 9 -16 19t-10 16l-3 6q-2 5 -5 12t-4.5 11.5t-5 9t-7.5 6.5q-4 -1 -8 -5t-8 -11.5 t-7 -10.5q-16 -36 -16 -59q-7 -22 -15 -27q-15 -10 -33 0t-30 25q-24 55 -12 137q-4 2 -8 0t-11 -8t-8 -7q-12 -12 -28 -23t-35 -22t-29 -18q-1 -10 -14 -10.5t-17 6.5q-10 10 -4 49q7 36 33 64.5t61.5 56t50.5 47.5q1 2 5 6t4 10q-1 5 -2.5 8t-4.5 5t-5.5 3t-6.5 2.5 t-6 2.5q-25 18 -33 43q-15 64 4 102q4 0 5.5 -5t2.5 -12.5t3 -10.5q13 -13 30.5 -24t38 -16t33.5 7q1 18 -2 39.5t-8.5 49t-7.5 38.5q-18 53 -7 121q3 1 5.5 -1t5.5 -6.5t4 -5.5q25 -20 47 -67.5t31 -59.5q8 3 12 19q2 4 3.5 8.5t3.5 11t3 10.5q3 7 11.5 26t13 31.5 t6.5 24.5q3 16 -2 36.5t-6 27.5q3 1 5 5.5t3 4.5q13 0 29 -12q1 -1 4 -3.5t5 -4.5t3 -4l6 -9l16 -8q6 -8 5 -64.5t8 -58.5z" />
<glyph unicode="+" horiz-adv-x="690" d="M530 545q5 -12 37 -17q57 3 90.5 -12.5t79.5 -58.5q1 -4 6 -14t8.5 -20t2.5 -20q0 -7 -4.5 -17.5t-10.5 -14.5q-13 -13 -41 4q-18 -2 -64.5 6.5t-82.5 1.5q-10 -2 -48.5 -4.5t-56.5 -9.5q-14 -8 -25 -39t-26 -37q0 -15 -9 -40.5t-11 -31.5q-14 -41 -19 -53 q0 -25 -20.5 -72t-38.5 -67q-8 0 -15 1.5t-13.5 6t-9.5 7t-10.5 10.5t-8.5 9q-12 25 -16.5 40t-9 48t4.5 64q4 26 24.5 69t24.5 60q-3 17 -26.5 25.5t-28.5 13.5q-32 0 -49 12q-24 24 -41 72q0 6 -8 22q-9 41 -4 70q6 1 8 0.5t6.5 -7t5.5 -7.5q2 -2 9.5 -10.5t13 -12.5 t12.5 -8q15 -8 34 -9.5t32.5 1.5t34 8t30.5 6q5 1 21 -0.5t20 0.5q7 3 40.5 76.5t33.5 85.5q3 19 -2 47q7 22 49 45q10 6 24.5 0t22.5 -20q23 -7 44 -26t21 -40q2 -13 -2 -35.5t-4 -34.5q-31 -39 -35 -73z" />
<glyph unicode="," horiz-adv-x="524" d="M283 272q35 -16 71 -47t43 -61q0 -9 -12 -55q-6 -24 -12.5 -44t-16.5 -42t-16.5 -35t-21 -40.5t-21.5 -41.5l-10 -29q-3 -4 -16 -26.5t-21 -28.5q-20 -24 -58.5 -63.5t-68 -74t-49.5 -69.5q-21 -41 -37 -43q-7 -2 -20.5 6.5t-16.5 20.5q-6 10 -6 39q0 17 1.5 29.5 t6.5 25.5t7.5 18t13 22t14.5 23q1 2 5.5 12.5t10.5 16.5q3 7 11 20.5t10 22.5l32 78l13 31q66 146 67 149q2 8 10 29t13 39t6 32q10 56 23 74.5t45 11.5z" />
<glyph unicode="-" horiz-adv-x="524" d="M199 569q24 -4 65 3.5t74.5 17t68.5 7.5t54 -24l2 -2q22 -3 41.5 -29t15.5 -46q-3 -18 -22 -29q0 -3 -14 -1l-15 1q-41 0 -53 4q-25 -3 -79.5 -17.5t-82.5 -17.5q-14 -2 -43 -2q-47 0 -59 4l-10 1q-11 1 -13.5 1.5t-9.5 3t-11 6t-6 9.5q0 22 3.5 40t13 36.5t30 28 t50.5 5.5z" />
<glyph unicode="." horiz-adv-x="536" d="M70 4v33q0 3 -1 22t2.5 34.5t14.5 25.5q27 18 70.5 16.5t70.5 -16.5q7 -3 26 -3t23 -1q31 -28 33 -47q7 -33 -53 -93q-3 -3 -11 -12t-12.5 -13t-13.5 -9.5t-18 -8.5q-18 -26 -32 -37t-23 -11.5t-29 -1t-39 -5.5q-21 14 -29.5 21.5t-8.5 16.5t4.5 16.5t12.5 28t13 44.5z " />
<glyph unicode="/" horiz-adv-x="493" d="M-170 -573q-29 -7 -46.5 17t-21.5 54q-2 25 3 48.5t10 34.5t18 38q73 153 141 303q15 40 51 123.5t52 128.5q4 8 11.5 24.5t10.5 22.5q0 1 2 3t2 3q4 13 10 27.5t15 32.5t12 26q12 31 35 78l41 90q5 11 26.5 53t30.5 66l13 33q15 20 16 26q5 11 19 44t22 49q16 23 21 36 l28 56q6 22 22.5 50.5t31.5 43.5q24 24 43 60.5t38 83.5t31 69q9 26 23 55.5t24.5 49.5t29 53.5t26.5 48.5l28 59q4 9 10.5 23.5t11 24.5t5.5 16q0 6 -1.5 21t-1.5 25.5t1.5 22t8.5 17.5t19 6q44 0 85 -40t38 -83q-2 -20 -18 -61l-35 -76q-66 -122 -78 -158 q-84 -173 -102 -203q-7 -17 -24 -46.5t-23 -43.5q0 -8 -18 -42t-40.5 -74.5l-27.5 -49.5q0 -4 -18 -36.5t-42 -74t-24 -42.5q-22 -36 -35 -72q-6 -10 -15.5 -29t-13.5 -26q-7 -13 -41.5 -80.5t-65.5 -127.5t-36 -65q-11 -13 -23 -35t-12 -34q-10 -25 -32 -69l-29 -58 q-16 -52 -43.5 -106.5t-63 -116t-53.5 -97.5q-24 -29 -50.5 -96.5t-31.5 -103.5z" />
<glyph unicode="0" horiz-adv-x="806" d="M565 1161q-3 -26 -34 -75t-58 -80q-5 -29 -24 -64q-58 -138 -76 -215q-2 -10 -22 -64.5t-23 -78.5q-4 -16 -4 -19q-32 -104 -37 -116q0 -17 -4 -17q-7 -59 -23 -98q-4 -8 -7 -16.5t-5 -18.5t-4 -16q-1 -16 -12 -40.5t-13 -35.5q-10 -28 -16.5 -70.5t-3.5 -66.5 q-1 -3 -3.5 -13t-3.5 -15t-1 -15t2 -19q22 -7 22 15q21 10 46.5 35t35.5 32q28 44 81 116t79 111q12 21 45 95q7 23 18 46t26.5 52t22.5 43q7 24 23 65.5t20 55.5q0 11 3.5 27t9 33t6.5 22q7 15 16 49q-2 15 4 33q5 39 19 86q12 135 0 176q0 5 -6.5 13t-8.5 13 q-4 4 -9.5 13.5t-8.5 11.5q-12 6 -36.5 10.5t-29.5 5.5zM575 1360q5 2 7 2t9 -4.5t9 -5.5l4 -4q2 0 2 -5q66 -36 99 -77q20 -20 22 -25q4 -8 10 -12q6 -15 39 -66t33 -82l8 -14l4 -39q7 -10 2.5 -80.5t-4.5 -75.5q-2 -5 -4 -16.5t-4 -17.5v-15q-2 -10 -10 -30q0 -18 -10 -45 t-11 -29q-7 -27 -10 -53q-4 -13 -11 -53t-15.5 -71.5t-20.5 -43.5q-2 -2 -2 -4l-6 -23h-6q-2 -6 -3.5 -16.5t-3 -16t-5 -13t-9.5 -13.5q-4 -13 -13.5 -33t-15.5 -37t-6 -33q-4 -7 -12.5 -18t-11.5 -17q-2 -1 -3.5 -5t-2.5 -5q-6 -11 -22 -37t-28 -47.5t-16 -34.5 q-9 -21 -43 -63q-2 -4 -5 -10.5t-4.5 -11t-5 -8.5t-7.5 -5q-8 -15 -26 -34t-24 -29q-3 -2 -20 -19q0 -6 -2 -6h-2q-1 0 -1 -3t-1 -3q-3 -1 -13 -9t-14 -10q-6 -12 -17.5 -23t-20.5 -18t-24.5 -17t-21.5 -15q-24 -17 -45 -25q-42 -14 -70.5 -9.5t-60.5 28.5q-12 24 -20 36 q-3 6 -11 16t-10 15q-7 7 -12.5 18.5t-8.5 21t-6.5 25t-5.5 21.5q-21 55 -8 168q1 6 1.5 26t2.5 29q1 3 4 10.5t4 12.5q19 122 88 348q4 17 17.5 47t17.5 45q34 106 51 123q9 28 21.5 57.5t29.5 65t25 53.5q9 18 26.5 58t26.5 57q10 10 15 20q7 22 16 37q3 4 7 12t8 13.5 t8 9.5q19 11 41 27q0 22 48 73.5t70 59.5z" />
<glyph unicode="1" horiz-adv-x="733" d="M406 -123q-11 -16 -50 -12q-49 46 -67 80l-17 35q-13 44 -9.5 106t24.5 102q-2 16 6 54q5 10 6 14q5 21 21 54t20 50q27 59 75 202t83 210q2 15 12.5 36t13.5 30q-1 15 6.5 30t8.5 23q-37 -23 -75 -67t-65.5 -84t-68 -80.5t-84.5 -59.5q-4 -8 -15 -21t-14 -18 q-41 -49 -82 -60q-45 -8 -47 52q-16 20 -17 47.5t5 50.5q6 26 13 34.5t13.5 6t21.5 -8t30 -5.5q5 0 28 18l62 64l14 12q17 15 41.5 46.5t40.5 43.5l2 3l5.5 5.5t4.5 3.5q12 6 27.5 21.5t25.5 28t26.5 36t19.5 27.5q12 10 22 22.5t22 30.5t17 25l49 53q4 14 24.5 37.5 t22.5 26.5q8 12 68 73q11 17 14 19q12 20 23 24q3 2 16 2.5t19 2.5q23 3 59 -23q35 -22 37 -39q11 -36 -15 -88q-58 -117 -131 -303q-12 -20 -14 -25l-12 -24q-9 -25 -23.5 -69.5t-19.5 -59.5q-14 -31 -45 -121q-42 -121 -86 -268q-11 -9 -19 -43t-12 -41q0 -13 -4 -27.5 t-4 -19.5q-9 -23 -16.5 -51.5t-10.5 -47.5t-7.5 -54t-6.5 -48v-24t-2.5 -29.5t-9.5 -20.5z" />
<glyph unicode="2" horiz-adv-x="708" d="M639 770q-8 -9 -38 -38t-45.5 -50t-23.5 -47q-37 -34 -53 -66q-19 -18 -37.5 -40.5t-40.5 -51.5t-34 -43q-3 -4 -12.5 -11.5t-12.5 -10.5q-14 -23 -41 -59t-37 -52q-3 -4 -8.5 -10.5t-9.5 -12.5t-6 -14q-13 -9 -53 -60t-58 -77q-2 -5 -14.5 -25t-14.5 -36q10 4 36 10 t36 10q11 3 66 25t73 28l60 33q3 1 19.5 6t22.5 7t20 7t21.5 9t17.5 10.5t17 13.5q9 1 46 12t55 5q34 -13 41 -37q-4 -31 -18 -51t-35.5 -37.5t-30.5 -30.5q-17 -7 -55 -41q-35 -20 -97 -63t-78 -54q-14 -3 -28 -9.5t-34 -18t-28 -15.5q-3 -2 -21 -10l-22.5 -10t-19.5 -8.5 t-21.5 -8.5t-20 -6t-22 -5.5t-20.5 -3t-23 -1.5q-41 0 -55 6q-35 12 -57 49t-15 74q-7 50 -6 62q1 18 17 90q7 28 18 47l6 6q11 29 41 73.5t39 63.5q24 27 47 58.5t50 70.5t40 57q9 9 11 13q12 26 52.5 77t65.5 76q5 7 17 19t16 18l6 8l4 7q22 26 52.5 75t60.5 87t65 61 q6 29 38 73.5t38 67.5q-2 0 -30.5 -11.5t-62.5 -25.5l-34 -14q-10 -4 -32.5 -14.5t-39 -15.5t-34.5 -5q-11 -3 -22.5 -2t-16.5 10q-19 38 -19 51q-2 4 -2 17q-10 25 -10.5 45.5t22 41t72.5 42.5l21 8q4 2 11 8t11 8q16 5 48 17t52 18.5t47.5 12.5t52.5 5.5t50 -7.5l18 -9 t25 -10q23 -7 43 -33t31 -53q6 -30 -4 -96l-23 -60q-9 -14 -25.5 -45.5t-27.5 -46.5q-1 -3 -7 -9.5t-7 -8.5q-6 -28 -16 -45t-29.5 -37.5t-30.5 -36.5z" />
<glyph unicode="3" horiz-adv-x="718" d="M453 1239q17 2 44.5 7t41.5 7t41.5 3.5t44.5 -3.5q17 -17 53 -41q4 -8 20.5 -27.5t18.5 -37.5q6 -29 -17 -86q-3 -11 -10 -21q-17 -36 -72.5 -87.5t-114.5 -103t-79 -81.5q-48 -40 -71 -75q-20 -31 7 -31q23 -2 94.5 3.5t124.5 1.5t72 -28q5 -9 16.5 -27t19 -32.5 t11.5 -28.5q7 -38 -4.5 -77t-27 -72t-15.5 -52q-4 0 -4 -2q-2 -5 -12 -27t-14.5 -32t-13.5 -24.5t-17 -22.5q-12 -16 -52 -72t-63 -84l-6 -10q-37 -28 -96.5 -88t-96.5 -88q-86 -82 -159 -105q-41 -15 -158 -2q-3 1 -5 4.5t-2.5 7t-1.5 9.5t-1 8q-28 36 -12 141q2 8 4.5 12 t7 8.5t8.5 10.5q5 8 16.5 28.5t21.5 34.5t25 27q98 73 127 81q30 8 29 -27q0 -8 -2 -17q-1 -18 -11 -39.5t-13 -34.5q5 -3 16.5 3.5t25 17.5t15.5 12q17 11 40 33t34 30q12 10 34 34.5t37 35.5q5 6 19.5 24.5t23.5 28.5l43 56q10 16 35.5 49t36.5 53q1 3 8 17.5t10 23.5 q0 12 7.5 31t5.5 28q-3 8 -14 8t-15 3q-11 -3 -38 -6.5t-45.5 -9.5t-31.5 -19q-19 -5 -60 -30t-65 -28q-48 1 -72 30.5t-34 80.5q-8 28 -6 53q3 27 10.5 49t25.5 57t19 38q0 1 3 3t3 3q8 20 23.5 41.5t36.5 45.5t30 36t29.5 32.5t30.5 32.5q8 12 26 34t27 34q10 32 16 37 q-4 8 -11 12t-19 7t-13 3q-49 17 -61.5 80t4 127t45.5 94h4q3 -3 5 -14t3 -15q13 -61 56 -104z" />
<glyph unicode="4" horiz-adv-x="628" d="M537 1055h-5q0 -2 -3 -3t-3 -3q-15 -15 -45 -57t-53 -60q-6 -12 -31.5 -36t-27.5 -44q-42 -44 -86.5 -107t-51.5 -102q-13 -6 -24.5 -20.5t-11.5 -26.5v-18q2 -5 5.5 -7t13.5 -3l9 -1q38 -10 111 6q18 3 39 15q15 30 26 60t23.5 68.5t17.5 53.5l13 35q6 10 12 30.5 t12 28.5q4 20 25.5 61t21.5 66q15 15 15 49v1q4 14 -2 14zM528 633q22 -13 47 4.5t37 17.5q17 0 25 -16q12 -12 12 -37q0 -15 -12 -39q-3 -5 -14.5 -21t-16.5 -26q-6 -1 -38.5 -24t-45.5 -33q-27 -9 -49 -29q-1 -2 -2 -5.5t-2 -4.5q-7 -5 -32.5 -53.5t-24.5 -55.5 q-4 -26 -32 -74t-34 -67q-8 -10 -16 -39l-4 -4v-8q-16 -44 -54 -132.5t-57 -146.5q-5 -10 -9.5 -30t-6.5 -27q-5 -31 -17 -49q-16 -21 -30 -21q-12 0 -25 21l-10 14q-4 13 -21 35q-8 48 19 149l6 23q1 5 6.5 13t7.5 12q11 22 29 87.5t41 96.5q2 22 19 56.5t16 64.5 q1 1 5 5.5t5 6t4.5 6t4.5 7t3.5 7.5t3 9t1.5 10t1 12q-2 4 -7 5.5t-10.5 0.5t-10.5 0q-5 5 -13 8.5t-18.5 6t-15.5 4.5q-6 1 -39 12q-20 8 -34 24.5t-30 47.5t-20 37q-21 34 -21 65q-2 6 -4 18t-4 19q-6 52 22 147q16 44 54 103q20 27 22 28q17 29 87.5 111t84.5 125 q26 33 32 43.5t13 44.5q0 3 12 18t26.5 31.5t17.5 20.5l14 14q9 28 27 43l10 10q17 13 31 13q28 2 67 -27l1 -1q2 0 5 -1q13 -27 62.5 -43t62.5 -27l6 -4q23 -14 23 -28q3 -8 -8 -35q-6 -24 -23.5 -75.5t-23.5 -78.5q-19 -43 -29 -84q-11 -24 -29 -86q-11 -27 -45.5 -122.5 t-34.5 -102.5z" />
<glyph unicode="5" horiz-adv-x="851" d="M639 1063q-19 -3 -85 -36t-79 -46q-1 -1 -1.5 -4t-2 -5.5t-4.5 -4.5q-8 -16 -30.5 -47.5t-30.5 -49.5l-15 -36q-3 -6 -8.5 -23.5t-9.5 -26.5q0 -8 -8 -32q3 -10 8.5 -13t15 -1t12.5 1q7 0 19 -4q25 -5 70 -8.5t65 -7.5q37 0 53 -8q27 0 74 -27l35 -16q5 -5 21 -12.5 t22 -18.5q82 -90 82 -148q-3 -31 -17 -58t-40.5 -59t-36.5 -48q-9 -3 -15 -9q-36 -27 -85 -77t-94 -97t-96.5 -94t-110.5 -81t-118 -44q-12 -3 -36.5 -17t-48 -27t-48.5 -23t-45.5 -6t-30.5 24q-4 8 -14.5 40.5t-19.5 41.5q-2 2 -6 2q-19 32 -17 53q-2 6 -6.5 15.5 t-5.5 15.5q0 30 12 70q1 0 1.5 1.5t1 3.5t1.5 3l2 2l11 22q5 10 22 27q1 2 2 5.5t2 4.5l2 2q3 9 15.5 25.5t15.5 21.5q2 3 4.5 10t5 12t6.5 5q19 48 92 121l3 6q21 21 36 -6q23 -42 -3 -124q-1 -2 -1 -3q-2 -6 -5.5 -21t-6 -24.5t-8.5 -21.5t-15 -21q-3 -6 -8.5 -24 t-11.5 -27q-1 -5 -12 -27.5t-6 -32.5q1 -5 3.5 -5t7.5 2t7 3q18 5 39 29q2 1 5 0t7 0q68 47 98 72q11 10 52.5 52t75.5 72t53 37l51 56q11 9 39.5 30.5t45 35.5t34 36t22.5 43q2 20 -33 37q-3 1 -8 4t-6 4q-35 16 -127.5 -0.5t-124.5 6.5q0 1 -2 4t-4 4l-22 11 q-17 27 -50 104q-2 6 -8 19q-17 58 -4 155q6 35 27.5 94t23.5 64q15 31 19 55l4 25q9 52 61.5 81t214.5 74q17 5 45.5 -0.5t36.5 -5.5l8 3q9 4 15 5q47 16 69 31q4 3 11 13t14 16t16 6q10 0 19 -6q26 -5 63 -35.5t37 -52.5q3 -21 -13 -30.5t-43 -13.5t-34 -7 q-33 -17 -105.5 -56.5t-109.5 -58.5z" />
<glyph unicode="6" horiz-adv-x="761" d="M354 506q-52 -40 -88 -93.5t-69 -124t-54 -102.5q-4 -98 -2 -120q14 -16 29.5 -19.5t36.5 2.5q45 16 65 33q47 48 74 78.5t59.5 77t53.5 94.5v8q3 7 9.5 22t9 22t7.5 22t6 22.5t3 23t-2 23.5q1 7 -1.5 16.5t-8 22.5t-7.5 18q-3 2 -11.5 13t-16.5 16t-17 2 q-22 -8 -45.5 -30t-30.5 -27zM645 993q-9 -6 -21.5 -26.5t-15.5 -24.5q-16 -27 -28 -39q-7 -11 -28.5 -39.5t-29.5 -44.5q-21 -21 -26 -31q-4 -5 -8 -11.5t-8 -15t-7 -13.5q0 -10 4.5 -26t5.5 -22q8 -6 31 -21t37.5 -26.5t28.5 -25.5q2 -1 5 -4t5.5 -4.5t5.5 -2.5 q2 -4 16.5 -17.5t24.5 -26.5t6 -19q19 -38 19 -51q5 -26 -5 -74.5t-8 -69.5q-20 -48 -52.5 -116t-41.5 -88q-6 -6 -6 -7q-14 -19 -17 -26q-2 -10 -8 -21q-15 -20 -16 -22q-29 -39 -47.5 -62.5t-54.5 -61t-65.5 -58t-69 -34t-76.5 -7.5q-5 4 -35.5 15t-38.5 30q-37 26 -58 61 q-19 29 -22 37q-40 75 -25 178q2 50 19 123q36 137 108 260q7 22 32.5 61.5t31.5 61.5q20 20 20 35q12 21 58 82.5t57 91.5q15 15 59 70q3 5 16 25t21 28q11 16 32.5 42.5t23.5 28.5q8 10 36.5 43t42.5 52q12 20 49.5 60t49.5 65q4 5 10.5 19.5t13.5 18.5q24 16 52 -8 q22 -18 32 -30q4 -5 17 -39q0 -2 2.5 -6.5t3.5 -4.5q3 -2 6 -7t6 -7q1 -2 5.5 -9.5t6 -11t1 -10t-4.5 -12.5q0 -1 -1 -1.5l-3 -1.5t-4 -3q-2 -1 -6.5 -6.5t-7.5 -7.5q-13 -16 -49.5 -51t-66 -69t-40.5 -65z" />
<glyph unicode="7" horiz-adv-x="897" d="M737 766q1 -4 4 -5.5t7 -1.5t6.5 -1.5t1.5 -5.5q7 -8 16 -9.5t24.5 0.5t22.5 2q63 0 117 -16q2 -1 12.5 -3t17.5 -5.5t11 -9.5q1 -9 -3 -16.5t-8 -10.5t-12 -8t-10 -6q-2 0 -8 -6q-2 -1 -6 -1t-6 -1q-37 -17 -108 -45t-79 -31q-21 -5 -52.5 -25.5t-47.5 -25.5 q-4 -4 -10.5 -8.5t-11 -9t-7.5 -9.5q0 -6 -24.5 -55.5t-52 -106t-33.5 -72.5l-17 -30q-12 -39 -37 -74l-6 -8q-33 -41 -71 -117t-48 -92q0 -10 -16.5 -35t-26.5 -31q-6 0 -14.5 6t-9.5 7q-12 4 -16 10q-5 0 -7 2q-1 2 -18 53q-6 47 -2 78q9 57 37 109t58.5 102t41.5 96 q22 22 27 47l5 5t5 4.5t3.5 5.5t0.5 10q-8 3 -21.5 -7.5t-19.5 -11.5l-22 -6q-12 -3 -62 -20q-10 -2 -41 -12.5t-45 -10.5q-8 1 -14.5 3t-13.5 8t-9 8t-11 12l-9 10q0 6 -10 41q0 9 -0.5 32t0 32.5t3.5 26.5t9 32q3 3 7 11t8 12.5t9 5.5q9 3 23.5 -7t21.5 -10q5 0 13.5 4 t11.5 5q16 9 36 18t35.5 14.5t40.5 13t36.5 10.5t39.5 10t35 9q52 13 54 13q35 10 74 81t75 161t43 102l23 57q9 22 6 29q-3 8 -23 8q-2 0 -10.5 -1t-11.5 -1q-47 -14 -58 -14q-19 0 -42 -11.5t-38 -11.5q-38 0 -114.5 -16.5t-114.5 -16.5q-32 0 -56 17t-24 43q-8 8 -8 22 q-7 19 9.5 91.5t27.5 80.5q3 6 8 6h2q15 -20 19 -24l2 -2q11 -14 14.5 -18.5t13 -15t15.5 -13.5t16.5 -7t21 -3.5t23.5 3.5q34 0 96 17t88 20q25 4 64 4q10 0 25.5 1t27 1t21.5 -2q5 -1 16 -5.5t18 -6.5q69 -32 90 -78l5 -10q21 -21 18 -57q0 -12 -12 -72q-10 -42 -23 -59 q-4 -33 -33 -93q-14 -28 -49 -108z" />
<glyph unicode="8" horiz-adv-x="702" d="M600 1114q-16 -12 -46.5 -48t-64.5 -50q-20 -34 -22 -45q-27 -25 -40 -90q-16 -74 16 -82q14 -4 34 6q9 4 19 18q55 66 98.5 144t42.5 141q-6 0 -18 3t-19 3zM385 424q-152 -184 -166 -199q-16 -16 -37 -43.5t-36.5 -50t-38 -56.5t-29.5 -44q0 -2 -6 -8q-15 -24 0 -48 l18 -20q18 -10 47 -10q33 -7 62 4q88 14 141 53q36 18 41 18q8 11 26.5 27t24.5 23q3 3 23 28l12 11q33 47 37 73q7 24 2 56v14q-9 75 -23 82v6q-5 12 -24 35.5t-23 38.5q-1 11 -8 25l-8 16q-23 -13 -35 -31zM575 1354q20 9 64 -4q14 -3 25 -11q6 -6 27.5 -19.5t36.5 -26.5 t15 -25q5 -1 16.5 -8t20.5 -7q6 -9 17 -22t18 -25t10 -28q10 -29 6.5 -63.5t-10 -57.5t-22.5 -53t-29.5 -51t-32 -51.5t-30.5 -53.5q-62 -80 -72 -98q-10 -14 -12 -19q-18 -9 -95 -117q2 -14 -5 -30.5t-7 -22.5q0 -29 45.5 -99.5t44.5 -105.5q19 -50 19 -170 q0 -55 -29.5 -126t-80 -127.5t-103.5 -65.5q-11 -9 -54 -36.5t-55 -31.5q-4 -2 -12 -2q-8 -2 -22.5 -7.5t-22.5 -8.5q-94 -11 -162.5 -6.5t-114 52.5t-63.5 148v84q-5 42 0 56q15 22 46.5 56t43.5 50q6 6 51 57.5t68 69.5q2 3 26 33q5 5 14.5 14t15 14.5t11 12t8.5 12.5 q6 2 22 21.5t33 42t21 26.5q2 3 8.5 7.5t8.5 7.5l10 15q10 15 16 21q0 3 4 7q21 21 21 36q3 19 -15 50q-33 135 -22 250q0 32 20 90t23 69q4 8 23.5 53t31.5 68q8 22 53.5 61t75.5 58l2 6q7 3 21.5 16t27.5 15z" />
<glyph unicode="9" horiz-adv-x="806" d="M729 1133q-30 -11 -90 -21q-16 -8 -42.5 -31t-43.5 -30q-3 -2 -12 -5.5t-11 -5.5q-32 -23 -47 -30q-7 -6 -24 -19t-29 -24t-18 -21q-2 -2 -7 -4t-6 -2q-8 -8 -60.5 -74.5t-74.5 -77.5q-29 -25 -52 -92t-36 -86q0 -3 -3.5 -8.5t-2.5 -7.5q0 -10 -4 -41.5t-1 -51.5t19 -34 q69 24 156 88q11 11 41 37t37 29q3 2 8 10.5t8 11.5q6 10 24.5 25.5t24.5 23.5q26 18 64 67t49 60q25 25 41.5 64t28.5 57q9 9 14 29q30 48 45 92q32 57 17 69q-4 3 -13 3zM750 694q-3 -8 -10 -32t-14.5 -41t-18.5 -31q-36 -67 -64 -182.5t-55 -167.5q-10 -48 -17 -64.5 t-17.5 -34.5t-23.5 -57q-6 -6 -21 -29t-20 -32q0 -6 -3.5 -17t-4.5 -14q-21 -74 -43 -125q0 -25 -34.5 -86t-49.5 -62q-16 0 -41 35t-41.5 76.5t-9.5 58.5q-1 1 2 8.5t6 10.5q1 3 7 9t8 13q0 47 10 85.5t24.5 71.5t18.5 50q14 32 31 70t23.5 53.5t14 37.5t11.5 46 q22 23 36 77t33 77q8 10 2 22q-6 10 -14 8q-14 -3 -27.5 -12t-19.5 -15t-21.5 -24.5t-17.5 -21.5q-31 -11 -83.5 -50.5t-90.5 -48.5q-4 -1 -15.5 -6.5t-13.5 -5.5q-26 4 -54 27.5t-42 46.5l-10 35q-25 110 -19 153q0 32 9 62q0 25 38 133.5t58 122.5q7 24 67 89t84 81 q41 21 119.5 85t83.5 68q8 13 12 15q28 17 39 34q6 2 27 13t39 8q11 -3 43 -31l8 -8q12 -4 53.5 -36.5t51.5 -31.5q8 1 12 9.5t6 21t4 16.5q1 6 12 14.5t17 8.5q19 3 43 -12q32 -16 69 -68q23 -23 23 -74q-2 -16 -27 -41q-4 -8 -14.5 -22t-13.5 -21q-9 -12 -22 -33.5 t-21 -31.5q-2 -4 -8 -19t-9 -22q-1 -2 -5 -5.5t-5 -6.5q-3 -5 -12 -17.5t-13 -19.5t-8 -17.5t-4 -19.5l-4 -2q-9 -22 -22 -54.5t-22.5 -56t-18.5 -43.5z" />
<glyph unicode=":" horiz-adv-x="454" d="M367 537q1 -1 13 -12t18 -17.5t11.5 -19.5t4.5 -25q-1 -11 -5.5 -17t-13 -10.5t-12.5 -9.5q-24 -14 -63 -44t-44 -34q-32 -3 -57 10q-17 10 -23.5 26.5t-11.5 53.5q0 7 -0.5 19.5t-0.5 18.5t1.5 15.5t5.5 18.5q3 31 8.5 53.5t10.5 37.5t13.5 22t14.5 11t18 -1t19 -8.5 t21.5 -16.5t22 -20.5t24.5 -25t25 -25.5zM135 66q5 12 2 24t-2.5 25t10.5 18q27 0 88 -37q3 -2 12.5 -8t13.5 -9t10 -9.5t10 -14.5q2 -3 4 -8q5 -11 1 -18q-9 -15 -16 -33q-67 -172 -92 -182q-23 -5 -59 23t-47 50v15q-15 33 -9.5 85t35.5 76q5 3 39 3z" />
<glyph unicode=";" horiz-adv-x="567" d="M416 672q1 -1 34 -23t37 -43q5 -14 -2 -51q-5 -26 -6 -27q-6 -13 -31 -27.5t-32 -25.5q-3 -10 -20 -28.5t-21 -26.5q-6 -10 -8.5 -14.5t-8 -11.5t-10 -9t-11.5 -2t-15 4l-17 12q-2 1 -4 4l-2 3q0 2 -10 12q-7 18 -15 74q-1 6 -2.5 17t-2.5 17.5t-1.5 16t0 19.5t2.5 22 l17 32q7 3 19 17t22 16q32 31 51.5 35t36.5 -12zM184 113q-2 23 7.5 31t21.5 5t31 -10q3 -1 4 -2q36 -15 60.5 -32.5t36.5 -33t15 -35t1 -33.5t-11.5 -34t-16 -29.5t-18.5 -27.5q-18 -26 -51 -90q-3 -5 -21 -22.5t-20 -30.5q-17 -26 -50.5 -71t-47.5 -67q-20 -30 -28 -40.5 t-25 -19.5t-43 -9q-41 18 -33 84q8 29 35 71t54 76.5t49 74.5t22 69q1 1 8 14q0 1 1 3t1 3q17 23 33.5 63.5t13.5 63.5q-2 10 -14 16.5t-15 12.5z" />
<glyph unicode="&#x3c;" horiz-adv-x="700" d="M252 438q4 -12 26.5 -24.5t50.5 -24t36 -16.5q37 -23 47 -33l4 -4q4 -3 14.5 -10.5t15 -10.5t13.5 -10t13 -12t10 -12t9.5 -14.5t6.5 -16.5q16 -16 16.5 -57t-8.5 -60q-31 2 -59 25t-59 50.5t-66 35.5q-5 1 -49 13.5t-66 16.5q-39 9 -85 56t-36 84q0 8 14 45l19 43 q14 14 31.5 27t30 21t34 20.5t33.5 19.5l55 31q30 19 86 47t95.5 54t66.5 60q33 4 59 -25.5t29 -62.5v-12q6 -18 1 -32.5t-21 -25t-26 -15.5t-30 -13q-108 -36 -311 -158z" />
<glyph unicode="=" horiz-adv-x="806" d="M649 344q8 -7 13.5 -16t9 -24t5.5 -24.5t5 -31t4 -29.5q0 -5 2 -14.5t2 -17.5t-4 -15q-4 -9 -11.5 -11t-18 0t-15.5 1q-4 0 -8.5 -1t-11 -2.5t-9.5 -2.5q-36 -3 -144.5 -16t-166.5 -13q-61 0 -229 14q-2 0 -12 1t-13 1t-11 1.5t-12 3.5t-9 5.5t-9 8.5q-7 18 6 76 q4 54 19 61q7 2 16 -5t16 -9q31 -3 43 -3t42 5t40 6q47 7 117 22q44 7 122.5 21.5t111.5 19.5q2 0 3.5 1t2.5 1q18 2 51.5 -7t52.5 -7zM692 481q-7 -5 -14.5 -5.5t-18 1.5t-16.5 2q-36 0 -84.5 -5.5t-115 -15.5t-81.5 -12q-79 -10 -157 -10q-15 2 -58 19q-30 11 -34 43.5 t10.5 66.5t40 63t49.5 34q6 0 19 -3.5t20 -3.5q19 0 66 -1t71 -0.5t60 3t64 8.5t52 17q38 15 71 -26t48 -95t8 -80z" />
<glyph unicode="&#x3e;" horiz-adv-x="608" d="M188 700q61 139 105 160q13 5 16 -3.5t2.5 -25t3.5 -22.5q0 -1 2.5 -2.5t5.5 -3.5t5 -4q7 -5 19 -11t29 -13t25 -11q15 -15 48.5 -40t44.5 -34q59 -59 59 -147v-58q0 -3 1.5 -26t0.5 -40.5t-6 -27.5q-6 -10 -15 -16t-24 -12t-21 -9q-10 -4 -35.5 -24.5t-47.5 -39 t-23 -18.5q-6 -6 -19 -14t-18 -14q-37 -27 -131 -73.5t-135 -78.5q-9 -6 -28 -24t-27 -21q-18 -5 -25 -2q-15 3 -27 27q-4 21 7 65q0 4 4.5 13t5.5 14q1 2 6.5 17.5t11.5 21.5q9 17 49 57q94 86 293 197q3 2 14.5 8.5t19.5 11.5t18 12t16 14.5t8 14.5q5 8 0.5 15t-9 10 t-14.5 8q-26 26 -104 51q-45 15 -74 33q-37 29 -37 65z" />
<glyph unicode="?" horiz-adv-x="657" d="M172 104q0 -20 3 -51.5t3 -56.5t-6 -49q-4 -16 -9.5 -25.5t-17 -16.5t-18 -9.5t-25.5 -8.5q-5 -2 -20 -13.5t-25 -10.5q-22 0 -46.5 51.5t-24.5 75.5q-5 17 -10 46t-7 38q0 91 31 108q7 0 14.5 -6.5t14.5 -5.5q6 0 10.5 12t9.5 13q104 -61 123 -91zM623 1163q-1 5 -3 10 t-4 8.5t-6.5 7.5t-7 6.5t-9 6t-8 4.5t-8.5 4.5t-8 3.5q-34 13 -95 10t-89 5q-9 6 -16 18l-4 8q-1 4 -19 27q-2 7 -3 26.5t-3 28.5q-1 5 -4 16.5t-3.5 18t1.5 19.5q4 4 10.5 5t16.5 1.5t14 1.5q6 1 26 3.5t30 3.5t29 2.5t31.5 1t28.5 -2t29 -4.5q1 -1 7 -5t9 -5q27 -8 39 -15 q33 -28 43 -39q22 -23 50 -69.5t32 -52.5v-9q19 -19 31 -96q34 -100 -21 -192q-8 -13 -16 -25t-18.5 -24.5t-17.5 -21.5t-21 -22.5t-19.5 -19t-22.5 -20.5t-20 -18t-22.5 -20t-20.5 -18q-90 -90 -139 -119q-12 -14 -25.5 -24.5t-30.5 -22t-28 -20.5q-48 -37 -88 -80 q-3 -5 -10 -12.5t-11 -14t-6 -12.5q-3 -10 -3 -35.5t-4 -45t-17 -26.5q-25 -19 -47 12t-27 60q-8 19 -8 49q-9 36 -2 95q1 7 5 21t5 19q23 63 80 136q41 55 104 114l68 70q26 26 77 73t74 70q9 8 54 58q31 31 41 67z" />
<glyph unicode="@" horiz-adv-x="1239" d="M668 543q-55 -13 -100 -73t-70 -128l-21 -27l-28 -30q-16 -27 -36 -87.5t-7 -76.5q8 0 15 4.5t15.5 14t12.5 12.5q6 3 14 11.5t14 10.5l4 6q32 0 105 109q13 9 24 42.5t15 39.5q9 14 15.5 31.5t10 30.5t8.5 36t9 37q4 10 2 12q12 23 -2 25zM618 129q-5 -1 -9.5 -4.5 t-9 -8.5t-7.5 -7q-56 -71 -125 -105q-6 -2 -13 -9.5t-12 -8.5q-12 0 -20 2q-18 4 -33.5 15t-23.5 21t-22 30t-21 28q-1 3 -5.5 12.5t-6 12.5t-5 11.5t-5 12.5t-4 11.5t-3 13t-1.5 12.5t-0.5 13.5t1.5 13.5q0 16 2 24q15 135 90 254q6 9 23.5 38t30.5 46.5t28 32.5 q40 51 85.5 80.5t100.5 28t101 -47.5q1 -1 2.5 -1t3.5 -1q3 -4 20.5 -17t20.5 -20q13 -19 24 -80q0 -20 -41.5 -125t-54.5 -118q-3 -10 -22 -37q-19 -19 -21 -57v-15t4 -18q28 -6 45 8q31 11 55 30t56.5 56t40.5 45q5 7 26 29q0 1 4 10t8 15t9 10q-1 7 13.5 27t15.5 24 q20 20 42.5 102.5t32.5 138.5q-1 3 0.5 12.5t-0.5 14.5q6 56 -20 104q-19 58 -74 97t-113 20h-26q-1 0 -25 -6q-6 -1 -51.5 -14t-62.5 -11q-13 0 -53.5 -26.5t-53.5 -28.5q-6 -8 -19 -21.5t-16 -17.5q-61 -43 -84 -80q-13 -14 -73 -69t-84 -92q-10 -25 -13 -29 q-17 -25 -55.5 -97t-42.5 -83q-52 -132 -72 -262q-4 -10 -4 -48q-6 -24 -6.5 -46.5t5 -48t10 -41t15.5 -46.5t15 -43q4 -6 11.5 -17t12.5 -20t9 -20q34 -29 70 -46t79 -17t78 26q22 6 23 6q69 45 102 71t88 81q6 5 19.5 19t23.5 20l6 4q18 12 27 14q9 1 45 -14q17 -8 27 -21 q2 -1 5.5 -5.5t6.5 -6.5q2 -3 10 -10.5t10 -14.5q0 -16 -8 -22q-49 -73 -136 -144.5t-163 -97.5q-17 0 -51 -5t-53 -3q-1 0 -25 6q-24 2 -44 6t-40.5 11t-32 10.5t-32.5 15t-25.5 13.5t-28 16.5t-24.5 15.5q-31 18 -68 77.5t-39 88.5q-14 21 -25 58t-11 61q-4 9 -7.5 124 t-3.5 156q2 7 23 68q7 25 16.5 52.5t16 44.5t22.5 52t20 42.5t25.5 50.5l22.5 45q10 20 35 54t30 42q1 1 1 3t1 3q4 13 18.5 31t18.5 26q5 7 21.5 25.5t23.5 28.5q14 26 41 49.5t51.5 38.5t50 38.5t37.5 49.5q55 43 68 51q28 12 37 21q28 21 72 21t70 -7.5t77 -24.5 q4 -1 55 -18q59 -21 138 -45q10 -5 20 -15q54 -21 109 -84l20 -22q5 -9 17.5 -26.5t17.5 -26.5q26 -43 31 -60q1 -4 1.5 -15t2.5 -19q1 -8 7.5 -32t8.5 -42l-8 -49q0 -5 2.5 -19.5t1.5 -21.5q0 -5 -5.5 -17t-6.5 -18q-3 -11 -10.5 -41t-14.5 -45q0 -2 -2 -8t-2 -11 q-5 -14 -14 -31.5t-16 -28t-20.5 -30.5t-17.5 -26l-14 -17l-8 -16q-24 -29 -41 -43l-4 -8q-4 -2 -21 -19q-20 -16 -28 -26q-1 -1 -5 -7.5t-8 -7.5q-3 -3 -11.5 -5.5t-10.5 -4.5q-6 -4 -35 -23.5t-41 -26t-36 -18.5t-44.5 -15.5t-42.5 -2.5q-7 -2 -19 4t-14 6q-17 5 -24 13 q-15 11 -23 22q-10 20 -37 39z" />
<glyph unicode="A" d="M725 1028q-23 -18 -53 -57q-4 -4 -4 -6l-4 -9q-3 -5 -13 -13.5t-12 -12.5l-6 -10q-3 -4 -8.5 -11.5t-10.5 -12.5t-10 -9q-7 -8 -16.5 -23.5t-18.5 -23.5q-9 -23 -20 -27q-27 -60 -60 -84q-5 -18 -25.5 -45t-23.5 -33q-2 -3 -36.5 -49t-55.5 -78.5t-20 -44.5 q-2 -3 -10.5 -12.5t-13 -17.5t-5.5 -17q5 -6 12.5 -8.5t13.5 -2.5t18.5 0.5t18.5 0.5q8 0 34.5 -0.5t46 -0.5t43.5 1t40 3t23 5q12 7 26 66q9 42 11 57q3 13 12 43t12 47q13 33 23 74q9 48 26 98q5 5 7 6q4 37 16 56q-2 2 2 6l14 43q17 39 19 51l8 18q1 4 9 14t7 23 q-5 3 -10.5 1.5t-5.5 -5.5zM995 1223q-8 -17 -22 -62.5t-27 -64.5q-5 -30 -18 -60t-33.5 -65.5t-28.5 -52.5q-1 -30 -25 -77t-26 -75q-6 -23 -20.5 -73t-20.5 -77q-26 -112 -45 -147q2 -7 0.5 -20t-0.5 -21q2 -10 19 -14q3 -1 14 -5t14.5 -6l10.5 -6t11 -9.5t7 -12.5 q-17 -33 -33 -35h-20q-9 -1 -23 -6t-22 -6q-13 -11 -17 -41l-12 -43q-5 -13 -13.5 -43.5t-13.5 -44.5q-3 -29 -19.5 -68t-19.5 -61q-1 -4 -7 -19.5t-7 -23.5q-12 -61 -29 -111l-8 -23q-44 -136 -51 -169q-1 -7 -6 -19t-6 -18q-6 -12 -6 -23q-17 -40 -11 -57 q-9 -48 -35 -85.5t-51 -37.5q-31 9 -41 27.5t-5.5 37.5t10 48t1.5 49q5 12 13 65q34 183 45 228q6 25 19.5 71t19.5 70l30 125q11 28 27 88q1 9 4 23.5t5 27t3 23.5q-8 6 -17 6t-20 -3t-16 -3q-29 -6 -86.5 -15t-85.5 -16q-12 -1 -46 -10t-54 -9q-8 -5 -25 -30 q-2 -2 -10.5 -11.5t-11.5 -15.5q-1 0 -1 -1.5v-3.5t-1 -3q-4 -6 -21 -23q-6 -6 -6 -16q-1 -1 -6 -7.5t-7.5 -9.5t-7.5 -7.5t-10 -6.5q-4 -12 -10.5 -23t-16 -23.5t-14.5 -20.5q-8 -12 -26.5 -33.5t-22.5 -26.5q-17 -24 -51.5 -64t-44.5 -52q-12 -5 -31 -21.5t-37 -19.5 q-2 0 -11.5 -1.5t-14.5 -0.5q-10 3 -32 39.5t-20 44.5q-1 17 13.5 24.5t36.5 9.5q11 28 56 79t75 75q16 21 22 25q8 23 34.5 55.5t35.5 52.5q2 2 7.5 6.5t8.5 8t6 8.5t2 10q0 4 -3.5 7.5t-9.5 6t-11 4.5t-12 3.5t-9 2.5q-14 10 -23.5 7t-33 -11.5t-39.5 -9.5q-16 0 -30 -1.5 t-22 8t-5 32.5q2 20 14 28t42.5 12.5t99.5 10.5q22 1 35.5 2.5t37 3.5t45.5 4q8 1 17.5 12t17.5 13q31 57 83.5 133t90.5 117q42 35 94.5 130.5t77.5 123.5q44 41 58.5 55.5t34 42.5t36.5 68q17 16 68 71q13 16 43.5 46t51 54.5t28.5 47.5l4 8t4.5 7.5t4 6.5t4.5 6.5t5 5.5 t6 6t6.5 4.5t8.5 4.5l10 4q20 5 52 3t52 -7q3 -1 9.5 -7t11.5 -9q2 -2 7 -4.5t7 -4.5q8 -17 2 -32q-1 -4 -5.5 -13.5t-4.5 -15.5q-3 -6 -7 -18t-8.5 -21.5t-9.5 -15.5z" />
<glyph unicode="B" d="M311 528q6 5 20.5 11t18.5 8q12 8 37.5 23t43.5 27t32 24q62 57 69 65q55 26 101 70.5t72 84.5t58 91.5t54 77.5q2 10 7.5 30t6.5 31q1 26 -19.5 52t-20.5 30q-2 1 -25 11.5t-33 11.5q-17 4 -61 -2q-71 -10 -127 -25l-23 -6q-2 -4 -8 -12.5t-8 -12.5q-6 -12 -6 -35 q-2 -8 -9.5 -19t-9.5 -17q-5 -19 -22.5 -51.5t-22.5 -49.5q-5 -9 -12 -34.5t-8 -28.5q-7 -14 -22.5 -53t-28.5 -58q-41 -80 -50 -123l-9 -22.5t-12 -28.5t-14 -25t-18 -22q-12 -19 2 -31q8 -2 22.5 3.5t24.5 4.5zM569 494q2 -6 7 -9.5t12.5 -6t9.5 -3.5q39 -17 59 -29 l37 -40q17 -24 25 -44q4 -18 13.5 -49t14 -53.5t1.5 -42.5q1 -4 0.5 -6t-2.5 -6.5t-3 -7.5q-13 -101 -18 -127q0 -21 -2 -25l-6 -14q-1 -5 -4 -17t-4.5 -19t-5.5 -16.5t-9 -15.5q-1 -23 -17.5 -60t-19.5 -55q-1 -2 -1 -8t-1 -8q-1 -3 -5.5 -8.5t-6.5 -9.5q-14 -20 -38.5 -64 t-39.5 -65q-7 -4 -10 -9l-6 -8l-12 -20q-11 -14 -40.5 -36.5t-37.5 -29.5q-14 -8 -44.5 -28.5t-48.5 -30.5t-47.5 -19.5t-58.5 -9.5h-27q-4 1 -14 8q-45 25 -66 42.5t-40 49.5q-3 5 -45 103q-5 11 -4 33.5t-1 40.5q-1 6 -4 19.5t-4 18.5t-2.5 15.5t-0.5 16t3 14t6 15.5 t11 15q35 122 67 152q1 0 1 1t0.5 3t2.5 4q19 15 56 61l8 9q0 4 4 8q15 14 45 36t43 34q11 9 45 24h16q2 1 10 3.5t11.5 4t10.5 3.5t11.5 2.5t10 0.5t10 -1.5t8.5 -4.5q2 -10 0.5 -14.5t-6.5 -12.5t-6 -12q-6 -12 -19 -22q-3 -2 -7 -9t-5 -8q-5 -5 -20 -22t-22 -25.5 t-16.5 -22.5t-15.5 -26q-8 -8 -8 -12l-4 -4q-31 -55 -35 -68q-9 -17 -23.5 -55t-25.5 -55q-2 -5 -3.5 -22t-4.5 -25q2 -19 -10.5 -65t0.5 -64q17 -43 59 -46q44 -5 84 27l25 16q34 33 98 105q41 39 74 102.5t47.5 108.5t34.5 117l8 106q-1 19 1.5 23.5t-1 22.5t-3.5 21 t-5 20t-5.5 20t-6.5 20.5t-7 20.5q-7 5 -18.5 14.5t-20 14.5t-18.5 7q-15 1 -25 0t-28.5 -4t-24.5 -4q-18 -2 -83.5 -26.5t-84.5 -20.5q-8 1 -35 23q-10 34 -20 51q-8 28 -13 28q-6 1 -16 -18q0 -3 -1.5 -5t-4.5 -4.5t-4 -4.5q-6 -6 -4 -10q-16 -23 -30.5 -76.5t-27.5 -69.5 l-8 -4q-14 -16 -26.5 -74t-24.5 -78q-9 -31 -38.5 -109.5t-39.5 -121.5q-2 -3 -3 -8t-3 -8q0 -1 -5.5 -26.5t-10 -40t-12 -36t-18 -34t-22.5 -15.5q-10 -1 -34 5t-31 7q-33 33 -37 129q24 46 29 74q0 29 16 66q3 10 10.5 34t14 41.5t14.5 32.5q10 38 31 84l20 64q3 8 7 22.5 t8 25t8 17.5q1 7 6.5 16.5t7.5 14.5q2 16 6 32t12 36.5t12 29.5t15.5 34.5t13.5 29.5q5 12 18 33.5t17 33.5q15 47 35 88q42 75 72 146q2 4 4 11.5t2 8.5q27 25 41.5 83.5t38.5 80.5q2 3 4.5 12t5.5 13l5 13q5 13 3 21q-19 8 -47 -10q-106 -84 -174 -119q-10 -5 -10 -6 q-4 -4 -18.5 -8t-20.5 -2q-9 4 -25 31q-9 23 -7.5 62t18.5 55q4 1 16.5 -1t17.5 -2q52 11 124 67t104 69q67 21 108 37q34 12 68 20q93 24 121 25q15 1 45.5 -0.5t42.5 -1.5q4 -1 19.5 -2t29 -2.5t22.5 -4.5q28 -6 39 -10q39 -15 84 -45l21 -14l4 -8q11 -11 16 -23l6 -12 q4 -9 13 -22.5t14 -26t6 -29.5l-4 -19q0 -3 -2 -22t-4 -27q-3 -13 -12.5 -33.5t-12.5 -29.5q-2 -2 -3.5 -10t-4.5 -11q-2 -4 -6 -10t-6.5 -11t-3.5 -11q-11 -21 -41 -64q-15 -19 -15 -35q-6 -4 -17.5 -14.5t-18.5 -13.5q0 -5 -4 -17q-7 -7 -7 -14l-20 -17q-21 -34 -41 -51 q-1 -1 -5.5 -3.5t-6.5 -4.5q-20 -9 -46.5 -39.5t-33.5 -36.5q0 -2 -8 -14q-7 -11 -19 -18q-4 -5 -12.5 -12t-14 -14t-8.5 -15z" />
<glyph unicode="C" horiz-adv-x="520" d="M563 719q15 20 21 24q3 5 14.5 19t13.5 18q8 10 13.5 31t11.5 27q8 17 28 55t32.5 67.5t17.5 57.5q6 24 6 63q-20 34 -70 31q-3 0 -9.5 -1t-8.5 -1q-17 -3 -36 -17t-22 -26q-16 -7 -32.5 -30t-18.5 -25q-53 -46 -80 -82q-6 -7 -20.5 -31t-24.5 -33q-4 -8 -14 -18 q-6 -11 -18.5 -29.5t-16.5 -27.5q-7 -17 -17.5 -34.5t-25.5 -39t-22 -33.5q-28 -25 -64 -85t-43 -95q-1 -1 -1 -3.5t-1 -4.5l-10 -17q-4 -4 -19 -41q-13 -43 -49 -102q-14 -44 -22 -57q-1 -8 -8.5 -22.5t-8.5 -16.5q0 -13 -2 -17q-15 -35 -18 -55q-8 -10 -12 -27 q-2 -2 -1.5 -4.5t-0.5 -3.5l-11 -18l1 -15q1 -14 -1 -14q-8 -16 -8 -37q-8 -24 -8 -37q-7 -45 -4 -80v-67l6 -41q0 -10 9 -23.5t20 -21.5q1 -1 4 -1t4 -1q6 -6 12 -6q15 0 39 8q4 1 13 2.5t15.5 3.5t10.5 6q14 3 27 16l32 17q32 20 113 82l12 8q3 3 9.5 9t12 10t9.5 6t4 4 q3 2 29.5 25t44.5 30q1 2 4 4l4 2q2 0 10 8q12 8 23 19q6 4 16 12.5t17 13.5l4 4l2 2q9 4 10 7q6 4 15 13.5t15.5 14.5t10.5 4q18 -2 18 -57q-5 -12 -13 -24t-14 -19.5t-16.5 -20t-15.5 -18.5q-4 -6 -14 -20.5t-17 -22.5q-20 -28 -71.5 -67t-69.5 -62q-23 -9 -43 -29 q-8 -4 -10 -4q-3 -4 -8 -8t-7 -8q-49 -27 -71 -33q-31 -19 -35 -20l-17 -6l-47 -19q-35 -2 -54 -3t-33 2.5t-18.5 6.5t-18 13.5t-23.5 17.5t-29 41q-2 8 -4 8q-33 36 -37 88q-10 30 -10 47q-10 69 2 160q6 28 10 72q40 201 90 303q5 7 12 20.5t9 16.5q8 12 28.5 66.5 t26.5 66.5q10 18 19 26q8 23 36 70t35 74q0 1 11 12q24 49 47 84q10 9 22.5 29.5t22.5 29.5q3 3 5.5 9t4 10t4.5 4q4 8 16.5 20.5l14.5 14.5q9 9 22 33t23 34q8 11 28 39t31 42.5t29 35.5t35 37q5 4 10 10.5t6 7.5q10 5 14 9q0 1 3.5 12t7.5 16q14 20 30 25q15 8 64 -2 q16 -4 26 -4q30 -9 101 -13.5t106 -25.5l8 -8t9 -7q15 -9 28 -40q4 -3 2.5 -15.5t-0.5 -15.5q0 -4 5 -11.5t4 -11.5q4 -11 2 -27t-6 -26q-1 -6 -11 -25q-1 -31 -30 -79.5t-31 -77.5q-2 -15 -16 -38.5t-17 -35.5q-29 -29 -35 -53q-4 -8 -8 -10q-5 -11 -15.5 -23t-18 -18.5 t-24.5 -19.5t-20 -15q-19 -22 -49 -27q-35 -6 -48 21.5t9 52.5z" />
<glyph unicode="D" horiz-adv-x="956" d="M418 1161q-2 -5 -12 -12t-11 -16q3 -4 25 -13q3 -6 13 -18.5t13 -20.5l3.5 -10.5t2 -7.5t-1 -7t-2 -6t-4 -7.5t-4.5 -8.5q-27 -42 -47 -114q0 -7 -4 -11q-1 -3 -4 -5.5t-4 -4.5q-15 -37 -37 -108q-6 -14 -15.5 -39.5t-15.5 -38.5q-5 -8 -10 -47q-21 -41 -37 -107 q-6 -19 -20 -51l-4 -33q-6 -14 -15 -44.5t-18 -47.5q-2 -14 -15 -54t-18 -40q-6 -39 -18 -74q-5 -5 -8 -18q-2 -7 -3 -21.5t-2 -17.5q-12 -24 -39 -111t-26 -106q8 7 30 0t25 -7t13 3t12 4q59 5 78 8l92 26q4 1 8.5 4.5t7.5 4.5q54 19 72 39q17 5 28 16q7 7 25 18t21 13 q2 4 4 6q4 2 14 2q15 17 57 55q5 7 27 31.5t29 40.5q3 2 9.5 11t12.5 11q1 8 11 21t10 14q32 32 58.5 81.5t39.5 94.5q1 2 4 7.5t4 9t0 8.5q3 10 14.5 41t15.5 44t11 39.5t8.5 43t0.5 37.5t-7 39q0 5 1.5 23t0.5 28q-4 9 -6.5 22t-3 22.5t-1.5 24.5t-1 21q-1 5 -1 14.5 t-1 14.5q-5 27 -26.5 74t-39.5 67q-1 10 -9 22.5t-23 25.5t-29 24t-35 24.5t-34 21.5t-32.5 19.5t-23.5 13.5q-8 0 -12 2q-33 15 -56 3q-10 -1 -21.5 -2.5t-17 -2.5t-11.5 -2t-9.5 -2.5t-5.5 -3.5zM-172 -156q-46 11 -66.5 21t-23 17.5t-0.5 23.5q9 46 67 51q1 0 5.5 -1 t5.5 -1q4 0 6.5 1t5.5 1t14 -3.5t13 -4.5q37 0 49 -8q7 2 15 9.5t15 8.5q0 14 7 33.5t8 23.5l2 7q7 12 13.5 36.5t10.5 34.5q9 44 21 90q2 2 2 19q4 11 8 31t8 30q11 29 13 49q6 6 6 15q9 40 59 225q1 4 7.5 31t11.5 43q10 40 32.5 106t30.5 94q3 14 10.5 44t10.5 47 q8 15 16.5 70t-2.5 67q-43 -11 -87 -44t-70.5 -64.5t-54.5 -68.5t-34 -44q-2 -5 -20 -19l-35 -51q-10 -11 -33.5 -54.5t-44.5 -54.5q-11 -35 -43 -67q-2 0 -8 -6q-22 -39 -41 -43q-9 2 -6 30q-4 21 0 60q4 87 39 119q0 18 10.5 49.5t11.5 36.5q5 5 16 12t15 12q2 10 8 28.5 t8 28.5q6 3 11 5l7.5 3l5 2t3 1.5l1.5 1.5t0.5 1.5t0 2.5t0.5 4.5t1 6.5t3 9q27 37 61 58q19 11 36 45.5t38 42.5q17 22 52.5 53t41.5 37q8 13 27 23.5t47 21t37 14.5q9 2 18 3.5t11 1.5t6.5 2.5t7 4.5t10.5 9q30 -4 75 17.5t67 21.5q4 0 15 1.5t17.5 0.5t10.5 -6 q97 6 180 -25q10 -4 34.5 -12t40 -15t23.5 -16l16 -10q3 -2 10 -4t9 -4q1 -1 4.5 -7t9.5 -10q0 -2 8 -2l5 -8q17 -13 32.5 -31.5t22.5 -29t22.5 -39t18.5 -33.5q6 0 6 -2t16 -41q9 -18 9 -31q21 -44 30 -98q1 -9 5 -37.5t5 -42t3 -37.5t1 -46.5t-4 -47.5q5 -58 -22 -127 q0 -15 -2 -23q-20 -81 -35 -118q-4 -20 -4 -35q-48 -56 -53 -92q-4 -8 -4 -9l-9 -18q-40 -82 -92 -131l-10 -15q-46 -46 -61 -55q-12 -15 -27.5 -27.5t-33.5 -25.5t-27 -21l-9 -4q-70 -65 -108 -73q-46 -40 -123 -64q-1 -1 -6.5 -1t-7.5 -1q-19 -11 -57.5 -21t-61.5 -10 q-25 -13 -37 -14q-8 0 -24.5 -1t-24.5 -1q-4 0 -11 1t-16 2.5t-14 2.5q-3 0 -8.5 -0.5t-9.5 -0.5t-7 1h-18q-1 0 -11 -2.5t-17 -3.5t-19.5 -2t-22.5 1t-22.5 7t-23.5 15t-21 24q-37 12 -70 12z" />
<glyph unicode="E" horiz-adv-x="763" d="M979 1094q0 -11 -8 -39q-2 0 -17 -8q-54 -14 -179 -36t-187 -42q-33 -11 -84 -23q-1 -1 -4.5 -3.5t-5.5 -2.5q-27 -4 -29 -10q-11 -9 -25 -41q-3 -4 -5.5 -12t-4.5 -11t-5.5 -9t-4.5 -9q-21 -23 -37.5 -75t-32.5 -71q1 -6 -3 -15.5t-11 -21.5t-8 -14q-2 -2 -39 -80 q0 -1 -4.5 -11t-3.5 -15q2 -5 6.5 -6.5t12 0t14.5 3.5l17.5 5t16.5 4q114 18 172 22q55 0 78 -4q43 -3 61 -16q11 -7 14 -9t7.5 -12t1.5 -22q1 -4 -3 -13t-9 -12q-69 -24 -84 -34q-10 -4 -49.5 -15.5t-57.5 -23.5q-46 -20 -112 -52q-28 -13 -103 -28q-43 -4 -61 8q-3 1 -8 6 t-11 4q-3 -1 -5 -4t-3.5 -8t-2.5 -9t-2.5 -10.5t-2.5 -9.5q-25 -25 -39 -78q-3 -11 -20 -63q-16 -83 -27 -123q-9 -58 -4 -90q0 -1 6 -33h4q11 -14 29 -20q15 -7 25.5 -8t31.5 4q13 0 29 4q28 6 51 16q20 8 53 20t45 17q14 8 49 29t59 33.5t48 21.5q7 6 24.5 13.5t22.5 10.5 l14 7q4 1 16.5 6.5t20.5 7.5t18.5 0.5t16.5 -10.5q2 -11 1 -16t-4.5 -12l-4.5 -9l-8 -14q-8 -16 -22.5 -30t-35 -30.5t-28.5 -23.5q-26 -23 -57.5 -46.5t-73 -52.5t-58.5 -41q-15 -6 -42.5 -22t-51.5 -25.5t-47 -9.5q-28 0 -76 19.5t-53 21.5q-5 9 -23 24q-3 14 -22 37 t-21 29q-4 19 -10 29q-4 8 -14 43q-33 130 10 291q2 8 5 17t7 19.5t6 16.5t6 25t9 28q7 41 56.5 162.5t76.5 148.5q4 17 12 35.5t19 41t16 34.5l13 18q12 19 17 27.5t14 24.5t12.5 28.5t2.5 22.5q1 1 1.5 7.5t2.5 8.5q2 4 7 10.5t8 12.5t2 12q-9 11 -23 14.5t-29 2.5t-34 1 q-57 5 -110 27t-64 55q-20 46 -33 107q-1 5 -3.5 12.5l-4 12t-2.5 9.5t0 8t4 4.5t9.5 0.5t16.5 -4q4 -1 9 -4t10.5 -8t7.5 -7q12 -13 27.5 -22t36.5 -13.5t32.5 -6.5t38 -3.5t31.5 -1.5q27 0 73 -5.5t64 -2.5q15 0 41.5 2t38.5 2q10 1 31 5t31 5q14 1 48 2.5t61 4t42 6.5 q5 0 13.5 2.5t11.5 3.5q17 3 59 1.5t59 4.5q17 -5 54 -5t51 -3q8 -3 32.5 -10.5t37.5 -15.5t18 -23z" />
<glyph unicode="F" horiz-adv-x="624" d="M887 1044q-10 12 -10 41q-7 12 -33 5q-30 0 -60 -3q-39 -13 -106.5 -17.5t-93.5 -12.5q-32 -11 -90 -27q-8 -3 -24 -13.5t-26 -12.5q1 -8 12.5 -23t12.5 -23q4 -6 0.5 -20t-6.5 -21.5t-9 -20.5t-8 -17l-2.5 -10l-2.5 -10t-1 -7q-9 -29 -37 -86v-6q-3 -9 -11 -26.5 t-11 -26.5q-1 -2 -7.5 -22.5t-11.5 -29.5q-3 -8 -11.5 -31t-13 -38.5t-7.5 -32.5q3 -7 7.5 -9.5t13 -2.5h11.5q6 -1 17.5 -1t19 -1t11.5 -4l106 -43q1 -1 2 -3t2 -2q15 -7 36 -24t24 -19q4 -6 18.5 -21t19.5 -26.5t0 -23.5q-8 -9 -21.5 -9.5t-33.5 4t-26 5.5q-6 0 -54 -6 l-53 -5q-28 -3 -71.5 -18t-57.5 -18q-5 -1 -26 -6t-33 -5q-4 -4 -8.5 -11t-9 -17.5t-7.5 -14.5q-4 -11 -14.5 -32.5t-16.5 -35.5t-11 -32.5t-5 -32.5q-18 -26 -31 -77t-20 -66q-2 -5 -11.5 -20.5t-11.5 -24.5q-2 -4 -4 -14t-4 -15q-7 -27 -19.5 -56.5t-28.5 -63.5t-24 -52 l-16 -57q-1 -3 -18 -49l-17 -33q3 -22 -8.5 -29.5t-25.5 -3.5t-23 12q-32 26 -35 31q-12 28 -12 66q0 21 6 39q4 30 8 41q7 59 33 104q3 4 4.5 8t3 9.5t2.5 9.5q7 10 16 51l11 22q2 7 7 25t10 32t11 25q0 6 11 17q6 23 8 26q1 16 6.5 34.5t9 28.5t13.5 34t12 28q3 19 12 37 q3 14 20.5 59t26.5 62q0 1 1 3.5t1 4.5q0 3 3 12t3 15l15 30q10 26 73.5 166.5t79.5 212.5q19 16 27 131q-14 4 -36.5 -3t-31.5 -7q-3 -2 -16 -6.5t-16 -9.5q-17 -1 -44.5 -9t-39.5 -10q-3 -1 -11.5 -5t-13.5 -5q-49 -19 -104.5 -15.5t-102 35t-51.5 76.5q-15 68 2 90 q6 17 13 20.5t12.5 -0.5t16.5 -14t17 -14q8 -14 55 -8t85.5 15.5t56.5 15.5q6 2 92 24q11 0 19 4q13 3 47 8.5t57 11t41 13.5q15 11 98 29q7 1 20 5.5t15 4.5q13 3 38 7t38 7q19 2 68 8t73.5 8t63 1.5t71.5 -6.5q2 0 5.5 -3t5.5 -3q1 0 8.5 -2.5l13.5 -4.5q2 -2 12.5 -5.5 t16.5 -6.5q22 -15 35 -33q13 -9 22 -22q2 -3 10 -13t12.5 -16t8.5 -14.5t4 -14.5q0 -11 -14 -28q-3 -2 -10.5 -10t-10.5 -9q-45 -18 -59 4z" />
<glyph unicode="G" horiz-adv-x="907" d="M709 1061q-17 12 -35 13t-32.5 -6.5t-25.5 -16t-20.5 -17.5t-11.5 -10q-23 -23 -80.5 -100t-75.5 -97q-4 -7 -23 -29t-22 -36q-60 -57 -152 -273q-4 -12 -9.5 -24.5t-13 -28t-11.5 -24.5q-20 -47 -33 -86q-8 -14 -15.5 -40t-15 -60.5t-10.5 -43.5q-9 -34 -16 -72t-10 -60 t-8 -64.5t-7 -55.5q1 -13 0 -25.5t1 -25.5t7 -18t10 -6.5t12.5 -0.5t11.5 2t13 5t10 4q27 9 59.5 33.5t47.5 31.5q13 12 44 40t50.5 48t34.5 41q54 64 119 162q14 22 35 70q0 2 5.5 19t6.5 28q-1 5 -4 7t-9 4t-8 3q-30 15 -43 15q-17 -1 -27.5 -0.5t-19 -0.5t-17.5 -5.5 t-22 -14.5q-4 -1 -28 -4q-1 1 -6 1.5t-11.5 2.5t-11.5 6q-14 12 2 49q12 9 31 19q3 2 10 -2q18 9 59 17.5t60 4.5q11 -1 40 1t64.5 6t40.5 4q15 0 38.5 12.5t31.5 23.5q12 37 38.5 53.5t63.5 10.5q6 -2 33 -10t33 -11q23 -8 39 -28q-12 -45 -54 -82q-17 -43 -49 -88 q-27 -26 -50 -71t-46.5 -107t-30.5 -78q-5 -11 -17 -32.5t-17 -33.5q-8 -15 -26.5 -64.5t-37.5 -72.5q-6 -14 -17.5 -42.5t-18.5 -45.5t-14 -41t-11 -45q-4 -12 -13.5 -32t-13.5 -32q-4 -16 -28 -51t-27 -51q0 -40 -31 -58q-27 -14 -41 9q-9 14 -8 41q2 104 14.5 182 t48.5 143q4 7 12.5 30t12.5 30q-1 16 8.5 40t5.5 42q2 6 8 17.5t10 23.5t3 28q-3 3 -6.5 -0.5t-7.5 -9t-7 -6.5q-1 -1 -22 -27l-21 -24q-8 -12 -8 -14q-24 -28 -33 -48q-28 -26 -70.5 -76t-64.5 -71q-8 -8 -24 -21t-23 -20q-30 -27 -72 -29.5t-76 23.5q-6 5 -22 31 q-30 29 -46 67.5t-11 71.5q-19 63 -9 121q0 17 5 100q14 229 92 416q1 6 3.5 19t4.5 20.5t6.5 17.5t11.5 16q3 13 27 68q7 13 16 39l21 41q48 105 78 152q2 5 13.5 17.5t10.5 20.5q13 8 50 59t53 77q28 46 54 69.5t56 29t54.5 3t70.5 -9t84 -6.5q10 -2 25.5 -8.5t21.5 -8.5 q1 0 22.5 -5t29 -7t24 -6.5t25.5 -9.5t14 -11q1 -2 18 -41q13 -30 11 -47q-1 -10 -10 -24.5t-24 -32.5t-18 -23q-2 -3 -7.5 -12.5t-8.5 -11.5l-14 -8q-2 -1 -6 -5t-5 -4l-24 -4q-19 0 -23 2q-9 3 -18 17.5t-12 17.5q14 19 15.5 60t-13.5 55z" />
<glyph unicode="H" horiz-adv-x="819" d="M328 772q9 13 12.5 17t6.5 10.5t3.5 9t3.5 13.5l6 22q4 11 18 46t19 54q12 14 24.5 46.5t14.5 37.5q4 12 14.5 36.5t15.5 39t9 38.5t2 48q-2 9 -3.5 15t-6 12.5t-6 8l-9.5 9.5l-10 10q-9 1 -33 6.5t-37.5 6.5t-29.5 -10t-25 -38q0 -13 -4 -26.5t-4 -16.5 q-31 -59 -43.5 -115t-19.5 -97.5t-23 -69.5q0 -5 -2 -15t-2 -16q-2 -27 -6 -49.5t-7 -37t-12.5 -37t-14 -32t-20 -40t-22.5 -44.5q-8 -27 -35.5 -77.5t-35.5 -85.5q-3 -5 -14.5 -23.5t-15.5 -26t-13.5 -24t-13.5 -27t-9.5 -24.5t-7.5 -27t-2 -25q-35 -82 -35 -155 q-1 -8 -17 -68.5t-8 -87.5q-3 -13 11 -41q9 -6 14 -24.5t11.5 -31t19.5 -7.5q9 0 18 18q22 36 27 60q4 14 20.5 48.5t26.5 63t6 43.5q31 64 29 88q15 28 46.5 117.5t53.5 116.5q-1 9 0 15t7 17l5 11q3 2 8 9t9 9q27 1 54.5 -2.5t68 -12.5t51.5 -11q24 -8 30 -11 q24 -8 27 -12q14 -1 24.5 -4.5t28.5 -3.5q4 3 13 6.5t14.5 7.5t7.5 10q5 16 -4 27.5t-27 11.5q-39 5 -96.5 37.5t-77.5 38.5q-43 15 -47 16q-10 0 -24 7q-21 4 -23 12q5 24 30.5 95.5t35.5 84.5zM1087 1329q15 -47 19 -72q-36 -80 -57 -104q-2 0 -2 -2q-1 -3 -10 -21t-9 -30 q-5 -6 -11 -21t-11 -20q-9 -10 -16.5 -38t-16.5 -38q-26 -75 -43 -113q-9 -14 -21 -49q-1 -7 -11.5 -31t-10.5 -34q-11 -25 -32 -66t-36 -71.5t-18 -45.5q-1 -3 -1.5 -11t-2.5 -13q-9 -26 -23.5 -73.5t-28.5 -87.5t-30 -77q-4 -39 -8 -49q-23 -60 -29 -92l-10 -33l-4 -2 q-16 -69 -43 -151q-27 -69 -41 -164q-9 -18 -9 -21q0 -2 0.5 -8.5t0.5 -12t-1 -9.5q-10 -21 -14.5 -63.5t-13.5 -61.5q-1 -1 -3.5 -1t-4.5 -1l-5 -4q-22 0 -49.5 27.5t-38.5 51.5q-9 9 -15 20t-9 20t-4.5 24t-2 22.5t0 24.5t0.5 22q0 36 9.5 73t26 81t23.5 68 q0 12 15.5 51.5t34.5 82.5t22 54q16 32 16 45q8 53 54.5 154t54.5 153q38 91 54 121q5 10 23 64q3 9 5 14.5t5.5 15.5t6.5 19q5 20 18.5 58t18.5 57q2 7 9 33t13 40q7 41 36.5 119.5t53.5 124.5q27 30 31 84q40 11 78.5 2t66.5 -35z" />
<glyph unicode="I" horiz-adv-x="475" d="M668 1012q-6 4 -12 4t-10 -1.5t-11 -5.5t-10 -5q-11 -1 -34.5 -3.5t-31.5 -4t-22.5 -5.5t-23.5 -10.5t-19 -17.5q-10 -36 -41 -105t-39 -94q-9 -13 -19 -37q-100 -149 -170 -395q-16 -31 -33 -90.5t-26 -81.5q-3 -15 -13.5 -42t-13.5 -40q-5 -5 -8 -17q-11 -22 -31 -106 q-8 -17 -10 -23q-1 -9 -2.5 -12.5t2.5 -12.5l6 -13.5t8 -14t9 -14.5q21 -2 69 1.5t77.5 -3t53.5 -31.5q3 -4 11 -12.5t10.5 -11.5t6 -9.5t2.5 -10.5t-5 -9.5t-12 -11.5l-27 -13q-39 -8 -119 -8q-38 4 -117 -10q-8 -3 -25.5 -6.5t-28.5 -9t-17 -15.5q-11 -11 -119 -37 q-4 -1 -10 -1t-10 -1q-14 -3 -54.5 -19t-76 -30t-39.5 -14q-6 1 -18.5 11t-14.5 11q-8 11 -12 60q-7 14 -3 22q3 13 14.5 21.5t30.5 16t25 11.5q24 23 69.5 32.5t67.5 25.5q8 3 22 14.5t15 17.5q7 13 10 27q2 12 11 29q8 47 58.5 142t59.5 120q3 10 14 34.5t13 43.5 q9 8 15 23.5t12 40t10 34.5q13 27 20 49l7 19q30 69 71 170q46 122 60 147q4 5 9 15.5t9 15.5q19 34 68 178q5 20 4 24q-10 7 -29 7q-12 0 -35.5 -5t-40.5 -2q-12 2 -39 11q-11 5 -31.5 9t-34.5 9.5t-20 16.5q-3 10 -14 24q0 13 -1 19.5t-3.5 15t-3.5 18.5q19 27 61 32 t87 -3t103.5 -7.5t100.5 19.5q42 13 109 25t100 12q60 8 90 -8q12 -6 29 -23q27 -18 35 -34.5t8 -49.5q-10 -25 -35.5 -31t-97.5 -1z" />
<glyph unicode="J" horiz-adv-x="763" d="M793 1251q1 -9 32.5 -27t46.5 -22q0 -9 9 -22.5t10 -18.5q2 -6 2.5 -20t-2.5 -23q-13 -56 -35 -120t-50.5 -137t-39.5 -103q-31 -109 -55 -150q0 -22 -2 -30q-23 -42 -41.5 -122.5t-32.5 -111.5q-1 -3 -6 -14.5t-6 -18.5q-25 -47 -59.5 -150t-41.5 -120l-8 -27 q-19 -22 -50 -78t-56 -79q-4 -14 -19 -30.5t-20 -29.5q-16 -13 -41 -43.5t-35 -40.5q-3 -3 -21 -10q-21 -7 -41 -22.5t-43.5 -25t-66.5 -9.5q-30 0 -49 8q-6 2 -14 9.5t-9 8.5q-21 -2 -39 9q-26 13 -46.5 40t-26.5 54q-2 4 -7 8.5t-6 7.5q-2 19 -21 43.5t-22 30.5 q-24 9 -35 26t-11 33.5t-5 33.5t-18 26v53q-6 51 57 164q18 3 43 24t41 25q15 6 43.5 19t40.5 18q4 2 9 7t9 7q16 4 33.5 5t16.5 -13.5t-29 -42.5l-27 -37q-39 -43 -69 -136t-5 -136q6 -12 15 -22.5t23.5 -23.5t17.5 -16q7 -1 16.5 -4t13.5 -4q30 -11 48 -6q19 3 49 18.5 t43 18.5q4 3 18.5 16.5t21 19.5t16.5 17t17 20q33 26 74.5 78t48.5 78q2 38 46.5 97.5t48.5 72.5q13 17 18 51t12 47q2 14 13.5 32t13.5 24q3 12 9.5 35.5t10.5 43t4 35.5q24 50 27 82q3 12 7.5 39.5t10.5 42.5q11 101 72 266q-1 13 3.5 35t4.5 29q-26 7 -65.5 -3.5 t-67.5 -27.5q-21 2 -50 0.5t-62 -1t-60.5 3t-45 12.5t-15.5 28q0 5 -6 19.5t-7 19.5q-3 23 17 43q5 1 9 -0.5t8 -5t5 -4.5q17 2 33 -14q50 2 170 26q4 0 13 4t12 4q2 0 6 -2t6 -2l27 11q2 1 36 10t48 16q3 2 9.5 8.5t12.5 10.5t12 6q0 1 2 6.5t3 7.5l3 6t5 6t8 4 q4 1 13.5 -2t15.5 -2z" />
<glyph unicode="K" horiz-adv-x="675" d="M319 246q0 -12 18.5 -36.5t31.5 -33.5q8 -15 24 -36.5t21 -30.5l41 -58q0 -21 94 -157q1 -1 8.5 -13t13.5 -18q0 -17 22 -41.5t25 -30.5q22 -41 89 -100q2 -2 9 -13t9 -14.5t6 -12t5 -15.5t1 -15q0 -1 3.5 -12t2.5 -17q-2 -7 -9.5 -15t-8.5 -11q-21 3 -39.5 10.5 t-40 19.5t-31.5 17q0 2 -4 6q-12 7 -29 27.5t-18 21.5l-20 33q-3 4 -10 15.5t-13 17.5l-6 8q-6 9 -37.5 60.5t-54.5 74.5q-23 48 -41 66q-4 14 -16 32.5t-23 30.5l-10 12q-15 40 -49 74q0 2 -1.5 4t-3.5 6t-4 7q-1 1 -6 8t-7.5 10t-8.5 7t-12 5q-7 -10 -25 -31.5 t-29.5 -38.5t-15.5 -34q-5 -3 -12 -15.5t-13 -15.5q-1 -11 -11.5 -32t-10.5 -31q-5 -5 -10 -17.5t-7 -15.5q0 -17 -13.5 -48t-40.5 -79t-27 -49q-7 -42 -27 -62q-13 1 -24.5 4.5t-22.5 11.5t-17 13t-18 18t-16 17q-3 6 -13.5 17.5t-13.5 17.5q-3 30 11 67.5t30 54.5 q8 16 27.5 65.5t38 85.5t40.5 58q3 13 13 27q5 10 17.5 31.5t17.5 32.5t9.5 29.5t2.5 35.5q20 19 23.5 56.5t9.5 49.5q5 7 20 16t19 19q1 18 3.5 35.5t7.5 37t8 30.5t11.5 33.5t11 28.5t13.5 32t12 29q0 4 1 9t2.5 11.5t2.5 9.5l23 64q29 95 37 108l4 2q1 1 1.5 5.5t2.5 5.5 q1 12 16 51q2 3 2.5 9t1.5 7q1 6 1 17t1 16q3 14 9 25l20 14q31 6 37 2q39 4 53 -14q2 -2 5 -8.5t5 -8.5q2 -5 10 -14t9 -16q1 -6 -2 -18.5t-4 -16.5q-15 -83 -43 -117q0 -9 -25.5 -80t-30.5 -76l-18 -57q-14 -36 -12 -53q12 0 50.5 26t49.5 37q4 11 25 30.5t34 27.5 q19 7 23 10q11 6 44.5 48.5t43.5 51.5q0 12 39 51q27 16 52.5 56t52.5 81t59 60q12 24 16 27q3 2 25 10l61 -23q9 -2 26 -11t23 -11q82 -42 35 -74q-7 -8 -29.5 -34.5t-33.5 -38.5t-30 -29.5t-36 -28.5q-77 -84 -153 -123q-12 -12 -15 -14q-43 -43 -131.5 -117t-126.5 -111 q-42 -38 -86 -116q-3 -8 -13.5 -20.5t-13.5 -18.5z" />
<glyph unicode="L" horiz-adv-x="468" d="M463 1251q14 -3 27.5 -14.5t21.5 -15.5q24 -17 30.5 -45.5t-1 -55t-23.5 -47.5q0 -6 -4 -17t-4 -12q-4 -11 -16.5 -32.5t-16.5 -34.5q-2 -5 -6 -20.5t-8.5 -28t-9.5 -15.5q-7 -53 -56.5 -146t-56.5 -142l-6 -31q-8 -15 -38.5 -101.5t-31.5 -101.5q-9 -16 -23 -57t-26 -60 q1 -10 -3 -23.5t-3 -23.5q-2 -2 -6 -10t-8 -10q-6 -47 -27 -84q-12 -22 -23 -75.5t-28 -74.5q1 -15 -10.5 -43t-10.5 -32q2 -24 -8.5 -71t-5.5 -73q2 -2 47 -2q30 0 110.5 32t139.5 32q22 0 67 -9q1 0 8.5 -2t12.5 -4q18 -7 37 -20.5t18 -26.5q0 -3 -2 -6.5t-6 -6.5t-7 -5.5 t-8.5 -5.5t-9 -5t-9 -4.5t-7.5 -3.5q-17 -3 -34 -9t-26.5 -11t-28.5 -16t-26 -15q-26 -16 -92 -33t-100 -16q-50 -18 -122 17.5t-97 82.5q-7 25 -10.5 49.5t-5 54.5t-3.5 46q0 4 -2 11t-2 11q-5 58 41 181q1 3 3 15t5.5 21.5t8.5 12.5q3 35 16 65q3 20 16 33q8 67 43 143 q39 105 99 281q11 22 22 68q11 44 42 119.5t40 101.5q0 1 2 5.5t4 8.5q13 48 18 67t20.5 55.5t33.5 59.5q-1 9 1.5 18t7.5 20t7 16q0 8 4 32q7 23 19 37t26 8q13 -3 31 -3.5t29 -2.5z" />
<glyph unicode="M" horiz-adv-x="888" d="M303 -12q13 19 27 43t23.5 41t25 51t20.5 44.5t23 52.5t20 46q36 123 68 183l4 8q30 42 62 147.5t67 149.5q0 6 10.5 29.5t24.5 50.5t16 32q5 21 34.5 65.5t27.5 63.5q3 7 12 25.5t15 31.5t17 34t20.5 36.5t22.5 34.5t25 32t27 24.5t29 17t30.5 5.5t32.5 -7 q5 -5 13.5 -15.5t13.5 -15.5q1 -42 -24 -116.5t-25 -112.5l-21 -49q-7 -19 -25.5 -87t-35.5 -102q-88 -264 -121 -395q0 -6 -4 -10v-13l-10 -47q-17 -58 -29.5 -116t-25 -131.5t-19.5 -106.5l-8 -57q-1 -3 -1 -10.5t-1 -10.5q-9 -92 -9 -117v-41v-11v-14t0.5 -13.5t1.5 -14 t2.5 -12t4 -10t6.5 -4.5q6 -1 10.5 2t10.5 12t7 10q7 10 33.5 43t34.5 53q23 23 47 109q0 3 2 9t2 9q5 32 12 37q5 -1 9 -4.5t6 -10.5t3.5 -12.5t3.5 -16t3 -15.5q2 -6 8 -19q-3 -20 -4 -77.5t-10 -87.5q1 -4 -2.5 -12t-3.5 -11q-7 -30 -15 -45q0 -25 -31 -64t-57 -57 q-47 -24 -106.5 11t-75.5 87q-25 54 -25 134q0 41 -2 57q0 165 23 235q9 18 16 48t13.5 70t9.5 52q9 46 44 166t42 193q-27 -34 -62.5 -127.5t-60.5 -130.5q-9 -42 -29 -80l-20 -64q-14 -41 -30.5 -81.5t-42.5 -93t-57.5 -85.5t-60.5 -33q-8 0 -34 13q-66 32 -80 88 q-21 57 -25 96q-2 25 2 71t4 62q3 13 0 27q31 166 43 225q4 20 15 63t14 66q3 13 11.5 42.5t12 47.5t3.5 35q3 17 13 52.5t13 54.5q2 7 6.5 22t6.5 26t2 21q-5 4 -12 -10q-1 -1 -1 -2q-1 -3 -7 -15.5t-7 -17.5q-11 -25 -37 -74t-37 -75q0 -17 -12 -47q-6 -16 -21 -56.5 t-22 -62.5q-1 -3 -1.5 -14t-2.5 -17q-21 -65 -33 -94q-15 -45 -20 -53q-6 -17 -7 -19q-42 -123 -49 -160q-37 -89 -55 -168q-19 -25 -31 -93t-33 -91q2 -4 0 -6q-1 -2 -4 -12t-8 -15q-2 -7 -11 -20.5t-13 -20.5q-10 -21 -17 -24q-13 -2 -18 -4.5t-15.5 4t-14 9t-13.5 11.5 q-4 3 -10.5 8t-9 6.5t-7 6.5t-4.5 8t-2.5 10t0.5 13q-2 28 25 55q3 11 15 45t22 63t10 35q0 1 13.5 32.5t27.5 70t16 53.5q62 178 72 223q7 10 6 12q6 6 12 29.5t10 30.5q2 8 9.5 24.5t9.5 24.5q40 109 45 125q4 4 29.5 64t27.5 67q48 125 133 285q22 43 29 53 q7 9 35.5 52.5t46.5 61.5q4 2 11.5 12t8.5 11q12 12 50 12q1 0 18 -2t25 -4q14 0 20 -6q6 -7 11.5 -26t4.5 -35q-3 -25 -16 -70.5t-16 -67.5q-2 -6 -14.5 -36.5t-12.5 -45.5q-15 -39 -31 -110q-5 -18 -15.5 -71t-18.5 -81v-24l-60 -279q-4 -17 -14.5 -52.5t-14.5 -53.5 q-1 -10 -5.5 -58.5t-10.5 -72.5q-4 -10 -4 -43q0 -7 3 -20t3 -19z" />
<glyph unicode="N" horiz-adv-x="923" d="M545 -86q1 3 6 14.5t6 18.5q14 24 26 93.5t33 100.5q22 130 58 193q0 31 12 55q10 26 27 82q7 17 45.5 137t66.5 166q2 4 4.5 13.5t4.5 13.5q0 4 3.5 10.5t8.5 14.5t6 10q4 8 6 10q0 8 6.5 23.5t7.5 21.5q10 33 38.5 86t35.5 70l6 12q0 21 39 67q18 33 35 52q11 11 12 14 q8 8 11 16q15 14 32 39q3 2 13 8t14 8.5t13 6.5t15.5 6t16 3t18.5 1q28 -12 37 -23q22 -19 15 -49q0 -11 -24.5 -38.5t-33.5 -18.5q-8 0 -10 5.5t-1 12t-1 11.5q-4 3 -9 -3t-5 -10l-11 -10q-24 -24 -51 -77.5t-37 -67.5q-61 -109 -61 -156q-15 -29 -32.5 -78t-28.5 -69 q-32 -82 -44 -125q-1 -3 -24 -80q-6 -10 -11 -27t-8 -24q-6 -24 -6 -25q-39 -84 -39 -141q-9 -9 -12.5 -31.5t-7.5 -28.5q-1 -4 -4.5 -24.5t-7.5 -32.5q-19 -48 -19 -76q-24 -41 -41.5 -133t-25.5 -115q0 -8 -4.5 -23.5t-4.5 -23.5q-3 -11 -17 -41t-17 -49q-9 -12 -21.5 -43 t-15.5 -37q0 -31 -42 -44t-69 -1q-16 4 -33.5 16t-26 19t-29 28.5t-21.5 22.5l-25 60q-37 101 -37 270q-3 46 0 96q-1 26 4 140q0 53 5 113t5 79q0 9 -0.5 26t-0.5 31t1 27q19 39 3 92q16 41 8 68q0 93 -6 97q-3 2 -9 -16t-25 -88l-1 -6q-11 -15 -34 -68.5t-24 -66.5 q-4 -8 -4 -18q-14 -26 -26 -55l-60 -119q-1 -2 -2 -5.5t-2 -4.5q-4 -16 -24 -52q-50 -108 -56 -120q-22 -63 -43 -84q0 -19 -10 -39q-23 -50 -51 -97q-10 -43 -44 -102t-85.5 -104t-95.5 -33q-11 2 -23 14q-3 2 -6 16.5t-2 20.5q-4 17 10 31q5 1 7.5 -4t3 -11t2.5 -11t6 -5 q3 1 24 18q19 21 36 50.5t35.5 70.5t26.5 56q46 68 91 176q32 49 61 141q5 15 16 37q1 2 6 16t11 21q10 31 36.5 88.5t36.5 87.5l60 143q4 10 30.5 82t49.5 102q5 14 20 33q4 16 11.5 31.5t19.5 37t16 28.5l27 45q3 7 10.5 19.5t11.5 20t7.5 18.5t3.5 21q17 57 24 121 q1 7 -1.5 25t-1.5 31.5t9 21.5q1 3 11 6q3 2 6.5 7t5.5 6q60 15 117 -101q2 -12 -0.5 -34.5t-6.5 -55t-6 -55.5q0 -1 -6 -94q0 -17 -4 -25q8 -88 -13 -263t-15 -257q5 -3 0.5 -33t-3.5 -35q-18 -60 -20 -145t2.5 -146t-4.5 -129q-1 -8 -1 -24t-1 -27q-11 -84 16 -82 q20 2 43 47q18 35 21 70z" />
<glyph unicode="O" horiz-adv-x="800" d="M354 535q11 -1 28.5 -11t18.5 -10q39 -12 82 -18h60q6 1 14.5 2.5t12.5 2.5t10 3.5t11 6t11 9.5q21 16 21 62q13 32 30.5 100.5t20.5 99.5l6 66q12 213 -135 354q-7 2 -20 6.5t-15.5 4t-15.5 -0.5q-20 -4 -33.5 -13t-34.5 -32.5t-23 -25.5q-1 -4 -6 -13.5t-9.5 -17 t-4.5 -8.5q1 -4 21.5 -16.5t27.5 -14.5q15 -5 39.5 -18t36.5 -17q1 -1 3 -2t3.5 -2t1.5 -2q9 -5 28 -8.5t29 -9.5q21 -25 -41 -93.5t-106 -99.5q-12 -31 -44.5 -67.5t-60.5 -71.5t-34 -70q7 -16 17.5 -28t27.5 -27t22 -20zM231 514q-9 -21 -29.5 -69.5t-29 -70t-20.5 -59 t-19 -73.5q-31 -91 -31 -164q-7 -20 -10 -58q3 -19 4 -54.5t8 -53.5q11 -46 33 -51q4 0 21 10q29 12 61 39q38 31 86.5 95t69.5 85q39 45 73.5 105.5t52 102t50.5 124.5q-10 4 -19.5 5.5t-21.5 1.5t-18 1q-41 0 -120 29.5t-96 60.5q-17 17 -26 15q-4 -3 -9.5 -10.5 t-9.5 -10.5zM774 584q18 -5 49.5 10t55.5 31q55 18 100 63q1 1 5.5 5t6 4t8.5 -1q-5 -38 -34 -75q-29 -34 -98.5 -74.5t-94.5 -65.5q-16 -4 -24 -8q-1 -1 -4 -3.5t-6 -4.5t-7 -2q-16 -39 -47.5 -113.5t-46.5 -113.5q-11 -23 -12 -25q-11 -27 -38 -78.5t-38 -62.5 q-12 -16 -38.5 -65t-45.5 -68q-5 -12 -24.5 -29.5t-24.5 -26.5q-3 -3 -5 -7.5t-4.5 -6.5t-7.5 -2q-6 -5 -17.5 -20.5t-16.5 -20.5q-9 -9 -25 -21q-15 -11 -21 -20q-13 -7 -43 -26t-52 -26.5t-50 -4.5q-27 1 -50.5 13t-36 24.5t-32.5 35.5t-28 31q0 9 -10 26.5t-11 20.5 q-24 70 -24 103q-12 35 -9 57q0 6 1.5 28t0.5 35q0 136 21 205q0 26 6.5 55t19 70.5t15.5 52.5q4 7 8 21.5t4 15.5q5 23 14 35q1 6 17 55q23 47 47 103q7 14 10 26q1 5 5.5 13t4.5 12q3 2 0.5 14.5t-2.5 16.5q0 10 -1.5 43.5t-0.5 50.5l9 47q7 28 59 176q5 10 22.5 35.5 t31.5 48t14 29.5q4 13 55 58t63 48q35 12 172 -18l64 -15q47 -16 80 -49q5 -5 8 -14q9 -9 16.5 -19.5t12 -17.5t11.5 -20t11 -19q6 -10 11 -22.5t8 -22.5t6 -26t4 -23.5t3 -25.5t3 -23l6 -29q10 -101 -4 -133q2 -23 3 -28t-3.5 -27t-5.5 -27q0 -21 -3 -45t-3 -31 q-16 -75 -19 -86q-5 -20 -4 -26z" />
<glyph unicode="P" horiz-adv-x="702" d="M94 225q-10 -11 -21.5 -35t-18 -42.5t-17 -49t-12.5 -35.5q-69 -196 -80 -290l-11 -23q-7 -28 -35.5 -30.5t-54.5 15.5t-30 40q-4 16 2 80q7 31 14 45v4q2 2 2 6q4 4 4 6q1 4 6.5 17.5t7.5 21.5q2 6 9.5 34.5t13.5 41.5q0 7 4.5 16.5t5.5 13.5q1 1 2 5.5t2 5.5l7 20 q3 7 10.5 28t13.5 32q4 11 45 112l43 117q22 50 25 55q5 12 20 56q29 40 60.5 121.5t42.5 103.5q5 12 21 51.5t26 62.5q10 20 22 56q3 8 9.5 22.5t8.5 20.5t5 22t-2 27q1 1 7 5t9 5q4 -2 4 0q5 4 13 6.5t16 2.5t19.5 -1t18 -2t18 -3.5t13.5 -2.5q17 -3 23 -8q24 -18 25 -25 q0 -25 -7 -53q-8 -35 -56 -123t-48 -131q1 -7 11 -7t12 -7q-3 -61 -27 -111.5t-51.5 -97.5t-34.5 -90q10 -13 28 -8t29 16q5 11 50.5 35t45.5 37q8 3 15 7t14 10t10.5 9.5l11 11l9.5 9.5q33 49 113.5 152t132 186t77.5 170q2 5 7.5 21.5t7.5 24t6.5 23t6.5 26.5t4.5 25.5 t2.5 28.5q7 50 0 78q-13 22 -26 31q-11 11 -21 16q-8 3 -8 6q-24 9 -50.5 11t-54.5 -4t-49.5 -12.5t-52.5 -17.5t-47 -16q-4 -4 -18.5 -9t-18.5 -7q-8 -5 -60.5 -38t-90 -54t-64.5 -31q-6 -16 -62.5 -56.5t-66.5 -53.5q-1 -1 -25 -25.5t-42.5 -43t-18.5 -17.5q0 -5 -2 -7 l-4 -4l-35 -39q-16 -16 -37.5 -39.5t-46.5 -61.5t-20 -54q2 -3 18 -8q4 -1 10.5 -1.5t10.5 -1t6 -2.5q18 -19 2 -62t-35 -46q-28 -17 -47 -12q-14 5 -32 27t-30 28q-3 8 -12 21t-12 18q-3 10 -12 36t-12 38t-7.5 32t-3 36t7.5 32q14 27 41 41q14 26 87 91.5t154 132.5t95 81 q13 17 41 34.5t63 35t46 24.5l2 2q13 7 35 17t30 14q105 59 262 59q51 0 58 -2q85 -23 163 -64t103 -91q0 -22 7 -61t7 -58q0 -36 -2 -59q-4 -13 -19.5 -88.5t-32.5 -120.5t-44 -72q0 -2 -2 -4q-19 -45 -60.5 -104.5t-74.5 -88.5q-53 -83 -178 -168q-155 -155 -244 -165 q-2 -1 -8 -1.5t-9 -1.5q-14 -7 -26 -10q-26 -4 -46.5 2t-30 16t-19 18.5t-15.5 8.5z" />
<glyph unicode="Q" horiz-adv-x="897" d="M315 -49q-17 17 -92.5 65.5t-87.5 44.5q-4 0 -4 -4q-10 -10 -14 -20q-13 -61 -5.5 -122.5t46.5 -100.5q5 1 12.5 0t13.5 0q54 8 146 100q12 12 12 20q-5 8 -27 17zM313 68l11 -7q9 -4 31 -19t41 -24t34 -6q24 10 64 73t65 112q17 28 68.5 164t70.5 155q12 39 20.5 78.5 t13 68t6.5 71t2 63.5t-0.5 69.5t-0.5 67.5q0 144 -184 242q-21 16 -29 10q-13 -2 -23 -9.5t-7 -19.5q1 -17 16 -27t18 -20q-6 -14 -6 -45q-25 -6 -49 -44.5t-31 -45.5q-12 -27 -87.5 -187.5t-104.5 -236.5q-50 -67 -88 -186.5t-35 -190.5q33 -21 94.5 -54t89.5 -52zM610 -92 q14 -24 59 -50.5t58 -39.5q3 -1 5.5 -7.5t6.5 -7.5q9 0 36 -3t40 -3h19q20 -3 60.5 -25t51.5 -22q5 -4 28.5 -21.5t31.5 -29.5q28 -41 3 -66.5t-71 -25.5q-1 0 -31 6q-51 12 -147 63q-3 3 -17 19.5t-25 25.5t-20 9q-4 -2 -4 0q0 4 -2 4q-25 10 -71 51t-74 51 q-24 -4 -69.5 -52.5t-71.5 -57.5q-31 -15 -56 -35q-84 -30 -143 -13q-3 1 -16.5 6.5t-17.5 7.5l-14 7t-16.5 10t-13.5 12q-7 4 -16 11.5t-14.5 13.5t-15.5 16l-13 13q-5 8 -25 36t-31 47t-18 40l-12 41q-14 29 -13 41q-29 29 -43.5 44.5t-36 43t-32.5 54t-13 54.5 q6 14 33 37q20 25 68 29q16 7 27.5 59t21 113t16.5 78q3 4 12 35.5l19 66.5t12 41q7 21 21 69.5t28.5 86.5t34.5 69q19 56 65.5 147t61.5 128q18 29 67.5 81t67.5 80q2 2 2 9q0 2 7.5 6t11.5 4q3 0 11 -3.5t13 -4.5h29q28 -2 71.5 -16t59.5 -17l94 -33q1 0 5.5 -3.5 t7.5 -4.5q2 -1 7 -1.5t9.5 -1.5t9.5 -5q0 -2 2 -4q32 -13 60 -41.5t41.5 -49.5t34.5 -59q28 -221 32 -240q0 -190 -35 -296q-10 -56 -36 -137t-50 -138q-1 -1 -2 -6t-2 -6q-9 -17 -29.5 -60t-33.5 -65q-7 -11 -24.5 -48t-30.5 -50q-2 -5 -8.5 -13.5t-8.5 -11.5 q-4 -5 -10.5 -17.5t-12.5 -21t-14 -14.5q2 -10 -0.5 -21.5t-1.5 -17.5z" />
<glyph unicode="R" horiz-adv-x="808" d="M170 285q-16 -16 -16 -27q2 0 13 -2t17 -4q8 5 11 22.5t-5 26.5q-4 1 -7 0.5t-5 -3t-3 -3.5t-3 -5t-2 -5zM332 74q-5 -15 10 -66q1 -2 7 -26t11 -35q11 -15 11 -21q57 -91 71 -121q15 -15 40.5 -47t47.5 -53t48 -31q46 -18 71 -12q19 7 32.5 51t18.5 82q-1 6 -3.5 21.5 t-2.5 21t2 17.5q12 -1 27.5 -17.5t24.5 -32.5q2 -2 2.5 -4.5t1.5 -3.5q16 -26 28 -63q15 -45 15 -84.5t-14.5 -68t-49 -40t-84.5 -0.5q-28 6 -45 17q-25 11 -39 22q-14 7 -25 16.5t-26 26t-20 21.5q-111 111 -164 217q-16 25 -38 74t-32 67q-3 5 -11.5 29.5t-17.5 36.5 q-11 2 -30 -5.5t-38 -9.5t-63 15l-6 3t-7 3t-7 0q-14 -2 -25 -18.5t-21 -42t-14 -31.5q-106 -212 -106 -281q-14 -14 -23.5 -47t-15.5 -43q-8 -11 -19.5 -11t-21.5 13q-1 2 -22.5 10.5t-24.5 11.5q-3 10 -5.5 19.5t-2.5 20.5t-0.5 17.5t1.5 19.5t2.5 17t3 19.5t3.5 18.5 q12 43 18 49q0 2 2 6q2 5 5 18.5t6.5 22t9.5 12.5q8 41 16 49q4 20 43 111t39 96q28 85 47 127q0 6 23.5 54t28.5 53q0 19 9 39.5t24 44t20 34.5q7 22 16.5 44t25 54t19.5 40q5 15 20.5 46t20.5 48q4 16 24.5 45.5t20.5 48.5l23 63q5 14 28 80.5t41 110t37 74.5q11 4 42 -4 t38 -15q9 -37 0 -67q-66 -220 -102 -318q-27 -102 -47 -127q-13 -40 -43.5 -111t-42.5 -104q-1 -5 -5 -18t-4 -17q1 -6 33 -39.5t35 -33.5q3 -1 59 20l7 4q32 7 69 31t82 62.5t49 41.5l39 29q84 56 187 180q30 18 59 74q29 29 50.5 67.5t29.5 61.5t24 76q18 77 11 106 q-4 32 -19 60q-2 7 -26 37q-52 75 -187 104q-16 4 -49 6t-49 6q-20 0 -64.5 1t-74.5 0.5t-58 -3.5l-14 -4q-40 -12 -121.5 -23t-116.5 -20q-4 0 -12.5 -4t-11.5 -4h-10q-5 -2 -35 -10t-39 -17l-76 -28q-46 -23 -78 -23q-7 -1 -13 1.5t-10.5 8.5t-7.5 10.5t-7.5 14.5t-6.5 14 q-15 37 -12 78q6 0 17 -4t16 -4q250 87 407 108q67 14 88 11q49 14 144 14q28 -4 37 -4q24 -5 94 -11.5t106 -19.5q39 -12 58 -22q100 -46 155 -133l15 -17q2 -1 9 -12t15 -23.5t10 -15.5q64 -158 50 -258q-12 -84 -31 -109q0 -21 -13.5 -53.5t-13.5 -36.5q-11 -5 -58 -77.5 t-65 -86.5q-18 -30 -47 -59q-5 -5 -30 -30.5t-32 -32t-28 -26.5t-32.5 -28.5t-30 -23t-35.5 -24.5t-35 -19q-8 -4 -45 -35q-8 -5 -32.5 -22.5t-37.5 -24.5q-101 -52 -135 -74q-14 -5 -14 -14z" />
<glyph unicode="S" horiz-adv-x="868" d="M465 621q4 -1 17 -5t20 -4q18 0 91 60.5t93 70.5q5 7 37 39q9 0 67 57t72 74q1 14 31 53.5t37 41.5q4 6 12 26q0 1 5 10.5t5 14.5q-1 13 -26.5 44.5t-40.5 39.5q-12 8 -17 8q-6 2 -22 0t-19 4q-28 -8 -73 -26.5t-62 -24.5q-12 -3 -23 -7.5t-23.5 -11.5t-20.5 -10 q-70 -34 -155 -93.5t-116 -76.5q-2 -4 -10.5 -7.5t-9.5 -4.5q-12 -6 -15 -16q-5 -5 -36 -28.5t-39 -41.5q-7 -15 -20.5 -29t-32.5 -29.5t-27 -23.5q-5 -5 -4 -6l-31 -35q-17 -17 -45 -57q-3 -7 -11.5 -22.5t-13.5 -27.5t-8 -24q39 -52 105 -72t153 -26q35 -5 97.5 -19 t72.5 -16q4 -1 13.5 -1t13.5 -1t22 -10q82 -29 138 -60q10 -2 22 -10q53 -53 75.5 -100t13.5 -88t-30 -73.5t-61 -72.5l-39 -35q-56 -56 -135 -114q-6 -3 -69 -45t-76 -52l-52 -24q-10 -4 -24 -11t-25.5 -11.5t-21.5 -4.5q-4 -8 -20.5 -11.5t-18.5 -4.5q-1 -4 -16.5 -10 t-39.5 -14t-32 -11q-6 -1 -38.5 -9t-61 -14t-35.5 -6q-5 -1 -15.5 -1t-17.5 -1l-6 -4q-12 -2 -39 -2q-71 0 -103 23q-48 26 -86 92q-2 4 -2 10q-17 28 -39 82q-3 22 3 44.5t6 35.5q5 5 13 17t16.5 20t19.5 12q3 10 9.5 18.5t17 17t14.5 13.5q3 3 10 12t14 15q13 21 39 46 t43 25q57 54 168 113q16 3 69.5 28t61.5 23q2 -15 2 -26.5t-11.5 -30t-20.5 -31.5t-25.5 -31t-27 -28t-24.5 -23.5t-18 -17.5l-2 -4q-8 -6 -16 -21h-6q-13 -27 -51.5 -70.5t-63.5 -83t-20 -75.5q4 -16 18.5 -17t24.5 3q14 6 57.5 12t60.5 6q1 0 22 6t23 6q8 0 24.5 7.5 t22.5 9.5q13 5 84 39t82 34q6 3 18 8t21.5 10.5t16.5 12.5q11 11 44.5 27.5t43.5 31.5q10 7 42.5 40t59.5 63t27 31l6 10q38 46 41 72q-4 9 -25 19.5t-33 12.5q-34 13 -77 21q-5 1 -19 5t-22 5h-29q-20 8 -31 8q-5 1 -14 1t-14 1l-52 8q-4 -2 -14 -2q-8 2 -10 2 q-125 17 -203 56q-49 20 -92 82q-21 11 -38 72.5t-13 90.5q0 44 22 93q1 3 4 5.5t4 4.5q20 45 47 79t74 81q2 3 6.5 8t4.5 8q29 31 84.5 83t74.5 71q27 15 87.5 60t78.5 63q9 5 37 22.5t40 24.5t37 21t40 21.5t36 16.5t39 14.5t35 8.5v4q15 10 39.5 3.5t46.5 -20.5 q42 -12 101 -49q14 -2 37.5 -11.5t35.5 -12.5q90 -36 107 -50q13 -11 29 -38.5t16 -45.5v-18q-5 -60 -66 -137q-9 -14 -14 -17q-34 -34 -80 -98q-2 -3 -15 -16t-24 -24.5t-10 -12.5l-22 -19q-2 -7 -6.5 -13.5t-8.5 -10t-11.5 -9.5t-10.5 -8q-16 -20 -51 -50t-43 -38 q-5 -5 -5 -6q0 -8 -65.5 -50.5t-93.5 -57.5q-15 -4 -33 0q-19 0 -25.5 1t-13.5 7t-14 20q-1 2 -6 10.5t-6.5 11t-6.5 11t-6 12t-4.5 12.5t-3 12.5t-1.5 12.5t1 13z" />
<glyph unicode="T" horiz-adv-x="434" d="M754 1130q27 -1 36.5 -2t24 -5t29.5 -13q39 -27 62 -65q30 -50 -24 -50q-6 -1 -12 0q-32 11 -100 11q-53 0 -74 -5q-3 -1 -10 1t-10 2q-64 0 -223 -29q-11 -1 -18 -8t-13.5 -23t-9.5 -20q-2 -3 -7 -6.5t-6 -4.5q-7 -20 -27.5 -82.5t-35 -102.5t-31.5 -77q-17 -44 -33 -76 q-28 -38 -43.5 -114.5t-29.5 -104.5q-1 -8 -15.5 -36.5t-15.5 -32.5q-2 -8 -3 -26t-7 -28l-11 -18q0 -10 -2 -18q-4 -15 -16.5 -47t-15.5 -48q-6 -16 -12 -73t-25 -82q-12 -16 -19.5 -46.5t-17.5 -43.5q-4 -70 -25 -99q1 -5 -6 -51q-12 -6 -16 -6q-42 0 -68.5 40t-34.5 87 q0 82 51.5 222.5t59.5 195.5q2 5 7.5 16.5t8 19.5t2.5 17q3 6 16 44t17 46q0 17 12 50t21 42q-1 3 0.5 11.5t1.5 11.5q5 8 12 30t15 31q3 24 14 37q12 58 49.5 159.5t48.5 147.5q-3 9 -16 9t-19 -7q-14 6 -40.5 -4.5t-40.5 -5.5q-9 3 -67 -17t-77 -20h-10q-25 0 -86.5 2 t-89.5 2q-7 -1 -17 -4t-14 -4q-44 26 -50 48.5t11 60.5q5 2 13 3.5t10 2.5q29 7 68.5 8.5t70 8t59.5 28.5q89 8 129 22q4 2 15 2q13 4 47.5 17.5t54.5 15.5q20 8 60 8q4 0 14 5q64 24 141 24q10 0 28 1t27 1q29 2 77 9.5t82 12.5t75.5 4t73.5 -12z" />
<glyph unicode="U" horiz-adv-x="847" d="M459 1071q-1 -23 -16.5 -60t-45.5 -93.5t-30 -57.5q-2 -8 -8.5 -23t-8.5 -20q0 -6 -3 -11.5t-8 -12t-7 -9.5q0 -6 -2 -10q-5 -9 -19.5 -35.5t-23 -43t-16 -39t-7.5 -38.5l-6 -16q-6 -25 -41 -98q-16 -91 -47 -152q-14 -33 -14 -47q-4 -12 -16.5 -77t-12.5 -74 q-5 -26 -5 -96t-9 -91q0 -10 -2 -16l3 -6t3 -7.5t0 -7.5q2 -3 3 -7l1.5 -6t1.5 -3q3 -8 8 -8t13 6t14.5 12.5t15.5 16t10 10.5q9 9 38 35t44 44t23 38q5 2 8 7.5t4 6.5q1 2 23 24q5 6 13.5 19.5t12.5 17.5l25 23q13 49 74 136t71 132q21 29 48.5 95.5t47.5 91.5q2 6 10 21.5 t9 25.5q7 10 15.5 32t15.5 31q5 18 51.5 121t48.5 147q0 3 -1 20.5t-0.5 31.5t3.5 24q3 12 17.5 30t25.5 21q91 19 109 15q31 0 42 -14t5.5 -34.5t-15.5 -41.5t-19 -38.5t-7 -21.5q0 -1 -3 -12t-5 -16q-5 -19 -21 -58.5t-26.5 -73.5t-10.5 -57q-23 -78 -68.5 -208 t-56.5 -197q-1 -7 0 -12t3 -10t3 -7q-2 -6 -3 -15t-3 -14q-2 -3 -6 -8.5t-6.5 -10t-3.5 -9.5q-4 -32 -26.5 -96t-22.5 -101q0 -11 -2.5 -21t-7.5 -22t-7 -18q0 -19 -1.5 -41t-5 -51.5t-12.5 -47t-22 -14.5q-1 0 -3 1t-3 1q-1 1 -8.5 6t-11.5 10q-1 0 -1 3t-1 4q-4 0 -4 2 q-1 0 -2 2.5t-3 3.5q-3 5 -11.5 26.5t-12.5 28.5q0 7 -2 21.5t-2.5 23t1 20.5t5.5 21q-5 13 -4.5 42.5t6.5 41.5q0 5 4 24.5t5 31.5t-3 20q-12 -2 -29 -41.5t-28 -44.5q-11 -19 -36.5 -69.5t-48 -83.5t-52.5 -58q-6 -25 -26 -47.5t-51 -50t-48 -46.5q-72 -18 -146 14.5 t-102 102.5q-25 43 -25 137q0 5 -1 15.5t-1 15.5q0 54 4 74q11 37 11 61q2 2 12 41q-4 105 33 164q-4 31 4 45q4 9 7.5 24t6.5 21q7 31 43.5 102.5t36.5 114.5q7 13 25 56t32 63q16 49 37 82q9 31 39.5 87t38.5 91q3 3 8.5 9.5t10.5 11t10 8.5q3 0 9 4.5t11 5.5q9 2 24 -1 t19 -3q2 0 8.5 2t8.5 2q1 0 6 -2t8 -2q13 -4 18.5 -8.5t10 -14t10.5 -16.5z" />
<glyph unicode="V" horiz-adv-x="595" d="M956 1384q0 -22 -10 -28q-27 -76 -84.5 -213.5t-75.5 -155.5q-3 -1 -1.5 -8t1.5 -10q-6 -30 -41 -97t-38 -81q0 -4 -4 -14t-9 -21t-6 -15q-3 -4 -6 -16.5t-6 -17.5l-6 -5q-8 -49 -36 -100.5t-65 -106t-53 -92.5q-9 -7 -22 -34q-1 -1 -1 -3.5t-1 -3.5q-49 -50 -96 -167 t-83 -160q-36 -76 -98 -158q-5 -15 -23 -35.5t-20 -23.5q-41 -51 -68 -68q-14 -7 -18 -8q-15 -12 -45 -8q-37 6 -68.5 29.5t-40.5 54.5q-33 72 -18 133q1 3 1.5 13.5t2.5 15.5q0 6 3 16.5t3 15.5q3 8 5 14t3 9.5t1.5 10t0.5 8.5v11v13q1 26 6.5 52t17.5 64t15 48q1 1 2 5 t2 5q3 9 3 20q0 2 8.5 33t11.5 35q54 191 63 246q2 25 18.5 70.5t20.5 66.5q7 15 16.5 54.5t18.5 49.5l12 45t14.5 52.5t14.5 42.5q16 59 29 94q-4 22 -2 26q28 21 35 23q80 0 119.5 -40.5t9.5 -84.5q-27 -26 -39.5 -93t-32.5 -87q2 -6 -7 -26t-20 -41t-12 -25 q-4 -8 -9.5 -29t-12.5 -29q-3 -17 -21 -52t-18 -54q-1 -11 -7.5 -30t-7.5 -23l-6 -9q0 -34 -18 -90.5t-37 -97.5q0 -29 -15.5 -80t-17.5 -69q-2 -7 -2.5 -17.5t-1.5 -13.5q-1 -7 -7 -17.5t-6 -16t5 -19.5q-1 -13 -7 -41.5t-6 -42.5v-27q0 -2 -3.5 -13t-2 -17t8.5 -11 q26 13 45 41q4 9 14.5 28t13.5 29q2 2 3.5 9t4.5 10q28 36 77 130t73 118l4 6t3.5 5t3.5 5.5t3 7.5q33 73 54 94q4 2 6 2q14 45 50 93t63.5 87t29.5 70q14 21 33 62t31 59q25 64 45 92q3 29 18 60t35 45q0 2 6 22t8 26.5t7.5 25t9.5 27.5t10.5 22.5t12.5 22.5t13 15 q6 40 45.5 103t47.5 92q6 26 20 57q5 2 21 9t22 8q7 0 19 -4q31 0 38 -9z" />
<glyph unicode="W" horiz-adv-x="942" d="M862 336q0 -21 -2 -29q-2 -9 -11.5 -25.5t-12.5 -23.5q0 -14 -7 -35q-23 -72 -26 -78q0 -10 -4 -16q-3 -3 -15 -27q-8 -21 -19 -56t-15 -46q-3 -4 -5 -6l-4 -2q-4 -7 -19.5 -34t-25.5 -45.5t-18.5 -40t-7.5 -30.5q-3 -55 -43 -73.5t-86.5 -2t-69.5 51.5q-8 7 -15.5 24.5 t-11.5 22.5q-10 20 -11.5 63t-4.5 54q0 3 -3 14t-3 18q-3 28 -3 60.5t1.5 70.5t1.5 56q0 3 1.5 22t0.5 31q8 36 8 53q-11 4 -26 -22q-11 -11 -23 -31q-24 -27 -35 -59q-49 -43 -76 -113q-11 -22 -30 -51.5t-41 -61t-27 -39.5q-37 -28 -63 -71q-20 -44 -39 -54 q-9 -4 -12 -4.5t-10 2.5t-11 4q-12 4 -18 12.5t-11.5 21.5t-13.5 22q-28 25 -19 100l5 49q2 8 5 25t6 29t7 22q2 41 30.5 117.5t28.5 116.5q12 20 26.5 72t18.5 61q12 26 25 82q6 14 18.5 63t22.5 59l8 25q20 62 33 115q0 22 4 57.5t4 54.5q3 9 41 33q16 8 43 15t57.5 5 t42.5 -18q1 0 1.5 -2t1 -7t2.5 -9q6 -21 -7 -56t-14 -49q-29 -29 -45 -85.5t-20.5 -108t-17.5 -99t-36 -61.5q-1 -7 -10 -20.5t-10 -20.5q-1 -4 -4 -18t-6 -21l-9 -16q-2 -10 -8 -24t-12 -32q-6 -19 -12.5 -46.5t-10.5 -41.5q-1 -1 -9 -23t-13 -30q-6 -15 -6 -24 q-1 -2 -4.5 -10t-4 -11.5t2.5 -7.5q2 2 6.5 0t5.5 0q39 45 96 131t92 127q17 10 21.5 16.5t9.5 24.5q58 61 96 139q14 7 43.5 39.5t46.5 32.5q11 0 33 -9.5t25 -19.5q1 -2 2.5 -11t3.5 -15q7 -42 4 -60q-2 -26 -13 -90.5t-18 -73.5q0 -16 -9 -84.5t-13 -81.5 q-6 -17 -7 -87.5t5 -82.5q-1 -4 -3.5 -10.5t-2.5 -9t2 -8.5q5 1 6.5 0t5 3.5t4.5 6t4 6.5l2 6q5 10 10 15q6 11 27.5 45.5t28.5 54.5q9 18 42 65t40 76q10 32 38 110.5t49 145t39 140.5q6 42 35 106q1 3 1 6t-0.5 7.5t-0.5 7.5q6 12 25 83q1 11 9 42t5 47q9 39 14.5 128 t8.5 115q4 30 12 39q8 13 39 15t45 -3q12 0 18 -6q11 -6 9 -12q2 -12 1.5 -17t-5 -21t-5.5 -21q-15 -35 -40 -144.5t-46 -150.5q-14 -42 -14 -54q-23 -69 -52 -238t-71 -257z" />
<glyph unicode="X" horiz-adv-x="632" d="M217 684q-8 -9 -17 -33t-18 -54.5t-12 -37.5q-1 -6 -6.5 -18.5t-5.5 -20.5q-22 -53 -31 -86q-2 -8 -14.5 -48.5t-16.5 -61.5q-1 -4 -7 -23.5t-11 -36.5t-10.5 -39t-5 -32.5t5.5 -16.5q12 9 51 71.5t41 65.5q30 30 37 56q3 4 10.5 11.5t12 12.5t10.5 13.5t10 17.5 q22 64 0 170q0 3 -0.5 28.5t-3.5 43.5t-9 22q-2 -1 -5.5 -2t-4.5 -2zM1112 1092q-4 -13 -9 -19t-12.5 -10t-11.5 -8q-34 -16 -128.5 -109t-112.5 -106q-63 -44 -115 -123q-13 -13 -29 -37l-12 -6q-2 -2 -6 -6.5t-7 -7.5t-7.5 -6.5t-8.5 -4.5q-21 -32 -67 -83t-58 -66 q-12 -24 -46.5 -59t-45.5 -54q-25 -25 -30 -39q-1 -9 6.5 -46.5t7.5 -41.5q1 -3 6 -51q2 -19 10 -53t10 -45q3 -31 9 -56q0 -8 3.5 -24.5t4.5 -24.5q2 -14 10 -51q20 -105 96 -332q25 -55 41 -96q7 -11 15 -16q1 -2 6.5 -10t8 -11.5t8 -12t8 -14t6.5 -13.5t6 -14t3.5 -12.5 t1 -12.5t-2.5 -11q-6 -10 -29 -10q-2 6 -4 6q-13 2 -26.5 8.5t-26.5 17.5t-21.5 18.5t-21.5 21.5t-17 18q-4 20 -17.5 45.5t-31.5 55.5t-24 42q-5 32 -7 37q0 14 -9.5 40t-18.5 26q-2 7 -8.5 20.5t-8.5 20.5q-17 43 -24 100l-23 72q-3 5 -6 13t-4 11q-1 5 -3 25t-7 32 q0 15 -3 31.5t-8.5 36.5t-7.5 29q-5 19 -20 59t-23 49q-4 0 -8 -4t-8.5 -10.5t-7.5 -9.5q-48 -70 -110 -143.5t-109 -108.5q-13 -13 -23.5 -29.5t-22.5 -41.5t-16 -32q-19 -39 -78 -98q-15 -18 -22 -22q-23 0 -44.5 33.5t-21.5 56.5q-13 29 0 61q2 11 12.5 22.5t26.5 23 t21 16.5q4 7 11 22t11.5 23t13.5 17.5t21 14.5q9 24 21 39q61 111 100 242q25 33 39.5 76.5t28 113.5t16.5 82q20 49 29.5 109.5t15.5 136t12 113.5q-1 2 -5.5 12t-3.5 12.5t3 14.5q-14 22 -18 34q3 9 12 15.5t18 5.5q7 -1 11.5 -4.5t9 -10t6.5 -8.5q35 -2 71 -18t46 -43 q-4 -199 12 -291q0 -19 4.5 -50.5t11.5 -39.5q8 0 33 25q1 1 3 2t1 2q6 3 13 11.5t10 16.5l4 7q-1 3 1.5 4.5t6.5 1.5q35 42 107.5 139.5t115.5 146.5l37 39q3 3 2 4q4 0 4 2l8 11q15 9 36.5 31t33.5 30q6 9 39 35q47 47 86 76q2 2 13 20t22 23q6 6 33.5 16.5t31.5 7.5 q21 -11 51.5 -46t47.5 -46q0 -1 4 -6.5t4 -7.5q2 -4 4.5 -6t3.5 -4z" />
<glyph unicode="Y" horiz-adv-x="747" d="M559 618q-14 -14 -12 -20q-13 -12 -17 -14q-4 -15 -22 -37q0 -6 -6 -12l-6 -7q-16 -26 -23 -32q-1 -5 -20 -33q-5 -5 -13 -20t-14 -19q-8 -12 -30 -51t-37.5 -59.5t-34.5 -32.5q-3 -3 -7.5 -10t-7.5 -9q-7 -15 -25.5 -36.5t-23.5 -30.5q-25 -21 -27 -37q10 -3 18 0 t16 10.5t12 9.5q16 5 45 11.5t51 14t39 21.5q14 14 14 21q2 2 4 8.5t4 9.5q41 71 41 105q12 22 36 83t24 74q1 1 2.5 7.5t3.5 9.5q0 2 4 14q0 4 2 6t2 4v4l2 7q6 9 6 18l6 22h-2q0 3 -2 3zM340 109q-6 -4 -18 -11t-21.5 -13.5t-15.5 -12.5q-5 -5 -13 -9q-13 -18 -46 -46 t-40 -35l-10 -11q-21 -21 -41 -44t-43 -51t-37 -44q-5 -10 -29.5 -46.5t-29.5 -59.5q-4 -4 -10.5 -16.5t-10.5 -16.5q-7 -15 -23.5 -47.5t-27 -56.5t-14.5 -46q-12 -56 -39 -108q1 -7 -0.5 -19.5t-1 -21t5.5 -12.5q10 -3 21 8q10 3 10 8q14 0 29 12t35 35t22 25t6 2 q6 23 59.5 96t71.5 82q-2 19 41 76q18 46 72 131q18 21 53 91.5t35 88.5q46 70 30 82h-2q-5 -1 -18 -10zM522 -61q-2 4 1 13t3 13q2 5 11 39q0 6 1.5 17t1.5 22t-3 23q0 17 -9 24q-12 -6 -12 -33l-6 -7q-7 -8 -8 -13q-1 0 -1 -1q0 -3 -1 -5q-8 -11 -13.5 -31.5t-13.5 -28.5 q0 -1 -2 -5.5t-2 -6.5q-8 -8 -13.5 -24.5t-9.5 -22.5q-10 -10 -18.5 -30t-11.5 -23q-16 -38 -27 -54q0 -14 -4 -20q-6 0 -6 -4q-5 -9 -22 -30t-28.5 -39t-11.5 -31q-6 -13 -23.5 -36.5t-21.5 -35.5q-11 -11 -19.5 -26.5t-16.5 -34.5t-13 -29l-14 -11q-10 -36 -31 -65 t-57.5 -65t-48.5 -50q-12 -12 -13 -14q-20 -6 -50 -39t-46 -41q-25 -17 -49 -20.5t-46.5 5.5t-38.5 19t-38.5 28t-32.5 25q-26 33 -20 76q0 104 16.5 154.5t75.5 152.5q10 16 44.5 85t64.5 100q44 74 77 100q21 29 37 37q19 9 57.5 45t45.5 53q13 2 34 23q0 1 3.5 4t3.5 6 q-3 2 -10.5 3.5t-8.5 2.5q-5 1 -12.5 1t-9.5 1q-3 0 -5.5 1.5t-5.5 3.5t-4 3q-24 9 -45.5 28t-21.5 40q-3 3 -21 45q0 27 -2 41q1 5 -6 20q-7 47 2 138l4 55q4 8 4 18q0 1 3 9.5t3 13.5q15 92 33 139q3 28 10 45q50 101 80 260l9 25q1 4 5 11.5t5 11.5t2.5 13.5t-2.5 16.5 q6 5 10.5 16.5t9.5 16.5q-3 21 0 35q10 13 35 20l12 8q67 0 129 -45q1 -3 5.5 -9.5t5.5 -10.5q4 -21 -49.5 -152t-69.5 -147q-19 -106 -64 -203q0 -6 -2 -8q-14 -22 -20.5 -55.5t-3.5 -59.5q-17 -28 -23 -73q0 -126 15 -134q3 -1 13 4t13 5q7 9 19 32q12 13 30 43 q2 4 9 16.5t11.5 18.5t8.5 6q4 2 4 6q2 2 3 4.5t1.5 4.5t1.5 2q17 22 17 24q1 0 2 2t2 2q0 20 47 77.5t47 86.5q18 12 33 47q2 3 3 8t3 7q4 10 15.5 25t15.5 22q8 8 19 24t19 29l7 12q0 6 9 16.5t9 16.5q11 18 33 58t41 69t39 49q0 6 2 6q6 13 22 36.5t21 33.5q6 12 16 29 t15 26t9 23.5t5 30.5q0 1 2 2t2 2q12 18 24 22q2 0 9 1t10 1q34 0 71 -15t60 -38q2 -15 2.5 -24.5t-4.5 -25t-9 -24.5t-10.5 -23t-9.5 -22q0 -8 -2 -10q0 -1 -2 -3t-2 -3q4 -15 -12.5 -45.5t-16.5 -42.5q-18 -21 -56 -117.5t-44 -124.5q-2 -7 -9 -23.5t-9 -25.5 q-2 -5 -11 -24.5t-12 -30.5q-9 -34 -22 -52q-2 -5 -8 -15.5t-9 -20.5q-1 -2 -1 -7t-1 -6q-7 -26 -29.5 -78.5t-29.5 -81.5q-13 -8 -20.5 -33t-14.5 -32q2 -4 2 -12q-2 -2 -3.5 -4t-2.5 -3.5t-2 -1.5q-2 -3 -3.5 -13t-4.5 -13q0 -3 -7.5 -17t-7.5 -22q0 -6 6 -17t7 -16 q4 -2 4 -16q6 -18 2 -66q-20 -58 -23 -71l-12 -19q-7 -14 -19 -22q-2 -2 -8 -2z" />
<glyph unicode="Z" horiz-adv-x="595" d="M-70 -152q19 -16 47 -16q16 0 50 10.5t43 12.5l26 8l21 4q25 5 52.5 12.5t45 13t45.5 15.5t41 14q30 0 115 19t133 6q29 -11 35 -27q-5 -25 -37 -37q-59 -18 -150 -67q-6 -2 -19.5 -4.5t-19.5 -4.5l-30 -14q-39 -11 -104 -44.5t-95 -43.5q-82 -24 -121 -24q-29 0 -41 4 q-31 3 -61 19.5t-46 31.5t-45.5 47.5t-39.5 42.5q-2 16 -8.5 44t-8.5 42q-5 42 0 51q11 21 31.5 78t36.5 84q1 2 3 5.5t4 6.5t5 6q3 4 4.5 13t3.5 12l7 8l6 10q7 10 48 58t48 73q26 16 59 65t60 64q1 1 16 11q9 9 22.5 27.5t26 30.5t29.5 17q26 26 31 35q8 8 12 8 q32 32 84.5 92.5t87.5 94.5l7 7t9 7l3 2q3 2 4 4q1 0 16.5 11t19.5 13.5t18 12.5t20 15.5t15.5 14t15 16t9.5 14.5q32 14 76 65t66 64q59 46 102 102q0 9 2 10q1 1 5.5 4t7.5 8t1 11q-3 0 -10.5 2t-11.5 2q-40 -12 -123 -12q-3 -1 -12 -1t-13 -1l-18 -7q-3 0 -11.5 -3 t-11.5 -3q-33 -3 -86.5 -20t-72.5 -21l-33 -4q-10 -4 -28.5 -11.5t-32.5 -12t-29 -7.5q-77 -32 -166 -32q-5 -1 -10.5 -3t-9.5 -3t-7 0q-3 0 -5 1.5t-5.5 5t-7.5 5.5q-17 14 -26.5 33t-18 49t-11.5 37q-5 27 3.5 58t21.5 32q5 1 17.5 -16.5t17.5 -20.5q32 -16 111.5 2 t138.5 41q14 3 38 9.5t44 10.5t37 4q1 0 6.5 4.5t7.5 4.5q28 5 74.5 9.5t62.5 6.5q47 8 90 8h25q26 -3 41.5 -7t32.5 -10.5t34 -10.5q109 -56 131 -109q18 -27 9 -72q-7 -32 -31 -59q-4 -4 -4 -10q-4 -4 -9 -10t-11 -13.5t-9 -11.5q-45 -31 -51 -57q-9 -3 -26.5 -20 t-24.5 -28q-21 -21 -61.5 -57t-57.5 -55q-6 -13 -33 -35q-20 -14 -55 -49q-1 0 -2 -2t-2 -2q-2 -3 -24.5 -26t-26.5 -28q-8 -3 -17.5 -12.5t-13.5 -11.5q-29 -29 -80.5 -73t-71.5 -64l-16 -19q-11 -11 -31.5 -31t-33 -32.5t-29 -30t-29.5 -33.5q-67 -57 -127 -151 q-2 -3 -53 -74q-4 -6 -14 -20.5t-15 -24.5q-6 -28 -34.5 -76.5t-32.5 -75.5q-7 -14 -7 -41z" />
<glyph unicode="[" horiz-adv-x="706" d="M580 858q-5 -28 -23.5 -77t-24.5 -72q-10 -36 -32 -82q-34 -82 -39 -119q-8 -14 -27 -74q-13 -30 -47 -155q-16 -30 -41 -89t-39 -86q-5 -12 -25.5 -59.5t-29.5 -73.5q-19 -36 -27 -84q-2 -7 -9.5 -29t-11.5 -36t-9.5 -33.5t-8 -35t-2.5 -27.5q-4 -20 -2 -33q6 -6 27 -6 q27 -5 93.5 -6t96.5 -7q1 0 17 -6t24 -6q11 0 25 -14t20 -25q19 -13 16 -43.5t-26 -42.5q-14 -11 -46 -11.5t-60 4.5t-64 12.5t-43 8.5q-63 8 -110 31q-31 11 -45 24.5t-24.5 34t-25.5 35.5q-6 12 -6 15q-11 27 -14 43q5 37 14 59q1 9 12 53q63 229 123 400l35 78 q35 83 98 258q7 31 23 63q21 62 33 92q75 187 90 221l6 13q2 6 4.5 17.5t5.5 19t8 14.5q15 40 15 55q7 12 14.5 34.5t9.5 27.5q21 65 80 217l31 78l10 20l8 19q3 12 14.5 20.5t30.5 14t35.5 9t41 7t36.5 6.5q4 1 20 3t26.5 5.5t15.5 9.5q3 2 7 5.5t6.5 5t8 3t10.5 -0.5 q13 -4 15 -9q232 -124 117 -170q-14 -6 -33 -10q-10 -2 -29 -11.5t-29 -12.5q-24 -8 -70.5 -4t-66.5 -3q-9 -3 -22 -18.5t-19 -30.5l-6 -18q-23 -28 -31 -49l-4 -6q-7 -7 -22.5 -42t-31.5 -75.5t-20 -48.5q0 -15 -14 -52q-8 -17 -26.5 -67.5t-36.5 -75.5z" />
<glyph unicode="\" horiz-adv-x="524" d="M375 -723q-8 -3 -11.5 -3t-11 3t-10.5 4q-30 7 -45 14q-63 33 -74 72q-4 13 -6 34t-3 55t-1 42q0 46 -3 160.5t-1 171.5q-1 18 -4.5 70.5t-3.5 79.5v65q0 4 1 12t1 11q-8 64 -6 90q-5 23 -5.5 47t0.5 58.5t1 45.5q0 29 -7 64q0 42 -2 65q0 88 -2 129q-3 26 -8.5 75.5 t-9.5 90t-6 76.5q-6 97 -6 98v13v16q-15 200 -15 252q0 36 1 72.5t1 46.5q-3 33 2.5 96t3.5 92q-1 7 -2.5 19t-2.5 21.5t-1 18.5q9 4 40.5 9t41.5 16q37 0 53 -6q11 -4 23 -31t12 -39q0 -3 -0.5 -10t-0.5 -13.5t1 -11.5q0 -22 5.5 -100t0.5 -121q0 -7 1.5 -27t0.5 -30 q0 -42 4 -113t4.5 -104.5t-6.5 -98.5q2 -16 9.5 -55.5t7.5 -60.5q0 -13 -1 -35.5t-1 -39.5t2 -32q-3 -16 -3 -32t1.5 -34.5t1.5 -27.5q-6 -12 -3 -49t1 -49l8 -47q0 -5 -1 -23t-1 -29q-4 -20 -4 -71q-1 -26 0.5 -70t1.5 -57q10 -111 10 -303q-10 -57 8.5 -194t14.5 -175 q7 -97 14 -149q5 -13 4 -30.5t-14 -33.5z" />
<glyph unicode="]" horiz-adv-x="716" d="M844 1241q-3 -63 -13 -100q-3 -9 -10.5 -25t-9.5 -20q-4 -10 -16.5 -35.5t-20.5 -46t-8 -31.5q-23 -37 -23 -55q-5 -14 -17 -40t-17 -42q-7 -17 -36.5 -96t-47.5 -121l-23 -45q-60 -107 -74 -172q-8 -16 -20.5 -49.5t-20.5 -49.5q-9 -25 -30 -73q0 -19 -9.5 -38.5 t-24.5 -41t-20 -33.5q-22 -65 -72 -168.5t-63 -134.5q-12 -23 -31 -81.5t-36 -80.5q0 -2 -8 -33q0 -8 5.5 -42t-1.5 -42q-11 -33 -103 -24q-16 0 -45 4t-43 4q-7 2 -25.5 2.5t-27.5 3.5q-38 13 -67.5 87.5t-18.5 113.5q1 4 1 12t1 12.5t4 6.5q5 1 12 -2.5t15 -9t12 -7.5 q7 -2 29 -10t38 -13.5t34 -4.5t26 12q6 7 10 27t6 24q0 5 23 58t49 112t31 72l32 79q53 109 62 132q14 47 94.5 220.5t83.5 180.5q6 15 16.5 44t20.5 53.5t20 45.5q9 24 31.5 66.5t30.5 62.5q11 20 26 59.5t23 55.5q11 42 66 160q0 3 5.5 22.5t4.5 28.5q-2 5 -5.5 6.5 t-10 0.5t-7.5 -1q-55 8 -111 33t-63 61q-18 26 -18 64q1 0 2 2t2 2q11 -7 35 -12q28 -3 73.5 2.5t61.5 5.5q32 0 94 -17q38 -13 57 -32.5t21.5 -37t11 -38.5t27.5 -33z" />
<glyph unicode="^" horiz-adv-x="538" d="M561 1217q-3 1 -5.5 1t-5 -1t-4.5 -2t-4.5 -3.5t-4 -4.5t-4 -5t-3.5 -4.5t-3 -5t-3 -4.5q-74 -96 -82 -105q-26 -31 -84 -119t-98 -128q0 -4 -7 -11.5t-15.5 -16t-10.5 -11.5q-3 -3 -9 -10.5t-10.5 -12.5t-10 -10.5t-10 -8.5t-7.5 -3t-6 1t-6 3.5t-5 4t-5 5.5l-4.5 6 t-4.5 7.5t-4 6.5q-14 31 -20 70.5t0 63.5q4 4 4 6l8 20q6 8 22.5 19t22.5 20q166 168 320 367q15 21 55 61q7 8 15.5 21.5t13.5 21t14.5 16.5t18 9t24.5 -2q11 -3 25.5 -14.5t17.5 -20.5q2 -3 2 -31q0 -46 -14 -98q0 -20 -9.5 -55t-9.5 -52q-5 -26 -19.5 -85.5t-19.5 -90.5 q-28 -100 -28 -170q-8 -97 -35 -155q-12 -19 -18 -21q-12 -3 -22 22q-3 7 -7 20q-1 3 -2 5q-11 31 -12.5 66.5t4 61.5t13.5 64.5t11 61.5q7 27 15.5 82t15.5 82q0 2 6 28t4 38z" />
<glyph unicode="_" horiz-adv-x="1093" d="M1012 -420q-5 -15 -15.5 -16.5t-21.5 2.5h-14q-3 0 -10 4.5t-9 5.5q-10 4 -41 4q-17 0 -56.5 1t-62 1.5t-41.5 -0.5q-36 -2 -155 -3.5t-180 -8.5q-15 -5 -46 -8.5t-34 -3.5q-4 -1 -14.5 0t-14.5 0q-26 -7 -37 4q-21 3 -49.5 4t-48.5 1.5t-41.5 3.5t-33.5 13t-19.5 28 t-3.5 49.5t18 76.5q2 4 4.5 6.5t5.5 4.5t4 3q2 2 8 10.5t9 10.5q3 5 14 -2l4 -4q4 -3 8 -8.5t7.5 -13.5t5.5 -11q6 -2 13 -3.5t15.5 -1t13.5 1t15 2.5t13 3t14 4.5t12 3.5q13 1 64.5 -6t72.5 -12q45 -12 95 -13.5t115.5 2.5t92.5 4q110 0 168 17q8 2 23 2q2 0 12 -1t16.5 0 t12.5 5q2 1 8.5 4.5t9.5 3.5q19 1 33 -15t22 -42q4 -16 4 -41q2 -8 7 -22.5t7.5 -26t0.5 -23.5z" />
<glyph unicode="`" horiz-adv-x="522" d="M385 805q-4 0 -8.5 -5t-7.5 -5q-16 -4 -25.5 3.5t-17.5 23t-13 20.5q-17 20 -33.5 47t-26.5 47t-26.5 56.5t-25.5 54.5q-1 1 -5.5 4.5t-6 5l-5.5 5.5t-5 7l-2.5 7.5t-1 10t2.5 11.5q3 2 5.5 1t7.5 -4t8 -3q3 2 8.5 6.5t11 7t12.5 2.5q49 43 109 43q51 0 39 -76 q3 -18 11.5 -50.5t14 -59t5.5 -50.5q-2 -10 1 -38t-1.5 -47t-24.5 -25z" />
<glyph unicode="a" horiz-adv-x="790" d="M389 451h-2q-13 -6 -18 -17l-45 -45l-54 -47l-6 -6l-35 -41q-12 -13 -35 -41.5t-36 -42.5q-2 -2 -13.5 -15t-14.5 -16t-12.5 -14.5t-12.5 -16l-10 -15t-10 -17t-6.5 -15.5t-4.5 -18q-1 -3 -1 -7.5t-1 -6.5q6 -4 14.5 -1.5t14 3.5t14 6.5t13.5 8.5t12.5 10.5l11.5 11.5 l10.5 10.5l9.5 9.5q16 8 33.5 26.5t35.5 43.5t27 34q6 6 16.5 19.5t16.5 19.5q4 6 16 19.5t19.5 25t7.5 19.5q7 10 21 20q9 13 12 23q3 6 6 18.5t4 16.5l5 14q5 14 3 21q-4 0 -6 2zM365 156q-13 -1 -29 -18t-25 -19q-7 -8 -25.5 -31t-29.5 -36.5t-28.5 -29t-32.5 -22.5 q-13 -6 -35 -28t-39 -27l-33 -17q-2 0 -9.5 -2t-12.5 -4q-4 -1 -11.5 -5t-11.5 -5q-6 -1 -17.5 2t-17.5 2q-6 7 -26 53l-9 19q-1 4 -2 18t-2 19q-3 64 25 125q3 17 12 34l14 37q5 14 26 43t26 37l10 10q4 5 27 37q10 10 57 70q7 8 20 21t22.5 23.5t14.5 20.5q7 7 23 19 q25 30 39 41q10 6 24.5 20.5t20.5 18.5q7 3 22.5 20t30.5 16q7 0 27 -20q4 -5 9 -16.5t9 -16.5q3 -4 11.5 -11t11.5 -11q12 -24 12 -35q-1 -13 -10 -21.5t-11 -15.5q4 -3 23.5 -13.5t28.5 -17t19.5 -18.5t12.5 -25q2 -14 -9.5 -45t-12.5 -35q0 -14 -2 -22q-15 -66 -15 -68 q-8 -49 -8 -104q0 -61 23 -84q8 -4 20.5 -1t19 4t18 7t17 9.5t16 11t15.5 10.5q18 17 58 49q47 47 86 66q9 17 32 39t31 32q2 2 14 27l17 22q0 7 8 15l8 8q21 35 25 39q6 6 13 3t7 -13q1 -12 -1 -23.5t-6 -24.5t-5 -22q-1 -6 -4 -25.5t-6 -29.5q-15 -61 -56 -138 q-3 -12 -18 -41l-7.5 -7.5l-7 -7l-5.5 -5.5q-18 -18 -99 -98q-3 -2 -12 -7t-14 -8q-25 -25 -41 -35t-41 -14q-33 -10 -58.5 -6.5t-56.5 23.5q-4 3 -30 36.5t-31 40.5q-9 15 -21 64q-1 5 -6 21t-6 24q-1 5 -2.5 32.5t-7.5 39.5z" />
<glyph unicode="b" horiz-adv-x="868" d="M670 524h-6q-27 -39 -58 -51q-8 -8 -27.5 -36t-33.5 -38q-4 -9 -10.5 -17t-15.5 -17l-13 -13q-36 -36 -68 -84q-4 -4 -9 -15t-9 -15q-57 -57 -82 -86q-21 -32 -25 -35q-2 -3 -12 -16t-12 -23q0 -4 0.5 -7.5t2 -7t3 -5.5t5.5 -6l5.5 -5.5t6.5 -6t7 -5.5q22 -22 34.5 -25.5 t37.5 8.5q25 9 44.5 24.5t44.5 44.5t32 36q22 9 53.5 66.5t40.5 86.5q1 2 10.5 16.5t10.5 22.5q9 29 10 31q2 9 4 22.5t4 22.5q22 49 25 72q9 44 0 61zM590 1176q-18 -42 -37 -72q-24 -28 -34 -42t-12.5 -20t-11.5 -26.5t-26 -50.5q-14 -34 -26 -52t-23 -39 q-1 -7 -8.5 -15.5t-8.5 -10.5q-2 -14 -10 -36t-10 -30l-23 -51q-7 -15 -18.5 -44.5t-15.5 -39.5q-5 -10 -19 -33.5t-18 -38.5q-43 -143 -107 -280q-1 -3 -7 -14t-7 -17q-3 -8 -6 -24t-6 -23l-9 -10q-2 -3 -4 -11.5t-4 -11.5q-16 -32 -14 -53q19 -9 54 32l3 3q2 3 14 14 t15 17q3 4 7 15.5t7 16.5l21 17q18 18 53 48t51 46l39 41q6 6 18 20t19 21l158 160q14 4 31 18t26 18q1 1 33 7q1 0 10.5 3.5t17.5 2.5q6 0 16 -6.5t15 -8.5q3 -2 13 -4t14 -4l2 -6q3 -2 8.5 -7.5t7.5 -8.5q1 -3 2 -15.5t2 -17.5q5 -25 4 -29q0 -9 -4 -37q0 -3 -2 -32 t-4 -43q-1 -4 -9.5 -29.5t-8.5 -42.5q-10 -21 -27 -82l-4 -8q0 -25 -19 -63.5t-22 -53.5q-12 -13 -35 -56t-41 -57q-18 -42 -97 -99t-118 -54q-11 0 -29 -8.5t-26 -8.5q-5 0 -27 9q-22 5 -44.5 21.5t-26.5 35.5l-19 23q-4 27 -11 34.5t-16 -0.5t-22 -30q-14 -1 -38.5 -18.5 t-31.5 -20.5q-1 -1 -4.5 -2t-5.5 -2l-6 -6l-18 -5q-29 -14 -37 -16q-17 -2 -45 12q-21 37 -23 45q-2 4 -2 33q-1 3 -3.5 12.5t-2.5 14.5q1 11 8.5 34.5t9.5 34.5q2 25 15 68q13 52 18 63q0 22 12.5 53t31.5 67t24 50q23 63 28 72l7 14q146 303 200 435q23 55 32 75.5 t12 24.5t17 29t38 73q1 1 5.5 8.5t6.5 14.5l4 12q3 12 4 19q18 21 33 67q2 4 3 17.5t3 19.5q4 4 9 7t12 6t12 6l8 4q39 6 68 -24t12 -64z" />
<glyph unicode="c" horiz-adv-x="505" d="M381 545q-10 17 -40.5 -1.5t-49.5 -37.5q-3 -3 -27 -33q-7 -8 -24 -27.5t-26.5 -30.5t-20.5 -28.5t-17 -32.5q-41 -79 -53 -110q-4 -8 -4 -19q-24 -24 -49 -119q-1 -5 -7 -17.5t-6 -20.5q-8 -32 -8 -60q-7 -59 10 -69q20 -7 27 -5q7 -4 66 11l24 14q22 11 69.5 43 t82.5 43q5 2 14.5 16t13.5 17q6 5 20 10.5t19 9.5q7 3 29 21.5t22 21.5l19 15l20 10l19 14q5 5 13.5 17t14.5 18q9 9 13 8q16 -20 18 -35q0 -12 -3.5 -25t-9.5 -29t-7 -21q-6 -8 -20 -25t-21 -25q-1 -2 -5 -6t-5 -6q-18 -26 -78 -86q-4 -3 -18 -10t-21 -16q-8 -1 -21 -10 t-18 -11q-51 -8 -86 -43l-14 -4l-70 -25q-20 -10 -25 -10h-30q-31 -4 -48 0q-12 0 -18 2q-1 1 -4 3t-6.5 4t-7.5 3q-10 5 -19 7q-5 2 -18 15l-21 21q-2 2 -14 33q-15 18 -25 45l-4 21q-10 30 -4 82q5 53 8 65q1 7 3.5 15.5t7 19t6.5 16.5q6 24 6 27q3 7 8 23.5t8 23.5 q0 4 4 11.5t4 11.5q36 77 64 121q4 4 16 28q10 14 19 31q0 1 1 2.5t2.5 3.5t2.5 4l2 2q23 38 45 51q3 9 17 24.5t22 20.5q0 1 6 7q7 7 21 16.5t20 15.5q34 20 56 29.5t41.5 7.5t27 -5t31.5 -15l16 -4q2 0 7.5 -2t8.5 -2l41 -9q3 -1 9.5 -7.5t9.5 -8.5q10 -10 13 -20.5 t3 -38.5q-4 -20 -4 -60q-2 -19 -22 -55l-4 -19q-16 -16 -17 -18q-19 -38 -59 -40.5t-66 20.5q-4 3 2 10t15 15t10 13q26 44 41 93q4 8 7 25.5t-1 23.5z" />
<glyph unicode="d" horiz-adv-x="790" d="M471 526q-6 0 -12 -6q-7 -3 -17 -13t-14 -13q-2 -1 -11 -2.5t-14 -6.5q-104 -96 -198 -229l-41 -72q-5 -7 -11.5 -19t-7.5 -13q-2 -4 -5 -13t-5 -12l-10 -14l-4 -19q-3 -7 -14 -28t-16.5 -36t-8.5 -32q-24 -41 -19 -59q6 1 11.5 4t10 5.5t10.5 9t8.5 9t9.5 10.5t8 9 l24 28q2 2 14 15t16.5 18t12.5 15.5t12 17.5t5 14l12 12q19 31 79.5 116t72.5 93q41 49 80 121q9 9 22 39q1 3 5.5 9.5t7 11.5t4.5 11.5t1 12.5q-1 4 -3.5 5.5t-4.5 1.5t-5.5 -0.5t-4.5 -0.5zM590 412q-5 1 -9 -2t-7.5 -10l-4.5 -9q-10 -24 -27.5 -47.5t-41.5 -49.5t-35 -40 q-2 -2 -4 -6t-4 -6l-11 -11q-27 -27 -49 -71l-18 -23q-40 -58 -68 -90q-6 -7 -16 -23.5t-16 -23.5q-4 -5 -12 -12t-9 -8l-20 -25l-82 -90l-19 -15q-2 -2 -6.5 -7t-9 -9.5t-8.5 -7.5q-7 -3 -21 -8.5t-20 -7.5q-4 -2 -11 -5t-11.5 -4.5t-10 -3t-10.5 -0.5q-25 3 -41 39 q-18 28 -23 62v16q-8 16 -8 33q0 14 6 35q5 50 6 53q32 169 72 209q3 12 10 27t11 23t16.5 27t13.5 21q0 2 4 6q2 3 19 31q9 14 32 45q2 4 8.5 12t11 15t7.5 14q5 12 57 74.5t60 62.5q26 6 53 18.5t43 20t45 7.5t68 -13l12 -6q3 0 9.5 0.5t12.5 0.5t11 -1q5 0 19.5 -3.5 t21.5 -2.5q5 2 9 6.5t11 15t10 14.5l17 27l18 27q6 12 8 14q5 9 17.5 27t17.5 28v9q9 6 13 12q5 7 16 39l20 28q9 21 18 31t17 27q9 18 17.5 43t23.5 55q17 39 25 66q3 6 7 18t7 18q1 4 7 27.5t9 33t11 25.5t18 27q0 41 2 51q14 24 27 33q33 2 98 -20q12 -3 23.5 -15 t11.5 -24q4 -30 -21 -86q-1 -1 -6 -9.5t-6 -13.5q-4 -5 -8 -27q-26 -37 -47 -94q-10 -26 -23 -54t-19.5 -43t-6.5 -24q0 -10 -11 -29t-14 -28q-4 -4 -4 -6q-15 -19 -31 -77.5t-20 -67.5q-8 -21 -10 -29q-9 -27 -13 -35q-1 -5 -10 -27l-24 -61l-5 -16q-3 -7 -7 -23t-7 -24 q-4 -11 -14 -27q-5 -26 -8 -33q0 -1 -1.5 -2l-3 -2t-2.5 -2q0 -9 -4 -25q-3 -10 -11 -29.5t-11 -29.5q0 -1 -2 -8.5t-4 -11.5q0 -5 -2.5 -13.5t-6 -18.5t-4.5 -16l-20 -59q-6 -12 -6 -37q-13 -18 -15 -26q-8 -13 -8 -33q-2 -4 -18 -58q0 -1 -3 -3.5t-3 -4.5q-3 -8 -9 -29 l-8 -28q-34 -84 -61 -176q-8 -19 -15 -43q-15 -34 -16 -43q-2 -2 -8 -41q-1 -5 -6.5 -16.5t-7.5 -16.5q-2 -6 -4.5 -19.5t-4.5 -19.5q-6 -25 -24 -70q-1 -6 -25 -65q-1 -1 -4.5 -8t-5.5 -10.5t-6.5 -9.5t-8 -9.5t-8 -5.5t-8.5 -2q-12 2 -16 45q-1 6 0 17t0 16q0 5 -1 14.5 t-1 15.5q1 8 4.5 31.5t3.5 36.5q10 62 12 70q16 108 37 184q1 5 5 14.5t5 12.5q4 17 13 50t10 38q8 16 10 26q5 16 10 23l5 33q2 6 8.5 19t7.5 19q0 9 4 13q2 7 14 50.5t19 66.5q1 6 5 21.5t5 23.5q3 11 12 36t15 48t8 47z" />
<glyph unicode="e" horiz-adv-x="526" d="M365 514h-5q-3 -2 -8.5 -6t-10.5 -7t-11 -5q-10 -20 -15 -25q-16 -6 -29 -18.5t-32 -36.5t-21 -27q-14 -12 -28 -29q-6 -6 -23 -34l-8 -11q-20 -31 -24 -57q3 -4 7 -5.5t7 -2t7.5 1t6.5 3t6.5 4t5.5 3.5q2 1 7 4t8.5 5t3.5 3q1 1 3 2q3 2 3 3l16 16q1 1 5.5 4.5t5.5 5.5 q20 23 34 43q22 15 46 58q26 37 38 65q11 33 5 43zM96 166q-14 -27 -12 -43q-13 -16 -23 -53q-4 -20 -4 -50q4 -12 4 -18q1 -10 0.5 -19.5t1 -21t5.5 -18.5q12 -5 24.5 -5.5t28 4.5t22 8t23.5 11l45 25q11 7 39 27.5t45 29.5q17 12 43 27l45 34q46 46 63 56q4 4 11.5 10.5 t12.5 12t9 10.5q17 22 25 22q11 0 20 -27q7 -35 -16 -82.5t-25 -56.5q-5 -7 -16.5 -17t-13.5 -12q-7 -10 -30 -36t-32 -41q-7 -3 -12 -11q-8 -8 -23 -18.5t-16 -11.5q-26 -20 -37 -27q-4 -3 -12 -7t-12 -7l-39 -23q-9 -6 -45 -18q-21 -8 -31 -10q-6 -3 -33 -7q-42 -5 -84 15 q-2 0 -8 6l-27 26q-33 37 -39 52q-2 4 -5 14t-5 14q0 2 -3.5 16.5t-4.5 26.5l-6 21q-2 29 2 90q7 60 18 109q2 6 5.5 21t7.5 26.5t8 19.5q41 99 108 197q1 3 7 9t8 9l5 10t7 11q6 7 21 25.5t24 27.5q26 26 35 31q1 1 7.5 5.5t8.5 8.5q22 22 42 34.5t31 16.5t37.5 9.5 t41.5 9.5q36 10 84 -13q2 -7 10 -16t10 -12q0 -9 1 -23t0.5 -24t-3.5 -23q-2 -19 -10 -37l-25 -72q-10 -10 -22 -35t-21 -34q-1 -1 -4.5 -13t-7.5 -18q-7 -13 -33 -49q-23 -33 -47 -57l-18 -19q-5 -8 -17 -14q-4 -4 -16 -10l-31 -19q-37 -7 -53 -2q-12 0 -16 2q-5 2 -13 6.5 t-13.5 7.5t-12 2t-11.5 -8q-4 -6 -8 -18z" />
<glyph unicode="f" horiz-adv-x="329" d="M393 502q-7 -5 -36 -15.5t-38 -19.5q-15 0 -58.5 -15t-70.5 -18q-5 -17 -17 -48.5t-17 -47.5l-4 -21q-67 -214 -76 -249l-13 -52q-6 -25 -14 -43q-3 -16 -12 -46t-12 -44q-4 -20 -17 -59q-2 -11 -5.5 -45.5t-9.5 -60t-18 -42.5q0 -2 -1 -7t-1 -7q-17 -55 -32 -123 l-13 -45q-5 -32 -12 -43q-18 -4 -41 29q-83 56 -27 246q2 5 7 25t10 30q14 56 16 61q8 21 17 62q3 7 7 18.5t5 14.5q11 43 41 141q1 4 18.5 66t22.5 73l8 19q1 6 16 65l21 64q7 29 4 38l-10 19q-22 49 -45 72l-11 4q-1 2 -7 10.5t-10 16.5t-3 14q0 6 6 20.5t10 18.5 q11 6 13 8q38 6 86 6q4 1 19.5 -1t16.5 3q7 11 16 35.5t11 29.5l19 48q4 8 4 14q4 9 10.5 25t9.5 24l6 14l54 148l8 8q2 4 2 16q8 20 26.5 64t28.5 68t25 56.5t28 55.5q11 19 30.5 31.5t33.5 17t48.5 12.5t47.5 11q9 4 28 4t27 -6l11 -4q10 -6 12 -11q12 -12 16 -24v-8 q17 -22 17 -23q1 -1 2 -4.5t2 -5.5q14 -24 14 -66q0 -27 -16 -49q-4 -4 -4 -6q-3 -4 -12 -14.5t-15 -19.5t-10 -19q-12 -12 -27 -21q-6 1 -25 -4t-24 0q3 14 12.5 35t12.5 31q1 5 -1 15t-2 15v27l-8 29q-1 2 -5 9.5t-6.5 11t-6.5 5.5q-14 -7 -25 -41q-5 -6 -14.5 -21.5 t-15.5 -23.5q0 -1 -3 -3.5t-4 -4.5t-1 -4.5t-1 -3.5q-32 -52 -47 -84q0 -1 -1 -9.5t-5 -10.5q-3 -11 -14.5 -31.5t-14.5 -28.5q-26 -81 -32 -94q0 -1 -1 -3t-1 -3q-10 -21 -41 -98q-1 -4 -14.5 -43.5t-14.5 -49.5q-7 -28 39 -19q15 3 43 12q17 5 20 5q1 0 9.5 2.5t11.5 -0.5 q6 0 20 -21.5t21.5 -44t-2.5 -36.5q-3 0 -12.5 -3.5t-12.5 -4.5z" />
<glyph unicode="g" horiz-adv-x="661" d="M453 532q-20 -11 -43 -14q-30 -30 -37 -35l-29 -24q-8 0 -12 -4q-8 -8 -23 -33q-3 -2 -7 -7t-7 -7q-31 -23 -41 -43q-10 0 -21 -15q-2 -1 -2.5 -6t-1.5 -6q-3 -8 -11.5 -18t-10.5 -13q-12 -10 -23 -28q-20 -25 -22 -31q-5 -4 -10.5 -10.5t-11.5 -16.5t-9 -14 q-13 -13 -16 -21q-9 -12 -13 -20q-14 -32 -34 -45q-2 -13 -13 -39q-3 -4 -6 -14.5t-6 -14.5q0 -2 -3 -4t-3 -4l-4 -25q0 -3 -3 -9.5t-1 -12.5q15 -2 41 18q13 8 32 29.5t25 26.5q12 16 20 22q23 17 27 25l4 4q1 3 12 20l9 7l12 20l18 12q1 2 2 6t2 5q2 7 13 18q2 6 23.5 33 t27.5 28q4 20 4 21q47 27 57 76q3 1 9 7.5t10 8.5q3 12 9 22t14.5 20t11.5 15q1 1 2 5.5t2 5.5q4 6 13 14t13 14q11 11 11 19q1 2 4.5 5.5t5 5.5t2.5 5.5t0 7.5l-3 3q-5 6 -9 5zM174 -297q-32 -20 -57 -18q-36 -20 -111.5 -37.5t-99.5 -26.5l-10 -5t-13 -5q-2 -1 -26.5 -8.5 t-26.5 -10.5q-2 -25 4.5 -54.5t22 -74t16.5 -49.5q8 -23 26 -64.5t25 -66.5q6 -3 13.5 -10.5t15 -11t18.5 -2.5q13 0 25 12q39 39 76 115q33 49 78 149q5 14 28.5 55.5t36 75t4.5 51.5q-9 0 -22.5 -7t-22.5 -7zM406 -129q3 -5 7.5 -5.5t13.5 2t13 3.5q17 0 38 11.5t26 13.5 q2 1 41 12q3 1 8 2.5t8.5 2.5t5.5 1q20 4 33 4q14 1 22 -10.5t7 -24.5t-11 -16l-4 -2q-8 -4 -16 -4l-31 -15q-14 -6 -68.5 -18t-86.5 -33q-8 -6 -33 -16q-6 -12 -15.5 -45.5t-15.5 -46.5l-6 -11l-25 -65q-2 -11 -5.5 -20.5t-8.5 -20.5t-8 -19q-4 -12 -14 -32.5t-11 -22.5 q-6 -10 -14 -32.5t-12 -30.5q-15 -29 -23 -41q0 -9 -3 -17t-8 -17t-7 -13q-5 -18 -28.5 -43t-29.5 -39q-4 -4 -4 -15q-1 -3 -4.5 -12.5t-7 -17t-6.5 -9.5l-2 -2q-6 -16 -23 -24q-2 -2 -11 -10.5t-18.5 -17t-22.5 -19.5t-26 -18.5t-26 -13.5t-25.5 -6t-21.5 7q-3 2 -15.5 11 t-19.5 12q-15 35 -49 69q-6 9 -19.5 31.5t-16.5 27t-12.5 22.5t-13.5 28.5t-12.5 33.5t-16.5 48t-20 63q-34 67 -45 131q-20 25 -25.5 39.5t-5.5 46.5q2 2 9 4t10 4q12 2 36 8t30 5.5t42 -0.5q3 0 12.5 1t12.5 1q8 2 25 2l81 20q21 0 38.5 4t32.5 10t18 7q12 6 14 6l22 4 q2 1 6 2.5t6.5 2.5t4.5 1q67 21 74 25l55 18q2 1 8 3.5t8 2.5q8 3 17 2.5t12 1.5q3 3 5.5 18.5t6.5 20.5q0 1 6 13q3 17 13 30q2 15 13.5 43t14.5 37q9 20 14 39t9.5 48.5t5.5 37.5l8 16q8 32 8 62q-10 2 -13 0t-7.5 -12t-7.5 -13l-17 -14q-2 -2 -4 -8t-4 -8 q-40 -46 -41 -47q-7 -11 -10 -19l-21 -14l-16 -21q-4 -4 -12 -11t-13.5 -13t-9.5 -11l-18 -16q-2 -3 -19 -14q-4 -3 -7.5 -6t-6 -7t-4.5 -6q-1 -1 -3 -1t-3 -1l-11 -14q-22 -17 -52.5 -33t-49.5 -12q-17 0 -41 18q-15 11 -27.5 37.5t-13.5 54.5q-4 17 4 54q1 6 2.5 16 t2.5 18t1 13q6 12 13 33q38 93 39 94l30 55q24 41 35 53q6 16 22.5 37.5t22.5 36.5q17 12 19 14q0 7 2 11l12 12l31 45q7 4 17.5 19.5t17.5 19.5q2 5 4.5 8.5t9 7.5t8.5 6l16 27q15 16 46 45.5t45 46.5l22 23q1 1 10 8t11 12q4 6 4 21q3 2 6.5 7.5t5.5 6.5q5 5 20 1t27 -11 l12 -6q5 -1 12.5 -8.5l8.5 -8.5q3 -3 10.5 -5.5t9.5 -4.5q7 -5 35.5 -22.5t52 -33.5t29.5 -24v-8q8 -20 25 -88q2 -7 2 -41q-4 -42 -4 -43q-4 -8 -14.5 -32.5t-16.5 -35.5q-2 -3 -6.5 -11t-5.5 -11q-2 -5 -4.5 -16t-4.5 -15q-1 -4 -6.5 -15t-7.5 -20q-10 -35 -16 -47 q-1 -5 -4.5 -21.5t-5 -24t-5.5 -20t-9.5 -21.5t-12.5 -17q-11 -14 -48.5 -111t-37.5 -108q-1 -4 -5.5 -11.5t-4.5 -15.5z" />
<glyph unicode="h" horiz-adv-x="815" d="M586 1264q2 -10 0.5 -40t1.5 -42q-14 -28 -23 -35q0 -16 -6 -31q-17 -20 -27 -53q-10 -5 -14 -29q-3 -5 -9.5 -10.5t-8.5 -9.5q-16 -37 -29.5 -67.5t-34 -72.5t-37.5 -79l-14 -23q-2 -12 -23 -53q0 -5 -4.5 -15t-5.5 -16q-1 -2 -2 -9t-2 -9q-2 -5 -9 -14.5t-9 -14.5 l-4 -16q-10 -25 -28.5 -61t-23.5 -48q-1 -2 0 -7t0 -7q-16 -26 -24 -49q-15 -36 -19 -41q-15 -25 -18 -27q-2 -14 -12 -37t-13 -35l-18 -39t-19 -42t-14.5 -39t-9.5 -43q-13 -12 -12 -21.5t-6 -32.5q-8 -8 -12 -28.5t1 -34.5q7 0 18.5 12t14.5 14q0 1 3 2q2 1 3 2l4 9l9 4 q3 3 11 16t15 19l8 4q2 6 4 8q1 1 3.5 1t3.5 1l16 25q0 2 4 6q4 6 16 20.5t19 24.5l8 8q0 10 4 12q4 4 12 10t11 9q2 3 6 12.5t8 13.5q2 3 8.5 9t9.5 10l9 10q10 17 24 31q2 2 7.5 8t7.5 10q5 5 16 27q100 135 131 172q31 36 68 73q5 5 16.5 19t17.5 18q6 5 20.5 24t20.5 25 q2 2 7 4.5t6 4.5q2 2 7.5 8.5t10.5 11t10 6.5q27 -6 47 0l27 -22q1 -8 -3 -15.5t-3 -13.5q4 -23 2 -37q-2 -7 -10.5 -16t-10.5 -15q-3 -9 0.5 -18t2.5 -14q-12 -40 -25 -58q-2 -5 -1 -12.5t-1 -9.5q-4 -10 -16.5 -34t-16.5 -38q-4 -16 -8 -24q-7 -7 -8 -9t-1 -6t-1 -6 q-1 -3 -6.5 -9t-6.5 -9q-2 -5 -5 -17.5t-5 -17.5l-6 -12q-15 -25 -23 -33q0 -23 -2 -33q-2 -3 -5 -12.5t-5 -12.5q-1 -4 -4 -10t-4 -10q-3 -6 -6 -22t-6 -23q-2 -8 -9.5 -36t-9.5 -44q-4 -8 -4 -25q-20 -64 -10 -135q4 -29 14 -39q9 -1 19 3.5t15 7.5t17.5 14t14.5 12l29 25 q3 2 9.5 9.5t10.5 10.5q30 27 59 72q3 5 14 19t15 20q1 1 7.5 5t8.5 7l5 10l6 11q6 6 6 12q45 68 57 92q22 37 37 47q8 6 20.5 8.5t26.5 -4.5q3 -8 4.5 -16t0 -18.5t-2.5 -16.5t-4 -18t-4 -15l-6 -30q-4 -9 -14 -23.5t-13 -21.5q0 -13 -8 -41v-9l-8 -4v-6l-4 -2v-6 q-4 -5 -14.5 -17t-14.5 -20q-1 -1 -1.5 -4t-2.5 -4q-7 -7 -14 -25q-2 -2 -2.5 -6.5t-1.5 -5.5q-5 0 -5 -2q-3 -6 -9 -13.5t-16.5 -19t-17.5 -20.5q-6 -6 -16 -19.5t-16 -19.5q-2 -2 -5 -6.5t-4 -5.5q-3 -2 -9 -4.5t-9 -4.5q0 -6 -2 -6l-10 -6l-10 -10l-9 -4q-1 -2 -2 -7 t-2 -6l-4 -4q-15 -15 -53.5 -22t-63.5 2q-4 1 -30 6.5t-46.5 12t-27.5 14.5l-18 20q-5 2 -5 4q0 9 -12 29q-2 4 -4.5 17.5t-5.5 19.5q0 21 2 33q-1 9 -6.5 18.5t-7.5 15.5q0 6 3.5 14.5t4.5 10.5q-3 6 2.5 25t5.5 24l8 29q0 4 -1 12t-1 12q2 30 21.5 78t21.5 55l14 21 q0 6 3.5 14t9.5 18t8 13q3 11 3 17q0 2 1 3.5t8 8.5q-5 17 32 92q11 23 9 25q-2 1 -12 -9q-41 -41 -86 -96q-4 -4 -10.5 -13.5t-12.5 -15.5t-12 -10q-1 -8 -6.5 -19.5t-7.5 -17.5q-10 -3 -22 -20t-17 -21q-2 -8 -23 -37q0 -10 -4 -10q-3 -6 -11.5 -12t-12.5 -10l-13 -23 q-3 -4 -14.5 -18t-18 -25.5t-10.5 -26.5q-6 -8 -17.5 -22.5t-21 -27.5t-16.5 -27q-11 -5 -43 -47l-39 -54q-1 -1 -2 -4.5t-2 -5.5q-13 -6 -18 -14q-3 -7 -14.5 -14t-14.5 -11q0 -1 -3 -2q-1 -1 -1.5 -1t-1.5 -1q0 -4 -4 -6q-8 -5 -28.5 -6.5t-31.5 2.5q-2 4 -4 4 q-7 5 -16 16q-1 2 -5.5 6t-6.5 7l-15 34q-1 2 -6 9t-7.5 12.5t-2.5 11.5q-3 8 -3.5 22t0.5 37t1 33l4 72q2 2 3 5t1.5 7t1.5 6t2 7t2 9t2 5q1 5 8 12t9 12q0 21 2 33q17 33 22 72q9 10 18 40.5t13 39.5q5 13 22 26q0 1 -1.5 16t1.5 17q8 21 54 121q0 4 1 13t1 14 q1 2 19.5 37t25.5 55q3 6 9.5 26t12.5 29q3 6 12.5 20t12.5 23q2 5 4 16.5t4 16.5q1 6 20 39l17 41l8 10q2 2 2.5 5.5t1.5 4.5q4 18 8 23q32 64 56 106q3 5 12.5 26.5t17.5 29.5q0 8 15 38q2 4 5.5 16.5t8.5 18.5q1 4 4.5 9t3.5 6q1 1 6 22q2 4 8.5 15t8.5 18q0 18 10 45 q6 18 16 33q1 3 2.5 5.5t3 4l3 3t2.5 3.5q12 12 36 12q12 1 16.5 -2t16.5 -4q54 -12 64 -26z" />
<glyph unicode="i" horiz-adv-x="385" d="M297 1049q-3 8 -12.5 19.5t-10.5 21.5l7 6q17 23 48 24.5t40 -10.5q3 0 14 1.5t14 0.5q9 0 19 -8t23 -23t14 -16q12 -15 -0.5 -56t-36.5 -59q-9 -6 -31 -10q-19 -5 -28 0t-19 25l-16 26q-1 3 -10 26t-15 32zM172 283l-14 -35l-13 -19q-8 -24 -14 -36q0 -14 -16 -54 q-1 -5 -6.5 -13.5t-6.5 -10.5q-6 -32 -4 -50.5t15 -44.5q10 -3 20 -3t19.5 2.5t18 6.5t18 10.5t17.5 13t17 15.5l16 16t16 16.5t15 15.5q8 5 23 20q29 24 33 29q7 8 20 29t21 30l18 17q9 13 35 43q7 9 19.5 21.5l19.5 19.5l28 40q3 3 17 20.5t20.5 24.5t20 16.5t26.5 12.5 q7 1 16 -5.5t7 -12.5q4 -9 -6.5 -29.5t-9.5 -28.5q-5 -10 -21 -25.5t-20 -25.5q0 -5 -7 -8q-3 -15 -18 -33q-6 -9 -12.5 -26t-12.5 -25q-2 -4 -12 -14q-23 -34 -24 -37q-4 -6 -23 -25q-6 -9 -6 -16l-43 -43l-8 -16q-1 -3 -7 -7.5t-8 -7.5l-12 -14q-4 -5 -19 -18t-22 -23 q-8 -5 -24 -22t-21 -21q-41 -37 -65 -47q-13 -8 -47.5 -18t-43.5 -13l-24 8l-21 6q-20 6 -36.5 30.5t-16.5 45.5l-8 27q-31 195 129 516q4 11 14 29.5t13 25.5l12 37q13 42 67 23q19 -5 45 -27q26 -16 35 -39q-7 -53 -67.5 -149.5t-71.5 -124.5z" />
<glyph unicode="j" horiz-adv-x="321" d="M324 1032q13 -5 22 -12q2 -1 9 -7.5t12 -8.5q5 -4 16.5 -9.5t18.5 -12t10 -17.5q-5 -17 -15.5 -32t-16.5 -20t-22 -18q-7 -4 -25 -13.5t-28 -14.5t-25.5 -11t-29.5 -8q-3 -2 -10.5 -8t-11.5 -8.5t-10.5 -5.5t-12.5 -3q-3 8 -3 18t2 18t8 20t10 19t11.5 20t10.5 18l22 39 q22 30 58 57zM-227 -379q-22 4 -48 5t-60.5 1.5t-47.5 1.5h-2l-72 -4q-9 -4 -18.5 -5t-21.5 -0.5t-19 -0.5q-6 -2 -16 -2q-75 -18 -105 -39q-2 -3 -11 -12t-11 -12q3 -12 -3.5 -39t-3.5 -45q4 -16 4 -21q20 -63 21 -65q5 -25 4 -31q8 -17 19 -51t24 -61.5t33 -47.5 q2 -2 4 -2q9 -36 41 -51q23 -14 37 -10q5 0 11.5 4t10.5 8t10.5 12.5t9 12.5t7.5 13l6 9q40 55 59 104q11 20 33 59t35.5 63.5t29.5 59.5t25 64q15 28 19 41q2 5 7.5 13.5t8.5 15t2 10.5q-6 6 -22 2zM233 410q-5 -37 -6 -39q-16 -40 -40.5 -112t-36.5 -103 q-14 -27 -44.5 -147t-54.5 -142q-6 -6 -12.5 -25t-15.5 -24q-3 -23 -27 -64.5t-27 -66.5q2 -5 5 -7t9 -2.5t9 -1.5q2 0 18 -8h15l55 -8q5 -2 16 -4t13 -2q40 -6 41 -6q15 -4 13 -29q-4 -31 -33 -37q-9 -1 -19 0q-9 4 -13 2q-8 0 -26 8.5t-27 8.5q-10 0 -35 8t-39.5 12 t-23.5 -2q-2 0 -2 -2q-2 -1 -2.5 -3t-1.5 -3q-7 -22 -17 -39q-2 -5 -7 -23l-5 -18q-2 -8 -8 -18.5t-15 -23.5t-12 -17q-3 -17 -22 -60q-2 -4 -8 -13.5t-9.5 -17.5t-3.5 -12q-5 -9 -13 -25.5t-16 -29t-18 -23.5q-2 -12 -7 -24t-9.5 -20t-12.5 -21.5t-12 -20.5q0 -8 -2.5 -15 t-9.5 -18t-8 -12q-62 -100 -91 -129q-14 -26 -44.5 -42.5t-59.5 -4.5l-33 17q-7 10 -20 20q-2 2 -8 2q-27 16 -57.5 50t-46 55t-47.5 73t-34 54q0 2 -4 12t-4 12q0 27 -6.5 75.5t-7.5 59.5q-8 15 -10 42.5t-5 37.5q-12 24 -12 27q-1 3 -1.5 11t-2.5 13q3 34 26 67t60 46 q7 3 25.5 10t29.5 11t27.5 8t30.5 4h30q19 1 76 5.5t76.5 4.5t75.5 -2q14 0 22 -4q16 -2 51 -2q15 0 35.5 3.5t28.5 4.5q9 6 18 24.5t18.5 43.5t12.5 32l16 35q8 15 15 41q19 39 63 174q2 4 4 11.5t4 11.5l43 137l25 76q2 7 12.5 34.5t12.5 43.5q17 23 20 63q1 3 4.5 8.5 t6.5 11.5t5 11q6 17 8.5 61t4.5 58q0 2 3.5 9l4.5 9q8 16 16 20q14 5 35 -12q12 6 47 2q21 0 27 -2q25 -9 26.5 -34t-11 -51.5t-25 -59t-9.5 -49.5z" />
<glyph unicode="k" horiz-adv-x="739" d="M535 631q-1 -2 -7.5 -4.5t-7.5 -3.5q-4 -7 -14 -13q-9 -6 -19 -15.5t-21.5 -22t-14.5 -15.5q-2 0 -4.5 -2.5t-2.5 -3.5q-6 -2 -11 -8.5t-7 -7.5q-5 -8 -2 -23q-2 -2 -8.5 -2t-9.5 -2q-1 -2 -6 -8.5t-7.5 -9.5t-7.5 -6.5t-10 -4.5q-2 -8 -14.5 -20.5t-14.5 -26.5 q-18 -13 -41 -45q-7 -5 -12 -14q-6 -12 -6 -23q3 -3 8.5 -2t8 2t7 4t6.5 4l17 7q1 2 2.5 2.5t1.5 1.5h4q7 5 20.5 20.5t20.5 20.5h6q4 4 4 6q9 7 27 23t20 18l4 8q5 7 15 18t14 17q1 1 3.5 5.5t4.5 6.5v4q2 4 10 9.5t11 9.5q0 1 2 7.5t4 8.5q0 1 2 3t2 3q2 0 2 6 q2 6 10.5 14.5l10.5 10.5q13 21 8 41q-4 0 -8 2zM309 590q4 -2 17.5 7.5t33 24.5t21.5 17q4 4 18 13t19 16l35 22q15 16 20 17q1 3 2.5 4t4.5 2t5 2q1 0 2 1.5t2.5 3.5t2.5 3q2 2 10 2q1 0 12.5 9.5t17.5 13.5q3 1 11.5 4.5t11.5 3.5q31 14 63 2q16 -8 33 -29q21 -17 25 -31 q10 -58 -14 -123q-2 -5 -4.5 -10.5t-6.5 -12.5t-6 -11q-6 -6 -6 -11h-6v-6q-1 -3 -5.5 -7.5l-6.5 -6.5q0 -4 -9 -18l-12 -13q0 -8 -4 -8l-8 -4q-1 -1 -1 -5t-1 -5q-2 0 -6 -4q-6 -3 -13.5 -15t-11.5 -16q-2 -3 -12 -13.5t-15 -17.5q0 -1 -2 -4t-4 -4q-1 -4 -6 -6l-6 -2 q-1 -2 -2 -5.5t-2 -4.5l-4 -3l-8 -12q-6 -8 -21 -16q-11 -9 -39 -21.5t-39 -19.5q-6 -3 -16.5 -13t-13.5 -12q-1 -1 -3.5 0t-3.5 0q0 -1 -1 -3t-1 -3q-3 -2 -11.5 -4.5t-12.5 -5.5q-6 0 -13 -6t-8 -15q0 -7 5 -18.5t6 -15.5l10 -13q1 -3 18 -43l25 -32l47 -54 q9 -2 31.5 -11.5t38.5 -10.5q31 0 61 12q28 10 51 27l27 16l18 21q4 4 13 9.5t12 8.5q2 2 8 14q2 2 6.5 3.5t5.5 2.5q3 3 6.5 11t6.5 12l8 8l4 12q19 28 22 39q5 6 10 20t7 17q9 26 14 33q4 48 10 57q10 6 27 -2q20 -12 31 -47q6 -13 10 -31q2 -22 -6.5 -62.5t-9.5 -55.5 q-6 -11 -22 -41.5t-24.5 -46t-23.5 -37.5t-29 -39q-11 -11 -16 -21q-9 -9 -19 -24q-3 -3 -20 -13.5t-23 -23.5q-10 0 -24 -12.5t-19 -14.5q-3 -1 -10 -1t-12 -1l-19 -4q-19 -4 -26 -5t-23.5 -2t-30 0.5t-26.5 6.5q-2 1 -4 4t-4 4q-20 10 -23 13l-6 10q-5 5 -18.5 13.5 t-18.5 13.5l-12 16q-24 30 -25 31q-14 10 -16 12l-18 27q-2 4 -11 19t-12 24q-5 7 -14 21t-16.5 26t-12.5 24v13q-4 0 -4 4q-3 8 -13.5 29t-13.5 32q-4 3 -12 10.5t-14.5 11.5t-14.5 5q-1 0 -16 -9q-3 -2 -18 -22q-12 -12 -13 -14l-12 -41q-1 -4 -7.5 -14.5t-8.5 -16.5 q-11 -11 -15 -31q-3 -6 -5.5 -18.5t-4.5 -16.5q-1 -1 -3 -2q-3 -1 -3 -2q-9 -19 -15 -47l-26 -67q-11 -46 -12 -50q-3 -10 -7 -28t-6 -23l-3 -2l-5.5 -5.5t-3.5 -4.5q-11 -7 -16 -9t-12.5 0t-14.5 13l-6 10q-3 4 -5.5 9.5t-6 13.5t-5.5 12q-3 11 -6.5 32.5t-5.5 33.5 q-6 24 -6 37q-2 9 -4 29t-4 28q-1 2 -6 8.5t-4.5 7.5t0.5 10q6 4 16.5 5t15.5 6q2 2 11 28q1 5 5 14.5t5 14.5q4 10 10.5 30.5t9.5 26.5q1 5 6.5 13t6.5 10l24 65q7 21 15 37l8 11q1 2 1 7t1 7l24 49q4 15 11 25q5 13 18 38t16 31q1 5 5.5 14t5.5 13l12 22l20 52q6 8 13 22 q2 2 24 47q5 16 15 37q1 1 5 9.5t9 13.5l39 82l35 69l12 23q20 45 33 73q34 65 63 113q11 17 47 96l21 47q3 4 4.5 9t2 11.5t1.5 8.5q7 11 12 27q2 7 1.5 29t2.5 26q3 6 11 11.5t14 4.5q33 -10 55 -32q0 -1 1 -2.5t2.5 -4t2.5 -4.5q10 -10 19.5 -26.5t9.5 -26.5 q2 -18 -14 -71q-16 -47 -45 -103q-10 -20 -25 -63q-2 -5 -8 -25.5t-11 -34t-19 -43t-34 -65.5q-9 -32 -56.5 -117t-78.5 -133z" />
<glyph unicode="l" horiz-adv-x="364" d="M539 1268q2 -36 -11 -86q-19 -25 -45 -73t-39 -67q-16 -33 -84 -198q-30 -76 -102 -226q-4 -23 -17.5 -58t-15.5 -42q-7 -43 -46.5 -137t-41.5 -148q-12 -12 -21 -50.5t-10 -41.5q-8 -13 -8 -28q-10 -37 -10 -84t12 -58q12 -2 45 23q15 9 41 36t41 36q9 9 31 34.5 t37.5 41t30.5 24.5q9 12 26 34.5t30.5 39.5t27.5 32q22 38 73 76h5t4 -4q3 -11 -1.5 -29.5t-14.5 -45t-11 -29.5q-7 -21 -25.5 -48t-23.5 -36q-6 -10 -20.5 -27t-20.5 -27l-49 -57q-7 -8 -26 -29t-28 -32q-7 -10 -21 -27.5l-18 -22.5q-7 -7 -19 -24t-17 -23q-3 -3 -41 -29 t-54 -46q-32 -37 -34 -39q-8 -8 -16 -9t-16.5 4.5t-14.5 11t-13.5 14.5t-9.5 11q-22 11 -35 41q-3 19 -5 56.5t-5 56.5q0 154 80 371q4 17 10 36.5t14.5 42.5t12.5 35l14 52q21 64 37 100q5 22 8 27l8 16q1 1 33 96l51 160q23 45 41 100q21 47 25 62q2 5 24 50.5t31 68.5 l45 92q5 22 14 45q15 6 41 10q9 3 50.5 -20.5t46.5 -34.5z" />
<glyph unicode="m" horiz-adv-x="985" d="M336 627q1 -8 -1.5 -15t-9.5 -18t-8 -12q0 -15 -20 -35q-11 -22 -29 -49q-8 -12 -20 -39q0 -4 -2 -8l-13 -25q-2 -1 -6.5 -9.5t-7.5 -10.5q-2 -19 -26 -68q-3 -14 -11 -25l-12 -18l-6 -12q-18 -31 -21 -41q-3 -6 -25 -50.5t-28 -72.5q-4 -8 -14 -20.5t-15.5 -25.5 t-5.5 -32q-23 -27 -18 -55q11 -1 19 13t10 15q13 13 22.5 29t18 35t12.5 26q10 23 32.5 60.5t32.5 44.5q14 24 59.5 84t49.5 67q1 3 18 25q12 14 35.5 46.5t38.5 49.5q12 10 32.5 37t26.5 33l29 24q46 46 64 58l2 2l12 6q6 6 8 6q8 3 32 3.5t34 -3.5q4 -3 8 -9t9 -16l7 -14 q2 -35 -18 -110q-6 -27 -23 -80q-18 -62 -26 -78q-10 -24 -21 -66t-10 -59q2 -3 10 6t16 20t9 15q3 3 13 16.5t16.5 21t15.5 17t16 13.5l27 45q36 49 45 120q3 6 6 29.5t6 32.5q6 16 19 22q20 10 69 2q34 -3 47 -20q10 -32 4 -57q0 -31 -32 -68q-3 -41 -21 -70 q-1 -11 -9.5 -30.5t-10.5 -28.5q-2 -6 -2.5 -16t-1.5 -13q-15 -38 -19 -57q0 -51 -14 -86q7 -34 18 -51q47 -3 74 28l57 46q17 17 21 20q7 7 25.5 23t27.5 26q8 4 10 8q3 2 7 7t6 6q16 12 26 8q1 0 2.5 -2t3 -3.5t2.5 -0.5q3 -5 7 -27q0 -1 -7 -29q-1 -6 -7.5 -15.5 t-8.5 -14.5q-12 -30 -12 -33q-6 -6 -33.5 -43t-46.5 -43q0 -9 -41.5 -31t-67.5 -33q-43 -17 -78 -8q-18 5 -26.5 12t-13.5 27q-23 11 -46 68q-2 5 -5.5 29t-10.5 34q-5 0 -9.5 -4.5t-8.5 -11.5t-7 -10q-8 -14 -22 -31q-14 -24 -41 -62q-12 -9 -35 -32t-39 -33 q-5 -3 -13 -1.5t-11 1t-9.5 3.5t-8 5t-7.5 6t-8 6q-3 6 -10 21t-11 24.5t-8 22.5t-4 22q-1 8 1.5 25.5t2.5 24.5l6 49q4 24 11.5 52t17.5 61.5t14 50.5q2 9 9.5 28t9.5 25l4 8q1 4 13.5 33t13.5 51q-7 2 -17.5 -15t-17.5 -20q-2 -7 -6 -14t-7.5 -11t-9.5 -11t-8 -9 q-12 -30 -41 -59q-4 -8 -15.5 -28t-15.5 -30q-5 -8 -15 -26t-17 -27q-10 -14 -42 -59.5t-46 -69.5q-17 -26 -50.5 -67.5t-40.5 -51.5q-19 -19 -51 -75l-16 -27q-7 -6 -27 -27.5t-33 -33.5l-28 -31q-4 -4 -11 -12.5t-13 -13.5t-11 -7q-43 -8 -66 45q4 15 -1.5 35t-4.5 29 q-5 18 6 47q-3 13 7 57q4 10 9 28.5t7 24.5q3 9 12.5 35.5t14.5 42.5q1 2 18 55q14 38 41.5 104.5t38.5 94.5q7 10 10.5 22t5.5 15q3 10 14.5 30t14.5 27q7 27 29.5 87.5t29.5 95.5q21 34 45 38q8 2 30.5 -1t29.5 -3q4 0 10.5 2t9.5 2q5 -1 13.5 -3.5t13 -3t12.5 0.5 q4 -6 15.5 -13t15.5 -13z" />
<glyph unicode="n" horiz-adv-x="833" d="M512 29q32 -13 82 6q39 16 133 92q4 8 6 10q87 73 103 121q10 10 14 18q3 7 6 27t10 27q16 2 26.5 -3t15.5 -11t14 -21q20 -39 0 -105q0 -4 -9 -18q-7 -28 -34 -68.5t-33 -54.5q-20 -28 -64.5 -74t-62.5 -71q-10 0 -27 -14t-22 -17q-4 -2 -14.5 -5t-14.5 -5 q-39 -16 -63.5 -16t-63.5 12q-29 11 -45 31.5t-29 52.5q-2 3 -8 10.5t-8 13.5q-3 5 -8.5 15t-7.5 14q-4 11 -9 65q-6 66 9 144q4 11 13.5 48t18.5 56l29 74q4 10 13 30t14 35.5t6 30.5q-8 2 -16.5 -4.5t-17.5 -16.5t-15 -14q-1 -1 -14 -10.5t-19 -15.5q-25 -25 -69.5 -77.5 t-69.5 -76.5q-3 -6 -11.5 -14t-11.5 -12l-31 -35q-14 -14 -34.5 -48.5t-28.5 -56.5q-14 -22 -46.5 -67.5t-57 -84t-40.5 -73.5q-23 -35 -38 -35q-11 -3 -25 19q-17 17 -23 43q-5 17 -2 45q-4 20 0 26q2 25 10.5 52t24 62.5t19.5 47.5q4 15 13 39t9 25q2 5 21 39l10 32 q41 95 65 158q1 6 6 17t5 12q2 7 0.5 22t-0.5 21q7 12 20.5 24t26.5 15q17 2 57 -13q39 -17 39 -30q3 -16 -8 -43t-12 -43q19 2 43.5 30t33.5 33q35 35 47 45l39 35q18 18 33 27q16 16 72 45q2 1 13 4t20.5 5.5t13.5 2.5q33 0 74 -27q17 -17 28 -43q3 -23 -10 -86 q-3 -12 -13.5 -40t-13.5 -44q-14 -26 -29.5 -62.5t-21.5 -49.5q-7 -20 -18.5 -53.5t-19 -56t-11.5 -42.5q-2 -10 -2 -27q-8 -60 -4 -75z" />
<glyph unicode="o" horiz-adv-x="561" d="M100 25q21 0 53.5 29.5t43.5 33.5l36 33q9 7 33.5 35t24.5 32q7 17 24 49.5t23 49.5l14 32q14 46 15 58l8 41q0 3 -2 10.5t-2 11.5l-6 21q-3 8 -13.5 15.5t-19.5 6.5q-7 0 -19 -7.5t-14 -8.5q-16 -6 -47 -37q-4 -10 -24 -24t-25 -21q-2 -7 0.5 -19.5t1.5 -19.5 q0 -4 -11.5 -23.5t-13.5 -21.5q0 -4 -2 -6q-37 -72 -80 -135q-4 -10 -20 -62q-13 -44 -2 -67q4 -6 24 -6zM276 682q2 2 21.5 2t28.5 -2q15 -7 37.5 -33t39.5 -31q11 -6 41 -32q14 -11 21 -19q7 -9 14 -26q20 -67 27 -74q7 -49 -14 -143q-20 -81 -37 -109q-1 -2 -6 -6.5 t-7 -7.5q-6 -9 -14 -27.5t-10 -23.5q-15 -15 -38 -56t-44 -55q-1 -2 -3.5 -6.5t-5 -8t-5.5 -6.5q-1 -1 -7 -5.5t-8 -8.5q-71 -71 -137 -98q-5 -2 -13 -9t-10 -8q-5 -1 -14.5 -1t-13.5 -1l-10 -5t-13 -3q-7 3 -18.5 7.5t-18 8t-15.5 9.5t-15 14q-29 35 -33 53q0 1 -12 47 q0 2 -3.5 23t-3.5 29q5 63 5 73q0 64 8 93q6 37 33 100q12 27 24 47q2 3 6.5 16t9.5 19q19 32 55.5 83t49.5 72q5 6 13 16.5t14.5 17.5t15.5 11q22 15 41 41q11 17 18 19q0 1 6 4z" />
<glyph unicode="p" horiz-adv-x="745" d="M41 14q4 0 8 2.5t6 6t5.5 8.5t5.5 8q26 26 62.5 83.5t43.5 67.5q16 3 27.5 31t25.5 35q3 17 11.5 33.5t21.5 35t18 27.5q3 6 11.5 21t13 23t12.5 19t15.5 18t15.5 11q4 8 17 27t16 29q9 7 22 25.5t17 23.5q10 10 12 14q4 5 14 20t19 25t20 15q7 0 15 -2.5t13 -5l14 -7 t12 -6.5q6 -3 17 -7.5t15.5 -7t10.5 -8.5t10 -16q3 -10 0 -41q-11 -86 -35 -176q-4 -8 -8 -24l-6 -25q-1 -6 -5.5 -22.5t-5.5 -24.5q-4 -17 -9 -50.5t-9 -49.5q-1 -5 1.5 -12t2.5 -11q-2 -17 -2 -46t6 -36q2 -1 12 1.5t11 2.5q2 1 3.5 3.5t2.5 2.5t7.5 3t10.5 5 q16 6 39.5 28.5t36.5 27.5q13 13 36.5 45t44.5 55t40 27q8 13 33 39q3 3 7 12.5t5 11.5q5 7 13.5 25.5t13.5 25.5q2 2 5.5 10t4.5 9q4 1 6 -0.5t6 -7.5l6 -9q7 -11 11 -24t5 -22t-0.5 -25.5t-2.5 -22t-5 -23.5t-4 -20q-15 -67 -61 -133q-66 -77 -66 -86q-12 -2 -37.5 -26 t-51 -43.5t-40.5 -12.5q-12 -14 -32.5 -25.5t-32.5 -7.5q-24 5 -36 9t-27 15t-23 28q-2 6 -10 20t-7 27q-28 35 -32.5 89t5 127.5t9.5 94.5q2 6 1.5 14.5t0.5 12.5t4 12.5t3.5 13t-1.5 13.5q-11 7 -17.5 1.5t-15.5 -22.5q-17 -33 -55 -90q-4 -4 -12 -8q-15 -15 -35 -55 q-2 -1 -3.5 -4.5t-2.5 -4.5q0 -4 -2 -6q-6 -8 -15 -26.5t-17.5 -30t-20.5 -17.5q-5 -19 -24 -47t-24 -43q-12 -24 -14 -26l-4 -4q-16 -18 -59 -75t-52 -67q-4 -9 -20 -18q-5 -34 -31 -49q-1 -9 -22.5 -53t-24.5 -46q-5 -18 -20 -43q-14 -28 -25 -32q-6 -20 -21 -46.5 t-20 -41.5q-28 -30 -46 -78.5t-34.5 -101t-38.5 -83.5q-1 -3 -13 -55.5t-26 -82t-32 -27.5q-24 14 -47 53q-15 21 -18.5 38t-4.5 19q-23 52 49 209q2 8 13.5 34t13.5 42q5 11 15.5 46.5t21 62.5t18.5 32q4 7 23 64l9 24t9.5 26t10 23.5t12.5 22.5q1 9 4 17t7.5 17.5 t6.5 14.5q20 49 27 61q5 20 20 34.5t19 35.5l45 117q8 13 12 41q4 9 8 31q5 13 26 59t29 72q12 61 45 114q14 28 21 56l26 55q3 12 17 39l16 37q1 4 5.5 10t5.5 10l10 39q4 11 10.5 37.5t13.5 40.5q3 2 7.5 3t8 0.5t10 -3t9 -3.5t9.5 -4.5t8 -4.5l18 -15l12 -10 q15 -19 15 -27q1 -5 -0.5 -10t-4.5 -11t-4 -11q-5 -11 -27 -62t-28.5 -66.5t-26 -61t-28 -66t-25 -61t-26 -66t-22 -60t-23 -65t-19.5 -60.5q0 -5 -3 -15.5t-4 -15.5t1 -10z" />
<glyph unicode="q" horiz-adv-x="768" d="M127 -94q2 2 6.5 4.5t7.5 5.5l62 49q14 11 39 39.5t41.5 49.5t46.5 60.5t32 41.5q3 6 10.5 13t8.5 9q8 14 24 37.5t21 32.5q0 4 3.5 31t5 40.5t1.5 39.5t-3.5 41t-11.5 31t-22 24q-2 1 -11 6t-13 6q-61 -45 -96 -78t-62 -76q-42 -95 -100 -163q-12 -35 -43 -91 q-1 -14 -4.5 -27t-6.5 -20.5t-9 -21t-9 -19.5q1 -11 -0.5 -29.5t-1 -32t5.5 -22.5q33 -12 78 19zM461 59q-17 -5 -42.5 -27.5t-31.5 -39.5q-11 -7 -31.5 -26.5t-21.5 -20.5q-44 -31 -64 -56l-16 -14q-30 -25 -95 -55.5t-96 -30.5q-6 0 -19 3.5t-19 2.5q-7 6 -21 14t-20 13 q-4 2 -4 6q-10 7 -16.5 17.5t-12 28.5t-6.5 20q-6 16 -1 41.5t5 31.5q-5 102 24 125q2 28 20 69t21 60q2 5 10.5 12.5t10.5 12.5q1 8 3 14.5t3.5 11.5t5.5 11t5.5 9t6.5 10t7 9q22 25 64 92.5t71 96.5q1 1 5 6t5 8q34 43 51 53q7 13 27 27q22 19 69 33q18 7 37 0 q15 -5 39 -29q1 -1 19 -25q21 -26 45 -69.5t37 -59.5q5 -20 12 -22q5 1 9.5 6.5t9 15t5.5 11.5q4 4 14 12.5t13 13.5q6 16 28 63.5t31 76.5q2 7 4.5 26t6.5 34t12 24q3 -1 15.5 -1t19.5 -2l22 -18q5 -3 13 -6.5t10 -5.5q2 -1 6 -7.5t6 -7.5q14 -19 16 -35.5t-2 -27 t-14 -28.5t-14 -31q-2 -2 -7 -10.5t-6 -10.5q-14 -23 -18 -45q-8 -24 -20.5 -69.5t-23 -76.5t-24.5 -57q-14 -57 -34 -80q-5 -24 -11 -46t-15 -48t-14.5 -40t-18.5 -45.5t-17 -41.5q-1 -18 -22.5 -71.5t-32.5 -69.5q-1 -2 -2.5 -10t-2.5 -11q-2 -4 -10.5 -14.5t-9.5 -17.5 q-16 -70 -25.5 -95.5t-24.5 -53.5t-34 -83q-28 -63 -37 -76q-4 -18 -16 -55l-15 -39q-23 -66 -69 -176q-3 -24 -12 -43q0 -4 3 -21t-1 -22q-17 -35 -70 -22q-24 4 -46.5 17t-23.5 32q0 16 4 26q0 19 4 25q5 16 17.5 43t17.5 41l17 41q7 31 47 117q4 21 13.5 47t16.5 41.5 t22 46t19 39.5q30 59 37 92t37 92q2 3 6.5 8t7.5 9t5 8q22 48 28 84q10 13 23 34q1 16 6 31t13.5 32t11.5 27q7 22 10 41z" />
<glyph unicode="r" horiz-adv-x="495" d="M446 485q-37 -29 -47 -53q-10 -4 -23.5 -20t-23.5 -19q-32 -46 -49 -53q-7 -15 -24 -38.5t-21 -29.5q-2 -4 -12 -16.5t-13 -17.5q-7 -7 -10 -13q-4 -6 -11 -22.5t-11 -22.5l-33 -41q-3 -13 -27 -57l-8 -16t-10 -19l-4 -10q0 -6 -4 -8q-3 -5 -10.5 -13.5t-10.5 -13.5 t-6 -14.5t-4 -12.5l-6 -6q-9 -18 -17 -30l-10 -21l-8 -8q-3 -4 -6.5 -17.5t-7.5 -19.5q-8 -12 -19 -20q-2 -2 -5.5 -6.5t-6 -6.5t-6.5 -2q-4 -1 -8 0.5t-9 5.5t-8 7l-8.5 8.5l-7.5 7.5q-2 4 -10 12q-6 13 -15 43q-1 3 -4 11t-5 16t-1 16t4 15t9 16l8 12q12 47 14 53 q1 3 4.5 10.5t3.5 10.5q3 4 4.5 14t3.5 13q3 7 11.5 24t11.5 27q8 25 10 37l8 14q4 10 13 36t17 42t19 28q1 7 21 64q0 5 6 20q4 9 14 38t15 42q4 18 8 23q5 43 10 55q6 22 35 33q12 7 45 -2q3 -1 12.5 -4.5t15.5 -6t12 -7t7 -9.5q4 -18 -6 -43q-1 -6 -6 -17.5t-6 -17.5 q-1 -5 -1 -14t-1 -12q-2 -7 -11 -19t-8 -26q4 -2 7 -2t7 3.5t6.5 7t6.5 8.5t6 7t10 9t12 12.5t7 11.5q14 7 29.5 20t35 31.5t31.5 28.5q21 18 51 35q1 1 3.5 4t4.5 5t4 3q2 2 15 6q25 19 34 19l25 -5q16 -2 42 -22t26 -39q-3 -16 -21 -31q-1 -1 -4 -1t-4 -1l-2 -2 q-2 -3 -4 -4q-8 -4 -39 -4t-43 -8q-5 -3 -19 -21z" />
<glyph unicode="s" horiz-adv-x="495" d="M252 -6q2 8 4 23t-1 36.5t-13 28.5q-15 10 -34 34.5t-26 30.5q-30 21 -39 35q-9 9 -20 28.5t-12 31.5l-5 12q0 4 -1 7.5t-3 9.5l-4 12q-2 21 4 118q1 9 9 70q8 23 24 45q5 0 12 10l7 11q2 2 26 20q12 11 51 35q52 35 146 63q9 3 14.5 4t11.5 -0.5t8.5 -2.5t10.5 -6t12 -7 l39 -29q5 -4 19.5 -15.5t22.5 -18t20.5 -18t18.5 -20t11 -19.5t4.5 -21.5t-6.5 -20.5q-1 -7 -5 -8.5t-7.5 -1t-11.5 3.5q-83 9 -164 -10.5t-137 -75.5l-15 -10q-3 0 -26.5 -24.5t-24.5 -30.5q-2 -19 1.5 -27.5t14.5 -16.5t15 -12q26 -39 28 -43q15 -8 35.5 -30t26.5 -27 q10 -9 17 -19t14 -24.5t12 -22.5q20 -10 29 -90q22 -64 8 -123q-32 -54 -72 -65q-6 -3 -19.5 -6t-17.5 -4q-4 -2 -13.5 -7.5t-14.5 -8t-14 -6t-15.5 -4.5t-15 -1t-15.5 2q-67 -10 -96 10q-34 -1 -57.5 10.5t-53.5 38.5q-6 6 -6 9q0 1 -8 16.5t-12 27.5t0 17q3 18 7 28 t6.5 12t9 3t7.5 2q1 0 45 8q36 10 52 6h3h2.5t2.5 -0.5t3.5 -1.5t4 -3.5t5 -6t6 -8.5t7.5 -12q20 -8 48 -11q12 0 38 4.5t27 4.5q22 6 35 51z" />
<glyph unicode="t" horiz-adv-x="536" d="M492 1067q14 -9 14 -20q2 -2 3.5 -9t2.5 -8q3 -11 2 -14q-1 -15 -26 -41t-29 -35q-4 -6 -7.5 -14t-6.5 -17t-5 -14q-2 -7 -9 -20.5t-9 -20.5q-14 -28 -16 -39q-3 -7 -6.5 -22.5t-0.5 -16.5q8 -2 17.5 -1.5t24.5 2t20 1.5t19.5 4t21.5 4q40 6 45 5q6 -2 20 -1t17 -2 q6 -1 26 -16q18 -10 23 -16q33 -29 26 -58q-1 -4 -3 -8t-4 -6t-6.5 -4.5t-6.5 -3.5t-7.5 -3t-6.5 -3q-3 -1 -19 -5.5t-24 -7.5q-13 0 -43.5 -13t-42.5 -15q-72 0 -111 -8q-4 -1 -9 -3.5t-11 -6.5t-9 -5q-10 1 -25 -2.5t-22 -3.5q-3 -3 -8.5 -16t-7.5 -17q-25 -25 -49 -92 q-4 -16 -37 -88l-29 -78q-1 -7 -6 -20.5t-6 -20.5q-13 -26 -22.5 -67.5t-14.5 -53.5l-6 -28q-2 -6 -1.5 -16t-0.5 -17q0 -6 -1 -17t-1 -14q3 -15 12 -28.5t19 -14.5q24 -8 28 -8q17 5 60 29l12 4q12 6 32.5 21.5t32.5 19.5q1 1 56 39l22 20q3 2 8 4t7 4q1 6 9.5 16t22 22.5 t25 23t25 21.5t16.5 14l39 49q1 1 2.5 1t1.5 1q7 10 20 24.5t17 20.5q3 3 12 9.5t12 10.5l33 43l2 7q3 2 10 11.5t11 12.5q25 -5 39.5 -30.5t5.5 -55.5q0 -10 -2 -14q-5 -5 -9.5 -18.5t-9.5 -18.5q-8 -17 -10 -23q-1 -1 -3 -2q-3 -1 -3 -2q-4 -16 -26 -41t-23 -26 q-2 -3 -10 -6.5t-11 -6.5q-5 -2 -8 -15t-4 -15q-4 -1 -7 -4t-7 -9.5t-5 -7.5l-14 -18q-4 -3 -7 -8.5t-5 -6.5q-3 -3 -9 -5.5t-8 -4.5q-3 -1 -9 -5t-9 -5q-3 -2 -3 -11t-3 -12l-8 -4q-1 -4 -6 -11.5t-7 -12.5q-15 -10 -18 -13q-8 -8 -12 -20q-3 -2 -9 -8.5t-8 -7.5 q-10 -4 -28 -7l-8 -15q-7 -16 -16.5 -32t-16.5 -20q-26 -29 -72 -49l-31 -15l-8 -8q-16 -8 -37 -8q-11 -4 -37 -5t-37 1q-8 1 -25 9.5t-28 8.5q-5 7 -18.5 13t-18.5 10q-5 3 -14 22l-6 2q-6 5 -14.5 21t-14.5 22l-12 56q-4 6 -6 16.5t-3 24.5t-1 18q0 43 2 55q8 63 43 189 q1 4 4 15.5t6 17.5q8 20 14 28q6 24 23 66q8 21 27.5 61t27.5 60q23 41 23 57q-9 4 -24.5 11t-25.5 12q-27 14 -16 86q15 53 32.5 69.5t51.5 7.5q1 0 7 -5.5t9 -6.5q31 -14 43 -6q18 10 43 72q18 40 41 73q4 15 15 39t14 33q11 22 14 37q1 2 6.5 15.5t10.5 19.5 q-2 40 20 50.5t49 -2.5t46 -36z" />
<glyph unicode="u" horiz-adv-x="899" d="M236 651q1 0 1 1t1 1q17 4 27 -3.5t13 -23.5t3.5 -29.5t-1 -31.5t-1.5 -20q5 -14 2 -38t-5 -31.5t-8.5 -29t-9.5 -30.5q-15 -51 -27 -72q-3 -8 -9.5 -32t-10.5 -36q0 -5 -8 -16q-2 -4 -3.5 -10t-3.5 -15.5t-3 -15.5q-2 -5 -11.5 -24.5t-11.5 -30.5q-5 -7 -12 -24.5 t-15 -24.5q0 -14 -9 -38.5t-7 -45.5q15 -4 22.5 2t14 19t12.5 18l92 106q39 43 45 53q11 9 23 27l82 96q12 12 29 40.5t20 33.5q2 3 20 22t27 31q20 22 29 90q12 10 24 11.5t20 -2t23.5 -12.5t24.5 -13q6 -2 27 -21.5t22 -25.5q2 -10 2.5 -19.5t-0.5 -19t-2 -16.5t-4 -16.5 t-4.5 -15t-5.5 -14.5t-5.5 -12.5t-6 -12.5l-5.5 -11q-1 -6 -1.5 -17t-1.5 -20t-3 -17q-1 -3 -7 -13t-7 -13l-6 -43q-4 -8 -12 -26t-11 -25q-6 -18 -6 -31l-10 -21q-1 -4 -5 -13t-7 -16.5t-3 -11.5q-5 -14 -2.5 -72.5t17.5 -62.5l12 -4q29 -20 33 -20q13 0 37 15.5t30 23.5 q9 14 38.5 42.5t47.5 36.5q24 26 75.5 109.5t82.5 124.5q23 38 46 19q17 -13 10 -30q0 -2 -1 -3l-20 -64q-1 -5 -3.5 -23.5t-6.5 -29.5q-8 -27 -33 -68q-3 -15 -16 -28q-34 -61 -56 -76q-14 -6 -24 -16t-13.5 -16.5t-10.5 -23.5t-9 -22q-17 -8 -55.5 -45.5t-55.5 -40.5 q-6 -1 -26 2t-21 -2q-36 -15 -81.5 16.5t-69.5 69.5q-21 29 -40 83t-16 85q11 28 11 39q0 18 -11 47q-8 -2 -19.5 -15.5t-14.5 -15.5q-36 -40 -56 -67q-3 -3 -16 -24t-24.5 -33.5t-22.5 -12.5q-2 -3 -8 -6t-7 -6q-4 -11 -34.5 -45.5t-40.5 -34.5q-6 -14 -17.5 -25.5t-28 -25 t-24.5 -21.5q-24 -34 -45 -47q-15 -9 -26.5 -10.5t-20 6.5t-13 15t-12 24.5t-10.5 23.5q-1 6 -8.5 26t-7.5 26q-2 10 -2 39q1 34 7 65t18 73t16 60q0 3 2.5 18t3.5 23.5t1 23.5t-2.5 24.5t-9 20t-16.5 15.5q-2 19 6.5 35.5t25 34.5t21.5 26q11 16 27 55.5t33 59.5 q79 112 88 123q0 1 4.5 6t5.5 10q6 5 10.5 20t10.5 19z" />
<glyph unicode="v" horiz-adv-x="581" d="M143 178q-26 -83 -26 -196q12 -5 33 13.5t26 20.5q9 15 38.5 61t43.5 75q8 21 45.5 85.5t50.5 77.5q4 8 13.5 22.5t13.5 22.5q50 78 61 123q36 34 60 103q13 10 29 29.5t31.5 31t39.5 15.5q27 0 35 -13q9 -17 -12 -86q-3 -14 -9 -22q-8 -20 -28.5 -56t-26.5 -57 q-39 -32 -84 -135q-18 -20 -46.5 -76t-51.5 -74q0 -7 -7 -18t-17.5 -23.5t-12.5 -15.5q-3 -5 -10.5 -14.5t-11.5 -17t-5 -15.5q-20 -14 -32 -35l-25 -27q0 -10 -11.5 -23.5t-30.5 -29.5t-21 -18q-6 -2 -20.5 -16.5t-22.5 -18.5q-1 -1 -12 -8t-19.5 -11.5t-14.5 -5.5 q-7 -1 -19.5 0.5t-16.5 1.5q-6 1 -15 -2.5t-14 -1.5l-21 6q-8 3 -10.5 16t-7.5 21q-9 17 -14 66q-4 7 -4 21.5v17.5q-2 23 -2 63q2 19 12.5 71t7.5 77q14 30 48 185t36 163q14 37 12 49q-1 2 -3.5 12t-3.5 16t-1.5 14t2 13.5t8.5 8.5q22 0 68 -31q11 -11 18 -12q4 -5 27 -21 t25 -25q5 -12 4.5 -19t-5 -21t-4.5 -17q-5 -13 -15 -35t-15.5 -38t-5.5 -31q-16 -37 -19 -72q-3 -8 -8 -26.5t-8 -26.5q-3 -16 -9 -55.5t-10 -55.5z" />
<glyph unicode="w" horiz-adv-x="878" d="M240 418q-14 -21 -26.5 -46.5t-27 -58t-22.5 -49.5q-17 -34 -24 -50.5t-15.5 -46.5t-7.5 -56q39 34 49 47q10 14 29.5 35.5t27.5 31.5q10 12 35.5 38t38.5 42q36 52 49 68q23 33 31 39l29 20q4 5 8.5 8t9.5 4t8.5 2t9.5 -0.5t9 -2t9.5 -3t8.5 -2.5q34 -9 47 -24 q13 -13 16 -27q5 -46 -9 -88.5t-15 -65.5q-3 -18 -13.5 -50t-13.5 -48q0 -2 -2 -9.5l-4 -15t-3.5 -15.5t-1 -13.5t2.5 -7.5q6 -5 10.5 -5.5t11.5 6.5t11.5 13.5t10 15t7.5 11.5q19 22 50 65.5t47 63.5q12 19 43 53q5 7 20 47q22 50 23 68q-2 12 -7.5 35.5t-7.5 37.5 q-1 12 0.5 23.5t3 19.5t4.5 21t5 20q0 35 4 47q4 5 9.5 7.5t18 4.5t15.5 3q4 3 37.5 1.5t35.5 -1.5q3 -1 15 -2.5t17.5 -2.5t15 -3.5t16 -6.5t12.5 -10q9 -27 4 -69l-22 -54q-4 -8 -16.5 -30t-22.5 -40.5t-13 -25.5q-13 -16 -18 -29q-18 -18 -46 -77t-32 -66q0 -17 -21 -43 t-24 -37q-11 -24 -22 -39l-33 -47q-5 -11 -24 -25.5t-23 -21.5q-3 -4 -5 -9.5t-4.5 -13l-3.5 -10.5q-8 -8 -28.5 -36.5t-30.5 -38.5q-24 -12 -43 -31q-6 -4 -14.5 -11.5t-13.5 -11t-15 -5.5t-22 -1q-46 5 -70 55q-4 6 -12 16t-9 11q-1 9 -9.5 38.5t-8.5 51.5q0 8 10 70 q3 13 -5 26.5t-19 6.5q-9 -7 -27 -29q-8 -11 -26.5 -31t-26.5 -31l-62 -86l-47 -69q-5 -8 -12 -13.5t-23 -13.5l-16 -8q-22 -11 -39 -8q-13 4 -20 18q-37 73 -41 103.5t16 97.5q4 25 22.5 79.5t18.5 80.5q5 17 15.5 44t11.5 31q71 192 116 289q1 10 -2 22t-2 21q20 36 49 41 q2 0 10 -2t13 -2q35 -4 62.5 -20t27.5 -45q2 -6 -6 -25l-12 -45q-11 -34 -45 -90z" />
<glyph unicode="x" horiz-adv-x="462" d="M41 668l8 6q10 1 20.5 -2.5t16.5 -3.5q10 -4 20 -29q23 -23 23 -59q4 -8 4 -13q3 -17 13 -54.5t14 -63.5q1 -12 3.5 -20.5t6 -12t7 -5t8.5 0.5t9 4.5t10.5 8.5t10.5 10t10.5 11t10.5 11q4 8 8 12l15.5 15.5t18 19.5t11.5 16l39 41q3 4 9.5 11t8.5 10q4 4 8.5 11.5 t7.5 10.5q10 14 39 43q4 7 16.5 21t18.5 22l4 8q2 4 15 17q2 2 4 5.5t3 6t4 5t7 3.5q8 3 26.5 1t24.5 -7l19 -12q21 -18 26 -45q9 -26 6 -33q-4 -22 -20 -45l-23 -23q-1 -1 -2 -3q-1 -3 -2 -3l-51 -49q-15 -15 -41 -44t-39 -42q-18 -24 -41 -47l-10 -10q-10 -10 -27 -29.5 t-26 -28.5q-59 -59 -66 -79q-7 -17 -4 -56q-1 -4 -3 -14.5t-2 -14t1 -10.5q-14 -60 -16 -96q-1 -9 3.5 -24.5t4.5 -18.5q-11 -65 4 -121q2 -2 2 -6q2 -2 2 -22q0 -2 0.5 -9t0.5 -11t-2 -10t-5 -11q-4 -4 -8.5 -4.5t-6.5 0t-7 3l-7 3.5q-10 5 -28 30q-2 4 -9 12t-10 15 q-1 6 -16 41l-19 57q0 26 -3 43.5t-3 18.5q-1 6 -1.5 29t-6.5 30q-15 0 -49 -29l-39 -38l-39 -35q-43 -43 -108 -94q-2 -2 -10.5 -8t-12.5 -8.5t-13 -8t-13 -6t-13 -2.5t-12 2q0 2 -8.5 5.5t-16.5 7.5t-6 7q1 10 5.5 17.5t15.5 16t14 11.5q49 41 94 109q5 3 12 11.5t9 10.5 q16 22 51.5 64t52.5 63l18 27q5 7 25 28.5t29 34.5q3 72 -8 168q0 4 -11 78v39q-1 8 -2 21t-2.5 22.5t-5.5 16.5q-2 2 -5 3t-4.5 3t-2.5 6z" />
<glyph unicode="y" horiz-adv-x="659" d="M57 154q16 -5 41 20q53 44 95 86l55 53q4 -1 9 1.5t7 2.5q6 15 35 36t33 38q25 20 45 64q9 6 27 21t29 23t28 15.5t33 7.5q5 1 14 5t12 5q18 0 35 -10q28 -10 33 -14q7 -6 12.5 -18.5t5.5 -20.5q0 -20 -12 -46t-12 -50q-5 -12 -20 -46.5t-21.5 -49.5t-19.5 -38t-25 -40 l-9 -13q-16 -31 -45 -92t-45 -90q-5 -11 -8 -12q-21 -35 -22 -47q-37 -46 -54 -84q-2 -4 -10 -20.5t-14 -24.5l-6 -9q-6 -16 -64 -112q-19 -33 -26 -43l-54 -101q-7 -12 -16 -23.5t-22 -27t-19 -22.5q-1 -9 -4 -16.5t-8.5 -17t-6.5 -11.5q-19 -15 -30.5 -28t-15 -20.5 t-8.5 -22.5t-9 -24q-8 -8 -35 -51q-5 -7 -24 -45q-3 -10 -9 -19t-15.5 -19t-12.5 -15q-26 -37 -29 -39q-8 0 -19.5 -4.5t-17.5 -5.5l-12 12q-6 12 -6.5 25t1 22.5t6 25t5.5 23.5q9 31 14 43q8 23 32 67.5t28 53.5q6 17 34.5 56t28.5 61q10 15 79.5 139t90.5 148 q61 95 99 213q17 17 47 80q1 1 4.5 5.5t5.5 7t5 7.5t4 9t1 10t-2 12q-36 -6 -67 -37q-13 -13 -38 -33t-36 -31q-5 -5 -23 -20t-26 -25q-33 -23 -47 -30q-6 -2 -15 -7.5t-16 -9t-12 -2.5q-23 4 -34 31t-7 43q-4 13 -16 30.5t-15 24.5q-1 6 0 20t0 21q0 40 26.5 84.5 t26.5 73.5q8 6 17.5 27.5t11.5 25.5q4 9 18.5 41t20 47t11.5 42t5 52q3 4 4.5 10.5t3 16.5t2.5 16q11 14 31 45q20 29 31 37q1 3 7.5 14.5t10.5 16.5q3 1 16 6t18.5 6t18.5 0q4 -2 8.5 -6.5t8.5 -10t6 -7.5q14 -3 49 -23q1 -1 5.5 -4t6.5 -5t5 -5.5t4 -7.5q1 -12 -8.5 -37.5 t-18.5 -34.5q-5 -6 -20 -13.5t-21 -13.5q-15 -11 -29 -39q-22 -15 -49 -59q-2 -2 -4 -7t-4 -7q-15 -17 -35 -62q-5 -37 -29 -65l-22 -60q-25 -51 -27 -75z" />
<glyph unicode="z" horiz-adv-x="579" d="M170 -82q-4 0 -17.5 -7t-23.5 -5q-1 -1 -1.5 -2.5t-2 -3t-4.5 -2.5l-10 -7q-7 -10 -21 -10l-16 -10l-6 -2q-2 -1 -17 -16q-21 -8 -49 -31.5t-33 -26.5q-32 -27 -41 -31q-8 -4 -12 -8q-14 -7 -33 -24.5t-22 -20.5l-37 -35l-6 -6l-29 -26l-39 -37q-4 -8 -15 -20t-14 -19 q0 -1 -2 -2t-2 -2q-6 0 -6 -2l-6 -8q-1 -1 -8.5 -9t-9.5 -14h-2q0 -6 -4 -6q-1 -3 -4.5 -7t-4.5 -5q-5 -3 -18 -21q-5 -4 -11.5 -11.5t-7.5 -8.5l-4 -9l-16 -22l-14 -16q-3 -4 -8 -13.5t-7 -11.5l-14 -23q0 -2 -2.5 -5.5t-3.5 -6.5q-6 -12 -6 -16q-2 -1 -4 -4t-2 -4 q-6 -21 2 -29q-3 -14 0 -23q6 -11 10 -14q2 -1 4.5 -5t5.5 -7q26 -17 43 -15h12q3 1 10 3q92 28 123 53q5 3 26 14t30 18q12 12 14 13q14 13 40.5 33t37.5 30l4 2q3 5 8 8q6 5 17 16.5t21 20.5t20 15q6 8 19.5 22.5t16.5 18.5q6 3 19 16q13 17 14 18q9 10 27 37t31 37 q4 6 12 10q32 41 47 72q2 4 7.5 14.5t8.5 14.5q18 21 27 61q1 5 4 12.5t4.5 12t1.5 8.5q5 32 -8 61q-21 21 -43 29zM535 416q-43 -43 -84 -64q-9 -9 -33.5 -24.5t-34.5 -30.5q-6 0 -18 -6q-5 -3 -20.5 -14.5t-25.5 -16.5q-10 -12 -35 -30.5t-36 -30.5q-9 -3 -25.5 -15.5 t-25.5 -15.5q-6 -11 -24 -29t-23 -30q-8 -31 28 -46q1 -1 2 -1.5t2 -0.5q2 -2 9 -5t10 -5q13 -4 51 -22t39 -23q15 2 37 -16q-1 -49 9.5 -85.5t8.5 -56.5q1 -6 -0.5 -16.5t-1.5 -13.5v-19q-6 -44 -51 -112q-3 -6 -11.5 -20t-11.5 -23q-17 -31 -39 -56q-18 -20 -53.5 -63.5 t-54.5 -63.5q-10 -10 -14 -10q0 -3 -11 -14q-16 -13 -44.5 -42t-43.5 -42q-2 -1 -35.5 -33t-54.5 -37q-4 -3 -19.5 -16t-29 -23.5t-30 -22.5t-29.5 -18.5t-19 -5.5q-18 -15 -36.5 -24.5t-44 -19t-38.5 -15.5q-7 -3 -19 -10.5t-20.5 -12.5t-19.5 -9t-22.5 -3.5t-22.5 6.5 q-4 1 -8 -2.5t-8 -3.5q-63 9 -84 100q0 8 -11 19q1 21 -12.5 71.5t-9.5 67.5q0 21 26 63.5t29 53.5q10 10 20.5 22.5t16 19.5t17.5 25l14 21l2 2q3 4 6 7t7 6.5t7 6.5q1 1 4.5 10t7.5 11q16 20 52.5 49t48.5 45q26 28 80 68q13 4 18 12q13 21 45 37l10 14q2 1 35 23l8 10 l15 6q6 3 14 10t10 8q2 2 6.5 4.5t6.5 4.5q34 24 51 30q3 2 15 6t18 7q5 2 12 7.5t8 6.5q1 0 3 1l4.5 1.5t4.5 -0.5q6 4 2 5t2 13q1 7 -2 11.5t-8.5 9t-7.5 6.5q-1 1 -2 3t-2 3.5t-2 1.5q-4 3 -11.5 8.5t-12 10t-7.5 8.5q-5 14 -2 24q-10 20 -8 31q-2 19 47 78q2 1 8.5 10.5 t9.5 12.5q8 20 39 46.5t39 41.5q25 18 62 55l71 72q4 3 15.5 13t17.5 15.5t13 15.5t10 19q-13 8 -21.5 5t-25.5 -12.5t-25 -10.5q-4 -1 -11 0t-11 0q-16 -3 -40 -10.5t-39.5 -12t-40 -7t-42.5 4.5q-4 7 -4.5 17t3 24.5t7 26.5t9.5 31t9 28q4 7 19 14q2 2 6 11t6 10 q35 16 66.5 10t70 -4t62.5 27q10 2 34.5 6.5t34.5 6t34 5t33.5 3t33.5 -0.5q12 7 16.5 6t13.5 -5t17 -3q2 -5 10.5 -12.5t11.5 -12.5q11 1 20.5 -9t14.5 -11q25 -46 3.5 -95.5t-70.5 -86.5z" />
<glyph unicode="{" horiz-adv-x="555" d="M266 -387q42 13 62 29q2 1 8 7t7.5 6t6.5 -1q8 -2 12 -21q21 -38 -22 -125q-19 -38 -89 -102.5t-99 -64.5q-42 -11 -70.5 11t-40.5 65t-17 95t-1.5 106t8.5 93.5t10 61.5q8 41 18 69q6 22 18.5 61t14.5 46q4 11 16.5 42.5t20.5 54t18.5 56.5t13.5 60.5t3 54t-10.5 48.5 t-30.5 34q-36 12 -44.5 58t3 92t29.5 75q11 -5 22 -2t16 6.5t14.5 11t16.5 11.5q5 9 10 12q51 51 83 95.5t50.5 90.5t29 84t27 103.5t34.5 120.5q0 49 32 119q22 86 103 210q64 64 110 84q14 6 47 19t48 20q7 4 13 4t10 -3.5t7 -8.5t5.5 -12.5t4.5 -14.5t4.5 -16.5 t4.5 -15.5q1 -7 5 -19.5t5 -17.5q17 -11 14 -33q0 -9 -4.5 -17t-8.5 -12t-13 -10.5t-10 -7.5q-52 -10 -66 -16q-100 -23 -178 -138q-4 -9 -16.5 -34t-17.5 -36.5t-11.5 -30.5t-9.5 -36q-15 -38 -19 -125q-3 -12 -8 -47t-11.5 -60t-17.5 -42q-5 -33 -26.5 -88.5t-24.5 -65.5 q-9 -26 -23 -51q-3 -8 -12 -23.5t-12 -21.5q-10 -23 -56.5 -69t-48.5 -54q-1 -10 -1.5 -14.5t2.5 -13t4.5 -12t6 -11.5t5.5 -10q1 -6 5 -19.5t5 -19.5q10 -43 6 -117q1 -16 -1 -35t-4 -32t-6.5 -36t-6.5 -34q-9 -13 -31 -82t-24 -88q-9 -32 -32 -97q-17 -48 -24 -71t-10 -54 t9.5 -40.5t44.5 -8.5t85 21z" />
<glyph unicode="|" horiz-adv-x="403" d="M410 1352l2 6q3 -5 8 -9t12.5 -7.5t11.5 -6.5q15 -6 31 -22q6 -3 16.5 -5.5t15 -4.5t12.5 -7t9 -12t3.5 -20.5t-3.5 -32.5q0 -19 -6 -31q-16 -68 -18 -72q-2 -13 -21 -67q-27 -145 -59 -207q-13 -21 -14 -29q-6 -6 -22.5 -55t-34.5 -107t-19 -61q-4 -30 -8 -45 q-7 -14 -9 -16q-7 -35 -16 -62q-10 -30 -22.5 -83t-26 -92.5t-33.5 -70.5q-3 -24 -29 -114q-23 -72 -28 -94q-6 -9 -6 -23q0 -1 -1 -2t-2.5 -4t-2.5 -6q-18 -65 -29 -90q-1 -3 -10.5 -59t-16.5 -83q-5 -18 -17.5 -54.5t-17.5 -55.5q0 -6 -5 -20t-5 -17q-4 -15 -7.5 -39 t-6.5 -33q-20 -46 -41 -41q-8 6 -14 17q-32 40 -41 104q-4 47 -2 68q3 42 26 108.5t27 83.5l22 107q5 19 18 62t21 74.5t12 59.5q4 12 15 43.5t16 50.5q23 76 62 187q10 29 20 67q24 59 37 121q5 17 34.5 119.5t41.5 140.5q14 41 65 172l31 95q1 4 6 22t5.5 21.5t5 20.5 t3.5 20t1.5 19.5t-0.5 18.5q1 4 -0.5 23t0.5 23q0 6 4 6z" />
<glyph unicode="}" horiz-adv-x="552" d="M412 1462l8 6q7 -8 19.5 -11t31 -4.5t29.5 -4.5q70 -17 110.5 -44.5t77.5 -80.5q1 -5 5.5 -11t6.5 -9q2 -4 2 -17q0 -1 7 -8q0 -2 1 -6t1 -6q0 -4 2 -19t2 -22q3 -8 1 -25t-1.5 -25t-4.5 -24.5t-6 -24t-7.5 -23.5t-9 -23.5t-9.5 -23t-10.5 -22.5t-10.5 -22t-10 -21 q-3 -3 -8.5 -13t-9.5 -15q-75 -94 -162.5 -256.5t-79.5 -231.5q0 -22 8 -33q4 -2 7 0t6 7t4 6q1 2 2 5t1.5 3.5t2.5 1.5t6 2q8 1 15.5 -9t9.5 -22l4 -8q0 -2 4 -2q1 -5 4 -21.5t4.5 -23.5t3.5 -21.5t2.5 -23.5t0 -20.5t-2.5 -20.5t-20 -57q-19 -19 -54.5 -38.5t-58.5 -49.5 l-10 -12q-11 -12 -15 -19l-8 -8q0 -4 -4 -8t-4 -5q-7 -27 -29.5 -73t-29.5 -68q-17 -48 -35.5 -131.5t-30.5 -122.5q-1 -4 -8 -34t-10 -40t-10.5 -31.5t-16.5 -35t-21 -23.5q-25 -80 -79 -119q-28 -28 -72.5 -34.5t-75.5 14.5l-4 8q0 2 -4 4l-4 2q-22 22 -26.5 64.5t3.5 82 t23 66.5q2 5 9.5 12t8.5 9q4 1 14 -2.5t15 -3.5q104 0 145 84q17 24 23 41q9 29 23.5 88t23.5 88q2 3 2 20q42 129 107 260q0 2 1.5 4.5t3.5 6t3 4.5q1 2 24 43q13 26 13 28q2 10 -2.5 30.5t-4.5 27.5q0 35 -2 41q12 102 17 127q5 26 30 98q39 109 91 223q25 60 65 119 l27 33q6 10 25.5 35t29.5 42v7q2 1 6.5 10t7.5 12q0 1 2 2t2 2l6 12q26 52 23 66q-3 16 -40 36q-6 4 -19 11q-75 23 -106 49t-34.5 66.5t7.5 103.5z" />
<glyph unicode="~" horiz-adv-x="741" d="M653 563q19 -5 19 -20v-11q1 -3 1 -9.5t1 -8.5q3 -22 0 -47q-2 -9 -6 -17.5t-7.5 -15.5t-10.5 -16t-10.5 -14t-12.5 -14.5t-12 -12.5l-13 -13l-12 -12q-30 -21 -64 -33q-49 -17 -104 -8q-9 2 -16.5 5t-13.5 8t-9.5 8t-7.5 11.5t-5.5 11.5t-6 14t-5.5 14q-15 36 -18 39 q-19 17 -41 19t-44 -7.5t-42 -21.5t-42 -24.5t-36 -16.5l-12 -12t-12.5 -12t-10 -7.5t-9 -1.5t-5.5 10q3 7 0 10v9q0 22 25 100q9 24 26 41q6 6 19 6q15 5 40.5 17.5t47 20t43.5 9.5q15 3 37 0l30 -12q31 -54 70.5 -76t79.5 -11.5t77.5 36t71.5 65.5z" />
<glyph unicode="&#xa1;" horiz-adv-x="342" d="M131 623q8 -1 25 -7.5t26 -7.5h22t27 -4q29 -10 52.5 -33.5t23.5 -52.5q0 -18 -33 -72q-9 -12 -21.5 -27.5t-31 -35t-38 -35t-39 -26t-37.5 -10t-31 15.5q44 195 61 256q1 7 -3.5 18t-2.5 21zM82 137q-5 3 -24.5 16.5t-28.5 18.5l-6 -8q-2 -3 -5.5 -13.5t-5.5 -13.5 q-17 -25 -45 -94q-10 -21 -33.5 -67.5t-33.5 -71.5q-39 -140 -84 -244q-22 -80 -92.5 -215.5t-79.5 -155.5q0 -1 -2 -2t-2 -2q-3 -5 -7.5 -18.5t-7.5 -18.5q-5 -4 -14.5 -8.5t-15 -10t-7.5 -15.5q1 -5 6 -21.5t5 -26.5q2 -8 4 -24.5t4 -26.5t5.5 -22.5t8.5 -20.5 q9 -11 27 -12t33 8q18 -14 32 -12q8 2 15 11t14 21.5t10 16.5q0 4 1 14t1 15q22 44 23 47q6 30 22 71t21 62q33 97 74 170q23 44 50.5 118.5t43.5 106.5q5 19 13.5 38.5t19 42t16.5 36.5q31 95 67 174q3 8 15 29.5t18 38t4 30.5q-2 8 -12.5 15t-26.5 14t-20 10z" />
<glyph unicode="&#xa2;" horiz-adv-x="716" d="M668 1057q14 -10 41.5 -23t44 -27t24.5 -38q8 -14 12.5 -28.5t3.5 -32.5t-1.5 -26.5t-5 -32t-5.5 -26.5q-1 -5 -30 -71q0 -4 -1 -11t-1 -10q-3 -17 -21 -53q-21 -25 -27 -27q-23 -5 -58.5 51t-35.5 82q0 13 6 19q2 14 14.5 41t14.5 43q3 23 -5 41t-28 18q-5 0 -28 -14 q-6 -3 -13 -10t-10 -9q-81 -69 -115 -110q-33 -33 -106 -139q-2 -2 -5.5 -8t-8 -12t-9.5 -11q-7 -14 -20 -45t-25 -53.5t-28 -38.5q-16 -28 -19 -45q-36 -106 -45 -152q-8 -56 -6 -104q0 -9 4 -21q4 -32 4 -53q21 -33 45 -33q15 -4 47 8q77 20 117 37q12 4 57 31 q72 42 93 63l8 6q2 3 10.5 12t11.5 13q1 2 4 7t5.5 7t7.5 2q5 1 7.5 -1t6 -8t4.5 -7q8 -13 12 -27q9 -35 -14 -67q-19 -32 -20 -35q-16 -27 -17 -29q-11 -18 -30 -38.5t-33 -24.5q0 -15 -67.5 -56.5t-90.5 -41.5q-7 -3 -17.5 -3t-23.5 1.5t-20 1.5q-4 -3 -6 -8t-4 -12.5 t-3 -10.5q-8 -20 -21.5 -61t-21.5 -62q-15 -26 -31.5 -75.5t-25.5 -69.5q-3 -14 -11.5 -28t-17.5 -15q-7 0 -20 10q-36 42 -39 55q-6 18 -6 29q-3 31 14 87.5t19 74.5q11 21 11.5 61.5t6.5 56.5q1 5 12 21q21 5 23 8q0 12 -12 20q-5 8 -48 56q-6 3 -12 22q-4 6 -18 43 q-6 15 -9 33q-6 6 -6 12q-22 33 -22.5 104.5t13 137t30.5 100.5q0 9 -0.5 11t3.5 10l5 10q0 41 16.5 79.5t37.5 63.5t49 58.5t42 56.5q53 87 179 213q-4 4 2 4q0 4 10 14t21.5 20t13.5 13q19 19 28 19q15 2 42 -7t34 -10q11 11 19 43q6 14 24.5 55t26 60.5t15.5 52.5t7 62 q9 18 23 18q19 0 45 -7.5t33 -16.5q2 -5 7 -14t5 -13q3 -23 -10 -51q-4 -10 -36.5 -83t-41.5 -110q-1 -3 -5.5 -9.5t-4.5 -12.5z" />
<glyph unicode="&#xa3;" horiz-adv-x="913" d="M721 868q3 10 31 19q20 29 27.5 39.5t25.5 42t23.5 51t6 46t-11.5 46.5q-8 2 -16 -1.5t-17.5 -10t-13.5 -8.5q0 -6 -6 -9q-14 -14 -51.5 -43.5t-48.5 -46.5q-7 -18 -13 -24q-34 -41 -64.5 -102.5t-43.5 -82.5q-9 -12 -21 -24q-7 -15 -32 -49.5t-44 -64t-16 -40.5 q16 -17 30 -17.5t31.5 6.5t28.5 7q1 0 19 -6q1 -1 2 -3q1 -3 2 -3l13.5 -13.5t11.5 -11t8.5 -9t7.5 -10.5t6 -11.5t6.5 -15.5t5.5 -19q5 -16 7.5 -33.5t-3.5 -34t-24 -16.5q-9 0 -19.5 17.5t-17.5 21.5q-66 15 -139 12q-34 0 -70 -25q-2 -9 -12 -23.5t-13 -21.5 q-14 -34 -37.5 -77t-43 -75t-50 -81.5t-43.5 -71.5q-6 -12 -6 -16q3 -5 9 -7.5t11.5 -3.5t15 -1.5t13.5 -0.5q22 -4 91 -1.5t90 1.5q13 0 93.5 0.5t88.5 -4.5q7 -1 36.5 -6.5t47.5 -5.5q27 -4 51 -20q39 -24 63 -72.5t5 -81.5q-18 -4 -31.5 4.5t-27 24t-23.5 20.5 q-125 7 -189 -6q-49 -10 -149 -10q-4 0 -12.5 -1t-12.5 -1q-35 0 -95 -3t-87 -3q-24 0 -84 -17t-92 -14q-12 15 -27.5 43.5t-29.5 61.5t-13.5 59.5t21.5 31.5q11 3 24 -8.5t21 -11.5q22 7 56.5 76t45.5 80q12 25 45.5 74.5t56 93t25.5 79.5q-10 6 -29 15t-32.5 17.5 t-24.5 19.5q-41 41 -8 143q9 23 26.5 14t38 -32t47.5 -33.5t54 10.5q3 1 6 3.5t5.5 6.5t3.5 6.5t3.5 8.5t3.5 8l25 35q0 10 2 14q6 10 38 72t54 90v10q1 1 3 2t4 3t3 5q18 40 109.5 175.5t107.5 154.5q12 12 32.5 44.5t41.5 52.5t47 20q8 0 43 -15l117 -57q4 -3 7.5 -7.5 t8 -11.5t7.5 -10l8 -14l2 -4q2 -4 4 -4q0 -2 10 -32.5t15 -63.5t-7 -76q0 -41 -49 -154.5t-78 -113.5q-25 0 -54 31.5t-40 58.5q-1 2 -3.5 6t-3.5 6t-2 7.5t1 10.5z" />
<glyph unicode="&#xa4;" horiz-adv-x="925" d="M471 741q-20 -12 -36.5 -26.5t-38.5 -38.5t-29 -31q-10 -16 -59 -75.5t-64 -100.5q-52 -123 -29 -209q6 -22 27.5 -39t44.5 -20q55 -5 119 59q10 7 19 14.5t18 19t13.5 17.5t15.5 22t13 19q33 33 62 117q2 4 14 33q5 10 15.5 31.5t16.5 34t12 29.5t7 30q7 41 -6 84 t-43 59l-8 8h-6q-16 -8 -44.5 -21t-33.5 -16zM313 1186l6 8q49 1 73.5 -23.5t37.5 -74.5q3 -58 -4 -144q25 -6 35 -2t26.5 0t42.5 -24q37 -20 103.5 -62.5t89.5 -56.5q10 1 21.5 -5.5t17.5 -6.5q14 0 40 16.5t40 30.5q5 4 19 14t20 16q2 1 36 28t54 34q23 8 46.5 0.5 t39.5 -23.5q1 -1 5 -6t6.5 -9t5 -10t1.5 -12q0 -6 -4.5 -12.5t-12.5 -14.5l-11 -11q-10 -10 -62.5 -52t-64.5 -65q-15 -7 -40.5 -26.5t-39.5 -26.5q-6 -3 -17 -8t-17.5 -8.5t-15 -9.5t-14.5 -13q-12 -55 -22 -74q0 -2 -4 -10q-116 -301 -205 -373q5 -7 22.5 -15.5 t22.5 -19.5q4 -15 5.5 -48.5t6.5 -49.5q0 -28 7.5 -68t14.5 -68.5t9 -66.5t-10 -63q-20 -5 -26 -2t-19 16l-18 23q-18 24 -38.5 56t-25.5 52q-4 12 -12.5 57t-17 83t-13.5 42q-4 2 -6.5 1.5t-8 -3.5t-8.5 -4q-62 -13 -75 -13t-62 17q-37 10 -88 33q-42 -23 -51 -31 q-10 -7 -32 -27t-36 -28q-2 -2 -17.5 -18.5t-26 -26t-28.5 -26t-32 -25.5t-30.5 -17t-30 -7.5t-23.5 9.5q-29 23 -29 84q0 56 40.5 135t74.5 107q14 15 39.5 9.5t47 -17.5t46 -24t37.5 -11q0 18 -11 47q-19 89 -14 141q15 124 66 242q8 8 10 12l4 9q12 32 68 88.5t61 85.5 q1 9 -3 26t-11 38.5t-9 27.5q0 5 -2 17.5t-2 17.5q1 23 7 66.5t8 65.5t-2 62q-13 9 -11 25z" />
<glyph unicode="&#xa5;" horiz-adv-x="628" d="M559 236q6 -4 10.5 -10t7 -11t5 -15.5t3 -15l2 -18t1.5 -16.5q0 -4 1.5 -10.5t1 -12t-4.5 -10.5q-4 -6 -10.5 -7.5t-17.5 -0.5t-17 0q-2 0 -27 -5q-67 -4 -201 -16q-33 -68 -51 -129q-13 -22 -30.5 -63t-28.5 -60q-2 -19 -15 -56.5t-20 -37.5q-12 0 -18 6q-5 15 -17 21 q-23 47 -20 84q-2 14 2.5 37t3.5 34l18 53q5 25 39 105q-176 0 -244 4q-5 0 -14.5 0.5t-14.5 1t-12 2t-12 4t-8 6.5q-4 5 -4 12t1.5 12t5.5 15t5 13q5 39 21 43q6 1 16 -4.5t16 -6.5q30 -2 53.5 -0.5t61 6t49.5 5.5l119 18q4 0 14 1t15 1q1 5 4.5 15t5.5 18.5t2 15.5 q22 39 37 74q2 10 2 24q5 6 14 25q4 17 8 21l5 8q-13 0 -32.5 -1t-25.5 -1q-165 -15 -276 -15q-13 0 -28 14.5t-15 28.5q-2 65 4 75t53 20q7 0 18.5 -2.5t18.5 -2.5h47q-4 40 -4 66q-5 104 4 141q-2 28 13 78.5t14 73.5q5 12 10 41q6 15 6 37q3 13 6 37.5t6 37.5q1 1 5 6 t4 7v43q4 35 4 37q0 9 -12.5 28.5t-12.5 28.5q1 0 3 1t3 1q11 -1 36.5 -15t29.5 -18q5 -2 19.5 -13t23.5 -13q3 -7 10.5 -17.5t9.5 -13.5q19 -25 19 -31q2 -12 2 -47q2 -18 -2 -46t-2 -42q-3 -6 -5.5 -24t-9.5 -25q0 -6 -3.5 -19t-4.5 -22q-2 -8 -2 -31q-15 -68 -16 -71 q2 -14 -13.5 -94t-7.5 -97q3 -13 12 -22q41 2 125 2l2 2q72 97 86 147q23 18 44.5 63.5t35.5 61.5q4 0 8 2q1 2 7 15t14 18q15 43 39 74q26 54 39 71q3 5 17.5 43.5t29.5 74t20 40.5q9 4 11 14q5 4 12.5 9.5t11 8t9.5 6t10 4.5t10.5 1.5t13 -0.5t15.5 -4l12 -6q6 -4 14 -4 q2 -2 2 -4l6 -9q1 -2 5.5 -6t7 -8t2.5 -8q1 -5 -1 -14t-4.5 -19l-3.5 -14l-4 -4q0 -13 -2 -17q-13 -23 -24.5 -48.5t-24 -56.5t-20.5 -48q-4 0 -6 -4q-5 -5 -10 -14.5t-7 -12.5q-3 -18 -11 -37t-20 -40t-16 -30q-2 -4 -10 -4q-3 -6 -6 -17.5t-6 -17.5q-8 -17 -33.5 -54.5 t-32.5 -57.5q-11 -24 -37 -68q-3 -4 -14 -26q7 0 18 -1t15 -1q34 -3 54 -17t24.5 -33t3 -36t-8.5 -29q-6 -5 -13.5 -5.5t-18 1.5t-17.5 2q-29 -2 -119 -2q-2 -6 -9 -18t-7 -13q0 -6 -2 -8q-4 0 -4 -2q-8 -15 -25 -45t-28 -52.5t-17 -43.5l58 6h6q20 2 52.5 -2.5t49.5 -3.5z " />
<glyph unicode="&#xa6;" horiz-adv-x="434" d="M61 229q-16 -23 -29.5 -65.5t-25.5 -59.5l-8 -8q-36 -115 -55 -149q-4 -23 -25.5 -64t-26.5 -59q-18 -30 -12 -62q5 -18 12.5 -37t21 -42.5t28.5 -30t34 1.5q12 9 33 67.5t41 126t23 74.5q12 12 20 29t15 43t10 33q17 26 49 102q5 14 14 25q5 12 21 45.5t24 54.5 q13 54 13 63q0 25 -18.5 47t-41.5 27q-31 13 -50 -4t-26 -46.5t-17.5 -64t-23.5 -47.5zM551 1481q29 0 73.5 -10t69.5 -23q2 -7 -1.5 -24t-2.5 -27q-10 -10 -43 -101.5t-49 -115.5q0 -36 -14 -60q-1 -3 -4 -17.5t-5 -21.5t-6 -20.5t-7.5 -21.5t-9 -17.5t-11.5 -15.5 q-22 -36 -50.5 -112t-50.5 -108q5 -46 -18 -46q-18 0 -72 43q-9 7 -14 10q-2 18 -19 54t-14 71q13 16 27.5 49t25.5 47q2 36 33 100q16 47 57 129t48 98q2 6 6.5 17t7.5 18t8.5 16t11.5 15q2 11 12.5 36t10.5 38z" />
<glyph unicode="&#xa7;" horiz-adv-x="880" d="M449 500q-3 -1 -16.5 -4.5t-20.5 -6.5q-207 -101 -168 -202q7 -39 65 -58q84 -23 189 2q36 6 55 11q7 2 22.5 8.5t24.5 9.5q58 25 72 45q28 30 14 109q-10 67 -18 78q0 -1 -19 8.5t-38.5 19.5t-20.5 10q-26 8 -69.5 -3.5t-71.5 -26.5zM1014 1182q0 -25 -11.5 -72.5 t-23.5 -50.5q-4 -1 -8.5 1.5t-7.5 5t-8 8t-7 7.5q-23 20 -48.5 18.5t-41.5 4.5q-8 0 -40.5 0.5t-45 0t-37 -1.5t-42.5 -4.5t-34 -8.5q-61 -11 -75 -19q-14 -4 -28.5 -12t-33 -21.5t-24.5 -17.5l-9 -6t-8.5 -6.5t-5.5 -8.5t-4 -14q1 -8 -0.5 -10.5t1.5 -10t3.5 -9.5t5 -9 t5.5 -8.5t6 -8.5t6 -9q9 -13 32.5 -35.5t32.5 -36.5q66 -53 82 -86q2 -2 2 -8l4 -4q13 -13 25 -32t20.5 -37t16.5 -43t12.5 -42.5t9.5 -44.5t7 -39.5t5.5 -37.5t4.5 -28l4 -4q21 -132 10 -233q-1 -2 -25 -57q0 -2 -2 -8.5t-2 -8.5l-14 -14q-15 -41 -82 -90q-4 -1 -17 -8 t-20 -9q-9 -5 -37 -8.5t-37 -5.5q-6 0 -18 -8l-20 -4q-55 -17 -103 -17q-4 -1 -13 0t-16.5 -0.5t-13.5 -7.5q0 -9 6 -24q42 -81 64.5 -202t5.5 -196q-6 -39 -37 -68.5t-66 -29.5q-26 0 -95 7t-103 7q-7 0 -19 4q-8 3 -104 28.5t-139 57.5q-2 1 -5 1t-4 1q-15 0 -23.5 18 t-10 46.5t-0.5 55.5t3.5 54.5t2.5 32.5q7 16 22 38t29 36t18 8q4 -2 5.5 -7t3 -14t2.5 -14q0 -20 10 -30q12 -17 178 -31l8 -4q30 -9 94 -13.5t91 1.5q3 0 12 0.5t13 1.5t10 5t10 11q-17 64 -68.5 152.5t-95.5 132.5l-4 3q-5 3 -6 5q-24 48 -35 72.5t-27.5 71t-19.5 79.5 t3 75t27 79q2 3 4.5 9t4.5 9q2 2 4 2l22 45q108 164 248 230q2 1 5.5 4t6.5 5t6 3q3 2 10.5 3.5t8.5 2.5q14 10 20 23q3 15 -4 35t-20.5 46.5t-16.5 32.5q-20 69 -18 142.5t25 132.5q5 9 21 38.5t25.5 45t28 34.5t39.5 27q44 44 156 76q43 14 90 20h23q10 0 22 4 q94 10 147.5 -45t53.5 -157z" />
<glyph unicode="&#xa8;" horiz-adv-x="684" d="M180 1176q19 4 39 -2q7 -3 31 -19q35 -20 37 -39q1 -12 -3.5 -24t-12 -23.5t-9.5 -15.5q-6 -9 -16.5 -26t-14.5 -23q-1 -2 -2 -3t-1.5 -2t-0.5 -2l-28 -45l-13.5 -18t-12.5 -13.5t-14.5 -10t-16 -2.5t-19.5 5q-11 5 -18 11.5t-10 12t-11 21.5q-12 24 -10 35q-2 15 3.5 35 t15 44.5t11.5 31.5q24 48 29 53l6 4q15 11 41 15zM446 1143q31 9 95 -33q5 -2 10.5 -7.5t7.5 -6.5q45 -28 45 -52q0 -12 -10 -32l-10 -21q-18 -32 -30.5 -51t-33 -43t-44.5 -35.5t-52 -11.5q-7 1 -27 -0.5t-24 0.5q-3 1 -12 9t-11 9q-18 80 37 162l25 41q1 1 4.5 5.5 t3.5 6.5q3 6 6.5 28t15.5 30z" />
<glyph unicode="&#xa9;" horiz-adv-x="1300" d="M711 649q29 1 45 30t6 52q-2 1 -6 0.5t-6.5 -0.5t-6.5 -2.5t-6 -3.5t-6.5 -3.5t-6.5 -4t-5.5 -4.5t-5.5 -4l-8 -4q-78 -44 -153 -158.5t-93 -204.5v-23q-1 -4 -5 -15t-5 -17q0 -46 6.5 -72.5t18.5 -32.5t26.5 -2.5t33 18.5t35 30t35 31.5t31.5 23.5q17 12 47.5 9.5 t38.5 -20.5q14 -11 12 -32q-20 -40 -76.5 -95t-97.5 -75q-3 -1 -11 -1t-13 -1q-48 -13 -88 8.5t-68 62.5q0 24 -27 88t-16 105v45q0 38 11 78t22.5 63.5t36 67t32.5 59.5q46 76 193 223q32 33 110.5 27.5t98.5 -43.5l8 -4q42 -24 64.5 -50t19.5 -65q-8 -51 -49 -131 q-50 -58 -101.5 -41t-70.5 88zM1163 961q23 -3 54.5 -20t44.5 -34q32 -46 47 -112q0 -146 -52 -342t-118 -254q-17 -66 -63.5 -134.5t-100.5 -109.5q-6 -16 -14.5 -31t-21 -30.5t-21 -24t-25 -24.5t-21.5 -21q-3 -1 -5 -3t-4.5 -5.5t-4.5 -5.5l-10 -7q-4 -3 -11.5 -13 t-13.5 -15l-8 -6q-26 -30 -83 -72.5t-79 -42.5l-14 -10q-6 -3 -15 -8.5t-14 -8.5t-13 -6t-17 -4q-112 -44 -252 -41q-53 23 -90 23l-54 30q-1 1 -3.5 4.5t-4.5 5t-6 1.5q-8 9 -33.5 38.5t-36.5 44t-25 40.5t-20 51q-16 16 -16 51q-61 185 -33 305q11 20 13.5 61t5.5 54 q-7 18 2 63l6 27q0 31 22.5 87t26.5 75q5 10 12 35t15 36q2 8 9 31.5t7 30.5q5 7 10 35q9 14 23 43t27.5 49.5t29.5 33.5q14 35 45 70q17 32 73 95.5t83 82.5q43 43 99 81t58 40q1 0 3.5 1t3.5 1q26 23 95 48.5t95 21.5q74 -5 164 -29l24 -6q13 0 21 -2q21 -21 70.5 -54.5 t72.5 -56.5q7 -11 9.5 -21.5t2.5 -14.5t-4.5 -20t-5.5 -21q-17 -56 -61 -56q-5 2 -9 5.5t-8 10t-6 9.5q-11 11 -21 34t-21.5 39.5t-30.5 20.5q-2 4 -2 6q0 11 -33 13.5t-67 -0.5t-46 -7q-33 -15 -90.5 -45.5t-81.5 -42.5q-4 -3 -14.5 -7t-14.5 -7q-30 -12 -141 -123 q-6 -8 -64.5 -79t-86 -108t-64.5 -99t-51 -109q-1 -3 -4 -12.5t-6 -14.5q0 -4 -2 -8q-52 -175 -58 -213q0 -35 -8 -107.5t-8 -107.5q-4 -20 -4 -29q0 -11 14.5 -71.5t20.5 -77.5l8 -21q1 -3 6.5 -10t7.5 -12q34 -77 89.5 -105.5t140.5 -13.5q54 12 79 20q70 18 140.5 64.5 t107.5 103.5q0 1 6 7l2 2q3 2 8.5 8t8.5 8q8 15 37 39t37 41q8 12 14 18q15 19 30.5 40.5t26 37.5t26 42t22 37.5t23 41t21.5 37.5q0 1 9.5 20.5t15.5 30.5q4 21 29.5 63.5t25.5 69.5q3 10 9 27t10 30.5t4 24.5q4 25 16.5 70t16.5 63q-4 34 8 90q12 16 -4 64.5t-9 60.5 q-4 16 -4 21q-2 8 -7 23.5t-6 21t-1 14.5t6 12.5t17 6t30 2.5z" />
<glyph unicode="&#xaa;" horiz-adv-x="671" d="M473 1085q0 -5 -15.5 -17.5t-34.5 -26.5t-24 -19h-6q-1 -1 -2 -5t-2 -5q-49 -38 -59 -66l-15 -18q-45 -45 -71 -133q-2 -6 -2 -19q-7 -10 -13 -34t-6.5 -41.5t6.5 -20.5q3 -2 5 -1.5t6 3.5t6 4q82 50 151 152l6 14q31 45 75.5 135.5t39.5 122.5q-6 8 -13.5 5t-11 -6 t-10.5 -12t-10 -12zM668 1022q-2 -3 -7 -12.5t-10 -14.5q-17 -18 -40 -69.5t-50 -65.5q-3 -24 -24 -59.5t-34 -66.5t-1 -58q18 4 51 27.5t41 27.5q2 1 16 6l19 17q19 10 33 26q6 12 8 13q14 14 32.5 3.5t24.5 -34.5q-1 -28 -10 -46.5t-23 -35t-20 -29.5q-9 -8 -28 -20.5 t-28 -20.5q-2 -2 -5.5 -7.5t-6.5 -8.5q-59 -59 -90 -100q-43 -45 -88 27q-37 58 -44 127q-1 18 1 30q0 4 1 15.5t0.5 18t-5.5 11.5q-8 0 -12.5 -4.5t-8.5 -19t-4 -15.5q-4 -4 -4 -6q-8 -11 -27 -40.5t-34 -50t-34.5 -43t-38 -32t-34.5 -4.5q-16 8 -27 19.5t-22 26.5t-20 24 q1 9 -5 27.5t-6 27.5q0 63 9 125q1 5 1.5 20.5t2.5 22.5q3 21 18 52t17 48q6 7 14 21t10 18q46 86 70 111q1 4 4 8t4.5 8t1.5 8q4 1 18.5 19.5t28 38.5t28.5 42.5t17 24.5q8 9 22.5 30t22.5 30q13 -1 38.5 2.5t48.5 2.5t40 -12q33 -8 54.5 -24t31 -32.5t27.5 -37t43 -33.5 q23 -9 23.5 -32t-10 -42t-21.5 -30z" />
<glyph unicode="&#xab;" horiz-adv-x="970" d="M190 309q-1 -15 3.5 -25t14 -20t11.5 -14q16 -23 31 -35q12 -18 35 -27q19 -14 54.5 -26t47.5 -19q18 -10 33 -28l4 -4l16 -25v-10q0 -1 4 -6t6.5 -11t2.5 -10q0 -5 -0.5 -16.5t-1.5 -18t-2 -15.5t-3.5 -15t-5.5 -9q-8 -3 -16.5 1t-11.5 4q-35 -3 -97 30q-36 18 -68 50.5 t-67 78t-51 62.5q-1 2 -10.5 12t-14.5 18q2 5 0 7q-14 17 -14.5 50.5t6.5 62t17 50.5q5 5 6 7l6 10q22 33 60.5 62t85.5 58t71 50l33 22q3 3 16.5 22t22.5 23q25 8 43 -4q3 -1 8 -12q1 -1 3 -2t3.5 -2t1.5 -2l19 -17q1 -1 7 -7.5t7.5 -8.5t7 -9t6 -9.5t4.5 -10t2.5 -10.5 t-0.5 -12q-3 -21 -32.5 -46t-55.5 -36q-18 -11 -67.5 -31.5t-73.5 -40.5q-37 -19 -37 -26q-56 -31 -70 -60zM944 563q-3 -20 -26 -53q-2 -3 -8 -6t-14 -7.5t-13 -7.5q-68 -31 -178 -101.5t-74 -90.5q25 -19 76 -35t67 -24q18 -5 25 -9q5 -3 9.5 -6t8.5 -7l7 -7t6.5 -9 t5.5 -8.5t5.5 -10t4.5 -9t4.5 -9.5t3.5 -9q0 -7 9 -39t5.5 -54t-28.5 -28q-11 -3 -20 9t-16 28.5t-11 19.5q-18 11 -100.5 28t-100.5 25q-9 2 -25 13q-4 4 -8.5 13.5t-10.5 25t-9 22.5q-19 38 -25 68q-12 92 18 139l3 2q3 2 4 4q8 20 28.5 43t52.5 47t55.5 40t60 38.5 t42.5 26.5q12 6 34 22t34 23q15 11 28 32q17 35 44 -22q27 -55 28 -101q0 -11 -2 -16z" />
<glyph unicode="&#xad;" horiz-adv-x="524" d="M199 569q24 -4 65 3.5t74.5 17t68.5 7.5t54 -24l2 -2q22 -3 41.5 -29t15.5 -46q-3 -18 -22 -29q0 -3 -14 -1l-15 1q-41 0 -53 4q-25 -3 -79.5 -17.5t-82.5 -17.5q-14 -2 -43 -2q-47 0 -59 4l-10 1q-11 1 -13.5 1.5t-9.5 3t-11 6t-6 9.5q0 22 3.5 40t13 36.5t30 28 t50.5 5.5z" />
<glyph unicode="&#xae;" horiz-adv-x="1419" d="M868 756q-10 -4 -32.5 -13.5t-35.5 -15t-33 -11t-38 -7.5q-21 -17 -47 -70q-2 0 -5 -3.5t-3 -4.5q-32 -58 -41 -72l-10 -20q-22 -35 -29 -74q22 -4 31 2q42 21 82 51t90 73.5t73 61.5q4 10 12.5 24t11.5 24.5t3 27.5q-2 1 -9.5 14.5t-19.5 12.5zM809 -16q-14 -7 -14 2 q-3 1 -7.5 0t-6 -1.5t-3.5 1.5q-17 8 -28 19.5t-24.5 32.5t-16.5 25q-2 6 -16.5 40.5t-14.5 50.5q-6 5 -12.5 12.5t-8.5 9.5q0 11 -22.5 56.5t-34.5 62.5q0 8 -7.5 19t-8.5 16q-4 18 -23 37q-6 -2 -13.5 -14.5t-12.5 -14.5q-11 -21 -60 -99t-57 -85q-6 -37 -41 -91 q-4 -11 -13.5 -24t-17.5 -14q-4 0 -7 1.5t-7 4t-8 4.5q-17 17 -31.5 57.5t-11.5 63.5q1 8 4.5 16t7 12.5t9.5 10.5t7 8q29 46 68 129l10 14q0 1 2 12t4 15q3 7 27 37q8 24 27.5 60.5t23.5 45.5q9 14 12 27q5 11 17.5 33.5t19.5 37.5q5 13 18.5 37t18.5 35q18 26 42.5 78.5 t37.5 73.5q8 3 17 8t17.5 6.5t26.5 -0.5q7 -3 41 10q18 0 59.5 12t61.5 9q13 0 21 -4q93 -85 112 -146q0 -87 -32 -178q-5 -17 -38.5 -48.5t-64.5 -55.5t-31 -25q-5 0 -25 -16t-22 -17q-83 -34 -92 -65q-3 -12 6 -39q0 -18 17 -41l57 -96q31 -53 45 -123q0 -3 1 -12.5 t0.5 -17t-5.5 -15.5zM952 1194q-14 -7 -41 -17.5t-48.5 -20.5t-37.5 -21l-12 -7q-103 -59 -121 -71l-8 -10q-39 -24 -76.5 -55.5t-78.5 -70.5t-64 -59q-23 -32 -65.5 -87.5t-71 -96t-54.5 -84.5q-14 -38 -18 -55q-3 -5 -16.5 -26t-21 -36.5t-7.5 -27.5q-8 -9 -15.5 -31 t-11.5 -27q-53 -156 -63 -227q-13 -95 6 -189q0 -9 2 -28.5t2 -28.5q17 -78 35 -104q3 -6 13.5 -25.5t17.5 -31.5t16 -23q20 -32 71 -52.5t83 -3.5q13 -1 37 -3t36 -2.5t30.5 0.5t34.5 6.5t32 15.5q24 9 66 35t67 34q14 18 44.5 45.5t35.5 32.5l59 58q12 17 51.5 61.5 t52.5 71.5q7 11 20.5 36t25.5 42.5t26 27.5q24 49 70.5 135.5t64.5 122.5q35 71 45 174l13 37q3 19 10.5 80t13.5 90q4 15 10 58q-1 4 -1 13t-1 13q-4 53 -10 70q-9 5 -22.5 20t-22.5 19q-2 4 -16.5 23t-26.5 37t-10 22q-2 11 -4 28.5t-4 27t-8 22.5t-17 24q-2 8 -6 13.5 t-10.5 11t-8.5 8.5q-10 1 -31.5 5.5t-31.5 5t-29 -4.5zM1243 983q10 -4 37 -9.5t45.5 -14.5t24.5 -27q8 -13 17 -57.5t5 -55.5q1 -8 -3 -28l-5 -25q0 -27 -2.5 -52t-7.5 -59.5t-6 -44.5l-7 -49q-3 -18 -9 -54.5t-10 -58t-13 -51.5t-21 -55l-8 -18q-3 -3 -6 -9t-6 -8 q-35 -110 -115 -190q0 -24 -19 -55t-40 -48l-19 -20q-8 -18 -35.5 -44t-33.5 -44q-22 -23 -27 -33q-8 -7 -21 -21.5t-18 -19.5q-11 -9 -113 -81.5t-145 -115.5q-4 -2 -8.5 -5.5t-9.5 -8.5t-9 -8q-89 -45 -221 -41q-33 4 -55 1t-50.5 0.5t-56.5 18.5q-5 2 -20 5.5t-23 11.5 q-26 13 -38.5 25.5t-22.5 33.5q-59 26 -117 211q-4 9 -6.5 25.5t-5.5 23.5q0 26 -6 78.5t-4 79.5q1 4 -2.5 16.5t-1.5 20.5q1 7 5 37t5 45q2 26 18.5 77t16.5 78q8 20 22 109q19 41 39 100q11 16 27 62t35 65q10 44 57.5 109.5t58.5 99.5q16 24 66 74l20 20q29 31 83.5 81.5 t72.5 68.5q4 4 15 16.5t18 18.5q30 10 79.5 49.5t71.5 50.5q13 3 37 15t46.5 23t46 19t41.5 6t26 -18q19 -1 41.5 -18.5t40.5 -18.5q5 -4 37 -18q20 -10 59 -49q36 -26 45 -47q39 -19 60.5 -60.5t21.5 -85.5q2 -6 3 -14.5t1.5 -19t1.5 -15.5z" />
<glyph unicode="&#xaf;" horiz-adv-x="536" d="M113 958q21 35 65 17q10 -5 27.5 -18t23.5 -17q21 -1 42 2.5t52 12t39 10.5q9 2 33 7.5t35 6.5q10 0 29.5 1t30 1t24.5 -3t23 -9q-1 -8 1.5 -18t2.5 -15q0 -8 -4 -21.5t-5 -17.5q-2 -16 -2.5 -30t-1.5 -20.5t0.5 -12.5t-3 -6t-6 -0.5t-14.5 3t-22 5.5q-5 3 -22 0.5 t-25 -4.5t-26.5 -6.5t-26.5 -6.5q-31 -6 -98 -10q-13 0 -37 4q-5 -1 -18 -3t-17.5 -2t-15.5 1q-42 17 -76 92q-1 3 -4 9.5t-4 10t-2.5 10t-0.5 13t3 14.5z" />
<glyph unicode="&#xb0;" horiz-adv-x="598" d="M481 1067q-10 -6 -32.5 -15.5t-32.5 -17.5l-33 -20q-8 -9 -35 -58q-29 -47 -35 -63q-24 -85 4 -107q38 -2 97 41l24 27l15 16q16 13 29.5 40t19.5 34q16 44 18 51q9 29 25 52q1 4 5 7t6 7t1 12q-7 5 -14 7t-12 3t-14 -2t-11.5 -3.5t-13.5 -5.5zM592 1094q2 -5 7 -11 t9 -10t10.5 -10t8.5 -8q23 -28 28 -39q17 -17 17 -74q-19 -96 -40 -130q-9 -14 -18 -24q-9 -15 -28 -34q-49 -65 -94 -97q-9 -5 -27.5 -16t-23 -13.5t-17.5 -9.5t-18 -7.5t-15.5 -3.5t-20.5 -2.5t-22.5 0.5t-30.5 1q-24 4 -45 38t-32 67q-22 66 -11 159q21 56 23 86 q8 17 19.5 52.5t19.5 52.5q44 70 90 106q1 2 12 13q3 4 31 24l29 21q17 9 30.5 10t23.5 -5t17 -13.5t17.5 -18.5t19.5 -18q31 -22 31 -86z" />
<glyph unicode="&#xb1;" horiz-adv-x="702" d="M481 45q-31 -7 -51 -4.5t-53 8.5t-51 6q-30 -13 -68.5 -13.5t-67.5 4t-65 -0.5q-10 0 -34 -2.5t-42.5 -1.5t-34.5 8q-4 4 -8 29q-7 37 7 95t10 71q7 16 40 35q8 0 11.5 -16t7.5 -19q10 -10 57 0q16 2 51 3t54 3q53 0 100.5 4.5t59 6t40.5 -2.5q5 -1 13 -0.5t13 -0.5t9 -5 q6 -3 15 -45q9 -28 10 -33q12 -69 -23 -129zM516 829q23 -9 38 -7t40 9t37 7q87 0 121 -70q0 -2 1 -8t1 -10t-2 -10t-7 -11q-11 -19 -90 -35q-35 -16 -96 -16q-5 0 -18.5 -2t-18.5 -2q-6 0 -16.5 2t-19 2t-15.5 -4q-5 -3 -9.5 -9.5t-8.5 -16.5t-6.5 -18t-6.5 -21t-6 -19 q-10 -25 -10 -35q-4 -5 -23 -43q-2 -6 -9 -37t-13 -47q-2 -1 -9 -3.5t-12 -2.5q-19 0 -34 28l-15 27q-4 14 -15 45t-15.5 49.5t-2 46t18.5 52.5q-14 6 -20 6t-21 -3.5t-21 -4.5q-53 -7 -61 6q-6 19 -27 43.5t-26 32.5q-1 3 0.5 14t1.5 16q0 2 -10 11.5t-5 25.5q10 4 14 2.5 t11.5 -7.5t11.5 -7q13 -5 26.5 -5.5t36 2.5t25.5 3q4 0 49.5 3t67.5 9q7 7 12 17.5t10.5 27.5t8.5 23q4 8 7 17.5t6 20.5t5 17q6 28 19 72q15 22 53 34t61 3q9 -3 18 -14.5t11 -20.5q4 -4 2 -17t-2 -18t-5 -17.5l-7 -17.5t-7.5 -18t-7.5 -17q0 -15 -8 -41t-8 -39z" />
<glyph unicode="&#xb2;" horiz-adv-x="690" d="M391 733q-2 -2 -5 -4t-4.5 -3.5t-3 -5t-1.5 -7.5q2 -4 5 -5t9 -0.5t10 -0.5q7 0 53.5 -2t65 -4t51 -10.5t54.5 -22.5q18 -9 26 -21q40 -30 27 -59q-3 -7 -16 -13q-17 -2 -46 5q-16 2 -36 12q-18 6 -19 6q-3 0 -18 -1t-23 -1l-174 -12q-4 0 -27.5 -2t-45.5 -2.5t-46 1 t-38.5 10t-14.5 23.5q-13 16 -16 39q0 44 35 76l16 12q65 35 108 78l29 23q41 35 76.5 69.5t86 86.5t75.5 77q3 8 18 23.5t19 27.5q2 2 2 9q20 26 14 39q-24 16 -55 6.5t-54.5 -28.5t-55 -35t-56.5 -13q-19 0 -37 22q-4 10 -8.5 31t-3.5 29q3 24 18 45q39 14 65 22t62 16 t69.5 7t67.5 -10q68 -35 109 -76q5 -5 20 -45q-2 -5 -1.5 -21t-2.5 -20q-92 -142 -106 -150q-2 -2 -17 -12t-18 -18q-22 -22 -70 -45q-7 -5 -25 -23t-22 -25q-12 -5 -29 -22q-4 -2 -14.5 -9.5t-15.5 -8.5q-8 -10 -18.5 -19.5t-25 -20.5t-22.5 -18z" />
<glyph unicode="&#xb3;" horiz-adv-x="620" d="M602 819q22 -40 33 -117q-4 -16 -8.5 -54.5t-14.5 -61t-37 -41.5q-42 -33 -86 -56q-76 -37 -155 -43q-10 0 -30 -1t-31 -1t-27.5 3.5t-30.5 11.5q-13 5 -22.5 12t-13 11t-14.5 19t-15 21q-5 9 -13.5 19.5t-13 20t-8.5 26.5q-8 60 -2 119q0 86 18 106q13 18 51 18 q4 -4 7 -10t5 -11t4 -14t3 -14t3 -16.5t3 -15.5q0 -1 2.5 -9t4 -19t-0.5 -34q3 -23 14 -37q16 -36 68 -30q82 19 117 47q16 8 53 45q4 3 13.5 11t15 13t11.5 13t9 16q-8 7 -20.5 6.5t-22.5 -4.5q-6 -1 -17.5 -5.5t-19.5 -4.5q-13 0 -33 10l-16 14q-28 28 -40.5 71.5 t5.5 82.5q8 3 25 3.5t24 2.5q8 2 17 6t21 11t18 10q82 46 114 78q4 4 17 15t22 20.5t13 19.5q3 3 18 28q6 15 6 27q-3 9 -9 14.5t-19 11t-17 7.5q-30 18 -74.5 18.5t-81.5 -6.5q-39 31 -45 117q1 1 1.5 3t1 3.5t1.5 1.5q8 -2 24 -9.5t26 -8.5q5 0 14.5 2t13.5 2q24 0 86 -17 q54 -6 99 -51q4 -4 11.5 -15t14.5 -16q56 -73 56 -122q-9 -86 -89 -150q-29 -29 -32 -31q-6 -5 -14.5 -12t-14 -11t-9.5 -9.5t-5 -10.5q-2 -17 18 -49z" />
<glyph unicode="&#xb4;" horiz-adv-x="544" d="M174 805q2 8 4 14.5t6 13t6.5 10.5t8 10.5t7.5 8.5l8.5 8.5l8.5 8.5q86 53 133 100q4 3 26.5 22.5t33 27.5t28 20t29.5 18q10 8 55.5 37t67.5 53q0 4 6 10q0 3 2 5t2 4q7 0 10 -4.5t5 -12.5t6 -12q0 -14 24 -48t23 -59l-4 -24q-9 -23 -54 -51l-18 -9q-5 0 -21 -7.5 t-35.5 -18.5t-21.5 -12t-28.5 -9t-38.5 -14q-5 -1 -16 -7t-15 -7q-32 0 -73.5 -24.5t-53.5 -27.5q-12 -15 -37 -22q-4 -2 -18 -11t-25 -14.5t-18 -3.5q-17 7 -23 27z" />
<glyph unicode="&#xb6;" horiz-adv-x="1060" d="M690 -23q-9 -14 -20 -59q-4 -16 -8.5 -47.5t-11 -56t-17.5 -41.5q-28 -7 -46 8t-35.5 44t-31.5 40q0 8 4 19l4 10q-1 16 -3 22t3.5 20.5t7.5 19.5t9 19t10 19q34 77 37 82q39 54 57 129q17 49 33 67q15 19 25.5 62.5t17.5 56.5q80 171 109 301l10 27q52 166 74 225 q2 6 20.5 52t24.5 75q-10 21 -71.5 6.5t-72.5 -35.5q-2 -6 0.5 -14t1.5 -12q-4 -9 -13 -35.5t-17.5 -45t-18.5 -28.5q-3 -6 -14.5 -27t-17.5 -34.5t-11 -28.5q-6 -16 -15.5 -48t-15.5 -48q-4 -19 -22 -56t-21 -57l-32 -88q0 -1 -3.5 -7t-3.5 -11q-8 -12 -32.5 -81.5 t-28.5 -86.5q-13 -26 -30 -79.5t-27 -76.5q-15 -36 -32 -91.5t-35 -119.5t-21 -73q-3 -10 -5.5 -33t-5.5 -33q0 -69 -31.5 -62t-74.5 72l-17 29q-5 38 7 72t32 71.5t27 65.5q18 31 23 45q2 6 6 23.5t9 28t13 15.5q3 18 20 55.5t17 59.5q-6 6 -17.5 7.5t-13.5 2.5 q-50 7 -59 13q-2 1 -8 5.5t-12 7.5t-13 3q-8 7 -21.5 24.5t-17.5 22.5q-13 47 -35 72q-1 6 -5 21t-5.5 24t0.5 20q-12 19 -18 58q-2 8 -2 37q-9 126 2 137q10 43 32 94.5t27 71.5q11 11 25.5 45t27.5 45l7 20q42 68 75 103q25 27 90 80q48 32 58 38q8 5 31 13l22 10 q63 16 90 20l22 6t20.5 5t21.5 3.5t19.5 2.5t20.5 2t18.5 1.5t20 0.5h19h20.5h19h33h34q1 0 14.5 4.5t20.5 3.5q15 -2 31 -14q4 -4 8 -4q2 -4 8 -18.5t11 -20.5q4 0 6 -2q6 -9 24 -22.5t21 -16.5q11 -11 18 -23t9.5 -20.5t6 -24.5t5.5 -24q-6 -17 -25.5 -80t-37.5 -109.5 t-34 -62.5q0 -3 -4 -11q-1 -2 -7 -17t-11 -21q-4 -15 -9 -31t-12 -34.5t-10 -29.5q-20 -34 -42.5 -103.5t-35.5 -96.5q-8 -12 -10 -21q-31 -52 -39 -92q-19 -68 -51 -121q-2 -13 -14 -37q-1 -4 -4.5 -19.5t-6.5 -23.5q-2 -7 -10.5 -23.5t-11.5 -23.5q-8 -28 -41 -94 t-35 -109z" />
<glyph unicode="&#xb7;" horiz-adv-x="573" d="M229 276v33q0 3 -0.5 22t3 34.5t14.5 25.5q27 18 70.5 16.5t70.5 -16.5q7 -3 26 -3t23 -1q31 -28 33 -47q4 -20 -9.5 -41t-43.5 -51q-2 -2 -11 -11.5t-13.5 -13.5t-13 -9.5t-18.5 -8.5q-18 -26 -32 -37t-22.5 -11.5t-28.5 -1t-39 -5.5q-22 14 -30 21.5t-8.5 16.5 t4.5 16.5t12.5 27.5t12.5 44z" />
<glyph unicode="&#xb8;" horiz-adv-x="481" d="M-23 -659q-33 76 -36 149q0 100 8 131q0 16 10.5 37.5t17.5 26.5q14 10 41 -2q4 -2 5.5 -23t5.5 -27q0 -20 13.5 -72.5t25.5 -60.5q17 -12 36.5 -15t31.5 -1t31 7.5t26 6.5q44 6 71 25q13 7 17 18q2 13 -16.5 53.5t-31.5 49.5l-32 22q-3 2 -8.5 3.5t-6.5 2.5 q-33 33 -33.5 111t23.5 113q10 18 40.5 34.5t73.5 33t60 26.5q40 21 46 20q4 0 7 -4l9 -10q9 -9 12 -13.5t7.5 -14t2.5 -18t-10 -16.5q-2 -3 -41 -26q-18 -11 -54 -31t-59 -35q-59 -37 -41 -65q47 -37 77.5 -78.5t66.5 -106.5q16 -54 18 -81q3 -26 -7.5 -51t-19.5 -36 t-36 -36t-31 -29l-37 -18q-75 -28 -125 -35l-26 -4q-95 -14 -132 39z" />
<glyph unicode="&#xb9;" horiz-adv-x="552" d="M338 449q-4 -8 -9 -25t-10 -27t-14 -14q-6 -2 -12 5.5t-12 20.5q-1 3 -2 5q-24 36 -31 82q-6 42 4 71q2 12 13.5 30.5t13.5 23.5q12 41 12 43q12 16 24.5 52t16.5 44l55 135q12 28 10 45q-1 1 -16 -4q-8 -8 -35 -51q-23 -23 -45 -56q-1 -1 -7.5 -8t-10.5 -11t-11.5 -10.5 t-13.5 -9t-12.5 -4t-11.5 1.5t-9 11q-9 5 -16.5 13.5t-11 15t-9.5 20t-8 18.5q-6 12 -6 29q0 5 2.5 7t5.5 2t4 1q19 6 36.5 23.5t38.5 47.5t26 36l43 45q11 10 43 47q8 9 25 31.5t30.5 38.5t28.5 30q21 21 59 76q2 4 14 20q13 11 54 0q18 0 26 -6v-4q5 -5 8 -14q7 -33 3 -98 q-2 -24 -11 -54q-13 -65 -30 -92q-44 -134 -111 -274q-38 -103 -57 -148q-2 -6 -9.5 -21t-9.5 -24q-15 -22 -34 -67t-21 -49z" />
<glyph unicode="&#xba;" horiz-adv-x="552" d="M283 844q24 0 56 26.5t44 30.5q26 22 37 29q9 8 33 32.5t24 28.5q4 17 18.5 45.5t18.5 40.5q2 5 6.5 15t5.5 16q6 27 6 51q3 21 3 35q0 3 -3.5 10t-3.5 10l-8 19q-5 8 -18.5 14.5t-22.5 5.5q-6 0 -12.5 -2.5t-13 -6.5t-9.5 -5q-56 -20 -122.5 -142.5t-75.5 -187.5 q-12 -36 8 -59q6 -6 29 -6zM541 1374q3 -1 51 -28q14 -7 24 -17q9 -7 23 -24l10.5 -21t17 -30t13.5 -15q14 -47 4 -129q-1 -3 -3.5 -19.5t-3.5 -22.5t-4 -18t-7 -20t-9 -16q-1 -2 -5 -6t-5 -7q-9 -12 -38.5 -69.5t-59.5 -75.5q-1 0 -5 -7t-9 -9q-1 -1 -4.5 -4t-6 -5.5 t-4.5 -5.5q-42 -38 -114 -78.5t-109 -31.5q-6 2 -20.5 6.5t-22.5 7.5t-19 8.5t-20 12.5q-26 20 -38.5 39t-26.5 51q-15 35 -15 45l-6 65q-1 4 -3 16t-2.5 18t-1 15.5t0.5 17.5t4 15q0 42 20 90q5 16 23 41q1 4 2.5 11t3 11.5t4.5 8.5q19 29 53.5 76t45.5 63q5 5 12 14.5 t14 16t17 10.5q47 24 68 30t32 4.5t44 -14t75 -20.5z" />
<glyph unicode="&#xbb;" horiz-adv-x="972" d="M838 412q-2 7 -12 15.5t-11 10.5q-43 37 -51 41q0 1 -1.5 1.5t-3.5 1t-3 1.5q-21 12 -70 31t-74 35q-2 2 -13.5 9.5t-17 12t-10.5 13.5t-4 18q2 12 14 27t20 22t28 23q5 3 22.5 19.5t26.5 21.5q20 15 43 10q9 -2 16.5 -18.5t12.5 -20.5q3 -4 11.5 -9.5t10.5 -8.5 q12 -9 59 -41.5t72 -51.5q18 -18 27 -29t16 -26.5t7 -33t-7 -40.5q-11 -60 -49 -98q-10 -15 -37 -35l-69 -67l-25 -17q-2 -2 -15 -15.5t-19 -19t-17.5 -14.5t-20.5 -14q-87 -72 -151 -94q-43 -21 -58 -23q-1 0 -11.5 -5t-20.5 -3q1 36 15.5 65.5t43 54t54 41t66 39 t60.5 35.5q41 21 81.5 58t64.5 78zM229 707q28 0 29 -5q2 -16 18 -28l52 -35q48 -27 125 -80q3 -4 7.5 -7.5t10.5 -7.5t10 -7q28 -18 34.5 -57t-3 -76t-25.5 -64l-49 -72q-37 -52 -55 -65q-7 -7 -27 -17l-32 -16q-8 -2 -31.5 -11t-36.5 -12l-16 -4q-7 -2 -30.5 -13 t-33.5 -13q-44 -10 -53 -15q-19 -15 -31 -36q-1 -1 -5 -6t-5.5 -7t-5.5 -5.5t-6.5 -5t-6.5 -2.5t-8 -1q-10 1 -13.5 16t1.5 35q7 27 35 60q0 17 55 63l33 29q152 62 203 92q2 1 8.5 4.5t10.5 8t7 11.5q-2 6 -7 11.5t-11 9.5t-8 6q-24 24 -99 51q-73 42 -98 53q-28 12 -29 15 q-15 23 -12 49q20 65 49 94q33 51 49 60z" />
<glyph unicode="&#xbc;" horiz-adv-x="1650" d="M1376 469h6q2 -42 -26 -123q-15 -27 -35 -76.5t-23 -56.5q-4 -9 -9 -28t-9 -27l-6 -8q-14 -28 -33 -41q-16 1 -59.5 0.5t-57.5 1.5q-3 1 -9 0.5t-10.5 0.5t-8.5 5q3 17 12 31.5t23.5 30t19.5 22.5q3 4 8.5 11.5t10.5 13.5t10 10q77 66 116 137q24 36 52 57q22 33 28 39z M426 514q-3 -5 -8 -31q-10 -17 -15 -18q-5 1 -7 -0.5t-7 4.5t-6.5 8t-6.5 10t-7 11q-28 53 -31 94q-5 28 -2 57q2 5 4 12.5t2 8.5q4 21 23.5 60.5t21.5 45.5q4 17 11.5 35t17.5 40.5t14 33.5t28.5 65.5t33.5 83.5q16 32 14 51q-6 5 -17 -6q-18 -16 -43 -57l-6 -10 q-18 -18 -46 -52t-44 -45q-33 0 -39 13l-16 12l-23 37q-4 4 -10 27l-3 9t-3.5 11.5t-1.5 9.5q0 5 3 7t7.5 2t5.5 1l15 13q15 10 30 27.5t34 41.5t30 37l53 51l43 54q13 15 43.5 53.5t48.5 56.5q37 34 68 84q10 17 18 23q2 3 5 4.5t5.5 2.5t7 1.5t7 0.5t8 -1t8 -1t9 -1.5 t8.5 -1.5q4 -1 12.5 -2t12.5 -3.5t7 -8.5q3 -3 7 -15q9 -29 4 -110q0 -9 -2 -19.5t-6 -22.5t-5 -18q0 -17 -13 -41t-13 -37q-4 -9 -15 -55t-28 -63q-24 -36 -51.5 -114.5t-36.5 -98.5q-5 -11 -64 -162l-22 -51q-7 -21 -11 -27q-13 -13 -31.5 -64t-29.5 -63zM1425 559 q0 13 -6.5 33t-13.5 29q-23 23 -41 32q-10 6 -35 13q-50 11 -74 -19q4 -33 -16 -74.5t-39.5 -65.5t-50.5 -58q-9 -20 -42 -53.5t-40 -57.5q-19 -21 -55 -76q-6 -8 -16 -23t-15.5 -23.5t-14.5 -19.5t-18 -20q-48 -39 -49 -41q-1 -23 -3 -43.5t8 -37.5t34 -23q43 -13 61 -13 q11 -11 29 -18q13 -3 45 -4.5t57 -6t35 -18.5q1 -8 -8 -32q-10 -24 -30.5 -65.5t-28.5 -61.5q-9 -33 -42 -88t-42 -82q-13 -23 -10 -72q3 -25 18 -43q11 -26 27 -23q10 3 20 39q44 75 59 123q10 17 20 50.5t11 35.5q2 4 8.5 12t10 15t4.5 16q24 26 55 94l8 11q30 43 41 71 q7 18 23 21q8 1 18.5 -5.5t17.5 -9.5t21 5q6 24 -11.5 51.5t-19.5 36.5l15 28q14 30 45 89.5t45 91.5q43 83 47 94q2 4 6 24q10 33 10 49.5t-16 30.5q-18 17 -55 25q-3 1 -10 1t-11.5 1.5t-7.5 5.5q3 9 12 22.5t10 26.5zM330 -547q-10 -5 -31 0q-4 3 -10 17q-1 2 -13 22.5 t-14 32.5q-2 25 3.5 48.5t10 34t19.5 38.5q68 150 84 180q9 25 30 70t25 53l107 250q36 74 59 141l37 78q40 82 43 90q55 124 86 178l41 92q2 4 13 23t14 28q16 51 43 78q13 13 27.5 39.5t17.5 44.5q5 6 12 22t10 21q0 1 2 3t2 3l41 82q5 8 15 26.5t18 29.5q24 59 43 88 q5 11 15.5 34t21 44t20.5 40q18 32 29 60q27 56 27 63q4 18 -4 33q-2 24 6 41.5t24 17.5q17 0 41 -12l8 -6q25 -10 35 -20q0 -5 4 -7q37 -44 35 -77q0 -23 -18 -64l-2 -4l-11 -16l-24 -54q0 -24 -39 -86l-19 -43q-22 -37 -63 -120q-7 -24 -57 -111q0 -4 -2 -6 q-29 -29 -88 -162l-52 -100q-4 -14 -18.5 -36t-18.5 -34q-8 -13 -20 -37.5t-18 -34.5q-42 -86 -54 -106q-12 -19 -47 -92l-26 -52q-7 -3 -7 -4q-9 -22 -27.5 -58t-25.5 -52q-1 -1 -3 -2t-3.5 -2.5t-1.5 -3.5q-3 -3 -5.5 -13t-6.5 -14q-10 -15 -27 -56t-33 -57 q-5 -18 -18.5 -46.5t-16.5 -37.5q-3 -7 -8.5 -22.5t-10.5 -26t-11 -16.5l-6 -10q-30 -39 -60 -119q-39 -87 -67 -125q-1 -2 -23 -45l-14 -31q-5 -9 -15 -33q-3 -5 -7 -16t-7 -16q-1 -3 -4.5 -27t-11.5 -33z" />
<glyph unicode="&#xbd;" horiz-adv-x="1712" d="M573 1190q-3 -9 -18 -45q-47 -150 -149 -332q-25 -46 -54 -125q-2 -6 -12.5 -28.5t-13.5 -31.5t-6.5 -27t-2.5 -36q0 -38 16 -64.5t40 -23.5l21 6q2 1 3 2q1 2 23 64l14 29q3 6 6.5 17t5.5 15q8 17 24 48.5t27.5 56.5t16.5 47q4 6 7.5 17.5t6.5 15.5q1 5 8 13t7 11 q17 21 34 73.5t35 70.5q8 8 13 34q11 11 74 132.5t73 148.5q52 90 68 149q10 41 -13.5 74.5t-62.5 46.5q-36 10 -53 4q-9 -3 -41 -28l-8 -4l-4 -5q-3 -5 -5 -6q-35 -35 -80 -65q-29 -24 -72.5 -67.5t-80.5 -75t-74 -50.5q-3 -1 -18 -1.5t-21 -6.5q-11 -26 -2 -80t27 -61 q8 -2 39 12q15 6 31 16.5t25 17.5t27.5 23t24.5 21q59 38 82 70q3 2 7.5 4t6.5 4q2 1 6.5 5t6 5.5t6 3t6.5 -1.5q-1 -12 -4 -25t-6.5 -22t-9 -23.5t-7.5 -21.5zM1122 -70q12 12 38 43t42 45q10 7 26 29t21 27q16 20 60 51q54 70 82 98l28 33l13 25q63 106 81 145q8 16 13 31 q3 37 -12 75t-39 62q-17 35 -68 51q-40 12 -98 4q-25 -2 -54.5 -11.5t-46 -17t-51 -25.5t-43.5 -22q-15 -9 -18 -24q-6 -26 -2 -52.5t12 -39.5q13 -27 22 -31q15 -4 30.5 2.5t37.5 23.5t25 19q6 3 19.5 11t29 17.5t34 20.5t36 18.5t33 12.5t26 2.5t14.5 -12.5 q-5 -19 -13.5 -36t-24 -40t-19.5 -29q-14 -19 -33 -49l-35 -45q-110 -135 -143 -170l-76 -80q-16 -21 -36 -41t-44.5 -42t-36.5 -34q-3 -4 -9.5 -12.5t-12.5 -16t-12 -12.5q-32 -32 -39 -38q-3 -4 -10 -10t-9 -9q-16 -20 -20 -42.5t-6 -67.5q-4 -34 2 -54q5 -6 15 -9.5 t24 -5.5t18 -3q46 2 117.5 25.5t91.5 27.5q54 16 76 16h16q11 0 32.5 1t39.5 1t34 -2q7 -1 27.5 -8t30.5 -8q14 0 40.5 -2t44.5 -1t36 7q2 1 6 2t5.5 1.5t3.5 2t2.5 3.5t0.5 6q1 6 -2 18t-6 14q-1 2 -4 3.5t-4 2.5q-5 7 -17.5 23.5t-19.5 24.5t-19 18t-24 14q-23 8 -58 4 q-9 -1 -24 -5.5t-20.5 -5t-22.5 2.5q-28 1 -139 -4q-4 0 -16 -1.5t-20.5 -0.5t-13.5 6q4 22 35 49zM1268 1653q11 6 28 0q8 -4 13 -17q1 -2 12.5 -22.5t13.5 -32.5q1 -8 3 -29t2 -29.5v-23.5t-3 -26.5t-8 -22.5q-9 -19 -37.5 -85t-46.5 -97q-15 -24 -22 -47q-6 -5 -6 -7 q-3 -10 -8 -20.5t-13.5 -25.5t-11.5 -21q-18 -41 -58 -123q-30 -62 -57 -123q-14 -18 -25 -41.5t-22.5 -53t-17.5 -42.5l-39 -78q-34 -57 -47 -88q-9 -22 -29.5 -62.5t-28.5 -56.5l-12 -33q-1 -5 -8 -14t-9 -12l-40 -92q-11 -23 -48 -84.5t-65.5 -112.5t-28.5 -65l-43 -82 q-26 -47 -69 -136.5t-62 -126.5q-19 -35 -29 -59q-26 -54 -26 -63q-1 -5 1.5 -32t-3 -44t-25.5 -17q-43 0 -84 41t-41 82q4 36 33 84q39 77 145 295t168 334q15 25 17 27q2 24 90 168l35 71l18 35q2 3 5 11.5t5 11.5l37 69q9 16 65 139.5t101 174.5q17 60 53 127 q23 28 49.5 78t26.5 73q3 6 11.5 25t15.5 28l6 13q5 8 17 28t20 31q4 4 7.5 11.5t7.5 17.5t7 16q10 27 43 96q1 2 5 26t12 34z" />
<glyph unicode="&#xbe;" horiz-adv-x="1531" d="M1243 332q1 -9 -8 -37q-19 -71 -41 -105q-3 -18 -11 -41t-14 -36t-21.5 -43t-17.5 -35q-24 -18 -64.5 -21t-64.5 15q2 7 5.5 12.5t9.5 11t8 8.5q9 12 20 33q19 27 64 98.5t70 102.5q13 22 22.5 30t19 8t23.5 -1zM565 1040q20 28 71 69.5t69 64.5q20 20 43 53q16 31 16 33 q9 48 -2 86l-23 32q-52 55 -104 58q-4 6 -13.5 9.5t-23 6t-18.5 4.5q-28 8 -45 6q-10 -2 -38 -1.5t-36 -2.5q-5 -1 -31 -14l-12 -6q-2 -2 -4 -7t-4 -8q-2 -19 5 -26.5t24 -8.5t20 -2q6 -1 18.5 -9.5t20.5 -10.5q13 -3 48 -1t46 -1q3 -1 9.5 -2t10 -2t8 -3t6.5 -5.5t3 -8.5 q-7 -24 -32.5 -55.5t-43 -48t-61.5 -52.5t-46 -38q-26 -26 -47 -53q-19 -23 -24 -31q-12 -77 6 -111q5 -19 45 -31.5t51 -25.5q5 -5 7.5 -9.5t3.5 -7.5t-1 -7t-2.5 -5.5t-4.5 -7t-5 -6.5q-28 -57 -59 -78q-34 -22 -49.5 -30.5t-48 -25.5t-52.5 -20.5t-47 -5t-49.5 11.5 t-42.5 37q-1 3 -3.5 8l-3.5 7t-4 4t-7 2q-15 0 -26.5 -17t-18 -42.5t-9.5 -44t-4 -33.5q0 -36 2 -41q1 -10 10.5 -29t14.5 -22q52 -52 121 -58q2 0 8 -1.5t8 -0.5q19 4 49.5 17.5t44.5 17.5q33 16 87 57.5t85 55.5q4 4 8.5 9t8.5 12t6 9q53 53 67 72q4 4 9 14q6 7 10 15 t5.5 12t5.5 16.5t5 16.5l19 37q20 42 11.5 88t-46.5 73q-5 2 -16 4t-17.5 5.5t-9.5 11.5q2 10 18 22zM1270 662q-16 -27 -39 -60t-37 -55q-60 -80 -156 -225q-14 -21 -39 -54.5t-36 -48.5q-68 -75 -89 -137q-8 -40 13 -113.5t51 -89.5q12 -5 44.5 -8t41.5 -12q2 -1 9.5 -2.5 t11 -4.5t4.5 -8q-4 -16 -24.5 -75.5t-20.5 -90.5q-25 -75 -11 -133q0 -7 6 -43q18 -53 39 -53q5 4 9 12t7 20.5t5 16.5q15 22 28 70t19 61q8 20 20.5 72t26.5 78q7 26 26 58t38 42q14 7 42 14t39 11q3 0 10 -2t13 -2t10 4q20 53 -8 110q0 7 -2 9q-3 3 -17.5 13t-15.5 19 q-4 11 10 45q6 20 22 57t21 60q22 26 25 66q13 17 21.5 41t16.5 54t13 44q2 9 9 25.5t8 23.5q3 39 -15 85.5t-49 59.5q-3 57 -57 78q-13 3 -25 -5.5t-18 -26.5zM340 -547q-12 -6 -29 0q-7 3 -12 17q-1 2 -13 22.5t-14 32.5q-1 15 -0.5 28t5.5 27.5t7 20t11 24t10 21.5 q11 22 39.5 85.5t44.5 94.5q6 10 55 123l54 125q11 25 52.5 120t61.5 146q19 43 78 168q8 19 28.5 58t29.5 61l12 32l16 27l41 92q22 49 70.5 133t66.5 123q0 1 2 3t2 3l43 82q5 9 14 27t16.5 31t15.5 24q3 7 12 29.5t16 32.5q50 102 58 118q14 26 28 60q4 8 12 23t12 24.5 t5 15.5q0 21 -6 33q-2 23 7 41t23 18q17 0 41 -12l9 -6q23 -9 34 -20q0 -2 5 -7q36 -42 36 -77q-3 -26 -20 -64l-37 -74q0 -15 -6 -24l-8 -8q-12 -32 -23 -54l-20 -43q-2 -3 -9.5 -12t-9.5 -16q-1 -2 -1 -3.5t-1 -2.5q-26 -26 -58 -103t-42 -94q0 -5 -5 -15t-7 -12 q-9 -18 -15 -24q-13 -36 -35 -72q-14 -18 -27 -42t-29 -56.5t-23 -46.5q-11 -39 -74 -142q-21 -35 -37 -71l-18 -35q-2 -3 -6 -12t-5 -11l-37 -69q-20 -35 -64.5 -124t-72.5 -136q0 -11 -9.5 -28t-18.5 -26q-3 -18 -17.5 -47.5t-17.5 -36.5q-7 -14 -19 -39t-18 -36 q-30 -43 -47 -101q-1 -3 -5 -9t-5 -9q-5 -8 -12.5 -26.5t-12.5 -26.5q-58 -58 -127 -273z" />
<glyph unicode="&#xbf;" horiz-adv-x="532" d="M338 528q0 10 -1 28.5t-1 27.5q9 56 12 65q4 12 13 31.5t10 26.5q0 3 -2 15t-1.5 19t5.5 7q9 1 16.5 0t15.5 -4t13.5 -5t13 -9t10.5 -9.5t11 -11.5t9.5 -11t9.5 -12.5t9 -11.5q33 -53 27 -99q-3 -16 -10.5 -31.5t-18.5 -32t-16 -26.5q-31 -78 -47 -84q-4 -1 -9 1t-8 4.5 t-7.5 6.5t-6.5 5q-4 3 -9.5 16.5t-10.5 18.5q-3 4 -11 9t-10 9q-11 16 -11.5 27t5.5 30zM352 268q0 -102 -10 -149l-12 -35q-2 -8 -7 -30t-11 -35.5t-17 -24.5q-22 -28 -68 -57q-16 -13 -80 -46q-46 -16 -73 -34q-6 -2 -17 -13q-6 -6 -19.5 -18.5t-25 -24.5t-20.5 -22 q-36 -36 -55 -98q-6 -12 -15 -39q-7 -69 -6 -84q2 -11 21 -21q22 -16 73 -4q85 25 230 109q3 2 13.5 7t17 7.5t17 4.5t19.5 1q7 0 23 -8q3 -2 7.5 -8t6.5 -8q19 -16 25 -37q0 -31 -4 -43q-9 -30 -35.5 -52.5t-64 -43t-52.5 -33.5q-13 -6 -71.5 -43.5t-100.5 -42.5 q-11 0 -35 4q-49 3 -72 22q-24 24 -44.5 56t-20.5 53q-8 11 -14.5 38t-10.5 35q0 2 -3 15t-3 24q-6 25 -6 111q6 39 18 90q3 9 12.5 26t12.5 25q3 6 7 18.5t7 18.5q6 9 16.5 25.5t19 29.5t16.5 23q18 26 51 58.5t57 45.5q2 2 9 6t8 5l61 45q39 20 68 43q83 79 53 162 q3 8 6 8q61 -5 98 -62z" />
<glyph unicode="&#xc0;" d="M725 1028q-23 -18 -53 -57q-4 -4 -4 -6l-4 -9q-3 -5 -13 -13.5t-12 -12.5l-6 -10q-3 -4 -8.5 -11.5t-10.5 -12.5t-10 -9q-7 -8 -16.5 -23.5t-18.5 -23.5q-9 -23 -20 -27q-27 -60 -60 -84q-5 -18 -25.5 -45t-23.5 -33q-2 -3 -36.5 -49t-55.5 -78.5t-20 -44.5 q-2 -3 -10.5 -12.5t-13 -17.5t-5.5 -17q5 -6 12.5 -8.5t13.5 -2.5t18.5 0.5t18.5 0.5q8 0 34.5 -0.5t46 -0.5t43.5 1t40 3t23 5q12 7 26 66q9 42 11 57q3 13 12 43t12 47q13 33 23 74q9 48 26 98q5 5 7 6q4 37 16 56q-2 2 2 6l14 43q17 39 19 51l8 18q1 4 9 14t7 23 q-5 3 -10.5 1.5t-5.5 -5.5zM995 1223q-8 -17 -22 -62.5t-27 -64.5q-5 -30 -18 -60t-33.5 -65.5t-28.5 -52.5q-1 -30 -25 -77t-26 -75q-6 -23 -20.5 -73t-20.5 -77q-26 -112 -45 -147q2 -7 0.5 -20t-0.5 -21q2 -10 19 -14q3 -1 14 -5t14.5 -6l10.5 -6t11 -9.5t7 -12.5 q-17 -33 -33 -35h-20q-9 -1 -23 -6t-22 -6q-13 -11 -17 -41l-12 -43q-5 -13 -13.5 -43.5t-13.5 -44.5q-3 -29 -19.5 -68t-19.5 -61q-1 -4 -7 -19.5t-7 -23.5q-12 -61 -29 -111l-8 -23q-44 -136 -51 -169q-1 -7 -6 -19t-6 -18q-6 -12 -6 -23q-17 -40 -11 -57 q-9 -48 -35 -85.5t-51 -37.5q-31 9 -41 27.5t-5.5 37.5t10 48t1.5 49q5 12 13 65q34 183 45 228q6 25 19.5 71t19.5 70l30 125q11 28 27 88q1 9 4 23.5t5 27t3 23.5q-8 6 -17 6t-20 -3t-16 -3q-29 -6 -86.5 -15t-85.5 -16q-12 -1 -46 -10t-54 -9q-8 -5 -25 -30 q-2 -2 -10.5 -11.5t-11.5 -15.5q-1 0 -1 -1.5v-3.5t-1 -3q-4 -6 -21 -23q-6 -6 -6 -16q-1 -1 -6 -7.5t-7.5 -9.5t-7.5 -7.5t-10 -6.5q-4 -12 -10.5 -23t-16 -23.5t-14.5 -20.5q-8 -12 -26.5 -33.5t-22.5 -26.5q-17 -24 -51.5 -64t-44.5 -52q-12 -5 -31 -21.5t-37 -19.5 q-2 0 -11.5 -1.5t-14.5 -0.5q-10 3 -32 39.5t-20 44.5q-1 17 13.5 24.5t36.5 9.5q11 28 56 79t75 75q16 21 22 25q8 23 34.5 55.5t35.5 52.5q2 2 7.5 6.5t8.5 8t6 8.5t2 10q0 4 -3.5 7.5t-9.5 6t-11 4.5t-12 3.5t-9 2.5q-14 10 -23.5 7t-33 -11.5t-39.5 -9.5q-16 0 -30 -1.5 t-22 8t-5 32.5q2 20 14 28t42.5 12.5t99.5 10.5q22 1 35.5 2.5t37 3.5t45.5 4q8 1 17.5 12t17.5 13q31 57 83.5 133t90.5 117q42 35 94.5 130.5t77.5 123.5q44 41 58.5 55.5t34 42.5t36.5 68q17 16 68 71q13 16 43.5 46t51 54.5t28.5 47.5l4 8t4.5 7.5t4 6.5t4.5 6.5t5 5.5 t6 6t6.5 4.5t8.5 4.5l10 4q20 5 52 3t52 -7q3 -1 9.5 -7t11.5 -9q2 -2 7 -4.5t7 -4.5q8 -17 2 -32q-1 -4 -5.5 -13.5t-4.5 -15.5q-3 -6 -7 -18t-8.5 -21.5t-9.5 -15.5zM1059 1475q-4 0 -9 -5.5t-8 -5.5q-16 -4 -25.5 3.5t-17 23t-12.5 20.5q-17 20 -34 47t-26.5 46.5 t-27 57.5t-25.5 54l-5 4q-5 4 -6.5 5.5l-5.5 5.5t-4.5 7t-2 8t-1 10t2.5 11q3 2 5 1t7 -4t8 -3q3 2 9 7t11.5 7.5t12.5 2.5q49 43 109 43q51 0 39 -76q3 -18 11.5 -50.5t13.5 -59t5 -50.5q-2 -10 1.5 -38t-1 -47t-24.5 -25z" />
<glyph unicode="&#xc1;" d="M725 1028q-23 -18 -53 -57q-4 -4 -4 -6l-4 -9q-3 -5 -13 -13.5t-12 -12.5l-6 -10q-3 -4 -8.5 -11.5t-10.5 -12.5t-10 -9q-7 -8 -16.5 -23.5t-18.5 -23.5q-9 -23 -20 -27q-27 -60 -60 -84q-5 -18 -25.5 -45t-23.5 -33q-2 -3 -36.5 -49t-55.5 -78.5t-20 -44.5 q-2 -3 -10.5 -12.5t-13 -17.5t-5.5 -17q5 -6 12.5 -8.5t13.5 -2.5t18.5 0.5t18.5 0.5q8 0 34.5 -0.5t46 -0.5t43.5 1t40 3t23 5q12 7 26 66q9 42 11 57q3 13 12 43t12 47q13 33 23 74q9 48 26 98q5 5 7 6q4 37 16 56q-2 2 2 6l14 43q17 39 19 51l8 18q1 4 9 14t7 23 q-5 3 -10.5 1.5t-5.5 -5.5zM995 1223q-8 -17 -22 -62.5t-27 -64.5q-5 -30 -18 -60t-33.5 -65.5t-28.5 -52.5q-1 -30 -25 -77t-26 -75q-6 -23 -20.5 -73t-20.5 -77q-26 -112 -45 -147q2 -7 0.5 -20t-0.5 -21q2 -10 19 -14q3 -1 14 -5t14.5 -6l10.5 -6t11 -9.5t7 -12.5 q-17 -33 -33 -35h-20q-9 -1 -23 -6t-22 -6q-13 -11 -17 -41l-12 -43q-5 -13 -13.5 -43.5t-13.5 -44.5q-3 -29 -19.5 -68t-19.5 -61q-1 -4 -7 -19.5t-7 -23.5q-12 -61 -29 -111l-8 -23q-44 -136 -51 -169q-1 -7 -6 -19t-6 -18q-6 -12 -6 -23q-17 -40 -11 -57 q-9 -48 -35 -85.5t-51 -37.5q-31 9 -41 27.5t-5.5 37.5t10 48t1.5 49q5 12 13 65q34 183 45 228q6 25 19.5 71t19.5 70l30 125q11 28 27 88q1 9 4 23.5t5 27t3 23.5q-8 6 -17 6t-20 -3t-16 -3q-29 -6 -86.5 -15t-85.5 -16q-12 -1 -46 -10t-54 -9q-8 -5 -25 -30 q-2 -2 -10.5 -11.5t-11.5 -15.5q-1 0 -1 -1.5v-3.5t-1 -3q-4 -6 -21 -23q-6 -6 -6 -16q-1 -1 -6 -7.5t-7.5 -9.5t-7.5 -7.5t-10 -6.5q-4 -12 -10.5 -23t-16 -23.5t-14.5 -20.5q-8 -12 -26.5 -33.5t-22.5 -26.5q-17 -24 -51.5 -64t-44.5 -52q-12 -5 -31 -21.5t-37 -19.5 q-2 0 -11.5 -1.5t-14.5 -0.5q-10 3 -32 39.5t-20 44.5q-1 17 13.5 24.5t36.5 9.5q11 28 56 79t75 75q16 21 22 25q8 23 34.5 55.5t35.5 52.5q2 2 7.5 6.5t8.5 8t6 8.5t2 10q0 4 -3.5 7.5t-9.5 6t-11 4.5t-12 3.5t-9 2.5q-14 10 -23.5 7t-33 -11.5t-39.5 -9.5q-16 0 -30 -1.5 t-22 8t-5 32.5q2 20 14 28t42.5 12.5t99.5 10.5q22 1 35.5 2.5t37 3.5t45.5 4q8 1 17.5 12t17.5 13q31 57 83.5 133t90.5 117q42 35 94.5 130.5t77.5 123.5q44 41 58.5 55.5t34 42.5t36.5 68q17 16 68 71q13 16 43.5 46t51 54.5t28.5 47.5l4 8t4.5 7.5t4 6.5t4.5 6.5t5 5.5 t6 6t6.5 4.5t8.5 4.5l10 4q20 5 52 3t52 -7q3 -1 9.5 -7t11.5 -9q2 -2 7 -4.5t7 -4.5q8 -17 2 -32q-1 -4 -5.5 -13.5t-4.5 -15.5q-3 -6 -7 -18t-8.5 -21.5t-9.5 -15.5zM797 1489q2 8 4 14.5t6 13t6.5 10.5t8 10.5t7.5 8.5l8.5 8.5l8.5 8.5q86 53 133 100q4 3 26.5 22.5 t33 27.5t28 20t29.5 18q10 8 55.5 37t67.5 53q0 4 6 10q0 3 2 5t2 4q6 0 8.5 -3t3.5 -7t3 -9.5t5 -9.5q0 -14 24 -48t23 -59l-4 -24q-10 -24 -53 -51l-18 -9q-5 0 -21 -7.5t-35.5 -18.5t-21.5 -12q-4 -1 -30 -9t-38 -14q-5 -1 -16 -7t-15 -7q-32 0 -73 -24t-53 -28 q-12 -15 -37 -22q-4 -2 -18 -11.5t-25.5 -14.5t-18.5 -3q-16 6 -22 27z" />
<glyph unicode="&#xc2;" d="M725 1028q-23 -18 -53 -57q-4 -4 -4 -6l-4 -9q-3 -5 -13 -13.5t-12 -12.5l-6 -10q-3 -4 -8.5 -11.5t-10.5 -12.5t-10 -9q-7 -8 -16.5 -23.5t-18.5 -23.5q-9 -23 -20 -27q-27 -60 -60 -84q-5 -18 -25.5 -45t-23.5 -33q-2 -3 -36.5 -49t-55.5 -78.5t-20 -44.5 q-2 -3 -10.5 -12.5t-13 -17.5t-5.5 -17q5 -6 12.5 -8.5t13.5 -2.5t18.5 0.5t18.5 0.5q8 0 34.5 -0.5t46 -0.5t43.5 1t40 3t23 5q12 7 26 66q9 42 11 57q3 13 12 43t12 47q13 33 23 74q9 48 26 98q5 5 7 6q4 37 16 56q-2 2 2 6l14 43q17 39 19 51l8 18q1 4 9 14t7 23 q-5 3 -10.5 1.5t-5.5 -5.5zM995 1223q-8 -17 -22 -62.5t-27 -64.5q-5 -30 -18 -60t-33.5 -65.5t-28.5 -52.5q-1 -30 -25 -77t-26 -75q-6 -23 -20.5 -73t-20.5 -77q-26 -112 -45 -147q2 -7 0.5 -20t-0.5 -21q2 -10 19 -14q3 -1 14 -5t14.5 -6l10.5 -6t11 -9.5t7 -12.5 q-17 -33 -33 -35h-20q-9 -1 -23 -6t-22 -6q-13 -11 -17 -41l-12 -43q-5 -13 -13.5 -43.5t-13.5 -44.5q-3 -29 -19.5 -68t-19.5 -61q-1 -4 -7 -19.5t-7 -23.5q-12 -61 -29 -111l-8 -23q-44 -136 -51 -169q-1 -7 -6 -19t-6 -18q-6 -12 -6 -23q-17 -40 -11 -57 q-9 -48 -35 -85.5t-51 -37.5q-31 9 -41 27.5t-5.5 37.5t10 48t1.5 49q5 12 13 65q34 183 45 228q6 25 19.5 71t19.5 70l30 125q11 28 27 88q1 9 4 23.5t5 27t3 23.5q-8 6 -17 6t-20 -3t-16 -3q-29 -6 -86.5 -15t-85.5 -16q-12 -1 -46 -10t-54 -9q-8 -5 -25 -30 q-2 -2 -10.5 -11.5t-11.5 -15.5q-1 0 -1 -1.5v-3.5t-1 -3q-4 -6 -21 -23q-6 -6 -6 -16q-1 -1 -6 -7.5t-7.5 -9.5t-7.5 -7.5t-10 -6.5q-4 -12 -10.5 -23t-16 -23.5t-14.5 -20.5q-8 -12 -26.5 -33.5t-22.5 -26.5q-17 -24 -51.5 -64t-44.5 -52q-12 -5 -31 -21.5t-37 -19.5 q-2 0 -11.5 -1.5t-14.5 -0.5q-10 3 -32 39.5t-20 44.5q-1 17 13.5 24.5t36.5 9.5q11 28 56 79t75 75q16 21 22 25q8 23 34.5 55.5t35.5 52.5q2 2 7.5 6.5t8.5 8t6 8.5t2 10q0 4 -3.5 7.5t-9.5 6t-11 4.5t-12 3.5t-9 2.5q-14 10 -23.5 7t-33 -11.5t-39.5 -9.5q-16 0 -30 -1.5 t-22 8t-5 32.5q2 20 14 28t42.5 12.5t99.5 10.5q22 1 35.5 2.5t37 3.5t45.5 4q8 1 17.5 12t17.5 13q31 57 83.5 133t90.5 117q42 35 94.5 130.5t77.5 123.5q44 41 58.5 55.5t34 42.5t36.5 68q17 16 68 71q13 16 43.5 46t51 54.5t28.5 47.5l4 8t4.5 7.5t4 6.5t4.5 6.5t5 5.5 t6 6t6.5 4.5t8.5 4.5l10 4q20 5 52 3t52 -7q3 -1 9.5 -7t11.5 -9q2 -2 7 -4.5t7 -4.5q8 -17 2 -32q-1 -4 -5.5 -13.5t-4.5 -15.5q-3 -6 -7 -18t-8.5 -21.5t-9.5 -15.5zM1055 1659q-7 3 -13 0q-2 -1 -6 -5t-6 -5t-14 -10q-295 -204 -297 -78q-16 32 -6 63q12 2 24 -10 q2 -2 4 -7t5 -7t8 -3q19 -4 56 21t85 67.5t55 47.5q40 25 97 86q5 6 12.5 14.5t11 12.5t10 8.5t14.5 6.5t19 3q33 5 73 -9.5t50 -39.5q-1 -38 -18.5 -114.5t-20.5 -115.5q-1 -23 -0.5 -47t-1.5 -51t-8 -43q0 -12 -9 -25t-18 -16q-38 -16 -67 31q-24 36 -31.5 73.5t-2.5 62 t5 50.5t-10 39z" />
<glyph unicode="&#xc3;" d="M725 1028q-23 -18 -53 -57q-4 -4 -4 -6l-4 -9q-3 -5 -13 -13.5t-12 -12.5l-6 -10q-3 -4 -8.5 -11.5t-10.5 -12.5t-10 -9q-7 -8 -16.5 -23.5t-18.5 -23.5q-9 -23 -20 -27q-27 -60 -60 -84q-5 -18 -25.5 -45t-23.5 -33q-2 -3 -36.5 -49t-55.5 -78.5t-20 -44.5 q-2 -3 -10.5 -12.5t-13 -17.5t-5.5 -17q5 -6 12.5 -8.5t13.5 -2.5t18.5 0.5t18.5 0.5q8 0 34.5 -0.5t46 -0.5t43.5 1t40 3t23 5q12 7 26 66q9 42 11 57q3 13 12 43t12 47q13 33 23 74q9 48 26 98q5 5 7 6q4 37 16 56q-2 2 2 6l14 43q17 39 19 51l8 18q1 4 9 14t7 23 q-5 3 -10.5 1.5t-5.5 -5.5zM995 1223q-8 -17 -22 -62.5t-27 -64.5q-5 -30 -18 -60t-33.5 -65.5t-28.5 -52.5q-1 -30 -25 -77t-26 -75q-6 -23 -20.5 -73t-20.5 -77q-26 -112 -45 -147q2 -7 0.5 -20t-0.5 -21q2 -10 19 -14q3 -1 14 -5t14.5 -6l10.5 -6t11 -9.5t7 -12.5 q-17 -33 -33 -35h-20q-9 -1 -23 -6t-22 -6q-13 -11 -17 -41l-12 -43q-5 -13 -13.5 -43.5t-13.5 -44.5q-3 -29 -19.5 -68t-19.5 -61q-1 -4 -7 -19.5t-7 -23.5q-12 -61 -29 -111l-8 -23q-44 -136 -51 -169q-1 -7 -6 -19t-6 -18q-6 -12 -6 -23q-17 -40 -11 -57 q-9 -48 -35 -85.5t-51 -37.5q-31 9 -41 27.5t-5.5 37.5t10 48t1.5 49q5 12 13 65q34 183 45 228q6 25 19.5 71t19.5 70l30 125q11 28 27 88q1 9 4 23.5t5 27t3 23.5q-8 6 -17 6t-20 -3t-16 -3q-29 -6 -86.5 -15t-85.5 -16q-12 -1 -46 -10t-54 -9q-8 -5 -25 -30 q-2 -2 -10.5 -11.5t-11.5 -15.5q-1 0 -1 -1.5v-3.5t-1 -3q-4 -6 -21 -23q-6 -6 -6 -16q-1 -1 -6 -7.5t-7.5 -9.5t-7.5 -7.5t-10 -6.5q-4 -12 -10.5 -23t-16 -23.5t-14.5 -20.5q-8 -12 -26.5 -33.5t-22.5 -26.5q-17 -24 -51.5 -64t-44.5 -52q-12 -5 -31 -21.5t-37 -19.5 q-2 0 -11.5 -1.5t-14.5 -0.5q-10 3 -32 39.5t-20 44.5q-1 17 13.5 24.5t36.5 9.5q11 28 56 79t75 75q16 21 22 25q8 23 34.5 55.5t35.5 52.5q2 2 7.5 6.5t8.5 8t6 8.5t2 10q0 4 -3.5 7.5t-9.5 6t-11 4.5t-12 3.5t-9 2.5q-14 10 -23.5 7t-33 -11.5t-39.5 -9.5q-16 0 -30 -1.5 t-22 8t-5 32.5q2 20 14 28t42.5 12.5t99.5 10.5q22 1 35.5 2.5t37 3.5t45.5 4q8 1 17.5 12t17.5 13q31 57 83.5 133t90.5 117q42 35 94.5 130.5t77.5 123.5q44 41 58.5 55.5t34 42.5t36.5 68q17 16 68 71q13 16 43.5 46t51 54.5t28.5 47.5l4 8t4.5 7.5t4 6.5t4.5 6.5t5 5.5 t6 6t6.5 4.5t8.5 4.5l10 4q20 5 52 3t52 -7q3 -1 9.5 -7t11.5 -9q2 -2 7 -4.5t7 -4.5q8 -17 2 -32q-1 -4 -5.5 -13.5t-4.5 -15.5q-3 -6 -7 -18t-8.5 -21.5t-9.5 -15.5zM1178 1690q23 5 69.5 26.5t71.5 24.5q20 4 31 4h8q4 -1 14 -16q25 -17 25 -39q0 -25 -27.5 -52 t-73.5 -57t-47 -31q-59 -41 -98 -43h-2q-33 0 -63.5 40.5t-30.5 74.5q-1 3 -2.5 12t-4 13t-6.5 4q-24 -14 -46.5 -37t-48 -53t-38.5 -43q-6 -6 -15 -16t-13.5 -14.5t-12.5 -8.5t-18 -4h-4q-16 1 -23 15t-10 46q-8 27 -8 45v12q4 26 20 58q4 4 11 4q2 0 8.5 -1t9.5 -1h4 q16 9 62.5 49t91.5 72t71 32q7 0 11 -2q1 1 2.5 0t3.5 -2.5t4 -1.5q10 -4 18 -8t14 -9.5t10.5 -9.5t8.5 -12t6.5 -11.5t5.5 -14t3.5 -13.5t3.5 -16t4 -16z" />
<glyph unicode="&#xc4;" d="M725 1028q-23 -18 -53 -57q-4 -4 -4 -6l-4 -9q-3 -5 -13 -13.5t-12 -12.5l-6 -10q-3 -4 -8.5 -11.5t-10.5 -12.5t-10 -9q-7 -8 -16.5 -23.5t-18.5 -23.5q-9 -23 -20 -27q-27 -60 -60 -84q-5 -18 -25.5 -45t-23.5 -33q-2 -3 -36.5 -49t-55.5 -78.5t-20 -44.5 q-2 -3 -10.5 -12.5t-13 -17.5t-5.5 -17q5 -6 12.5 -8.5t13.5 -2.5t18.5 0.5t18.5 0.5q8 0 34.5 -0.5t46 -0.5t43.5 1t40 3t23 5q12 7 26 66q9 42 11 57q3 13 12 43t12 47q13 33 23 74q9 48 26 98q5 5 7 6q4 37 16 56q-2 2 2 6l14 43q17 39 19 51l8 18q1 4 9 14t7 23 q-5 3 -10.5 1.5t-5.5 -5.5zM995 1223q-8 -17 -22 -62.5t-27 -64.5q-5 -30 -18 -60t-33.5 -65.5t-28.5 -52.5q-1 -30 -25 -77t-26 -75q-6 -23 -20.5 -73t-20.5 -77q-26 -112 -45 -147q2 -7 0.5 -20t-0.5 -21q2 -10 19 -14q3 -1 14 -5t14.5 -6l10.5 -6t11 -9.5t7 -12.5 q-17 -33 -33 -35h-20q-9 -1 -23 -6t-22 -6q-13 -11 -17 -41l-12 -43q-5 -13 -13.5 -43.5t-13.5 -44.5q-3 -29 -19.5 -68t-19.5 -61q-1 -4 -7 -19.5t-7 -23.5q-12 -61 -29 -111l-8 -23q-44 -136 -51 -169q-1 -7 -6 -19t-6 -18q-6 -12 -6 -23q-17 -40 -11 -57 q-9 -48 -35 -85.5t-51 -37.5q-31 9 -41 27.5t-5.5 37.5t10 48t1.5 49q5 12 13 65q34 183 45 228q6 25 19.5 71t19.5 70l30 125q11 28 27 88q1 9 4 23.5t5 27t3 23.5q-8 6 -17 6t-20 -3t-16 -3q-29 -6 -86.5 -15t-85.5 -16q-12 -1 -46 -10t-54 -9q-8 -5 -25 -30 q-2 -2 -10.5 -11.5t-11.5 -15.5q-1 0 -1 -1.5v-3.5t-1 -3q-4 -6 -21 -23q-6 -6 -6 -16q-1 -1 -6 -7.5t-7.5 -9.5t-7.5 -7.5t-10 -6.5q-4 -12 -10.5 -23t-16 -23.5t-14.5 -20.5q-8 -12 -26.5 -33.5t-22.5 -26.5q-17 -24 -51.5 -64t-44.5 -52q-12 -5 -31 -21.5t-37 -19.5 q-2 0 -11.5 -1.5t-14.5 -0.5q-10 3 -32 39.5t-20 44.5q-1 17 13.5 24.5t36.5 9.5q11 28 56 79t75 75q16 21 22 25q8 23 34.5 55.5t35.5 52.5q2 2 7.5 6.5t8.5 8t6 8.5t2 10q0 4 -3.5 7.5t-9.5 6t-11 4.5t-12 3.5t-9 2.5q-14 10 -23.5 7t-33 -11.5t-39.5 -9.5q-16 0 -30 -1.5 t-22 8t-5 32.5q2 20 14 28t42.5 12.5t99.5 10.5q22 1 35.5 2.5t37 3.5t45.5 4q8 1 17.5 12t17.5 13q31 57 83.5 133t90.5 117q42 35 94.5 130.5t77.5 123.5q44 41 58.5 55.5t34 42.5t36.5 68q17 16 68 71q13 16 43.5 46t51 54.5t28.5 47.5l4 8t4.5 7.5t4 6.5t4.5 6.5t5 5.5 t6 6t6.5 4.5t8.5 4.5l10 4q20 5 52 3t52 -7q3 -1 9.5 -7t11.5 -9q2 -2 7 -4.5t7 -4.5q8 -17 2 -32q-1 -4 -5.5 -13.5t-4.5 -15.5q-3 -6 -7 -18t-8.5 -21.5t-9.5 -15.5zM926 1767q19 4 39 -2q8 -4 30 -18q35 -20 37 -39q1 -12 -3.5 -24t-12 -24t-8.5 -15q-6 -9 -16.5 -26.5 t-14.5 -23.5q-1 -2 -2.5 -3.5t-1.5 -2.5l-29 -45l-13.5 -18t-12.5 -13.5t-14.5 -10t-16 -2.5t-19.5 5q-11 5 -18 11.5t-10 12t-11 21.5q-12 24 -10 35q-2 15 3.5 35.5t15.5 44.5t12 31q24 48 29 53l6 4q13 10 41 14zM1192 1735q30 9 94 -33q5 -2 11 -7.5t8 -6.5 q45 -28 45 -52q0 -10 -11 -32l-10 -21q-18 -32 -30.5 -51t-33 -43t-44.5 -35.5t-52 -11.5q-7 1 -27 -0.5t-24 0.5q-3 1 -11.5 9t-10.5 9q-18 80 37 162l24 41q1 1 4.5 5.5t3.5 6.5q2 5 6.5 27.5t16.5 30.5z" />
<glyph unicode="&#xc5;" d="M725 1028q-23 -18 -53 -57q-4 -4 -4 -6l-4 -9q-3 -5 -13 -13.5t-12 -12.5l-6 -10q-3 -4 -8.5 -11.5t-10.5 -12.5t-10 -9q-7 -8 -16.5 -23.5t-18.5 -23.5q-9 -23 -20 -27q-27 -60 -60 -84q-5 -18 -25.5 -45t-23.5 -33q-2 -3 -36.5 -49t-55.5 -78.5t-20 -44.5 q-2 -3 -10.5 -12.5t-13 -17.5t-5.5 -17q5 -6 12.5 -8.5t13.5 -2.5t18.5 0.5t18.5 0.5q8 0 34.5 -0.5t46 -0.5t43.5 1t40 3t23 5q12 7 26 66q9 42 11 57q3 13 12 43t12 47q13 33 23 74q9 48 26 98q5 5 7 6q4 37 16 56q-2 2 2 6l14 43q17 39 19 51l8 18q1 4 9 14t7 23 q-5 3 -10.5 1.5t-5.5 -5.5zM995 1223q-8 -17 -22 -62.5t-27 -64.5q-5 -30 -18 -60t-33.5 -65.5t-28.5 -52.5q-1 -30 -25 -77t-26 -75q-6 -23 -20.5 -73t-20.5 -77q-26 -112 -45 -147q2 -7 0.5 -20t-0.5 -21q2 -10 19 -14q3 -1 14 -5t14.5 -6l10.5 -6t11 -9.5t7 -12.5 q-17 -33 -33 -35h-20q-9 -1 -23 -6t-22 -6q-13 -11 -17 -41l-12 -43q-5 -13 -13.5 -43.5t-13.5 -44.5q-3 -29 -19.5 -68t-19.5 -61q-1 -4 -7 -19.5t-7 -23.5q-12 -61 -29 -111l-8 -23q-44 -136 -51 -169q-1 -7 -6 -19t-6 -18q-6 -12 -6 -23q-17 -40 -11 -57 q-9 -48 -35 -85.5t-51 -37.5q-31 9 -41 27.5t-5.5 37.5t10 48t1.5 49q5 12 13 65q34 183 45 228q6 25 19.5 71t19.5 70l30 125q11 28 27 88q1 9 4 23.5t5 27t3 23.5q-8 6 -17 6t-20 -3t-16 -3q-29 -6 -86.5 -15t-85.5 -16q-12 -1 -46 -10t-54 -9q-8 -5 -25 -30 q-2 -2 -10.5 -11.5t-11.5 -15.5q-1 0 -1 -1.5v-3.5t-1 -3q-4 -6 -21 -23q-6 -6 -6 -16q-1 -1 -6 -7.5t-7.5 -9.5t-7.5 -7.5t-10 -6.5q-4 -12 -10.5 -23t-16 -23.5t-14.5 -20.5q-8 -12 -26.5 -33.5t-22.5 -26.5q-17 -24 -51.5 -64t-44.5 -52q-12 -5 -31 -21.5t-37 -19.5 q-2 0 -11.5 -1.5t-14.5 -0.5q-10 3 -32 39.5t-20 44.5q-1 17 13.5 24.5t36.5 9.5q11 28 56 79t75 75q16 21 22 25q8 23 34.5 55.5t35.5 52.5q2 2 7.5 6.5t8.5 8t6 8.5t2 10q0 4 -3.5 7.5t-9.5 6t-11 4.5t-12 3.5t-9 2.5q-14 10 -23.5 7t-33 -11.5t-39.5 -9.5q-16 0 -30 -1.5 t-22 8t-5 32.5q2 20 14 28t42.5 12.5t99.5 10.5q22 1 35.5 2.5t37 3.5t45.5 4q8 1 17.5 12t17.5 13q31 57 83.5 133t90.5 117q42 35 94.5 130.5t77.5 123.5q44 41 58.5 55.5t34 42.5t36.5 68q17 16 68 71q13 16 43.5 46t51 54.5t28.5 47.5l4 8t4.5 7.5t4 6.5t4.5 6.5t5 5.5 t6 6t6.5 4.5t8.5 4.5l10 4q20 5 52 3t52 -7q3 -1 9.5 -7t11.5 -9q2 -2 7 -4.5t7 -4.5q8 -17 2 -32q-1 -4 -5.5 -13.5t-4.5 -15.5q-3 -6 -7 -18t-8.5 -21.5t-9.5 -15.5zM1092 1610l41 37l4 4l34 57q32 48 27 64q-3 14 -35 14q-2 -1 -6 -2t-7 -2t-3 -2q-6 -3 -15 -15.5 t-14 -15.5q-9 -8 -32 -16.5t-33 -14.5h-2l-9 -6q-24 -24 -38 -45q-35 -35 -35 -59q-3 -22 22 -47q10 0 19 0.5t17.5 4t14 6t14 8.5t12 8.5t13 11t11.5 10.5zM1083 1835q7 1 27 16q10 26 16 29q6 5 16.5 5.5t18 -0.5t20 -4.5t15.5 -4.5q24 -14 74 -31q12 -2 28 -33 q21 -24 19 -47q0 -6 -4.5 -19.5t-5.5 -19.5q-5 -14 -9 -40q-14 -28 -32 -46q-11 -31 -39 -59q-4 -2 -6 -6l-2 -4q-1 -2 -25 -21q-4 -12 -10 -16q-16 -16 -39 -32.5t-29 -22.5q-5 -2 -17 -2t-18 -2q-6 -1 -19 -7.5t-24 -7.5q-48 -3 -84 37l-6 6q0 1 -3 2q-1 1 -1.5 1t-1.5 1 q-16 20 -24 59t-13 44q-4 44 10 92q14 34 56 90q21 36 22 37q21 25 27 26q20 5 37.5 -7t25.5 -13z" />
<glyph unicode="&#xc6;" horiz-adv-x="1359" d="M1081 1036h-2q-1 -3 -12 -10q-10 -10 -10 -14q-18 -17 -72 -80q-7 -6 -16 -17.5t-13 -15.5l-7 -7t-7 -9l-45 -49q-70 -79 -86 -99q-8 -16 -29 -37q-4 -5 -53 -67q-9 -13 -28.5 -34t-26.5 -32q-5 -5 -18 -21.5t-23 -27t-21 -18.5q-7 -14 -30 -41q-2 -4 -9.5 -13.5 t-11.5 -17t-2 -14.5q16 -2 19 -3t23 3.5t24 5.5q9 2 33 7.5t34 8.5l66 19q26 5 75 11t74 11q6 9 13 31.5t10 30.5q5 12 22 47q1 2 2.5 13.5t3.5 18.5q1 6 4.5 15t4.5 12q21 57 26 88l60 166l26 90q0 3 2.5 9.5t4.5 12.5t3.5 12t-0.5 10t-8 5zM1274 1071q-6 -9 -14 -38 t-16 -65.5t-9 -39.5q-2 -10 -10 -21q-2 -9 -14.5 -33t-12.5 -30q-11 -20 -23.5 -51.5t-25.5 -69t-19 -51.5q-6 -20 -21.5 -58t-18.5 -47q-16 -31 -17 -43q5 -10 27 -6q25 0 73 19t64 22q41 12 149 16q9 -13 15 -38q-1 -15 -4 -20.5t-15.5 -9t-19.5 -7.5q-17 -12 -41 -21 q-12 -8 -18 -10q-5 -4 -23 -8q-8 -4 -10 -4q-45 -21 -92 -29q-17 -4 -53.5 -20t-57.5 -19q-5 -3 -23.5 -9t-23.5 -9q-4 -4 -12 -22.5t-16.5 -44t-10.5 -30.5l-25 -55q-1 -4 -5.5 -31t-9.5 -44t-13 -25q-2 -6 -19 -53.5t-20 -53.5l-39 -92q-4 -8 -16 -24q-4 -19 -15 -27 q-2 -5 -13 -21.5t-13 -29.5q3 -6 8 -6.5t13.5 3t10.5 3.5q26 0 64 10q7 2 28.5 9t34.5 9q22 8 56 15q25 7 51 10q13 1 40.5 -0.5t35.5 -1.5q25 0 34 -6q1 -1 6.5 -5t7.5 -6l6 -6t5.5 -7.5t1.5 -6.5l-14 -14q-18 -7 -31 -17q-23 -21 -57 -28q-99 -52 -195 -78 q-57 -14 -145 -14q-7 -1 -16 -14t-17 -13q-11 0 -25 14q-41 41 -49 80q0 8 -2 12q0 6 -4.5 23.5t-5.5 21.5q0 57 8 76q2 5 6 9.5t9.5 8t7.5 5.5q42 59 65 143q1 2 19 37q17 50 26 63q1 4 17 31l28 68q16 26 23 49q2 5 4 15.5t2 11.5q10 10 8 22q-3 6 -8 7.5t-9.5 1t-12 -2.5 t-9.5 -2q-24 -9 -65.5 -16t-53.5 -10q-74 -18 -96 -21l-26 -6q-8 -1 -38.5 -0.5t-35.5 -5.5l-26 3q-27 3 -29 -5q0 -3 -5 -13t-19 -27.5t-17 -27.5q-2 -3 -21 -26t-27 -35q-7 -7 -10 -13q-2 -3 -4 -8.5t-4 -7.5q-22 -37 -45.5 -70.5t-53 -72t-46.5 -62.5q-15 -23 -19 -24 q-24 -40 -45 -54q-1 -1 -7 -6.5t-9 -5.5q-13 -3 -23 0.5t-16.5 13.5t-10.5 17.5t-8.5 21.5t-5.5 17q-1 5 -5 21t-6 26t-2 23.5t6.5 22t19.5 11.5q42 82 79 119q1 1 4.5 5t4.5 7q15 7 34 38t23 36q45 45 57 68q2 3 6.5 11t8.5 11q1 5 16 25q10 11 30.5 30t26.5 25l31 41 q19 24 53.5 73t65 88t63.5 72q2 2 6 5.5t6.5 6t4.5 5.5q3 5 8.5 15t7.5 13l12 15l9 6q1 1 2.5 5t3.5 5q17 34 72.5 96t62.5 72q2 3 25.5 17.5t23.5 27.5q20 33 47 60l4 6q5 7 6 12q14 8 33.5 31t30.5 30q20 33 35 39q5 6 12.5 17.5t14.5 20t14 14.5l10 12q16 12 41 40.5 t41 41.5q2 0 4 2q2 4 4 6q15 15 43 35q18 9 57 -4q8 -3 21.5 -14t19.5 -15q0 -2 9 -6q2 -2 10.5 -10t11.5 -9q4 0 39 13q9 2 80 12q4 1 17 3.5t20 2.5q29 4 92 0q8 0 29 -1t34 -2t25 -5q3 -2 9 -5t9.5 -5t5.5 -6q12 -7 25 -27q14 -55 -16 -72q0 -3 -9 -1l-8 1l-5 -1 q-5 -2 -7 -1q0 2 -2 2q-16 -2 -35 -10l-35 -6q-132 -15 -207 -47q-6 -2 -17 -8.5t-17 -8.5q-34 -11 -35 -12z" />
<glyph unicode="&#xc7;" horiz-adv-x="520" d="M-152 -729q-26 63 -26 111v36q0 46 4 62q0 11 8 26t14 21q8 4 11 4t10 -2.5t10 -3.5q2 -2 2 -17q0 -16 4 -20q0 -13 10.5 -53t18.5 -45q18 -13 41 -13q12 0 30.5 5t22.5 6q36 7 51 18h2q9 5 11 14v2q0 11 -12.5 39t-22.5 35l-23 17q-6 4 -12 4q-25 28 -25 82q0 39 15 73 q-5 3 -17.5 13t-21.5 16q-10 7 -29 41q-2 8 -4 8q-33 36 -37 88q-10 30 -10 47q-4 23 -4 68q0 48 6 92q6 28 10 72q40 201 90 303q5 7 12 20.5t9 16.5q8 12 28.5 66.5t26.5 66.5q10 18 19 26q8 23 36 70t35 74q0 1 11 12q24 49 47 84q10 9 22.5 29.5t22.5 29.5q3 3 5.5 9 t4 10t4.5 4q4 8 16.5 20.5l14.5 14.5q9 9 22 33t23 34q8 11 28 39t31 42.5t29 35.5t35 37q5 4 10 10.5t6 7.5q10 5 14 9q0 1 3.5 12t7.5 16q14 20 30 25q12 4 21 4q3 0 39 -6h4q16 -4 26 -4q30 -9 101 -13.5t106 -25.5l8 -8t9 -7q15 -9 28 -40q2 -4 2 -11v-20q0 -4 4.5 -11 t4.5 -10v-2q2 -4 2 -14q0 -21 -6 -39q-1 -6 -11 -25q-1 -31 -30 -79.5t-31 -77.5q-2 -15 -16 -38.5t-17 -35.5q-29 -29 -35 -53q-4 -8 -8 -10q-5 -11 -15.5 -23t-18 -18.5t-24.5 -19.5t-20 -15q-19 -22 -49 -27h-10q-20 0 -30.5 11.5t-10.5 29.5t12 33q15 20 21 24 q3 5 14.5 19t13.5 18q8 10 13.5 31t11.5 27q8 17 28 55t32.5 67.5t17.5 57.5q6 24 6 63q-21 31 -62 31h-8q-3 0 -9.5 -1t-8.5 -1q-17 -3 -36 -17t-22 -26q-16 -7 -32.5 -30t-18.5 -25q-53 -46 -80 -82q-6 -7 -20.5 -31t-24.5 -33q-4 -8 -14 -18q-6 -11 -18.5 -29.5 t-16.5 -27.5q-7 -17 -17.5 -34.5t-25.5 -39t-22 -33.5q-28 -25 -64 -85t-43 -95q-2 -2 -2 -4v-4l-10 -17q-4 -4 -19 -41q-13 -43 -49 -102q-14 -44 -22 -57q-1 -8 -8.5 -22.5t-8.5 -16.5q0 -13 -2 -17q-15 -35 -18 -55q-8 -10 -12 -27q-2 -2 -2 -4v-4l-11 -18v-29 q-8 -16 -8 -37q-8 -24 -8 -37v-4q-4 -36 -4 -55v-88l6 -41q0 -10 9 -23.5t20 -21.5q0 -2 4 -2h4q6 -6 12 -6q15 0 39 8q4 1 13 2.5t15.5 3.5t10.5 6q14 3 27 16l32 17q32 20 113 82l12 8q3 3 9.5 9t12 10t9.5 6t4 4q3 2 29.5 25t44.5 30q1 2 4 4l4 2q2 0 10 8q12 8 23 19 q6 4 16 12.5t17 13.5l4 4l2 2q9 4 10 7q6 4 15 13.5t15.5 14.5t10.5 4q18 -2 18 -57q-5 -12 -13 -24t-14 -19.5t-16.5 -20t-15.5 -18.5q-4 -6 -14 -20.5t-17 -22.5q-20 -28 -71.5 -67t-69.5 -62q-23 -9 -43 -29q-8 -4 -10 -4q-3 -4 -8 -8t-7 -8q-49 -27 -71 -33 q-31 -19 -35 -20l-17 -6l-45 -17l-36 -22q-45 -30 -31 -50q35 -28 57.5 -59t48.5 -78q13 -39 13 -59q2 -19 -5.5 -37.5t-14 -27t-27 -27t-23.5 -21.5q-4 -3 -13.5 -7t-13.5 -7q-54 -20 -92 -27q-14 0 -20 -2q-72 -11 -97 29z" />
<glyph unicode="&#xc8;" horiz-adv-x="763" d="M979 1094q0 -11 -8 -39q-2 0 -17 -8q-54 -14 -179 -36t-187 -42q-33 -11 -84 -23q-1 -1 -4.5 -3.5t-5.5 -2.5q-27 -4 -29 -10q-11 -9 -25 -41q-3 -4 -5.5 -12t-4.5 -11t-5.5 -9t-4.5 -9q-21 -23 -37.5 -75t-32.5 -71q1 -6 -3 -15.5t-11 -21.5t-8 -14q-2 -2 -39 -80 q0 -1 -4.5 -11t-3.5 -15q2 -5 6.5 -6.5t12 0t14.5 3.5l17.5 5t16.5 4q114 18 172 22q55 0 78 -4q43 -3 61 -16q11 -7 14 -9t7.5 -12t1.5 -22q1 -4 -3 -13t-9 -12q-69 -24 -84 -34q-10 -4 -49.5 -15.5t-57.5 -23.5q-46 -20 -112 -52q-28 -13 -103 -28q-43 -4 -61 8q-3 1 -8 6 t-11 4q-3 -1 -5 -4t-3.5 -8t-2.5 -9t-2.5 -10.5t-2.5 -9.5q-25 -25 -39 -78q-3 -11 -20 -63q-16 -83 -27 -123q-9 -58 -4 -90q0 -1 6 -33h4q11 -14 29 -20q15 -7 25.5 -8t31.5 4q13 0 29 4q28 6 51 16q20 8 53 20t45 17q14 8 49 29t59 33.5t48 21.5q7 6 24.5 13.5t22.5 10.5 l14 7q4 1 16.5 6.5t20.5 7.5t18.5 0.5t16.5 -10.5q2 -11 1 -16t-4.5 -12l-4.5 -9l-8 -14q-8 -16 -22.5 -30t-35 -30.5t-28.5 -23.5q-26 -23 -57.5 -46.5t-73 -52.5t-58.5 -41q-15 -6 -42.5 -22t-51.5 -25.5t-47 -9.5q-28 0 -76 19.5t-53 21.5q-5 9 -23 24q-3 14 -22 37 t-21 29q-4 19 -10 29q-4 8 -14 43q-33 130 10 291q2 8 5 17t7 19.5t6 16.5t6 25t9 28q7 41 56.5 162.5t76.5 148.5q4 17 12 35.5t19 41t16 34.5l13 18q12 19 17 27.5t14 24.5t12.5 28.5t2.5 22.5q1 1 1.5 7.5t2.5 8.5q2 4 7 10.5t8 12.5t2 12q-9 11 -23 14.5t-29 2.5t-34 1 q-57 5 -110 27t-64 55q-20 46 -33 107q-1 5 -3.5 12.5l-4 12t-2.5 9.5t0 8t4 4.5t9.5 0.5t16.5 -4q4 -1 9 -4t10.5 -8t7.5 -7q12 -13 27.5 -22t36.5 -13.5t32.5 -6.5t38 -3.5t31.5 -1.5q27 0 73 -5.5t64 -2.5q15 0 41.5 2t38.5 2q10 1 31 5t31 5q14 1 48 2.5t61 4t42 6.5 q5 0 13.5 2.5t11.5 3.5q17 3 59 1.5t59 4.5q17 -5 54 -5t51 -3q8 -3 32.5 -10.5t37.5 -15.5t18 -23zM625 1251q-4 0 -9 -5t-8 -5q-16 -4 -25.5 3.5t-17 23t-12.5 20.5q-17 20 -34 47t-26.5 46.5t-27 57.5t-25.5 54l-5 4q-5 4 -6.5 5.5l-5.5 5.5t-4.5 7t-2 8t-1 10t2.5 11 q3 2 5 1t7 -4t8 -3q2 1 8.5 6t12 7.5t12.5 2.5q49 43 109 43q50 0 38 -75q3 -18 11.5 -50.5t14 -59t5.5 -50.5q-2 -10 1.5 -38t-1 -47.5t-24.5 -25.5z" />
<glyph unicode="&#xc9;" horiz-adv-x="763" d="M979 1094q0 -11 -8 -39q-2 0 -17 -8q-54 -14 -179 -36t-187 -42q-33 -11 -84 -23q-1 -1 -4.5 -3.5t-5.5 -2.5q-27 -4 -29 -10q-11 -9 -25 -41q-3 -4 -5.5 -12t-4.5 -11t-5.5 -9t-4.5 -9q-21 -23 -37.5 -75t-32.5 -71q1 -6 -3 -15.5t-11 -21.5t-8 -14q-2 -2 -39 -80 q0 -1 -4.5 -11t-3.5 -15q2 -5 6.5 -6.5t12 0t14.5 3.5l17.5 5t16.5 4q114 18 172 22q55 0 78 -4q43 -3 61 -16q11 -7 14 -9t7.5 -12t1.5 -22q1 -4 -3 -13t-9 -12q-69 -24 -84 -34q-10 -4 -49.5 -15.5t-57.5 -23.5q-46 -20 -112 -52q-28 -13 -103 -28q-43 -4 -61 8q-3 1 -8 6 t-11 4q-3 -1 -5 -4t-3.5 -8t-2.5 -9t-2.5 -10.5t-2.5 -9.5q-25 -25 -39 -78q-3 -11 -20 -63q-16 -83 -27 -123q-9 -58 -4 -90q0 -1 6 -33h4q11 -14 29 -20q15 -7 25.5 -8t31.5 4q13 0 29 4q28 6 51 16q20 8 53 20t45 17q14 8 49 29t59 33.5t48 21.5q7 6 24.5 13.5t22.5 10.5 l14 7q4 1 16.5 6.5t20.5 7.5t18.5 0.5t16.5 -10.5q2 -11 1 -16t-4.5 -12l-4.5 -9l-8 -14q-8 -16 -22.5 -30t-35 -30.5t-28.5 -23.5q-26 -23 -57.5 -46.5t-73 -52.5t-58.5 -41q-15 -6 -42.5 -22t-51.5 -25.5t-47 -9.5q-28 0 -76 19.5t-53 21.5q-5 9 -23 24q-3 14 -22 37 t-21 29q-4 19 -10 29q-4 8 -14 43q-33 130 10 291q2 8 5 17t7 19.5t6 16.5t6 25t9 28q7 41 56.5 162.5t76.5 148.5q4 17 12 35.5t19 41t16 34.5l13 18q12 19 17 27.5t14 24.5t12.5 28.5t2.5 22.5q1 1 1.5 7.5t2.5 8.5q2 4 7 10.5t8 12.5t2 12q-9 11 -23 14.5t-29 2.5t-34 1 q-57 5 -110 27t-64 55q-20 46 -33 107q-1 5 -3.5 12.5l-4 12t-2.5 9.5t0 8t4 4.5t9.5 0.5t16.5 -4q4 -1 9 -4t10.5 -8t7.5 -7q12 -13 27.5 -22t36.5 -13.5t32.5 -6.5t38 -3.5t31.5 -1.5q27 0 73 -5.5t64 -2.5q15 0 41.5 2t38.5 2q10 1 31 5t31 5q14 1 48 2.5t61 4t42 6.5 q5 0 13.5 2.5t11.5 3.5q17 3 59 1.5t59 4.5q17 -5 54 -5t51 -3q8 -3 32.5 -10.5t37.5 -15.5t18 -23zM438 1280q2 8 4 14.5t6 13t6.5 10.5t8 10.5t7.5 8.5l8.5 8.5l8.5 8.5q89 55 134 100l27 22.5t32 27t28 21t29 17.5q10 8 55.5 37t67.5 53q0 4 6 10q0 3 2 5t2 4 q7 0 10 -4.5t5 -12.5t6 -12q0 -14 24 -47.5t23 -58.5l-4 -25q-10 -24 -53 -51q-2 -2 -9 -4t-10 -4q-5 0 -21.5 -8t-35.5 -19t-21 -12t-28.5 -9t-38.5 -14q-5 -1 -16 -7t-15 -7q-32 0 -74 -24t-53 -27q-13 -16 -37 -23q-4 -2 -18 -11t-25 -14.5t-18 -3.5q-17 7 -23 27z" />
<glyph unicode="&#xca;" horiz-adv-x="763" d="M979 1094q0 -11 -8 -39q-2 0 -17 -8q-54 -14 -179 -36t-187 -42q-33 -11 -84 -23q-1 -1 -4.5 -3.5t-5.5 -2.5q-27 -4 -29 -10q-11 -9 -25 -41q-3 -4 -5.5 -12t-4.5 -11t-5.5 -9t-4.5 -9q-21 -23 -37.5 -75t-32.5 -71q1 -6 -3 -15.5t-11 -21.5t-8 -14q-2 -2 -39 -80 q0 -1 -4.5 -11t-3.5 -15q2 -5 6.5 -6.5t12 0t14.5 3.5l17.5 5t16.5 4q114 18 172 22q55 0 78 -4q43 -3 61 -16q11 -7 14 -9t7.5 -12t1.5 -22q1 -4 -3 -13t-9 -12q-69 -24 -84 -34q-10 -4 -49.5 -15.5t-57.5 -23.5q-46 -20 -112 -52q-28 -13 -103 -28q-43 -4 -61 8q-3 1 -8 6 t-11 4q-3 -1 -5 -4t-3.5 -8t-2.5 -9t-2.5 -10.5t-2.5 -9.5q-25 -25 -39 -78q-3 -11 -20 -63q-16 -83 -27 -123q-9 -58 -4 -90q0 -1 6 -33h4q11 -14 29 -20q15 -7 25.5 -8t31.5 4q13 0 29 4q28 6 51 16q20 8 53 20t45 17q14 8 49 29t59 33.5t48 21.5q7 6 24.5 13.5t22.5 10.5 l14 7q4 1 16.5 6.5t20.5 7.5t18.5 0.5t16.5 -10.5q2 -11 1 -16t-4.5 -12l-4.5 -9l-8 -14q-8 -16 -22.5 -30t-35 -30.5t-28.5 -23.5q-26 -23 -57.5 -46.5t-73 -52.5t-58.5 -41q-15 -6 -42.5 -22t-51.5 -25.5t-47 -9.5q-28 0 -76 19.5t-53 21.5q-5 9 -23 24q-3 14 -22 37 t-21 29q-4 19 -10 29q-4 8 -14 43q-33 130 10 291q2 8 5 17t7 19.5t6 16.5t6 25t9 28q7 41 56.5 162.5t76.5 148.5q4 17 12 35.5t19 41t16 34.5l13 18q12 19 17 27.5t14 24.5t12.5 28.5t2.5 22.5q1 1 1.5 7.5t2.5 8.5q2 4 7 10.5t8 12.5t2 12q-9 11 -23 14.5t-29 2.5t-34 1 q-57 5 -110 27t-64 55q-20 46 -33 107q-1 5 -3.5 12.5l-4 12t-2.5 9.5t0 8t4 4.5t9.5 0.5t16.5 -4q4 -1 9 -4t10.5 -8t7.5 -7q12 -13 27.5 -22t36.5 -13.5t32.5 -6.5t38 -3.5t31.5 -1.5q27 0 73 -5.5t64 -2.5q15 0 41.5 2t38.5 2q10 1 31 5t31 5q14 1 48 2.5t61 4t42 6.5 q5 0 13.5 2.5t11.5 3.5q17 3 59 1.5t59 4.5q17 -5 54 -5t51 -3q8 -3 32.5 -10.5t37.5 -15.5t18 -23zM713 1509q-7 3 -13 0q-2 -1 -6 -5t-6 -5t-14 -10q-295 -204 -297 -78q-16 32 -6 64q11 2 24 -11q2 -2 4 -6.5t5 -6.5t8 -3q19 -4 56 21t85.5 67t54.5 47q40 25 97 86 q5 6 12.5 14.5t11 12.5t10 8.5t14.5 6.5t19 3q33 5 73 -9.5t50 -39.5q-1 -38 -18.5 -114t-20.5 -115q-1 -23 -0.5 -47t-1.5 -51.5t-8 -43.5q0 -12 -9 -25t-18 -16q-38 -16 -67 31q-24 36 -31.5 73.5t-2.5 62t5 50.5t-10 39z" />
<glyph unicode="&#xcb;" horiz-adv-x="763" d="M979 1094q0 -11 -8 -39q-2 0 -17 -8q-54 -14 -179 -36t-187 -42q-33 -11 -84 -23q-1 -1 -4.5 -3.5t-5.5 -2.5q-27 -4 -29 -10q-11 -9 -25 -41q-3 -4 -5.5 -12t-4.5 -11t-5.5 -9t-4.5 -9q-21 -23 -37.5 -75t-32.5 -71q1 -6 -3 -15.5t-11 -21.5t-8 -14q-2 -2 -39 -80 q0 -1 -4.5 -11t-3.5 -15q2 -5 6.5 -6.5t12 0t14.5 3.5l17.5 5t16.5 4q114 18 172 22q55 0 78 -4q43 -3 61 -16q11 -7 14 -9t7.5 -12t1.5 -22q1 -4 -3 -13t-9 -12q-69 -24 -84 -34q-10 -4 -49.5 -15.5t-57.5 -23.5q-46 -20 -112 -52q-28 -13 -103 -28q-43 -4 -61 8q-3 1 -8 6 t-11 4q-3 -1 -5 -4t-3.5 -8t-2.5 -9t-2.5 -10.5t-2.5 -9.5q-25 -25 -39 -78q-3 -11 -20 -63q-16 -83 -27 -123q-9 -58 -4 -90q0 -1 6 -33h4q11 -14 29 -20q15 -7 25.5 -8t31.5 4q13 0 29 4q28 6 51 16q20 8 53 20t45 17q14 8 49 29t59 33.5t48 21.5q7 6 24.5 13.5t22.5 10.5 l14 7q4 1 16.5 6.5t20.5 7.5t18.5 0.5t16.5 -10.5q2 -11 1 -16t-4.5 -12l-4.5 -9l-8 -14q-8 -16 -22.5 -30t-35 -30.5t-28.5 -23.5q-26 -23 -57.5 -46.5t-73 -52.5t-58.5 -41q-15 -6 -42.5 -22t-51.5 -25.5t-47 -9.5q-28 0 -76 19.5t-53 21.5q-5 9 -23 24q-3 14 -22 37 t-21 29q-4 19 -10 29q-4 8 -14 43q-33 130 10 291q2 8 5 17t7 19.5t6 16.5t6 25t9 28q7 41 56.5 162.5t76.5 148.5q4 17 12 35.5t19 41t16 34.5l13 18q12 19 17 27.5t14 24.5t12.5 28.5t2.5 22.5q1 1 1.5 7.5t2.5 8.5q2 4 7 10.5t8 12.5t2 12q-9 11 -23 14.5t-29 2.5t-34 1 q-57 5 -110 27t-64 55q-20 46 -33 107q-1 5 -3.5 12.5l-4 12t-2.5 9.5t0 8t4 4.5t9.5 0.5t16.5 -4q4 -1 9 -4t10.5 -8t7.5 -7q12 -13 27.5 -22t36.5 -13.5t32.5 -6.5t38 -3.5t31.5 -1.5q27 0 73 -5.5t64 -2.5q15 0 41.5 2t38.5 2q10 1 31 5t31 5q14 1 48 2.5t61 4t42 6.5 q5 0 13.5 2.5t11.5 3.5q17 3 59 1.5t59 4.5q17 -5 54 -5t51 -3q8 -3 32.5 -10.5t37.5 -15.5t18 -23zM426 1575q19 4 39 -2q7 -3 31 -19q34 -19 36 -38q1 -12 -3.5 -24t-12 -24.5t-8.5 -15.5q-6 -9 -16.5 -26t-14.5 -23q-1 -2 -2.5 -3.5t-1.5 -2.5l-29 -45q-9 -13 -13.5 -18 t-12.5 -13t-14.5 -10.5t-15.5 -2.5t-19 5q-11 5 -18 11.5t-10 12t-11 21.5q-13 26 -11 35q-2 15 3.5 35t15.5 44t12 31q24 48 29 53l6 5q13 10 41 14zM692 1542q30 9 94 -33q5 -2 11 -7.5t8 -6.5q45 -28 45 -51q0 -13 -10 -33l-11 -20q-18 -33 -30.5 -51.5t-33 -43t-44 -36 t-51.5 -11.5q-7 1 -27.5 -0.5t-24.5 0.5q-3 1 -11.5 9t-10.5 10q-18 80 37 162l24 40q1 1 5 6t4 7q2 6 6 27.5t16 29.5z" />
<glyph unicode="&#xcc;" horiz-adv-x="475" d="M668 1012q-6 4 -12 4t-10 -1.5t-11 -5.5t-10 -5q-11 -1 -34.5 -3.5t-31.5 -4t-22.5 -5.5t-23.5 -10.5t-19 -17.5q-10 -36 -41 -105t-39 -94q-9 -13 -19 -37q-100 -149 -170 -395q-16 -31 -33 -90.5t-26 -81.5q-3 -15 -13.5 -42t-13.5 -40q-5 -5 -8 -17q-11 -22 -31 -106 q-8 -17 -10 -23q-1 -9 -2.5 -12.5t2.5 -12.5l6 -13.5t8 -14t9 -14.5q21 -2 69 1.5t77.5 -3t53.5 -31.5q3 -4 11 -12.5t10.5 -11.5t6 -9.5t2.5 -10.5t-5 -9.5t-12 -11.5l-27 -13q-39 -8 -119 -8q-38 4 -117 -10q-8 -3 -25.5 -6.5t-28.5 -9t-17 -15.5q-11 -11 -119 -37 q-4 -1 -10 -1t-10 -1q-14 -3 -54.5 -19t-76 -30t-39.5 -14q-6 1 -18.5 11t-14.5 11q-8 11 -12 60q-7 14 -3 22q3 13 14.5 21.5t30.5 16t25 11.5q24 23 69.5 32.5t67.5 25.5q8 3 22 14.5t15 17.5q7 13 10 27q2 12 11 29q8 47 58.5 142t59.5 120q3 10 14 34.5t13 43.5 q9 8 15 23.5t12 40t10 34.5q13 27 20 49l7 19q30 69 71 170q46 122 60 147q4 5 9 15.5t9 15.5q19 34 68 178q5 20 4 24q-10 7 -29 7q-12 0 -35.5 -5t-40.5 -2q-12 2 -39 11q-11 5 -31.5 9t-34.5 9.5t-20 16.5q-3 10 -14 24q0 13 -1 19.5t-3.5 15t-3.5 18.5q19 27 61 32 t87 -3t103.5 -7.5t100.5 19.5q42 13 109 25t100 12q60 8 90 -8q12 -6 29 -23q27 -18 35 -34.5t8 -49.5q-10 -25 -35.5 -31t-97.5 -1zM616 1260q-4 0 -8.5 -5.5t-7.5 -5.5q-16 -4 -25.5 3.5t-17 23t-12.5 20.5q-17 20 -34 47t-26.5 46.5t-27 57.5t-25.5 54l-5 4 q-5 4 -6.5 5.5l-5.5 5.5t-4.5 7t-2 8t-1 10t2.5 11q3 2 5 1t7 -4t8 -3q3 2 9 7t11.5 7.5t12.5 2.5q49 43 108 43q51 0 39 -76q3 -18 11.5 -50.5t14 -59t5.5 -50.5q-2 -10 1 -38t-1.5 -47t-24.5 -25z" />
<glyph unicode="&#xcd;" horiz-adv-x="475" d="M668 1012q-6 4 -12 4t-10 -1.5t-11 -5.5t-10 -5q-11 -1 -34.5 -3.5t-31.5 -4t-22.5 -5.5t-23.5 -10.5t-19 -17.5q-10 -36 -41 -105t-39 -94q-9 -13 -19 -37q-100 -149 -170 -395q-16 -31 -33 -90.5t-26 -81.5q-3 -15 -13.5 -42t-13.5 -40q-5 -5 -8 -17q-11 -22 -31 -106 q-8 -17 -10 -23q-1 -9 -2.5 -12.5t2.5 -12.5l6 -13.5t8 -14t9 -14.5q21 -2 69 1.5t77.5 -3t53.5 -31.5q3 -4 11 -12.5t10.5 -11.5t6 -9.5t2.5 -10.5t-5 -9.5t-12 -11.5l-27 -13q-39 -8 -119 -8q-38 4 -117 -10q-8 -3 -25.5 -6.5t-28.5 -9t-17 -15.5q-11 -11 -119 -37 q-4 -1 -10 -1t-10 -1q-14 -3 -54.5 -19t-76 -30t-39.5 -14q-6 1 -18.5 11t-14.5 11q-8 11 -12 60q-7 14 -3 22q3 13 14.5 21.5t30.5 16t25 11.5q24 23 69.5 32.5t67.5 25.5q8 3 22 14.5t15 17.5q7 13 10 27q2 12 11 29q8 47 58.5 142t59.5 120q3 10 14 34.5t13 43.5 q9 8 15 23.5t12 40t10 34.5q13 27 20 49l7 19q30 69 71 170q46 122 60 147q4 5 9 15.5t9 15.5q19 34 68 178q5 20 4 24q-10 7 -29 7q-12 0 -35.5 -5t-40.5 -2q-12 2 -39 11q-11 5 -31.5 9t-34.5 9.5t-20 16.5q-3 10 -14 24q0 13 -1 19.5t-3.5 15t-3.5 18.5q19 27 61 32 t87 -3t103.5 -7.5t100.5 19.5q42 13 109 25t100 12q60 8 90 -8q12 -6 29 -23q27 -18 35 -34.5t8 -49.5q-10 -25 -35.5 -31t-97.5 -1zM287 1274q2 8 4 14.5t6 13t6.5 10.5t8 10.5t7.5 8.5l8.5 8.5l8.5 8.5q86 53 133 100q4 3 26.5 22.5t33 27.5t28 20t29.5 18q10 8 55.5 37 t67.5 53q0 4 6 10q0 3 2 5t2 4q6 0 8.5 -3t3.5 -7t3 -9.5t5 -9.5q0 -14 24 -48t23 -59l-4 -24q-10 -24 -53 -51l-18 -9q-5 0 -21.5 -8t-35.5 -19t-21 -12q-6 -2 -31 -9t-37 -13q-5 -1 -15.5 -7t-14.5 -7q-32 0 -73.5 -24.5t-53.5 -27.5q-12 -15 -37 -22q-4 -2 -18 -11.5 t-25.5 -14.5t-18.5 -3q-16 6 -22 27z" />
</font>
</defs>
</svg>
