<?xml version="1.0" standalone="no"?>
<!DOCTYPE svg PUBLIC "-//W3C//DTD SVG 1.1//EN" "http://www.w3.org/Graphics/SVG/1.1/DTD/svg11.dtd" >
<svg xmlns="http://www.w3.org/2000/svg">
<metadata>
This is a custom SVG font generated by IcoMoon.
<iconset grid="16"></iconset>
</metadata>
<defs>
<font id="icomoon" horiz-adv-x="512" >
<font-face units-per-em="512" ascent="480" descent="-32" />
<missing-glyph horiz-adv-x="512" />
<glyph unicode="&#x271a;" d="M 256.00,416.00C 149.968,416.00, 64.00,330.032, 64.00,224.00s 85.968-192.00, 192.00-192.00s 192.00,85.968, 192.00,192.00S 362.032,416.00, 256.00,416.00z M 352.00,200.00l-72.00,0.00 l0.00-72.00 l-48.00,0.00 l0.00,72.00 L 160.00,200.00 l0.00,48.00 l 72.00,0.00 
		L 232.00,320.00 l 48.00,0.00 l0.00-72.00 l 72.00,0.00 L 352.00,200.00 z"  />
<glyph unicode="&#x25bc;" d="M 256.00,416.00C 149.961,416.00, 64.00,330.039, 64.00,224.00s 85.961-192.00, 192.00-192.00s 192.00,85.961, 192.00,192.00S 362.039,416.00, 256.00,416.00z M 159.25,272.00l 193.50,0.00 L 256.75,128.00L 159.25,272.00z
	"  />
<glyph unicode="&#x25b6;" d="M 256.00,416.00C 149.961,416.00, 64.00,330.039, 64.00,224.00s 85.961-192.00, 192.00-192.00s 192.00,85.961, 192.00,192.00S 362.039,416.00, 256.00,416.00z M 352.00,223.625l-144.00-96.00l0.00,193.50 
	L 352.00,223.625z"  />
<glyph unicode="&#x25c4;" d="M 256.00,416.00C 149.961,416.00, 64.00,330.039, 64.00,224.00s 85.961-192.00, 192.00-192.00s 192.00,85.961, 192.00,192.00S 362.039,416.00, 256.00,416.00z M 304.00,321.125l0.00-193.50 l-144.00,96.00
	L 304.00,321.125z"  />
<glyph unicode="&#x25b2;" d="M 256.00,416.00C 149.961,416.00, 64.00,330.039, 64.00,224.00s 85.961-192.00, 192.00-192.00s 192.00,85.961, 192.00,192.00S 362.039,416.00, 256.00,416.00z M 256.75,320.00l 96.00-144.00L 159.25,176.00 L 256.75,320.00z
	"  />
<glyph unicode="&#x25be;" d="M 192.00,256.00L 256.00,192.00L 320.00,256.00 z"  />
<glyph unicode="&#x21d5;" d="M 159.31,13.096c-28.244,0.00-54.676,11.982-73.767,31.074C 48.556,81.157 38.244,145.723, 90.101,197.581
		c 30.381,30.381, 152.084,152.082, 212.835,212.839c 21.565,21.57, 49.02,29.892, 75.301,22.854
		c 25.81-6.915, 46.967-28.06, 53.88-53.871c 7.038-26.294-1.286-53.738-22.851-75.304L 205.73,100.557
		c-11.623-11.623-24.747-18.504-37.943-19.896c-13.067-1.375-25.543,2.835-34.268,11.562
		c-15.835,15.825-18.091,45.622, 8.229,71.938l 142.966,142.97c 5.874,5.874, 15.389,5.874, 21.262,0.00
		c 5.874-5.868, 5.874-15.393,0.00-21.262L 163.009,142.894c-12.359-12.351-13.493-24.146-8.229-29.408
		c 2.305-2.31, 5.806-3.348, 9.842-2.92c 6.192,0.654, 13.24,4.659, 19.847,11.252l 203.539,203.546
		c 13.963,13.965, 19.316,30.391, 15.064,46.254c-4.189,15.623-16.983,28.418-32.607,32.607c-15.859,4.253-32.289-1.101-46.262-15.066
		C 263.449,328.399, 141.745,206.693, 111.364,176.318c-39.656-39.656-30.156-85.279-4.557-110.889
		c 25.603-25.599, 71.222-35.098, 110.889,4.557l 212.835,212.839c 5.874,5.874, 15.389,5.874, 21.262,0.00
		c 5.874-5.87, 5.874-15.393,0.00-21.262L 238.958,48.724C 213.869,23.635, 185.791,13.096, 159.31,13.096z"  />
<glyph unicode="&#x2717;" d="M 64.00,224.00c0.00-106.039, 85.961-192.00, 192.00-192.00c 106.04,0.00, 192.00,85.961, 192.00,192.00S 362.04,416.00, 256.00,416.00C 149.961,416.00, 64.00,330.039, 64.00,224.00z M 400.00,224.00
	c0.00-27.464-7.692-53.13-21.033-74.967L 181.033,346.967C 202.87,360.309, 228.536,368.00, 256.00,368.00C 335.528,368.00, 400.00,303.529, 400.00,224.00z M 112.00,224.00
	c0.00,27.464, 7.692,53.129, 21.033,74.967l 197.933-197.934C 309.129,87.691, 283.464,80.00, 256.00,80.00C 176.472,80.00, 112.00,144.471, 112.00,224.00z"  />
<glyph unicode="&#x2714;" d="M 388.00,382.00L 208.00,202.00L 124.00,286.00L 64.00,226.00L 208.00,82.00L 448.00,322.00 z"  />
<glyph unicode="&#x2612;" d="M 256.00,416.00C 149.968,416.00, 64.00,330.032, 64.00,224.00s 85.968-192.00, 192.00-192.00s 192.00,85.968, 192.00,192.00S 362.032,416.00, 256.00,416.00z M 350.968,162.968
		l-33.936-33.936L 256.00,190.064l-61.032-61.032l-33.936,33.936L 222.064,224.00l-61.032,61.032l 33.936,33.936L 256.00,257.936l 61.032,61.032l 33.936-33.936
		L 289.936,224.00L 350.968,162.968z"  />
<glyph unicode="&#x2718;" d="M 256.00,416.00C 149.961,416.00, 64.00,330.039, 64.00,224.00s 85.961-192.00, 192.00-192.00s 192.00,85.961, 192.00,192.00S 362.039,416.00, 256.00,416.00z M 376.00,152.00l-48.00-48.00l-72.00,72.00l-72.00-72.00
	l-48.00,48.00l 72.00,72.00l-72.00,72.00l 48.00,48.00l 72.00-72.00l 72.00,72.00l 48.00-48.00l-72.00-72.00L 376.00,152.00z"  />
<glyph unicode="&#x27b2;" d="M 256.00,416.00C 149.961,416.00, 64.00,330.039, 64.00,224.00s 85.961-192.00, 192.00-192.00s 192.00,85.961, 192.00,192.00S 362.039,416.00, 256.00,416.00z M 289.435,368.375l 0.599-169.27
	l-66.416,0.003L 223.468,368.375L 289.435,368.375 z M 256.279,76.543c-23.402,0.00-42.928,19.527-42.928,42.927
	c0.00,23.401, 19.527,42.928, 42.928,42.928c 23.40,0.00, 42.927-19.527, 42.927-42.928C 299.207,96.071, 279.679,76.543, 256.279,76.543z"  />
<glyph unicode="&#x21e6;" d="M 416.029,64.803L 97.972,223.901L 416.029,383.00 z"  />
<glyph unicode="&#x21e8;" d="M 95.972,383.00L 414.029,223.901L 95.972,64.803 z"  />
<glyph unicode="&#xe000;" d="M 400.00,272.00l-24.00,0.00 L 376.00,392.00 c0.00,13.20-10.80,24.00-24.00,24.00L 160.00,416.00 C 146.80,416.00, 136.00,405.20, 136.00,392.00l0.00-120.00 L 112.00,272.00 c-13.202,0.00-24.00-10.80-24.00-24.00l0.00-192.00 
	c0.00-13.20, 10.798-24.00, 24.00-24.00l 288.00,0.00 c 13.20,0.00, 24.00,10.80, 24.00,24.00L 424.00,248.00 C 424.00,261.20, 413.20,272.00, 400.00,272.00z M 280.00,80.00l-48.00,0.00 l 5.622,67.465
	c-9.363,6.041-15.564,16.563-15.564,28.535c0.00,18.745, 15.196,33.941, 33.942,33.941c 18.745,0.00, 33.941-15.196, 33.941-33.941
	c0.00-11.972-6.201-22.492-15.563-28.534L 280.00,80.00z M 328.00,272.00L 184.00,272.00 L 184.00,368.00 l 144.00,0.00 L 328.00,272.00 z"  />
<glyph unicode="&#x2719;" d="M 436.00,272.00L 304.00,272.00 L 304.00,404.00 c0.00,6.627-5.373,12.00-12.00,12.00l-72.00,0.00 c-6.627,0.00-12.00-5.373-12.00-12.00l0.00-132.00 L 76.00,272.00 c-6.627,0.00-12.00-5.373-12.00-12.00l0.00-72.00 
	c0.00-6.627, 5.373-12.00, 12.00-12.00l 132.00,0.00 l0.00-132.00 c0.00-6.627, 5.373-12.00, 12.00-12.00l 72.00,0.00 c 6.627,0.00, 12.00,5.373, 12.00,12.00L 304.00,176.00 l 132.00,0.00 c 6.627,0.00, 12.00,5.373, 12.00,12.00l0.00,72.00 
	C 448.00,266.627, 442.627,272.00, 436.00,272.00z"  />
<glyph unicode="&#x2338;" d="M 160.00,392.00L 352.00,392.00L 352.00,344.00L 160.00,344.00zM 424.00,320.00L 88.00,320.00 C 74.80,320.00, 64.00,309.20, 64.00,296.00l0.00-120.00 c0.00-13.20, 10.798-24.00, 24.00-24.00l 72.00,0.00 l0.00-96.00 l 192.00,0.00 L 352.00,152.00 l 72.00,0.00 c 13.20,0.00, 24.00,10.80, 24.00,24.00L 448.00,296.00 
		C 448.00,309.20, 437.20,320.00, 424.00,320.00z M 328.00,80.00L 184.00,80.00 L 184.00,200.00 l 144.00,0.00 L 328.00,80.00 z M 429.40,284.00c0.00-9.609-7.791-17.40-17.399-17.40
		c-9.609,0.00-17.401,7.791-17.401,17.40s 7.791,17.40, 17.401,17.40C 421.61,301.40, 429.40,293.609, 429.40,284.00z"  />
<glyph unicode="&#x21ba;" d="M 365.714,196.572c0.00-60.48-49.18-109.714-109.714-109.714s-109.714,49.234-109.714,109.714s 49.18,109.714, 109.714,109.714l 32.352-0.37l-15.964-15.964l 38.784-38.784L 393.623,333.714
			l-82.45,82.286l-38.784-38.784L 288.57,361.143L 256.00,361.143 C 165.143,361.143, 91.428,287.482, 91.428,196.572s 73.714-164.572, 164.572-164.572s 164.572,73.66, 164.572,164.572L 365.714,196.572 z"  />
<glyph unicode="&#x260c;" d="M 437.395,88.088L 346.121,165.718c-9.435,8.491-19.527,12.391-27.678,12.014C 339.989,202.97, 353.003,235.713, 353.003,271.498
	C 353.003,351.305, 288.308,416.00, 208.502,416.00C 128.696,416.00, 64.00,351.305, 64.00,271.498c0.00-79.807, 64.695-144.502, 144.502-144.502c 35.786,0.00, 68.528,13.015, 93.766,34.562
	c-0.376-8.151, 3.522-18.243, 12.014-27.678l 77.629-91.274c 13.292-14.769, 35.005-16.013, 48.25-2.768S 452.163,74.797, 437.395,88.088z
	 M 208.502,175.164c-53.204,0.00-96.334,43.13-96.334,96.334S 155.298,367.833, 208.502,367.833s 96.334-43.13, 96.334-96.334S 261.706,175.164, 208.502,175.164z"  />
<glyph unicode="&#xe001;" d="M 400.00,152.00L 400.00,104.00L 112.00,104.00L 112.00,152.00L 64.00,152.00L 64.00,56.00L 448.00,56.00L 448.00,152.00 	zM 160.00,248.00L 232.00,248.00L 232.00,128.00L 280.00,128.00L 280.00,248.00L 352.00,248.00L 256.00,392.00 	z"  />
<glyph unicode="&#x2630;" d="M 402.787,341.213l-53.574,53.573C 337.546,406.454, 314.50,416.00, 298.00,416.00L 118.00,416.00 C 101.50,416.00, 88.00,402.50, 88.00,386.00l0.00-324.00 c0.00-16.50, 13.50-30.00, 30.00-30.00l 276.00,0.00 c 16.50,0.00, 30.00,13.50, 30.00,30.00
	L 424.00,290.00 C 424.00,306.50, 414.454,329.547, 402.787,341.213z M 385.817,324.243c 1.173-1.173, 2.343-2.615, 3.48-4.243L 328.00,320.00 L 328.00,381.296 
	c 1.628-1.137, 3.069-2.307, 4.243-3.48L 385.817,324.243z M 400.00,62.00c0.00-3.252-2.748-6.00-6.00-6.00L 118.00,56.00 c-3.252,0.00-6.00,2.748-6.00,6.00L 112.00,386.00 c0.00,3.252, 2.748,6.00, 6.00,6.00
	l 180.00,0.00 c 1.812,0.00, 3.845-0.229, 6.00-0.639L 304.00,296.00 l 95.361,0.00 c 0.411-2.155, 0.639-4.187, 0.639-6.00L 400.00,62.00 z"  />
<glyph unicode="&#xe002;" d="M 402.787,341.213l-53.574,53.573C 337.547,406.454, 314.50,416.00, 298.00,416.00L 118.00,416.00 C 101.50,416.00, 88.00,402.50, 88.00,386.00l0.00-324.00 c0.00-16.50, 13.50-30.00, 30.00-30.00l 276.00,0.00 c 16.50,0.00, 30.00,13.50, 30.00,30.00
	L 424.00,290.00 C 424.00,306.50, 414.453,329.547, 402.787,341.213z M 385.817,324.243c 1.173-1.173, 2.343-2.615, 3.48-4.243L 328.00,320.00 L 328.00,381.296 
	c 1.628-1.137, 3.069-2.307, 4.243-3.48L 385.817,324.243z M 400.00,62.00c0.00-3.252-2.748-6.00-6.00-6.00L 118.00,56.00 c-3.252,0.00-6.00,2.748-6.00,6.00L 112.00,386.00 c0.00,3.252, 2.748,6.00, 6.00,6.00
	l 180.00,0.00 c 1.812,0.00, 3.845-0.229, 6.00-0.639L 304.00,296.00 l 95.361,0.00 c 0.411-2.155, 0.639-4.187, 0.639-6.00L 400.00,62.00 zM 286.675,230.897c-19.157,25.779-18.30,25.769-32.169,62.746l-23.377,3.106l-21.837-154.605
	c-49.22,26.991-80.261-0.733-72.406-35.625c 4.164-18.502, 35.529-35.918, 66.423-18.727c 14.601,8.414, 26.795,21.983, 28.659,31.605
	l 15.60,114.718c 55.659-47.033, 30.387-75.493, 18.879-108.261C 290.105,135.205, 327.163,172.705, 286.675,230.897z"  />
<glyph unicode="&#xe003;" d="M 402.787,341.213l-53.574,53.573C 337.547,406.454, 314.50,416.00, 298.00,416.00L 118.00,416.00 C 101.50,416.00, 88.00,402.50, 88.00,386.00l0.00-324.00 c0.00-16.50, 13.50-30.00, 30.00-30.00l 276.00,0.00 c 16.50,0.00, 30.00,13.50, 30.00,30.00
	L 424.00,290.00 C 424.00,306.50, 414.453,329.547, 402.787,341.213z M 385.817,324.243c 1.173-1.173, 2.343-2.615, 3.48-4.243L 328.00,320.00 L 328.00,381.296 
	c 1.628-1.137, 3.069-2.307, 4.243-3.48L 385.817,324.243z M 400.00,62.00c0.00-3.252-2.748-6.00-6.00-6.00L 118.00,56.00 c-3.252,0.00-6.00,2.748-6.00,6.00L 112.00,386.00 c0.00,3.252, 2.748,6.00, 6.00,6.00
	l 180.00,0.00 c 1.812,0.00, 3.845-0.229, 6.00-0.639L 304.00,296.00 l 95.361,0.00 c 0.411-2.155, 0.639-4.187, 0.639-6.00L 400.00,62.00 zM 256.005,224.759l0.00-24.289 c0.00,0.00-4.144,1.669-10.205,1.669
	c-3.795,0.00-16.012,1.971-23.203-8.852c-5.702-8.583-8.043-14.734-8.043-14.734l 18.054,0.00 l0.00-27.614 l-27.539,0.00 
	c0.00,0.00-12.156-25.27-15.983-32.269c-3.827-6.998-16.963-20.727-23.056-24.921c-2.354-1.618-10.012-7.318-12.623-8.205
	c-3.435-1.168-5.611-2.871-9.386-3.556c-4.199-0.763-7.276-1.262-7.276-1.262l0.00,28.37 c0.00,0.00, 2.995-0.568, 7.322,0.756
	c 4.326,1.324, 16.401,9.951, 21.559,17.895c 5.158,7.945, 14.983,28.722, 19.143,39.692c 4.16,10.971, 7.107,30.686, 24.463,47.824
	c 8.559,8.452, 23.716,11.745, 30.872,11.745S 256.005,224.759, 256.005,224.759z"  />
<glyph unicode="&#xe004;" d="M 135.625,247.883l0.00-167.367 l 240.188,0.00 L 375.812,247.883 L 135.625,247.883 z M 351.80,136.80l-45.035,45.035l-21.531-32.297l 42.761-42.761l-21.23,0.00 
		L 231.707,181.835l-72.07-75.058L 159.637,224.621 l 192.165,0.00 L 351.80,136.80 zM 165.649,189.341A22.517,22.517 180.00 1 1 210.684,189.341A22.517,22.517 180.00 1 1 165.649,189.341zM 402.787,341.213l-53.574,53.573C 337.547,406.454, 314.50,416.00, 298.00,416.00L 118.00,416.00 C 101.50,416.00, 88.00,402.50, 88.00,386.00l0.00-324.00 c0.00-16.50, 13.50-30.00, 30.00-30.00l 276.00,0.00 c 16.50,0.00, 30.00,13.50, 30.00,30.00
	L 424.00,290.00 C 424.00,306.50, 414.453,329.547, 402.787,341.213z M 385.817,324.243c 1.173-1.173, 2.343-2.615, 3.48-4.243L 328.00,320.00 L 328.00,381.296 
	c 1.628-1.137, 3.069-2.307, 4.243-3.48L 385.817,324.243z M 400.00,62.00c0.00-3.252-2.748-6.00-6.00-6.00L 118.00,56.00 c-3.252,0.00-6.00,2.748-6.00,6.00L 112.00,386.00 c0.00,3.252, 2.748,6.00, 6.00,6.00
	l 180.00,0.00 c 1.812,0.00, 3.845-0.229, 6.00-0.639L 304.00,296.00 l 95.361,0.00 c 0.411-2.155, 0.639-4.187, 0.639-6.00L 400.00,62.00 z"  />
<glyph unicode="&#xe005;" d="M 379.754,194.945c-5.118,5.043-16.467,7.713-33.74,7.94c-11.691,0.129-25.763-0.901-40.563-2.973
		c-6.627,3.825-13.46,7.985-18.82,12.997c-14.423,13.468-26.463,32.164-33.966,52.723c 0.489,1.92, 0.905,3.608, 1.293,5.33
		c0.00,0.00, 8.125,46.148, 5.973,61.749c-0.297,2.139-0.477,2.761-1.053,4.424l-0.705,1.813c-2.211,5.097-6.543,10.497-13.337,10.203
		l-3.984,0.127l-0.11,0.003c-7.575,0.00-13.749-3.874-15.369-9.665c-4.927-18.163, 0.157-45.334, 9.369-80.527l-2.358-5.733
		c-6.596-16.078-14.861-32.272-22.155-46.559l-0.948-1.857c-7.672-15.015-14.634-27.759-20.945-38.559l-6.516-3.446
		c-0.474-0.25-11.642-6.157-14.26-7.742c-22.221-13.269-36.945-28.328-39.388-40.281c-0.777-3.813-0.199-8.695, 3.755-10.955
		l 6.303-3.171c 2.733-1.37, 5.617-2.063, 8.571-2.063c 15.826,0.00, 34.20,19.714, 59.511,63.887
		c 29.223,9.513, 62.495,17.421, 91.655,21.783c 22.221-12.513, 49.553-21.205, 66.803-21.205c 3.063,0.00, 5.704,0.291, 7.85,0.861
		c 3.309,0.876, 6.097,2.763, 7.797,5.322c 3.347,5.037, 4.025,11.974, 3.117,19.078C 383.26,190.559, 381.577,193.165, 379.754,194.945z
		 M 143.367,110.732c 2.886,7.891, 14.31,23.492, 31.202,37.334c 1.062,0.861, 3.678,3.312, 6.073,5.589
		C 162.979,125.483, 151.149,114.254, 143.367,110.732z M 243.413,341.117c 5.087,0.00, 7.982-12.823, 8.222-24.845
		c 0.24-12.022-2.571-20.46-6.059-26.703c-2.889,9.243-4.285,23.812-4.285,33.339C 241.291,322.908, 241.078,341.117, 243.413,341.117z
		 M 213.57,176.939c 3.543,6.344, 7.231,13.034, 10.999,20.129c 9.184,17.368, 14.985,30.958, 19.305,42.129
		c 8.591-15.632, 19.292-28.92, 31.869-39.567c 1.569-1.329, 3.231-2.663, 4.977-3.993C 255.141,190.577, 233.034,184.421, 213.57,176.939z
		 M 374.839,178.38c-1.557-0.975-6.021-1.538-8.89-1.538c-9.265,0.00-20.727,4.235-36.797,11.125
		c 6.176,0.457, 11.835,0.689, 16.912,0.689c 9.293,0.00, 12.045,0.04, 21.131-2.277S 376.397,179.355, 374.839,178.38zM 402.787,341.213l-53.574,53.573C 337.546,406.454, 314.50,416.00, 298.00,416.00L 118.00,416.00 C 101.50,416.00, 88.00,402.50, 88.00,386.00l0.00-324.00 c0.00-16.50, 13.50-30.00, 30.00-30.00l 276.00,0.00 
		c 16.50,0.00, 30.00,13.50, 30.00,30.00L 424.00,290.00 C 424.00,306.50, 414.454,329.547, 402.787,341.213z M 385.817,324.243c 1.173-1.173, 2.343-2.615, 3.48-4.243L 328.00,320.00 L 328.00,381.296 
		c 1.628-1.137, 3.069-2.307, 4.243-3.48L 385.817,324.243z M 400.00,62.00c0.00-3.252-2.748-6.00-6.00-6.00L 118.00,56.00 c-3.252,0.00-6.00,2.748-6.00,6.00L 112.00,386.00 
		c0.00,3.252, 2.748,6.00, 6.00,6.00l 180.00,0.00 c 1.812,0.00, 3.845-0.229, 6.00-0.639L 304.00,296.00 l 95.361,0.00 c 0.411-2.155, 0.639-4.187, 0.639-6.00L 400.00,62.00 z"  />
<glyph unicode="&#xe006;" d="M 291.999,224.00c-33.141,0.00-60.00-26.862-60.00-60.00s 26.861-60.00, 60.00-60.00c 33.138,0.00, 60.00,26.862, 60.00,60.00S 325.137,224.00, 291.999,224.00z M 291.999,164.00
		l0.00,48.00 c 26.465,0.00, 48.00-21.532, 48.00-48.00L 291.999,164.00 zM 136.00,224.00L 208.00,224.00L 208.00,200.00L 136.00,200.00zM 136.00,176.00L 208.00,176.00L 208.00,152.00L 136.00,152.00zM 136.00,128.00L 208.00,128.00L 208.00,104.00L 136.00,104.00zM 402.787,341.213l-53.574,53.573C 337.546,406.454, 314.50,416.00, 298.00,416.00L 118.00,416.00 C 101.50,416.00, 88.00,402.50, 88.00,386.00l0.00-324.00 c0.00-16.50, 13.50-30.00, 30.00-30.00l 276.00,0.00 
		c 16.50,0.00, 30.00,13.50, 30.00,30.00L 424.00,290.00 C 424.00,306.50, 414.454,329.547, 402.787,341.213z M 385.817,324.243c 1.173-1.173, 2.343-2.615, 3.48-4.243L 328.00,320.00 L 328.00,381.296 
		c 1.628-1.137, 3.069-2.307, 4.243-3.48L 385.817,324.243z M 400.00,62.00c0.00-3.252-2.748-6.00-6.00-6.00L 118.00,56.00 c-3.252,0.00-6.00,2.748-6.00,6.00L 112.00,386.00 
		c0.00,3.252, 2.748,6.00, 6.00,6.00l 180.00,0.00 c 1.812,0.00, 3.845-0.229, 6.00-0.639L 304.00,296.00 l 95.361,0.00 c 0.411-2.155, 0.639-4.187, 0.639-6.00L 400.00,62.00 z"  />
<glyph unicode="&#xe007;" d="M 402.787,341.213l-53.574,53.573C 337.547,406.454, 314.50,416.00, 298.00,416.00L 118.00,416.00 C 101.50,416.00, 88.00,402.50, 88.00,386.00l0.00-324.00 c0.00-16.50, 13.50-30.00, 30.00-30.00l 276.00,0.00 c 16.50,0.00, 30.00,13.50, 30.00,30.00
	L 424.00,290.00 C 424.00,306.50, 414.453,329.547, 402.787,341.213z M 385.817,324.243c 1.173-1.173, 2.343-2.615, 3.48-4.243L 328.00,320.00 L 328.00,381.296 
	c 1.628-1.137, 3.069-2.307, 4.243-3.48L 385.817,324.243z M 400.00,62.00c0.00-3.252-2.748-6.00-6.00-6.00L 118.00,56.00 c-3.252,0.00-6.00,2.748-6.00,6.00L 112.00,386.00 c0.00,3.252, 2.748,6.00, 6.00,6.00
	l 180.00,0.00 c 1.812,0.00, 3.845-0.229, 6.00-0.639L 304.00,296.00 l 95.361,0.00 c 0.411-2.155, 0.639-4.187, 0.639-6.00L 400.00,62.00 zM 376.00,248.00L 136.00,248.00 l0.00-168.00 l 240.00,0.00 L 376.00,248.00 z M 352.00,128.00l0.00-24.00 l-24.00,0.00 l0.00,24.00 L 352.00,128.00 z M 352.00,176.00l0.00-24.00 l-24.00,0.00 l0.00,24.00 L 352.00,176.00 z M 352.00,224.00l0.00-24.00 l-24.00,0.00 l0.00,24.00 L 352.00,224.00 z M 304.00,224.00l0.00-48.00 L 208.00,176.00 l0.00,48.00 
	L 304.00,224.00 z M 160.00,200.00l0.00,24.00 l 24.00,0.00 l0.00-24.00 L 160.00,200.00 z M 160.00,152.00l0.00,24.00 l 24.00,0.00 l0.00-24.00 L 160.00,152.00 z M 160.00,104.00l0.00,24.00 l 24.00,0.00 l0.00-24.00 L 160.00,104.00 z M 208.00,104.00l0.00,48.00 l 96.00,0.00 l0.00-48.00 L 208.00,104.00 z"  />
<glyph unicode="&#xe008;" d="M 342.636,272.00L 291.901,272.00L 256.001,219.113L 220.099,272.00L 169.365,272.00L 230.176,181.076L 161.561,80.00L 259.901,80.00L 259.901,114.341L 237.193,114.341L 256.001,142.463L 297.775,80.00L 350.44,80.00L 281.824,181.076 	zM 402.787,341.213l-53.574,53.573C 337.546,406.454, 314.50,416.00, 298.00,416.00L 118.00,416.00 C 101.50,416.00, 88.00,402.50, 88.00,386.00l0.00-324.00 c0.00-16.50, 13.50-30.00, 30.00-30.00l 276.00,0.00 
		c 16.50,0.00, 30.00,13.50, 30.00,30.00L 424.00,290.00 C 424.00,306.50, 414.454,329.547, 402.787,341.213z M 385.817,324.243c 1.173-1.173, 2.343-2.615, 3.48-4.243L 328.00,320.00 L 328.00,381.296 
		c 1.628-1.137, 3.069-2.307, 4.243-3.48L 385.817,324.243z M 400.00,62.00c0.00-3.252-2.748-6.00-6.00-6.00L 118.00,56.00 c-3.252,0.00-6.00,2.748-6.00,6.00L 112.00,386.00 
		c0.00,3.252, 2.748,6.00, 6.00,6.00l 180.00,0.00 c 1.812,0.00, 3.845-0.229, 6.00-0.639L 304.00,296.00 l 95.361,0.00 c 0.411-2.155, 0.639-4.187, 0.639-6.00L 400.00,62.00 z"  />
<glyph unicode="&#x270f;" d="M 398.074,241.925 L 238.074,81.926 L 128.00,32.00 L 177.926,142.074 L 337.926,302.075 ZM 448.00,295.432 C 448.00,278.063 418.483,260.064 406.162,249.688 L 367.799,288.05 L 346.313,309.537 C 356.688,321.857 374.063,352.00 391.433,352.00 C 422.673,352.00 448.00,326.673 448.00,295.432 Z"  />
<glyph unicode="&#xe009;" d="M 329.205,245.587c 27.856,22.707, 51.747,41.693, 57.968,46.685c 12.017,9.636, 26.823,12.825, 26.823,12.825L 448.986,338.446
	L 438.784,350.29l-9.901,14.476l-41.516-25.235c0.00,0.00-6.321-13.764-18.33-23.399c-6.249-5.013-32.475-24.949-60.794-47.326L 272.746,314.637
	c 15.91,24.993, 8.476,52.88-11.324,77.564C 244.308,413.499, 212.439,417.273, 187.554,412.831l 48.116-62.741l-36.023-27.443l-50.839,60.564
	c-9.714-23.316-14.918-58.317, 2.187-79.632c 19.812-24.669, 44.256-40.159, 72.097-30.01l 36.086-45.155
	c-10.935-8.655-20.421-14.253-24.326-17.389c-6.554,7.376-14.409,17.19-24.05,12.806c-11.632-34.738-43.563-31.606-43.563-31.606
	S 83.056,124.484, 68.484,112.799c-14.572-11.694, 4.312-44.265, 8.973-50.063c 4.659-5.813, 31.343-29.576, 45.916-17.88
	c 14.56,11.684, 97.949,78.729, 97.949,78.729s 3.854,31.843, 40.29,35.684c 6.366,8.464-1.512,18.253-7.296,26.249
	c 3.86,3.099, 14.326,10.778, 24.959,19.435l 105.862-135.86c 17.302-17.301, 27.64-16.962, 39.293-7.623l 15.381,15.375
	c 11.665,9.366, 12.243,24.688, 1.535,36.794L 329.205,245.587z M 228.656,176.326L 99.31,72.293c-3.002-2.411-7.585-1.652-10.276,1.696
	c-2.69,3.353-2.434,7.993, 0.559,10.40l 129.353,104.042c 2.983,2.394, 7.585,1.634, 10.275-1.706
	C 231.896,183.377, 231.638,178.72, 228.656,176.326z M 412.286,80.797c-7.481,0.00-13.721,6.242-13.721,13.721s 6.242,13.721, 13.721,13.721
	s 13.721-6.242, 13.721-13.721S 419.765,80.797, 412.286,80.797z"  />
<glyph unicode="&#x263a;" d="M 409.804,126.795 C 433.784,107.063 448.00,82.566 448.00,56.00 L 64.00,56.00 C 64.00,108.313 119.095,152.613 195.405,168.275 C 212.94,154.855 233.584,147.035 256.003,147.035 C 257.927,147.035 259.836,147.096 261.731,147.21 C 269.755,111.722 301.993,84.56 339.625,84.56 C 369.621,84.56 396.193,101.818 409.804,126.795 ZM 329.186,243.485 C 294.345,238.769 266.041,210.862 260.713,176.197 C 259.153,176.071 257.581,176.00 256.00,176.00 C 212.406,176.00 177.065,224.353 177.065,284.00 C 177.065,343.647 212.406,392.00 256.00,392.00 C 299.595,392.00 334.935,343.647 334.935,284.00 C 334.935,269.671 332.89,255.996 329.186,243.485 ZM 340.188,224.00c-33.24,0.00-60.188-26.948-60.188-60.188s 26.948-60.188, 60.188-60.188s 60.188,26.948, 60.188,60.188S 373.428,224.00, 340.188,224.00z
	 M 351.461,152.539l0.00-33.867 l-22.547,0.00 l0.00,33.867 l-33.867,0.00 l0.00,22.547 l 33.867,0.00 l0.00,33.867 l 22.547,0.00 l0.00-33.867 l 33.867,0.00 l0.00-22.547 L 351.461,152.539 z"  />
<glyph unicode="&#xe00a;" d="M 280.00,170.558l0.00,11.076 c 14.347,12.45, 24.00,35.715, 24.00,62.366c0.00,39.765-21.489,72.00-48.00,72.00c-26.51,0.00-48.00-32.235-48.00-72.00
		c0.00-26.651, 9.654-49.918, 24.003-62.367l0.00-11.074 c-54.773-6.671-96.00-35.726-96.00-70.558L 376.00,100.00 C 376.00,134.833, 334.773,163.888, 280.00,170.558zM 184.63,183.396c-10.016,6.118-22.641,10.36-36.629,11.926l0.00,5.505 c 7.172,6.225, 12.00,17.849, 12.00,31.173
		c0.00,19.882-10.745,36.00-24.00,36.00s-24.00-16.118-24.00-36.00c0.00-13.323, 4.828-24.946, 12.00-31.173l0.00-5.495 c-34.052-3.809-60.00-23.547-60.00-47.331l 67.285,0.00 
		C 144.051,162.71, 162.494,174.957, 184.63,183.396zM 388.00,195.332l0.00,5.495 c 7.173,6.225, 12.00,17.849, 12.00,31.173c0.00,19.882-10.745,36.00-24.00,36.00s-24.00-16.118-24.00-36.00
		c0.00-13.323, 4.828-24.946, 12.00-31.173l0.00-5.505 c-13.988-1.566-26.613-5.808-36.63-11.926c 22.137-8.439, 40.578-20.685, 53.345-35.395L 448.00,148.001 
		C 448.00,171.785, 422.053,191.523, 388.00,195.332z"  />
<glyph unicode="&#xe00b;" d="M 248.016,149.345 L 184.009,85.338 L 237.348,32.00 L 88.00,32.00 L 88.00,181.348 L 141.338,128.009 L 205.345,192.016 ZM 376.00,201.425 L 376.00,52.079 L 322.662,105.417 L 258.655,41.411 L 215.984,84.082 L 279.991,148.087 L 226.652,201.425 ZM 402.787,341.213l-53.574,53.573C 337.547,406.454, 314.50,416.00, 298.00,416.00L 118.00,416.00 C 101.50,416.00, 88.00,402.50, 88.00,386.00l0.00-146.166 l 24.00,0.00 L 112.00,386.00 c0.00,3.252, 2.748,6.00, 6.00,6.00l 180.00,0.00 
	c 1.812,0.00, 3.845-0.229, 6.00-0.639L 304.00,296.00 l 95.361,0.00 c 0.411-2.155, 0.639-4.187, 0.639-6.00l0.00-228.00 c0.00-3.252-2.748-6.00-6.00-6.00l-3.441,0.00 l0.00-24.00 L 394.00,32.00 c 16.50,0.00, 30.00,13.50, 30.00,30.00
	L 424.00,290.00 C 424.00,306.50, 414.453,329.547, 402.787,341.213z M 328.00,320.00L 328.00,381.296 c 1.628-1.137, 3.069-2.307, 4.243-3.48l 53.574-53.573
	c 1.173-1.173, 2.343-2.615, 3.48-4.243L 328.00,320.00 z"  />
<glyph unicode="&#xe00c;" d="M 308.00,380.00c0.00,19.882-16.118,36.00-36.00,36.00c-19.881,0.00-36.00-16.118-36.00-36.00c0.00-36.00-72.00-12.00-72.00-60.00l 216.00,0.00 C 380.00,368.00, 308.00,344.00, 308.00,380.00z M 272.00,362.60
		c-9.609,0.00-17.40,7.791-17.40,17.40s 7.791,17.40, 17.40,17.40c 9.609,0.00, 17.40-7.791, 17.40-17.40S 281.609,362.60, 272.00,362.60zM 428.00,344.00l-24.00,0.00 l0.00-48.00 L 140.00,296.00 L 140.00,344.00 L 116.00,344.00 c-13.255,0.00-24.00-10.745-24.00-24.00l0.00-264.00 c0.00-13.256, 10.744-24.00, 24.00-24.00l 312.00,0.00 c 13.254,0.00, 24.00,10.744, 24.00,24.00L 452.00,320.00 
		C 452.00,333.255, 441.254,344.00, 428.00,344.00z M 404.00,80.00L 140.00,80.00 l0.00,24.00 l 264.00,0.00 L 404.00,80.00 z M 404.00,152.00L 140.00,152.00 l0.00,24.00 l 264.00,0.00 L 404.00,152.00 z M 404.00,224.00L 140.00,224.00 l0.00,24.00 l 264.00,0.00 L 404.00,224.00 z"  />
<glyph unicode="&#xe00d;" d="M 400.00,416.00L 64.00,416.00 l0.00-384.00 l 384.00,0.00 L 448.00,368.00 L 400.00,416.00z M 256.00,368.00l 48.00,0.00 l0.00-96.00 l-48.00,0.00 L 256.00,368.00 z M 400.00,80.00L 112.00,80.00 L 112.00,368.00 l 24.00,0.00 l0.00-120.00 l 216.00,0.00 L 352.00,368.00 l 28.117,0.00 L 400.00,348.119L 400.00,80.00 z"  />
<glyph unicode="&#x2709;" d="M 448.00,334.659 L 448.00,72.198 L 303.705,191.864 ZM 208.291,191.877 L 64.00,72.198 L 64.00,334.659 ZM 289.371,175.698 L 448.00,48.00 L 64.00,48.00 L 222.625,175.698 L 256.00,142.731 ZM 256.00,168.806 L 87.52,336.00 L 424.48,336.00 Z"  />
<glyph unicode="&#xe00e;" d="M 448.00,244.00 L 448.00,52.198 L 308.257,145.573 ZM 204.083,145.814 L 64.00,52.198 L 64.00,244.00 ZM 289.371,132.448 L 448.00,28.00 L 64.00,28.00 L 222.625,132.448 L 256.00,106.981 ZM 375.878,292.00 L 136.291,292.00 L 136.291,220.00 L 64.00,266.50 L 256.00,388.00 L 448.00,266.50 L 375.878,220.00 ZM 184.00,268.00L 328.00,268.00L 328.00,244.00L 184.00,244.00zM 184.00,220.00L 328.00,220.00L 328.00,196.00L 184.00,196.00zM 278.50,148.00 L 234.25,148.00 L 202.583,172.00 L 310.505,172.00 Z"  />
<glyph unicode="&#xe00f;" d="M 424.00,152.00l-38.805,0.00 L 295.41,301.642C 300.652,306.053, 304.00,312.653, 304.00,320.00L 304.00,368.00 c0.00,13.20-10.80,24.00-24.00,24.00l-48.00,0.00 c-13.20,0.00-24.00-10.80-24.00-24.00
	l0.00-48.00 c0.00-7.347, 3.348-13.947, 8.591-18.358L 126.805,152.00L 88.00,152.00 c-13.20,0.00-24.00-10.80-24.00-24.00l0.00-48.00 c0.00-13.20, 10.80-24.00, 24.00-24.00l 48.00,0.00 c 13.20,0.00, 24.00,10.80, 24.00,24.00l0.00,48.00 
	c0.00,7.347-3.348,13.947-8.591,18.358L 241.195,296.00l 29.612,0.00 l 89.786-149.642C 355.349,141.947, 352.00,135.347, 352.00,128.00l0.00-48.00 
	c0.00-13.20, 10.80-24.00, 24.00-24.00l 48.00,0.00 c 13.20,0.00, 24.00,10.80, 24.00,24.00l0.00,48.00 C 448.00,141.20, 437.20,152.00, 424.00,152.00z"  />
<glyph unicode="&#x25eb;" d="M 417.00,176.747L 417.00,65.00 L 257.00,65.00 L 257.00,383.00 l 160.00,0.00 l0.00-16.747 c 12.075-5.786, 22.931-13.825, 32.00-23.545L 449.00,415.00 L 63.00,415.00 l0.00-382.00 l 386.00,0.00 L 449.00,200.292 
	C 439.931,190.571, 429.075,182.532, 417.00,176.747z M 224.001,65.00L 95.00,65.00 L 95.00,383.00 l 129.001,0.00 L 224.001,65.00 zM 368.25,353.00c-44.32,0.00-80.25-35.93-80.25-80.25s 35.93-80.25, 80.25-80.25s 80.25,35.93, 80.25,80.25S 412.57,353.00, 368.25,353.00z
	 M 383.281,257.719l0.00-45.156 l-30.063,0.00 l0.00,45.156 l-45.156,0.00 l0.00,30.063 l 45.156,0.00 l0.00,45.156 l 30.063,0.00 l0.00-45.156 l 45.156,0.00 l0.00-30.063 L 383.281,257.719 z"  />
<glyph unicode="&#xe010;" d="M 271.489,139.50 C 271.489,135.619 271.711,131.783 272.132,128.00 L 135.725,128.00 C 135.725,164.124 177.048,194.254 231.947,201.172 L 231.947,212.657 C 217.565,225.565 207.889,249.694 207.889,277.333 C 207.889,318.571 229.429,352.00 256.00,352.00 C 282.571,352.00 304.11,318.571 304.111,277.333 C 304.111,249.696 294.435,225.568 280.055,212.658 L 280.055,201.172 C 283.551,200.731 286.991,200.195 290.37,199.571 C 278.496,182.354 271.489,161.623 271.489,139.50 ZM 202.655,221.837 C 180.325,214.584 159.452,203.041 141.395,187.779 L 63.555,187.779 C 63.555,212.443 89.564,272.912 123.694,276.862 L 123.694,282.562 C 116.506,289.019 111.667,301.073 111.667,314.889 C 111.667,335.508 122.437,352.222 135.722,352.222 C 149.008,352.222 159.778,335.508 159.778,314.889 C 159.778,301.072 154.938,289.019 147.75,282.562 L 147.75,276.852 C 172.234,276.852 193.522,247.384 202.655,221.837 ZM 378.50,246.511 C 353.435,246.511 330.157,237.518 311.753,222.64 C 310.779,222.941 309.809,223.246 308.83,223.53 C 317.019,248.667 336.905,276.853 364.248,276.853 L 364.248,282.563 C 357.06,289.02 352.221,301.074 352.221,314.89 C 352.221,335.509 362.992,352.223 376.277,352.223 C 389.562,352.223 400.333,335.509 400.333,314.89 C 400.333,301.073 395.493,289.02 388.305,282.563 L 388.305,276.863 C 408.796,274.492 426.355,251.748 437.121,228.612 C 420.195,239.889 400.006,246.511 378.50,246.511 ZM 368.25,224.00c-44.32,0.00-80.25-35.93-80.25-80.25s 35.93-80.25, 80.25-80.25s 80.25,35.93, 80.25,80.25S 412.57,224.00, 368.25,224.00z
	 M 383.281,128.719l0.00-45.156 l-30.063,0.00 l0.00,45.156 l-45.156,0.00 l0.00,30.063 l 45.156,0.00 l0.00,45.156 l 30.063,0.00 l0.00-45.156 l 45.156,0.00 l0.00-30.063 L 383.281,128.719 z"  />
<glyph unicode="&#xe011;" d="M 253.158,417.453C 146.575,416.027, 61.337,328.458, 62.751,221.869c 1.429-106.537, 88.983-191.804, 195.566-190.385
	c 106.563,1.434, 191.821,89.001, 190.402,195.58C 447.296,333.612, 359.725,418.875, 253.158,417.453z M 274.549,353.134
	c 19.621,0.00, 25.417-11.383, 25.417-24.396c0.00-16.269-13.024-31.303-35.23-31.303c-18.585,0.00-27.429,9.352-26.911,24.797
	C 237.825,335.247, 248.726,353.134, 274.549,353.134z M 224.25,103.844c-13.406,0.00-23.229,8.132-13.845,43.913l 15.376,63.46
	c 2.675,10.171, 3.127,14.236,0.00,14.236c-4.019,0.00-21.424-7.025-31.704-13.941l-6.699,10.98c 32.615,27.236, 70.12,43.212, 86.201,43.212
	c 13.40,0.00, 15.635-15.858, 8.936-40.252L 264.90,158.737c-3.128-11.791-1.783-15.855, 1.337-15.855c 4.025,0.00, 17.202,4.891, 30.157,15.062
	l 7.592-10.171C 272.268,116.061, 237.647,103.844, 224.25,103.844z"  />
<glyph unicode="&#x260b;" d="M 368.87,268.00L 302.179,354.823C 303.35,357.651, 304.00,360.75, 304.00,364.00c0.00,13.255-10.744,24.00-24.00,24.00c-13.255,0.00-24.00-10.745-24.00-24.00
	s 10.745-24.00, 24.00-24.00c 1.065,0.00, 2.112,0.076, 3.141,0.212L 338.608,268.00L 173.393,268.00 l 55.467,72.212C 229.888,340.076, 230.935,340.00, 232.00,340.00
	c 13.255,0.00, 24.00,10.745, 24.00,24.00s-10.745,24.00-24.00,24.00s-24.00-10.745-24.00-24.00c0.00-3.25, 0.65-6.349, 1.821-9.176L 143.13,268.00L 64.00,268.00 l0.00-48.00 l 24.00,0.00 l 24.00-192.00l 288.00,0.00 
	l 24.00,192.00l 24.00,0.00 l0.00,48.00 L 368.87,268.00 z M 184.00,76.00L 136.00,76.00 l0.00,48.00 l 48.00,0.00 L 184.00,76.00 z M 184.00,172.00L 136.00,172.00 l0.00,48.00 l 48.00,0.00 L 184.00,172.00 z M 280.00,76.00l-48.00,0.00 l0.00,48.00 l 48.00,0.00 L 280.00,76.00 z M 280.00,172.00l-48.00,0.00 l0.00,48.00 l 48.00,0.00 L 280.00,172.00 z
	 M 376.00,76.00l-48.00,0.00 l0.00,48.00 l 48.00,0.00 L 376.00,76.00 z M 376.00,172.00l-48.00,0.00 l0.00,48.00 l 48.00,0.00 L 376.00,172.00 z"  />
<glyph unicode="&#xe012;" d="M 111.981,67.998A36.00,36.00 180.00 1 1 183.981,67.99799999999999A36.00,36.00 180.00 1 1 111.981,67.99799999999999zM 351.982,67.998A36.00,36.00 180.00 1 1 423.983,67.99799999999999A36.00,36.00 180.00 1 1 351.982,67.99799999999999zM 423.983,344.00 L 376.357,176.374 L 135.605,176.374 L 135.981,151.998 L 423.983,151.998 L 423.983,127.998 L 111.981,127.998 L 106.008,213.478 L 87.98,368.00 C 87.98,381.234 77.214,392.00 63.98,392.00 L 63.98,416.00 C 90.491,416.00 111.981,394.51 111.981,368.00 L 447.873,368.00 C 447.873,367.985 447.873,344.00 447.873,344.00 L 423.983,344.00 Z M 147.791,331.867 L 124.059,331.867 L 124.059,308.133 L 147.791,308.133 Z M 243.792,235.866 L 220.059,235.866 L 220.059,212.133 L 243.792,212.133 Z M 291.793,235.866 L 268.059,235.866 L 268.059,212.133 L 291.793,212.133 Z M 339.793,235.866 L 316.059,235.866 L 316.059,212.133 L 339.793,212.133 Z M 195.792,235.866 L 172.059,235.866 L 172.059,212.133 L 195.792,212.133 Z M 195.792,331.867 L 172.059,331.867 L 172.059,308.133 L 195.792,308.133 Z M 243.792,331.867 L 220.059,331.867 L 220.059,308.133 L 243.792,308.133 Z M 219.792,283.867 L 196.059,283.867 L 196.059,260.133 L 219.792,260.133 Z M 267.792,283.867 L 244.06,283.867 L 244.06,260.133 L 267.792,260.133 Z M 315.793,283.867 L 292.059,283.867 L 292.059,260.133 L 315.793,260.133 Z M 363.793,283.867 L 340.06,283.867 L 340.06,260.133 L 363.793,260.133 Z M 171.792,283.867 L 148.059,283.867 L 148.059,260.133 L 171.792,260.133 Z M 291.793,331.867 L 268.059,331.867 L 268.059,308.133 L 291.793,308.133 Z M 339.793,331.867 L 316.059,331.867 L 316.059,308.133 L 339.793,308.133 Z M 387.793,331.867 L 364.06,331.867 L 364.06,308.133 L 387.793,308.133 Z"  />
<glyph unicode="&#xe013;" d="M 448.738,244.07 L 448.738,51.898 L 308.726,145.453 ZM 204.352,145.695 L 64.00,51.898 L 64.00,244.07 ZM 289.804,132.303 L 448.738,27.654 L 64.00,27.654 L 222.929,132.303 L 256.368,106.787 ZM 334.894,292.162 L 136.431,292.162 L 136.431,220.023 L 64.00,266.612 L 256.368,388.346 L 370.212,315.997 ZM 414.07,252.256 L 304.921,169.191 L 234.733,148.174 L 273.696,210.223 L 382.845,293.289 ZM 448.423,280.327 C 447.004,269.894 427.808,261.489 419.562,256.259 L 399.646,282.43 L 388.489,297.088 C 395.728,303.642 408.621,320.332 419.054,318.917 C 437.82,316.37 450.967,299.093 448.423,280.327 Z"  />
<glyph unicode="&#x270d;" d="M 161.554,262.917 L 269.475,154.995 L 303.151,80.75 L 228.905,114.425 L 120.985,222.346 ZM 115.529,227.58 C 107.219,234.581 87.309,246.719 87.309,258.434 C 87.309,279.508 104.392,296.591 125.465,296.591 C 137.18,296.591 148.899,276.258 155.899,267.948 L 141.405,253.457 L 115.529,227.58 ZM 280.004,200.00 L 375.152,200.00 L 375.152,176.00 L 279.836,176.00 ZM 303.102,151.25 L 375.152,151.25 L 375.152,127.25 L 303.462,127.25 ZM 402.688,341.213l-53.574,53.573C 337.448,406.454, 314.402,416.00, 297.902,416.00L 117.902,416.00 C 101.402,416.00, 87.902,402.50, 87.902,386.00l0.00-84.398 
	c 6.70,5.841, 14.96,9.915, 24.00,11.433L 111.902,386.00 c0.00,3.252, 2.748,6.00, 6.00,6.00l 180.00,0.00 c 1.812,0.00, 3.845-0.229, 6.00-0.639L 303.902,296.00 l 95.361,0.00 
	c 0.411-2.155, 0.639-4.187, 0.639-6.00l0.00-228.00 c0.00-3.252-2.748-6.00-6.00-6.00L 117.902,56.00 c-3.252,0.00-6.00,2.748-6.00,6.00L 111.902,206.965 L 87.902,226.648L 87.902,62.00 c0.00-16.50, 13.50-30.00, 30.00-30.00l 276.00,0.00 
	c 16.50,0.00, 30.00,13.50, 30.00,30.00L 423.902,290.00 C 423.902,306.50, 414.355,329.547, 402.688,341.213z M 327.902,320.00L 327.902,381.296 c 1.628-1.137, 3.069-2.307, 4.243-3.48l 53.574-53.573
	c 1.173-1.173, 2.343-2.615, 3.48-4.243L 327.902,320.00 z"  />
<glyph unicode="&#x2633;" d="M 400.00,320.00L 400.00,368.00 L 64.00,368.00 l0.00-264.00 c0.00-13.255, 10.745-24.00, 24.00-24.00l 324.00,0.00 c 19.883,0.00, 36.00,16.117, 36.00,36.00L 448.00,320.00 L 400.00,320.00 z M 376.00,104.00L 88.00,104.00 L 88.00,344.00 l 288.00,0.00 L 376.00,104.00 zM 112.00,296.00L 352.00,296.00L 352.00,272.00L 112.00,272.00zM 256.00,248.00L 352.00,248.00L 352.00,224.00L 256.00,224.00zM 256.00,200.00L 352.00,200.00L 352.00,176.00L 256.00,176.00zM 256.00,152.00L 328.00,152.00L 328.00,128.00L 256.00,128.00zM 112.00,248.00L 232.00,248.00L 232.00,128.00L 112.00,128.00z"  />
<glyph unicode="&#xe014;" d="M 135.415,169.287c 5.992,1.019, 14.408,1.785, 26.265,1.785c 11.985,0.00, 20.528-2.295, 26.265-6.885c 5.61-4.335, 9.18-11.475, 9.18-19.891
			c0.00-8.415-2.678-15.681-7.905-20.399c-6.63-6.12-16.448-9.052-27.921-9.052c-2.55,0.00-4.845,0.128-6.63,0.511L 154.669,84.50 L 135.415,84.50 L 135.415,169.287 z
			 M 154.668,130.271c 1.658-0.382, 3.57-0.51, 6.502-0.51c 10.328,0.00, 16.702,5.228, 16.702,13.897c0.00,7.905-5.482,12.622-15.299,12.622
			c-3.825,0.00-6.502-0.255-7.905-0.638L 154.669,130.271 zM 222.499,84.50l-20.40,85.934l 20.782,0.00 l 6.502-35.317c 1.912-10.329, 3.698-21.42, 5.10-30.09l 0.255,0.00 c 1.402,9.308, 3.442,19.635, 5.61,30.345
			l 7.267,35.061l 20.655,0.00 l 6.885-36.209c 1.912-10.072, 3.315-19.252, 4.59-28.815L 280.00,105.41 c 1.275,9.561, 3.188,19.635, 4.972,29.961l 7.012,35.061l 19.762,0.00 
			L 289.562,84.50L 268.525,84.50 l-7.268,36.975c-1.658,8.671-3.059,16.703-4.079,26.52l-0.255,0.00 c-1.53-9.69-2.932-17.85-4.972-26.52L 243.791,84.50
			L 222.499,84.50 zM 321.437,104.517c 5.10-2.678, 13.26-5.355, 21.547-5.355c 8.925,0.00, 13.641,3.698, 13.641,9.307c0.00,5.355-4.079,8.415-14.408,11.985
			c-14.279,5.10-23.715,13.005-23.715,25.50c0.00,14.661, 12.367,25.755, 32.512,25.755c 9.818,0.00, 16.829-1.913, 21.929-4.335l-4.335-15.555
			c-3.315,1.658-9.561,4.08-17.849,4.08c-8.415,0.00-12.495-3.952-12.495-8.289c0.00-5.481, 4.718-7.905, 15.938-12.111
			c 15.171-5.609, 22.185-13.515, 22.185-25.627c0.00-14.409-10.965-26.648-34.551-26.648c-9.818,0.00-19.508,2.678-24.352,5.355L 321.437,104.517zM 402.787,341.213l-53.574,53.573C 337.547,406.454, 314.50,416.00, 298.00,416.00L 118.00,416.00 C 101.50,416.00, 88.00,402.50, 88.00,386.00l0.00-324.00 c0.00-16.50, 13.50-30.00, 30.00-30.00l 276.00,0.00 c 16.50,0.00, 30.00,13.50, 30.00,30.00
	L 424.00,290.00 C 424.00,306.50, 414.453,329.547, 402.787,341.213z M 385.817,324.243c 1.173-1.173, 2.343-2.615, 3.48-4.243L 328.00,320.00 L 328.00,381.296 
	c 1.628-1.137, 3.069-2.307, 4.243-3.48L 385.817,324.243z M 400.00,62.00c0.00-3.252-2.748-6.00-6.00-6.00L 118.00,56.00 c-3.252,0.00-6.00,2.748-6.00,6.00L 112.00,386.00 c0.00,3.252, 2.748,6.00, 6.00,6.00
	l 180.00,0.00 c 1.812,0.00, 3.845-0.229, 6.00-0.639L 304.00,296.00 l 95.361,0.00 c 0.411-2.155, 0.639-4.187, 0.639-6.00L 400.00,62.00 z"  />
<glyph unicode="&#xe015;" d="M 64.00,416.00L 232.00,416.00L 232.00,248.00L 64.00,248.00zM 280.00,416.00L 448.00,416.00L 448.00,248.00L 280.00,248.00zM 64.00,200.00L 232.00,200.00L 232.00,32.00L 64.00,32.00zM 280.00,200.00L 448.00,200.00L 448.00,32.00L 280.00,32.00z"  />
<glyph unicode="&#xe016;" d="M 401.417,57.107C 400.44,56.413, 399.259,56.00, 398.00,56.00L 122.00,56.00 c-3.252,0.00-6.00,2.748-6.00,6.00L 116.00,386.00 c0.00,3.252, 2.748,6.00, 6.00,6.00l 180.00,0.00 
	c 1.812,0.00, 3.845-0.229, 6.00-0.639L 308.00,296.00 l 95.361,0.00 c 0.411-2.155, 0.639-4.187, 0.639-6.00l0.00-18.357 l 24.00,0.00 L 428.00,290.00 c0.00,16.50-9.547,39.547-21.213,51.213
	l-53.574,53.573C 341.547,406.454, 318.50,416.00, 302.00,416.00L 122.00,416.00 C 105.50,416.00, 92.00,402.50, 92.00,386.00l0.00-324.00 c0.00-16.50, 13.50-30.00, 30.00-30.00l 276.00,0.00 c 14.835,0.00, 27.235,10.915, 29.589,25.107
	L 401.417,57.107 z M 332.00,381.296c 1.628-1.137, 3.069-2.307, 4.243-3.48l 53.574-53.573c 1.173-1.173, 2.343-2.615, 3.48-4.243L 332.00,320.00 L 332.00,381.296 zM 430.391,252.875L 279.125,252.875 L 279.125,80.00 L 452.00,80.00 L 452.00,231.265 L 430.391,252.875z M 365.562,231.265l 21.609,0.00 l0.00-43.219 L 365.562,188.046 L 365.562,231.265 z M 430.391,101.609
	L 300.735,101.609 L 300.735,231.265 l 10.804,0.00 l0.00-54.023 l 97.242,0.00 l0.00,54.023 l 12.658,0.00 l 8.951-8.951L 430.391,101.609 z"  />
<glyph unicode="&#x2637;" d="M 95.998,371.426A24.569,24.569 1620.00 1 1 145.136,371.425A24.569,24.569 1620.00 1 1 95.998,371.425zM 95.998,273.136A24.569,24.569 1620.00 1 1 145.136,273.13599999999997A24.569,24.569 1620.00 1 1 95.998,273.13599999999997zM 95.998,174.859A24.569,24.569 1620.00 1 1 145.136,174.85899999999998A24.569,24.569 1620.00 1 1 95.998,174.85899999999998zM 95.998,76.57A24.569,24.569 1620.00 1 1 145.136,76.57A24.569,24.569 1620.00 1 1 95.998,76.57zM 194.288,395.995L 489.106,395.995L 489.106,346.856L 194.288,346.856zM 194.288,297.705L 489.106,297.705L 489.106,248.567L 194.288,248.567zM 194.288,199.429L 489.106,199.429L 489.106,150.29L 194.288,150.29zM 194.288,101.14L 489.106,101.14L 489.106,52.00L 194.288,52.00z" horiz-adv-x="585"  />
<glyph unicode="&#xe017;" d="M 256.00,416.00C 149.961,416.00, 64.00,330.039, 64.00,224.00s 85.961-192.00, 192.00-192.00s 192.00,85.961, 192.00,192.00S 362.039,416.00, 256.00,416.00z M 256.00,80.00
	c-19.882,0.00-36.00,16.118-36.00,36.00s 16.118,36.00, 36.00,36.00s 36.00-16.118, 36.00-36.00S 275.882,80.00, 256.00,80.00z M 340.048,283.229
	c-1.871-6.334-4.467-12.345-7.804-18.005c-3.333-5.675-7.342-11.049-12.015-16.107c-4.671-5.079-9.795-9.951-15.405-14.614
	c-6.273-5.202-11.31-9.807-15.11-13.814c-3.793-3.996-6.366-7.475-7.701-10.401c-2.505-5.38-4.389-18.273-2.019-34.287l-47.969,0.00 
	c-0.393,28.454, 3.794,42.375, 8.766,52.694c 5.073,10.413, 14.533,21.416, 28.416,33.023c 6.009,4.925, 10.677,9.306, 14.007,13.109
	c 3.337,3.801, 5.881,7.199, 7.607,10.203c 1.731,3.00, 2.797,5.80, 3.203,8.409c 0.398,2.595, 0.595,5.292, 0.595,8.099
	c0.00,5.204-0.899,10.003-2.703,14.403c-1.797,4.413-4.368,8.204-7.698,11.397c-3.343,3.211-7.272,5.713-11.808,7.515
	c-4.536,1.799-9.603,2.708-15.209,2.708c-21.873,0.00-35.217-15.279-40.023-45.828l-48.021,0.00 c 1.198,13.08, 4.17,24.909, 8.907,35.515
	c 4.735,10.612, 10.932,19.613, 18.609,27.021c 7.673,7.407, 16.61,13.102, 26.816,17.097c 10.20,4.005, 21.307,6.009, 33.315,6.009
	c 12.81,0.00, 24.482-1.831, 35.022-5.499c 10.543-3.675, 19.578-8.781, 27.11-15.315c 7.543-6.535, 13.404-14.339, 17.612-23.409
	c 4.193-9.078, 6.309-18.945, 6.309-29.613C 342.853,296.34, 341.91,289.568, 340.048,283.229z"  />
<glyph unicode="&#xe018;" d="M 409.804,126.795 C 433.784,107.063 448.00,82.566 448.00,56.00 L 64.00,56.00 C 64.00,108.313 119.095,152.613 195.405,168.275 C 212.94,154.855 233.584,147.035 256.003,147.035 C 257.926,147.035 259.836,147.096 261.731,147.21 C 269.755,111.722 301.993,84.56 339.625,84.56 C 369.621,84.56 396.193,101.818 409.804,126.795 ZM 329.186,243.485 C 294.345,238.769 266.041,210.862 260.713,176.197 C 259.153,176.071 257.582,176.00 256.00,176.00 C 212.406,176.00 177.065,224.353 177.065,284.00 C 177.065,343.647 212.406,392.00 256.00,392.00 C 299.595,392.00 334.935,343.647 334.935,284.00 C 334.935,269.671 332.89,255.996 329.186,243.485 ZM 340.188,224.711c-33.24,0.00-60.188-26.948-60.188-60.188s 26.948-60.188, 60.188-60.188s 60.188,26.948, 60.188,60.188
	S 373.428,224.711, 340.188,224.711z M 351.461,153.251l-22.547,0.00 l-33.867,0.00 l0.00,22.547 l 33.867,0.00 l 22.547,0.00 l 33.867,0.00 l0.00-22.547 L 351.461,153.251 z"  />
<glyph unicode="&#xe019;" d="M 448.00,196.00l-48.00,96.00l-72.00,0.00 L 328.00,340.00 c0.00,13.20-10.80,24.00-24.00,24.00L 88.00,364.00 C 74.80,364.00, 64.00,353.20, 64.00,340.00l0.00-192.00 l 24.00-24.00l 30.437,0.00 C 114.35,116.938, 112.00,108.745, 112.00,100.00
	c0.00-26.51, 21.49-48.00, 48.00-48.00s 48.00,21.49, 48.00,48.00c0.00,8.745-2.35,16.938-6.437,24.00l 132.875,0.00 c-4.087-7.062-6.438-15.255-6.438-24.00
	c0.00-26.51, 21.49-48.00, 48.00-48.00s 48.00,21.49, 48.00,48.00c0.00,8.745-2.351,16.938-6.438,24.00L 448.00,124.00 L 448.00,196.00 z M 328.00,196.00l0.00,60.00 l 49.75,0.00 l 30.00-60.00L 328.00,196.00 z"  />
<glyph unicode="&#xe01a;" d="M 376.00,392.00L 136.00,392.00 L 64.00,320.00l0.00-252.00 c0.00-6.627, 5.373-12.00, 12.00-12.00l 360.00,0.00 c 6.627,0.00, 12.00,5.373, 12.00,12.00L 448.00,320.00 L 376.00,392.00z M 256.00,104.00L 136.00,200.00l 72.00,0.00 l0.00,72.00 l 96.00,0.00 l0.00-72.00 l 72.00,0.00 
	L 256.00,104.00z M 121.941,344.00l 24.00,24.00l 220.117,0.00 l 24.00-24.00L 121.941,344.00 z"  />
<glyph unicode="&#xe01b;" d="M 448.375,128.004 L 328.206,21.006 L 328.206,92.597 C 328.206,92.597 179.757,92.695 153.483,92.695 C 77.904,92.695 65.407,147.634 65.407,186.808 C 65.407,216.349 65.00,332.539 65.00,332.539 L 135.234,332.45 C 135.234,332.45 135.234,280.784 135.234,251.289 C 135.234,211.176 133.115,185.302 147.678,173.45 C 158.772,164.421 178.063,163.682 203.096,163.703 C 218.076,163.716 234.359,163.41 252.927,163.41 C 281.959,163.41 328.206,163.41 328.206,163.41 L 328.206,236.672 L 448.375,128.004 Z"  />
<glyph unicode="&#xe01c;" d="M 96.00,361.143L 416.00,361.143L 416.00,315.428L 96.00,315.428zM 118.857,86.857l 274.286,0.00 L 393.143,292.572 L 118.857,292.572 L 118.857,86.857 z M 210.286,269.714l 91.428,0.00 l0.00-22.857 L 210.286,246.857 L 210.286,269.714 z"  />
<glyph unicode="&#xe01d;" d="M 396.938,422.488C 441.027,342.616, 460.492,220.78, 287.30,224.844L 287.30,323.244 L 138.433,174.378l 148.866-148.866L 287.30,121.798 C 460.976,121.798, 505.762,304.863, 396.938,422.488
		zM 212.866,288.156L 212.866,323.244L 64.00,174.378L 212.866,25.512L 212.866,60.60L 99.089,174.378 	z"  />
<glyph unicode="&#xe01e;" d="M 237.16,125.14L 237.16,32.00 L 93.16,176.00l 144.00,144.00l0.00-95.184 C 404.692,220.886, 397.506,338.738, 354.859,416.00
	C 460.126,302.219, 437.771,119.911, 237.16,125.14z"  />
<glyph unicode="&#xe01f;" d="M 64.00,56.00c0.00-13.256, 10.745-24.00, 24.00-24.00l 336.00,0.00 c 13.256,0.00, 24.00,10.744, 24.00,24.00L 448.00,272.00 L 64.00,272.00 L 64.00,56.00 z M 328.00,248.00l 96.00,0.00 l0.00-48.00 L 328.00,200.00 L 328.00,248.00 z M 328.00,176.00l 96.00,0.00 l0.00-48.00 L 328.00,128.00 
		L 328.00,176.00 z M 328.00,104.00l 96.00,0.00 l0.00-48.00 L 328.00,56.00 L 328.00,104.00 z M 208.00,248.00l 96.00,0.00 l0.00-48.00 L 208.00,200.00 L 208.00,248.00 z M 208.00,176.00l 96.00,0.00 l0.00-48.00 L 208.00,128.00 L 208.00,176.00 z M 208.00,104.00l 96.00,0.00 l0.00-48.00 L 208.00,56.00 L 208.00,104.00 z M 88.00,248.00l 96.00,0.00 l0.00-48.00 L 88.00,200.00 
		L 88.00,248.00 z M 88.00,176.00l 96.00,0.00 l0.00-48.00 L 88.00,128.00 L 88.00,176.00 z M 88.00,104.00l 96.00,0.00 l0.00-48.00 L 88.00,56.00 L 88.00,104.00 zM 424.00,368.00l-48.00,0.00 L 376.00,402.286 C 376.00,409.859, 370.627,416.00, 364.00,416.00c-6.627,0.00-12.00-6.141-12.00-13.714L 352.00,368.00 L 160.00,368.00 L 160.00,402.286 C 160.00,409.859, 154.627,416.00, 148.00,416.00
		S 136.00,409.859, 136.00,402.286L 136.00,368.00 L 88.00,368.00 C 74.745,368.00, 64.00,357.255, 64.00,344.00l0.00-48.00 l 384.00,0.00 L 448.00,344.00 C 448.00,357.255, 437.255,368.00, 424.00,368.00z M 148.00,308.00c-13.255,0.00-24.00,10.745-24.00,24.00
		c0.00,8.882, 4.828,16.63, 12.00,20.781L 136.00,332.00 c0.00-6.627, 5.373-12.00, 12.00-12.00s 12.00,5.373, 12.00,12.00L 160.00,352.781 c 7.172-4.15, 12.00-11.90, 12.00-20.781
		C 172.00,318.745, 161.255,308.00, 148.00,308.00z M 364.00,308.00c-13.254,0.00-24.00,10.745-24.00,24.00c0.00,8.882, 4.828,16.63, 12.00,20.781L 352.00,332.00 
		c0.00-6.627, 5.373-12.00, 12.00-12.00c 6.627,0.00, 12.00,5.373, 12.00,12.00L 376.00,352.781 c 7.173-4.15, 12.00-11.90, 12.00-20.781C 388.00,318.745, 377.256,308.00, 364.00,308.00z"  />
<glyph unicode="&#xe020;" d="M 402.787,341.213l-53.574,53.573C 337.547,406.454, 314.50,416.00, 298.00,416.00L 118.00,416.00 C 101.50,416.00, 88.00,402.50, 88.00,386.00l0.00-147.604 
	c 1.606,1.833, 3.269,3.623, 5.001,5.355c 5.786,5.786, 12.17,10.879, 18.999,15.226L 112.00,386.00 c0.00,3.252, 2.748,6.00, 6.00,6.00l 180.00,0.00 
	c 1.812,0.00, 3.845-0.229, 6.00-0.639L 304.00,296.00 l 95.361,0.00 c 0.411-2.155, 0.639-4.187, 0.639-6.00l0.00-228.00 c0.00-3.252-2.748-6.00-6.00-6.00L 118.00,56.00 c-3.252,0.00-6.00,2.748-6.00,6.00
	l0.00,7.773 c-6.831,4.348-13.215,9.441-18.999,15.227c-1.731,1.731-3.393,3.519-5.001,5.355L 88.00,62.00 c0.00-16.50, 13.50-30.00, 30.00-30.00l 276.00,0.00 
	c 16.50,0.00, 30.00,13.50, 30.00,30.00L 424.00,290.00 C 424.00,306.50, 414.453,329.547, 402.787,341.213z M 328.00,320.00L 328.00,381.296 c 1.628-1.137, 3.069-2.307, 4.243-3.48l 53.574-53.573
	c 1.173-1.173, 2.343-2.615, 3.48-4.243L 328.00,320.00 zM 171.766,246.077C 125.917,246.077, 88.75,208.91, 88.75,163.062c0.00-45.847, 37.167-83.015, 83.016-83.015
	c 45.847,0.00, 83.015,37.168, 83.015,83.015C 254.78,208.91, 217.613,246.077, 171.766,246.077z M 187.315,147.514l0.00-46.712 l-31.10,0.00 l0.00,46.712 
	L 109.504,147.514 l0.00,31.101 l 46.712,0.00 l0.00,46.711 l 31.10,0.00 l0.00-46.711 l 46.712,0.00 l0.00-31.101 L 187.315,147.514 zM 280.511,128.00 L 375.658,128.00 L 375.658,104.00 L 280.342,104.00 ZM 280.342,176.00 L 375.658,176.00 L 375.658,152.00 L 280.703,152.00 Z"  />
<glyph unicode="&#xe021;" d="M 402.787,341.213l-53.574,53.573C 337.547,406.454, 314.50,416.00, 298.00,416.00L 118.00,416.00 C 101.50,416.00, 88.00,402.50, 88.00,386.00l0.00-147.604 
	c 1.606,1.833, 3.269,3.623, 5.001,5.355c 5.786,5.786, 12.17,10.879, 18.999,15.226L 112.00,386.00 c0.00,3.252, 2.748,6.00, 6.00,6.00l 180.00,0.00 
	c 1.812,0.00, 3.845-0.229, 6.00-0.639L 304.00,296.00 l 95.361,0.00 c 0.411-2.155, 0.639-4.187, 0.639-6.00l0.00-228.00 c0.00-3.252-2.748-6.00-6.00-6.00L 118.00,56.00 c-3.252,0.00-6.00,2.748-6.00,6.00
	l0.00,7.773 c-6.831,4.348-13.215,9.441-18.999,15.227c-1.731,1.731-3.393,3.519-5.001,5.355L 88.00,62.00 c0.00-16.50, 13.50-30.00, 30.00-30.00l 276.00,0.00 
	c 16.50,0.00, 30.00,13.50, 30.00,30.00L 424.00,290.00 C 424.00,306.50, 414.453,329.547, 402.787,341.213z M 328.00,320.00L 328.00,381.296 c 1.628-1.137, 3.069-2.307, 4.243-3.48l 53.574-53.573
	c 1.173-1.173, 2.343-2.615, 3.48-4.243L 328.00,320.00 zM 171.766,246.077C 125.917,246.077, 88.75,208.91, 88.75,163.062c0.00-45.847, 37.167-83.015, 83.016-83.015
	c 45.847,0.00, 83.015,37.168, 83.015,83.015C 254.78,208.91, 217.613,246.077, 171.766,246.077z M 109.504,147.514l0.00,31.101 l 124.522,0.00 l0.00-31.101 
	L 109.504,147.514 zM 280.511,128.00 L 375.658,128.00 L 375.658,104.00 L 280.342,104.00 ZM 280.342,176.00 L 375.658,176.00 L 375.658,152.00 L 280.703,152.00 Z"  />
<glyph unicode="&#xe022;" d="M 90.013,45.689l 21.891-13.162c 2.777-1.663, 6.284-0.683, 7.793,2.187l 48.683,92.503
		c 38.641-15.519, 84.053-1.138, 106.165,35.675c 24.522,40.815, 11.27,93.971-29.544,118.499
		c-40.815,24.519-93.973,11.267-118.497-29.553c-22.58-37.584-13.111-85.601, 20.383-112.126L 88.279,53.592
		C 86.449,50.913, 87.231,47.358, 90.013,45.689z M 150.227,237.589c 16.663,27.737, 52.786,36.747, 80.514,20.082
		c 27.735-16.665, 36.748-52.787, 20.084-80.52c-16.665-27.74-52.788-36.747-80.527-20.085
		C 142.568,173.723, 133.563,209.856, 150.227,237.589zM 402.692,341.159l-53.614,53.613C 337.403,406.447, 314.34,416.00, 297.828,416.00L 117.694,416.00 C 101.182,416.00, 87.672,402.49, 87.672,385.978l0.00-90.066 l 24.018,0.00 L 111.69,385.978 c0.00,3.254, 2.75,6.004, 6.004,6.004l 180.132,0.00 
	c 1.814,0.00, 3.848-0.229, 6.004-0.64L 303.832,295.912 l 95.432,0.00 c 0.411-2.157, 0.64-4.191, 0.64-6.004l0.00-228.168 c0.00-3.254-2.75-6.004-6.004-6.004L 207.762,55.734 l0.00-24.018 l 186.138,0.00 c 16.512,0.00, 30.022,13.51, 30.022,30.022
	L 423.92,289.907 C 423.92,306.42, 414.367,329.483, 402.692,341.159z M 327.85,319.93L 327.85,381.27 c 1.628-1.137, 3.072-2.308, 4.246-3.482l 53.614-53.613
	c 1.175-1.175, 2.345-2.617, 3.482-4.246L 327.85,319.93 zM 176.988,169.747 L 163.025,181.899 C 163.025,181.899 147.344,203.968 163.084,229.982 C 178.824,255.997 201.55,253.054 201.55,253.054 L 215.327,240.594 C 215.327,240.594 187.121,237.745 176.988,217.734 C 166.856,197.723 176.988,169.747 176.988,169.747 Z"  />
<glyph unicode="&#xe023;" d="M 402.787,341.213l-53.574,53.573C 337.547,406.454, 314.50,416.00, 298.00,416.00L 118.00,416.00 C 101.50,416.00, 88.00,402.50, 88.00,386.00l0.00-147.604 
	c 1.606,1.833, 3.269,3.623, 5.001,5.355c 5.786,5.786, 12.17,10.879, 18.999,15.226L 112.00,386.00 c0.00,3.252, 2.748,6.00, 6.00,6.00l 180.00,0.00 
	c 1.812,0.00, 3.845-0.229, 6.00-0.639L 304.00,296.00 l 95.361,0.00 c 0.411-2.155, 0.639-4.187, 0.639-6.00l0.00-228.00 c0.00-3.252-2.748-6.00-6.00-6.00L 118.00,56.00 c-3.252,0.00-6.00,2.748-6.00,6.00
	l0.00,7.773 c-6.831,4.348-13.215,9.441-18.999,15.227c-1.731,1.731-3.393,3.519-5.001,5.355L 88.00,62.00 c0.00-16.50, 13.50-30.00, 30.00-30.00l 276.00,0.00 
	c 16.50,0.00, 30.00,13.50, 30.00,30.00L 424.00,290.00 C 424.00,306.50, 414.453,329.547, 402.787,341.213z M 328.00,320.00L 328.00,381.296 c 1.628-1.137, 3.069-2.307, 4.243-3.48l 53.574-53.573
	c 1.173-1.173, 2.343-2.615, 3.48-4.243L 328.00,320.00 zM 280.511,128.00 L 375.658,128.00 L 375.658,104.00 L 280.342,104.00 ZM 280.342,176.00 L 375.658,176.00 L 375.658,152.00 L 280.703,152.00 ZM 171.062,247.25C 125.189,247.25, 88.00,210.061, 88.00,164.188S 125.189,81.125, 171.062,81.125S 254.125,118.313, 254.125,164.188S 216.937,247.25, 171.062,247.25
	z M 222.977,133.039l-20.766-20.766l-31.149,31.149l-31.149-31.149l-20.766,20.766l 31.149,31.149l-31.149,31.149l 20.766,20.766
	l 31.149-31.149l 31.149,31.149l 20.766-20.766l-31.149-31.149L 222.977,133.039z"  />
<glyph unicode="&#xe024;" d="M 240.00,384.00C 142.798,384.00, 64.00,305.202, 64.00,208.00c0.00-97.203, 78.798-176.00, 176.00-176.00c 97.203,0.00, 176.00,78.797, 176.00,176.00
	C 416.00,305.202, 337.203,384.00, 240.00,384.00z M 339.583,149.334c 3.146,14.833, 5.132,30.577, 5.778,46.934l 46.731,0.00 c-1.224-16.206-4.996-31.941-11.25-46.934
	L 339.583,149.334 z M 140.417,266.666c-3.146-14.833-5.132-30.577-5.778-46.934L 87.91,219.734 c 1.224,16.205, 4.995,31.941, 11.249,46.934L 140.417,266.666 z M 315.546,266.666
	c 3.525-15.019, 5.646-30.747, 6.336-46.934L 251.734,219.734 l0.00,46.934 L 315.546,266.666 z M 251.734,290.134L 251.734,358.824 c 5.349-1.557, 10.65-4.169, 15.85-7.835
	c 9.747-6.872, 19.071-17.456, 26.964-30.611c 5.457-9.094, 10.176-19.22, 14.116-30.244L 251.734,290.133 z M 185.452,320.378
	c 7.894,13.155, 17.218,23.741, 26.964,30.611c 5.20,3.666, 10.501,6.278, 15.85,7.835L 228.266,290.134 l-56.93,0.00 
	C 175.277,301.157, 179.996,311.282, 185.452,320.378z M 228.266,266.666l0.00-46.934 l-70.149,0.00 c 0.69,16.187, 2.811,31.914, 6.335,46.934L 228.266,266.666 z M 99.159,149.334
	c-6.254,14.991-10.025,30.728-11.249,46.934l 46.73,0.00 c 0.646-16.356, 2.632-32.101, 5.778-46.934L 99.159,149.334 z M 158.119,196.266L 228.266,196.266 l0.00-46.934 l-63.814,0.00 
	C 160.929,164.352, 158.807,180.079, 158.119,196.266z M 228.266,125.866l0.00-68.692 c-5.349,1.557-10.65,4.17-15.85,7.835
	c-9.748,6.872-19.071,17.457-26.964,30.611c-5.457,9.094-10.175,19.22-14.116,30.244L 228.266,125.866 z M 294.548,95.622
	c-7.894-13.154-17.218-23.741-26.964-30.611c-5.20-3.666-10.501-6.278-15.85-7.835L 251.734,125.866 l 56.931,0.00 
	C 304.724,114.843, 300.005,104.718, 294.548,95.622z M 251.734,149.334l0.00,46.934 l 70.149,0.00 c-0.69-16.187-2.811-31.914-6.336-46.934L 251.734,149.334 z M 345.361,219.734
	c-0.646,16.356-2.632,32.101-5.778,46.934l 41.258,0.00 c 6.254-14.991, 10.026-30.729, 11.25-46.934L 345.361,219.734 z M 368.575,290.134l-35.164,0.00 
	c-6.834,21.546-16.272,40.441-27.616,55.524c 15.596-7.458, 29.721-17.46, 42.061-29.80C 355.734,307.982, 362.657,299.38, 368.575,290.134
	z M 132.142,315.858c 12.341,12.341, 26.466,22.342, 42.061,29.80c-11.345-15.083-20.782-33.977-27.616-55.524L 111.426,290.134 
	C 117.343,299.38, 124.267,307.982, 132.142,315.858z M 111.426,125.866l 35.163,0.00 c 6.834-21.546, 16.272-40.441, 27.617-55.525
	c-15.596,7.458-29.721,17.46-42.061,29.801C 124.267,108.018, 117.343,116.62, 111.426,125.866z M 347.858,100.142
	c-12.34-12.341-26.466-22.343-42.061-29.801c 11.345,15.083, 20.782,33.978, 27.616,55.525l 35.164,0.00 
	C 362.657,116.62, 355.734,108.018, 347.858,100.142z"  />
<glyph unicode="&#x2613;" d="M 392.58,368.125C 379.565,368.202, 304.08,368.00, 304.08,368.00L 304.08,404.00 c0.00,6.627-5.373,12.00-12.00,12.00l-72.00,0.00 c-6.627,0.00-12.00-5.373-12.00-12.00l0.00-36.00 
	c0.00,0.00-74.643,0.125-88.251,0.125C 107.206,368.125, 104.438,320.00, 120.204,320.00c 6.733,0.00, 15.501,0.00, 15.501,0.00s0.00-216.625,0.00-240.00
	c0.00-24.00, 0.375-48.00, 44.751-48.00c 43.724,0.00, 104.409,0.00, 147.625,0.00c 48.00,0.00, 48.00,24.00, 48.00,48.00c0.00,23.125-0.375,240.00-0.375,240.00s 9.735,0.00, 17.091,0.00
	C 408.205,320.00, 405.955,368.125, 392.58,368.125z M 196.08,80.00l-24.00,0.00 L 172.08,296.00 l 24.00,0.00 L 196.08,80.00 z M 244.08,80.00l-24.00,0.00 L 220.08,296.00 l 24.00,0.00 L 244.08,80.00 z M 232.08,392.00l 48.00,0.00 l0.00-24.00 l-48.00,0.00 L 232.08,392.00 z M 292.08,80.00l-24.00,0.00 
	L 268.08,296.00 l 24.00,0.00 L 292.08,80.00 z M 340.08,80.00l-24.00,0.00 L 316.08,296.00 l 24.00,0.00 L 340.08,80.00 z"  />
<glyph unicode="&#xe025;" d="M 368.87,268.00 L 448.00,268.00 L 448.00,220.00 L 424.00,220.00 L 400.00,28.00 L 112.00,28.00 L 88.00,220.00 L 64.00,220.00 L 64.00,268.00 L 143.13,268.00 L 209.821,354.824 C 208.65,357.651 208.00,360.75 208.00,364.00 C 208.00,377.255 218.745,388.00 232.00,388.00 C 245.255,388.00 256.00,377.255 256.00,364.00 C 256.00,350.745 245.255,340.00 232.00,340.00 C 230.935,340.00 229.888,340.076 228.859,340.212 L 173.393,268.00 L 338.609,268.00 L 283.141,340.212 C 282.112,340.076 281.065,340.00 280.00,340.00 C 266.745,340.00 256.00,350.745 256.00,364.00 C 256.00,377.255 266.745,388.00 280.00,388.00 C 293.256,388.00 304.00,377.255 304.00,364.00 C 304.00,360.75 303.35,357.651 302.179,354.823 L 368.87,268.00 Z M 255.625,52.667 C 281.823,52.667 305.533,65.218 320.975,84.545 C 332.428,98.881 339.334,116.942 339.334,136.375 C 339.334,140.797 340.477,145.148 339.788,149.401 C 339.527,151.018 339.625,233.125 339.625,233.125 L 308.466,201.889 C 308.466,201.889 307.856,201.545 307.164,202.106 C 292.755,213.78 275.265,220.084 255.625,220.084 C 209.994,220.084 171.916,182.005 171.916,136.375 C 171.916,90.745 209.994,52.667 255.625,52.667 ZM 328.00,153.017 L 274.703,153.017 L 294.619,172.933 C 284.976,182.578 271.656,188.548 256.938,188.548 C 227.503,188.548 203.641,164.687 203.641,135.251 C 203.641,105.815 227.503,81.954 256.938,81.954 C 271.656,81.954 284.98,87.919 294.625,97.563 L 307.187,85.001 C 294.326,72.141 276.56,64.188 256.938,64.188 C 217.691,64.188 185.875,96.003 185.875,135.25 C 185.875,174.497 217.691,206.312 256.938,206.312 C 276.561,206.312 294.325,198.357 307.185,185.497 L 328.00,206.312 L 328.00,153.015 ZM 256.938,174.812 C 263.779,174.812 270.217,173.077 275.83,170.019 C 276.019,169.916 254.125,144.625 254.125,144.625 C 254.125,144.625 339.806,144.633 339.949,144.391 C 339.949,144.391 346.702,119.239 336.199,102.249 C 335.707,101.455 323.665,88.105 323.665,88.105 L 293.545,115.182 C 286.602,103.781 271.262,95.688 256.938,95.688 C 235.087,95.688 217.375,113.401 217.375,135.25 C 217.375,157.099 235.087,174.812 256.938,174.812 Z"  />
<glyph unicode="&#xe026;" d="M 448.00,200.00L 376.00,272.00L 376.00,344.00L 328.00,344.00L 328.00,320.00L 256.00,392.00L 64.00,200.00L 112.00,200.00L 112.00,56.00L 232.00,56.00L 232.00,152.00L 280.00,152.00L 280.00,56.00L 400.00,56.00L 400.00,200.00 	z"  />
<glyph unicode="&#xe027;" d="M 192.00,256.00l 64.00,64.00l 64.00-64.00L 192.00,256.00 zM 320.00,192.00l-64.00-64.00l-64.00,64.00L 320.00,192.00 z"  />
<glyph unicode="&#xe028;" d="M 192.00,192.00L 256.00,256.00L 320.00,192.00 z"  />
<glyph unicode="&#xe029;" d="M 446.50,56.00l-191.00,0.00 L 255.00,56.00 L 64.00,56.00 c0.00,52.312, 55.095,96.613, 131.405,112.275c 17.338-13.27, 37.718-21.049, 59.845-21.223
	c 2.711,0.021, 5.394,0.16, 8.05,0.405L 327.40,84.14l 58.237,58.237C 423.08,120.798, 446.50,90.104, 446.50,56.00z M 255.999,176.50
	c 0.286,0.00, 0.571,0.011, 0.856,0.015l 34.985,34.985l 12.599-12.272c 18.557,19.762, 30.495,50.608, 30.495,85.272
	c0.00,59.647-35.341,108.00-78.936,108.00c-43.593,0.00-78.934-48.353-78.934-108.00C 177.065,224.854, 212.406,176.50, 255.999,176.50z M 427.90,203.00
	l-100.00-100.00l-60.00,60.00l 25.001,25.00l 34.999-35.00l 75.001,75.00L 427.90,203.00z"  />
<glyph unicode="&#xe02a;" d="M 256.00,320.00C 202.984,320.00, 160.00,277.016, 160.00,224.00s 42.984-96.00, 96.00-96.00s 96.00,42.984, 96.00,96.00S 309.016,320.00, 256.00,320.00z M 303.484,193.484
		l-16.968-16.968L 256.00,207.032l-30.516-30.516l-16.968,16.968L 239.032,224.00l-30.516,30.516l 16.968,16.968L 256.00,240.968l 30.516,30.516l 16.968-16.968
		L 272.968,224.00L 303.484,193.484z"  />
<glyph unicode="&#xe02b;" d="M 112.31,96.237L 112.31,80.374L 172.18,88.307 	zM 112.31,80.374L 112.31,64.512L 172.18,72.442 	zM 112.31,64.512L 112.31,48.648L 172.18,56.58 	zM 112.31,143.826L 112.31,127.964L 172.18,135.896 	zM 112.31,127.964L 112.31,112.101L 172.18,120.032 	zM 112.31,112.101L 112.31,96.237L 172.18,104.169 	zM 112.31,48.648L 112.31,32.785L 172.18,40.717 	zM 232.052,127.964L 232.052,143.826L 172.18,135.896 	zM 232.052,112.101L 232.052,127.964L 172.18,120.032 	zM 232.052,96.237L 232.052,112.101L 172.18,104.169 	zM 232.052,80.374L 232.052,96.237L 172.18,88.307 	zM 232.052,64.512L 232.052,80.374L 172.18,72.442 	zM 232.052,48.648L 232.052,64.512L 172.18,56.58 	zM 232.052,32.785L 232.052,48.648L 172.18,40.717 	zM 112.31,191.416L 112.31,175.553L 172.18,183.485 	zM 112.31,175.553L 112.31,159.69L 172.18,167.621 	zM 112.31,159.69L 112.31,143.826L 172.18,151.759 	zM 232.052,175.553L 232.052,191.416L 172.18,183.485 	zM 232.052,159.69L 232.052,175.553L 172.18,167.621 	zM 112.31,223.143L 112.31,207.28L 172.18,215.211 	zM 112.31,207.28L 112.31,191.416L 172.18,199.348 	zM 232.052,207.28L 232.052,223.143L 172.18,215.211 	zM 232.052,191.416L 232.052,207.28L 172.18,199.348 	zM 232.052,143.826L 232.052,159.69L 172.18,151.759 	zM 279.948,96.237L 279.948,80.374L 339.82,88.307 	zM 279.948,80.374L 279.948,64.512L 339.82,72.442 	zM 279.948,64.512L 279.948,48.648L 339.82,56.58 	zM 279.948,143.826L 279.948,127.964L 339.82,135.896 	zM 279.948,127.964L 279.948,112.101L 339.82,120.032 	zM 279.948,112.101L 279.948,96.237L 339.82,104.169 	zM 279.948,48.648L 279.948,32.785L 339.82,40.717 	zM 399.69,127.964L 399.69,143.826L 339.82,135.896 	zM 399.69,112.101L 399.69,127.964L 339.82,120.032 	zM 399.69,96.237L 399.69,112.101L 339.82,104.169 	zM 399.69,80.374L 399.69,96.237L 339.82,88.307 	zM 399.69,64.512L 399.69,80.374L 339.82,72.442 	zM 399.69,48.648L 399.69,64.512L 339.82,56.58 	zM 399.69,32.785L 399.69,48.648L 339.82,40.717 	zM 279.948,207.28L 279.948,191.416L 339.82,199.348 	zM 279.948,191.416L 279.948,175.553L 339.82,183.485 	zM 279.948,175.553L 279.948,159.69L 339.82,167.621 	zM 279.948,159.69L 279.948,143.826L 339.82,151.759 	zM 279.948,270.732L 279.948,254.87L 339.82,262.80 	zM 279.948,254.87L 279.948,239.005L 339.82,246.937 	zM 279.948,239.005L 279.948,223.143L 339.82,231.075 	zM 279.948,318.321L 279.948,302.459L 339.82,310.389 	zM 279.948,302.459L 279.948,286.595L 339.82,294.526 	zM 279.948,286.595L 279.948,270.732L 339.82,278.665 	zM 279.948,223.143L 279.948,207.28L 339.82,215.211 	zM 399.69,302.459L 399.69,318.321L 339.82,310.389 	zM 399.69,286.595L 399.69,302.459L 339.82,294.526 	zM 399.69,270.732L 399.69,286.595L 339.82,278.665 	zM 399.69,254.87L 399.69,270.732L 339.82,262.80 	zM 399.69,239.005L 399.69,254.87L 339.82,246.937 	zM 399.69,223.143L 399.69,239.005L 339.82,231.075 	zM 399.69,207.28L 399.69,223.143L 339.82,215.211 	zM 279.948,381.773L 279.948,365.911L 339.82,373.843 	zM 279.948,365.911L 279.948,350.048L 339.82,357.979 	zM 279.948,350.048L 279.948,334.184L 339.82,342.116 	zM 279.948,413.50M 279.948,413.50L 279.948,397.638L 339.82,405.568 	zM 279.948,397.638L 279.948,381.773L 339.82,389.705 	zM 279.948,334.184L 279.948,318.321L 339.82,326.253 	zM 399.69,413.50M 399.69,397.638L 399.69,413.50L 339.82,405.568 	zM 399.69,381.773L 399.69,397.638L 339.82,389.705 	zM 399.69,365.911L 399.69,381.773L 339.82,373.843 	zM 399.69,350.048L 399.69,365.911L 339.82,357.979 	zM 399.69,334.184L 399.69,350.048L 339.82,342.116 	zM 399.69,318.321L 399.69,334.184L 339.82,326.253 	zM 399.69,191.416L 399.69,207.28L 339.82,199.348 	zM 399.69,175.553L 399.69,191.416L 339.82,183.485 	zM 399.69,159.69L 399.69,175.553L 339.82,167.621 	zM 399.69,143.826L 399.69,159.69L 339.82,151.759 	z"  />
<glyph unicode="&#xe02c;" d="M 346.364,346.137L 315.126,315.456L 326.61,306.994 	zM 346.364,346.137L 377.405,374.88L 364.629,384.324 	zM 328.947,357.02L 302.579,321.973L 315.234,315.378 	zM 328.947,357.02L 355.293,390.153L 341.213,397.514 	zM 326.729,306.907L 336.765,296.783L 362.121,332.505 	zM 397.136,356.179L 385.968,367.478L 362.121,332.505 	zM 337.103,296.755L 345.453,285.209L 375.846,316.682 	zM 414.019,334.725L 404.731,347.614L 375.846,316.682 	zM 308.893,365.704L 288.095,327.048L 301.619,322.48 	zM 308.893,365.704L 329.866,402.478L 314.821,407.578 	zM 345.609,284.984L 352.642,272.597L 386.33,300.339 	zM 426.274,314.009L 418.447,327.834L 386.33,300.339 	zM 418.536,327.568L 413.97,334.749L 386.938,313.786 	zM 429.571,306.503L 426.016,314.233L 352.642,272.597 	zM 273.475,330.565L 291.848,412.994L 283.415,414.126 	zM 404.864,347.652L 396.633,356.832L 374.721,329.722 	zM 386.248,367.139L 377.028,375.399L 359.582,344.258 	zM 341.171,357.819L 365.478,383.935L 354.88,390.326 	zM 321.969,368.263L 341.177,397.513L 329.985,402.69 	zM 302.72,374.874L 315.657,407.419L 305.801,409.964 	zM 289.98,370.867L 273.695,330.143L 287.64,327.072 	zM 289.98,370.867L 306.714,409.724L 291.203,413.151 	zM 185.983,306.311L 197.467,314.773L 166.199,345.401 	zM 147.918,383.562L 135.144,374.118L 166.199,345.401 	zM 197.36,314.695L 210.014,321.29L 183.614,356.284 	zM 171.333,396.753L 157.256,389.392L 183.614,356.284 	zM 150.442,331.769L 175.828,296.10L 185.865,306.225 	zM 150.442,331.769L 126.58,366.717L 115.412,355.418 	zM 136.717,315.946L 167.141,284.526L 175.49,296.073 	zM 136.717,315.946L 107.816,346.851L 98.527,333.964 	zM 210.974,321.797L 224.499,326.365L 203.672,364.968 	zM 197.728,406.816L 182.681,401.716L 203.672,364.968 	zM 126.233,299.603L 159.951,271.914L 166.985,284.302 	zM 126.233,299.603L 94.099,327.072L 86.274,313.247 	zM 125.602,313.015L 98.577,333.988L 94.014,326.805 	zM 159.951,271.914L 86.533,313.471L 82.976,305.74 	zM 229.133,413.363L 220.698,412.232L 239.118,329.882 	zM 137.82,328.951L 115.916,356.071L 107.684,346.891 	zM 152.959,343.488L 135.521,374.636L 126.30,366.377 	zM 157.669,389.564L 147.068,383.173L 171.37,357.049 	zM 182.562,401.928L 171.37,396.751L 190.573,367.493 	zM 206.746,409.201L 196.892,406.657L 209.821,374.104 	zM 224.955,326.389L 238.898,329.46L 222.584,370.133 	zM 221.345,412.389L 205.833,408.962L 222.584,370.133 	zM 156.563,183.137L 152.042,196.64L 113.656,176.36 	zM 71.818,170.827L 76.848,155.758L 113.656,176.36 	zM 152.083,196.515L 149.705,210.55L 108.689,196.283 	zM 66.515,197.174L 69.162,181.512L 108.689,196.283 	zM 121.747,157.163L 163.162,170.352L 156.609,182.998 	zM 121.747,157.163L 81.238,145.326L 88.529,131.21 	zM 132.555,139.219L 171.518,158.536L 163.083,170.023 	zM 132.555,139.219L 94.326,121.339L 103.71,108.52 	zM 149.52,211.619L 149.343,225.852L 106.631,218.038 	zM 65.108,225.388L 65.305,209.501L 106.631,218.038 	zM 144.854,124.196L 181.324,147.821L 171.683,158.319 	zM 144.854,124.196L 108.892,102.178L 119.62,90.459 	zM 131.771,128.282L 103.701,108.574L 109.12,102.012 	zM 181.324,147.821L 119.487,90.773L 125.738,85.002 	zM 68.594,257.277L 67.062,248.907L 150.511,240.799 	zM 120.341,144.787L 88.063,131.891L 94.248,121.223 	zM 111.149,163.631L 76.47,156.277L 81.473,144.955 	zM 69.125,181.956L 71.925,169.899L 103.902,185.271 	zM 65.066,209.453L 66.529,197.209L 99.874,206.696 	zM 65.628,234.701L 65.00,224.542L 99.517,226.981 	zM 149.461,226.292L 150.843,240.459L 107.569,237.617 	zM 67.113,249.57L 65.574,233.758L 107.569,237.617 	zM 262.872,116.514L 248.594,116.509L 255.692,73.489 	zM 247.736,32.066L 263.621,32.076L 255.692,73.489 	zM 248.725,116.507L 234.617,118.695L 235.216,75.079 	zM 221.064,35.364L 236.761,32.924L 235.216,75.079 	zM 276.467,75.098L 277.127,118.713L 263.02,116.516 	zM 276.467,75.098L 274.909,32.94L 290.603,35.396 	zM 296.91,79.674L 291.013,122.88L 277.414,118.536 	zM 296.91,79.674L 301.801,37.775L 316.93,42.625 	zM 233.541,118.857L 219.94,123.19L 213.922,80.006 	zM 193.853,42.949L 208.987,38.115L 213.922,80.006 	zM 315.054,86.593L 304.312,128.767L 291.272,122.968 	zM 315.054,86.593L 324.586,45.537L 339.093,52.009 	zM 307.424,75.961L 316.877,42.634L 324.815,45.70 	zM 304.312,128.767L 338.753,51.982L 346.208,56.088 	zM 164.701,56.339L 172.158,52.239L 206.085,129.02 	zM 288.096,70.373L 289.809,35.17L 301.887,37.664 	zM 267.251,67.641L 263.012,31.88L 275.334,33.047 	zM 236.327,33.029L 248.65,31.874L 244.356,67.631 	zM 208.957,37.872L 221.035,35.387L 222.684,70.597 	zM 185.181,46.387L 194.619,42.58L 203.258,76.673 	zM 219.558,123.441L 206.512,129.228L 195.641,87.083 	zM 171.543,52.497L 186.059,46.038L 195.641,87.083 	zM 399.345,179.812L 360.957,199.844L 356.438,186.343 	zM 399.345,179.812L 436.152,159.335L 441.182,174.404 	zM 404.311,199.736L 363.295,213.754L 360.917,199.718 	zM 404.311,199.736L 443.838,185.087L 446.485,200.75 	zM 356.39,186.203L 349.838,173.555L 391.253,160.616 	zM 424.471,134.787L 431.762,148.902L 391.253,160.616 	zM 349.917,173.228L 341.482,161.741L 380.445,142.67 	zM 409.29,112.095L 418.674,124.915L 380.445,142.67 	zM 406.368,221.489L 363.658,229.055L 363.48,214.822 	zM 406.368,221.489L 447.696,213.077L 447.891,228.964 	zM 341.316,161.525L 331.677,151.026L 368.145,127.648 	zM 393.38,94.035L 404.108,105.753L 368.145,127.648 	zM 403.88,105.59L 409.299,112.15L 381.229,131.90 	zM 387.262,88.577L 393.513,94.35L 331.677,151.026 	zM 362.157,243.664L 445.938,252.482L 444.405,260.854 	zM 418.753,124.799L 424.937,135.468L 392.659,148.404 	zM 431.527,148.531L 436.53,159.853L 401.851,167.247 	zM 409.098,188.886L 441.075,173.476L 443.874,185.532 	zM 413.126,210.311L 446.471,200.783L 447.934,213.027 	zM 413.484,230.597L 448.00,228.119L 447.372,238.277 	zM 405.43,241.069L 362.157,243.664L 363.539,229.496 	zM 405.43,241.069L 447.426,237.335L 445.888,253.146 	z"  />
<glyph unicode="&#xe02d;" d="M 64.00,323.375L 208.00,323.375L 208.00,265.625L 64.00,265.625zM 256.00,323.375L 448.00,323.375L 448.00,265.625L 256.00,265.625zM 64.00,128.375L 208.00,128.375L 208.00,73.625L 64.00,73.625zM 256.00,128.375L 448.00,128.375L 448.00,73.625L 256.00,73.625zM 64.00,225.875L 208.00,225.875L 208.00,169.625L 64.00,169.625zM 256.00,225.875L 448.00,225.875L 448.00,169.625L 256.00,169.625z"  />
<glyph unicode="&#x20;" horiz-adv-x="256" />
<glyph class="hidden" unicode="&#xf000;" d="M0,480L 512 -32L0 -32 z" horiz-adv-x="0" />
</font>
</defs>
</svg>
