<svg version="1.1" baseProfile="tiny" id="Layer_1" xmlns="http://www.w3.org/2000/svg" xmlns:xlink="http://www.w3.org/1999/xlink"
	 x="0px" y="0px" width="96px" height="20px" viewBox="0 0 96 20" overflow="inherit" xml:space="preserve">
<g>
	<polygon fill="#FFFFFF" points="18.55,19.797 0,19.797 0,0.02 3.273,0.02 3.273,16.808 18.55,16.808 18.55,19.797 	"/>
	<path fill="#FFFFFF" d="M43.379,9.608c2.252,0.765,3.378,2.43,3.378,5c0,3.459-2.494,5.189-7.482,5.189H23.519V0.02h15.984
		c2.003,0,3.58,0.492,4.727,1.475c1.148,0.983,1.722,2.294,1.722,3.933C45.952,7.23,45.094,8.625,43.379,9.608L43.379,9.608z
		 M39.553,8.296c0.91,0,1.671-0.259,2.281-0.777c0.612-0.518,0.916-1.149,0.916-1.895c0-0.8-0.272-1.435-0.82-1.908
		c-0.545-0.473-1.293-0.708-2.24-0.708H26.791v5.288H39.553L39.553,8.296z M39.294,16.808c2.73,0,4.096-0.888,4.096-2.667
		c0-1.905-1.192-2.856-3.577-2.856H26.791v5.523H39.294L39.294,16.808z"/>
	<polygon fill="#FFFFFF" points="72.507,19.797 51.8,19.797 51.8,0.02 71.984,0.02 71.984,3.008 55.072,3.008 55.072,8.058 
		66.66,8.058 66.66,11.046 55.072,11.046 55.072,16.808 72.507,16.808 72.507,19.797 	"/>
	<polygon fill="#FFFFFF" points="96,19.797 77.451,19.797 77.451,0.02 80.725,0.02 80.725,16.808 96,16.808 96,19.797 	"/>
	<path fill="#FFFFFF" d="M15.5,0v4.391c0,1.538,1.269,2.792,2.829,2.8l0.23,0.001V0H15.5L15.5,0z"/>
</g>
</svg>
